<?xml version="1.0" encoding="UTF-8" standalone="no"?>
<!-- Generator: Adobe Illustrator 15.0.0, SVG Export Plug-In . SVG Version: 6.00 Build 0)  -->

<svg
   version="1.1"
   id="Layer_1"
   x="0px"
   y="0px"
   width="800"
   height="800"
   viewBox="0 0 800 800"
   enable-background="new 0 0 1000 1000"
   xml:space="preserve"
   sodipodi:docname="st_glyph.svg"
   inkscape:version="1.1 (c68e22c387, 2021-05-23)"
   inkscape:export-filename="C:\Users\Joseph Rall\source\repos\StoneAwesomeWeb\sites\stonetrash\public\images\logo\glyph1024.png"
   inkscape:export-xdpi="122.88"
   inkscape:export-ydpi="122.88"
   xmlns:inkscape="http://www.inkscape.org/namespaces/inkscape"
   xmlns:sodipodi="http://sodipodi.sourceforge.net/DTD/sodipodi-0.dtd"
   xmlns="http://www.w3.org/2000/svg"
   xmlns:svg="http://www.w3.org/2000/svg"><defs
   id="defs3614">
	
	

		
		
	</defs><sodipodi:namedview
   id="namedview3612"
   pagecolor="#505050"
   bordercolor="#eeeeee"
   borderopacity="1"
   inkscape:pageshadow="0"
   inkscape:pageopacity="0"
   inkscape:pagecheckerboard="0"
   showgrid="false"
   fit-margin-top="1"
   fit-margin-left="1"
   fit-margin-bottom="1"
   fit-margin-right="1"
   inkscape:zoom="0.824"
   inkscape:cx="171.1165"
   inkscape:cy="385.92233"
   inkscape:window-width="1920"
   inkscape:window-height="1010"
   inkscape:window-x="-6"
   inkscape:window-y="-6"
   inkscape:window-maximized="1"
   inkscape:current-layer="Layer_1"
   height="800px" />
<g
   id="g3605"
   transform="translate(-99.999,-68.183848)">
			<g
   id="g3457">
				<path
   fill-rule="evenodd"
   clip-rule="evenodd"
   fill="#1a1a1a"
   d="m 499.997,150.106 c 193.688,0 350.694,157.009 350.694,350.69 0,193.681 -157.007,350.692 -350.694,350.692 -193.681,0 -350.69,-157.012 -350.69,-350.692 0,-193.68 157.009,-350.69 350.69,-350.69 z"
   id="path3451" />
				<path
   fill-rule="evenodd"
   clip-rule="evenodd"
   fill="#ffffff"
   d="m 499.997,173.978 c 180.5,0 326.825,146.32 326.825,326.819 0,180.502 -146.325,326.819 -326.825,326.819 -180.5,0 -326.819,-146.317 -326.819,-326.819 0,-180.5 146.32,-326.819 326.819,-326.819 z"
   id="path3453" />
				<circle
   fill-rule="evenodd"
   clip-rule="evenodd"
   fill="#cdcccc"
   cx="499.99701"
   cy="500.79599"
   r="316.05801"
   id="circle3455" />
			</g>
			<path
   fill-rule="evenodd"
   clip-rule="evenodd"
   fill="#1a1a1a"
   d="m 226.757,519.921 c -25.375,23.401 -41.868,58.883 -44.098,96.143 -0.905,15.052 0.921,29.346 7.103,41.826 13.353,26.961 41.691,37.935 71.171,45.813 -2.146,8.72 -4.301,17.44 -6.465,26.164 2.984,5.668 7,11.617 9.979,17.297 15.593,3.96 31.187,7.915 46.78,11.874 0.177,2.986 0.388,5.989 0.635,9.005 53.204,37.524 118.087,59.574 188.139,59.574 79.439,0 152.246,-28.345 208.883,-75.468 4.59,-32.609 5.859,-65.031 5.669,-91.659 -0.033,-4.528 -0.065,-9.065 -0.098,-13.606 3.931,2.258 7.856,4.524 11.787,6.791 20.923,12.02 48.499,9.762 67.2,-5.485 36.401,-29.691 41.65,-89.53 39.746,-133.187 -0.118,-2.597 -0.224,-5.196 -0.334,-7.788 -0.016,-0.199 -0.024,-0.383 -0.036,-0.578 0.109,-0.175 0.203,-0.334 0.301,-0.509 8.866,-14.886 15.214,-31.787 11.072,-49.251 -0.7,-2.924 -1.489,-5.811 -2.315,-8.637 -0.224,-0.667 -0.443,-1.329 -0.672,-1.994 -0.073,-0.224 -0.15,-0.454 -0.22,-0.686 0.082,-0.216 0.188,-0.444 0.273,-0.666 0.269,-0.663 0.537,-1.331 0.813,-2 0.191,-0.48 0.398,-0.95 0.603,-1.422 0.626,-1.487 1.294,-2.964 1.904,-4.46 3.112,-7.71 3.775,-15.566 2.042,-23.702 -1.285,-6.01 -3.805,-11.755 -5.66,-17.611 -1.664,-5.174 -2.583,-10.199 -2.095,-15.639 0.659,-7.229 -1.128,-14.018 -5.416,-19.887 -2.267,-3.097 -5.127,-5.355 -8.578,-7.007 -6.119,-2.939 -13.313,-3.701 -19.702,-6.15 -3.349,-1.28 -6.848,-2.204 -10.359,-2.896 -1.241,-0.244 -2.478,-0.486 -3.719,-0.732 -0.403,-0.081 -0.814,-0.161 -1.237,-0.24 -0.094,-0.411 -0.188,-0.818 -0.293,-1.235 -0.272,-1.227 -0.562,-2.456 -0.847,-3.691 -2.087,-9.009 -6.359,-17.582 -13.989,-23.12 -6.632,-4.812 -15.112,-6.596 -23.071,-4.447 -2.096,0.574 -4.105,1.414 -5.993,2.482 -6.995,4.024 -11.491,10.979 -13.155,18.799 -1.814,8.535 -0.126,17.491 3.576,25.301 0.839,1.758 1.669,3.524 2.511,5.284 -0.488,1.103 -0.997,2.199 -1.489,3.296 -4.22,9.318 -5.054,20.756 0.334,29.799 1.144,1.918 2.295,3.841 3.442,5.756 -6.897,9.123 -7.752,21.806 -5.579,33.093 -5.64,-8.454 -11.274,-15.654 -17.7,-22.298 -6.701,-6.93 -14.489,-12.999 -23.193,-18.288 2.792,-2.854 5.188,-6.208 7.089,-10.118 14.311,-29.439 12.613,-69.131 -1.209,-98.48 -1.937,-4.104 -3.873,-8.213 -5.811,-12.327 7.78,1.286 14.136,1.707 20.138,1.601 -9.191,-12.99 -14.115,-24.922 -19.227,-39.88 -2.437,-7.159 -4.74,-14.417 -7.743,-21.376 -7.698,-17.802 -21.415,-35.657 -37.695,-49.498 -26.505,-22.522 -46.163,-29.053 -66.618,-26.923 8.708,-11.173 23.238,-18.231 45.968,-16.553 -22.253,-32.996 -67.24,-31.213 -90.152,-15.574 -16.911,-21.395 -44.521,-24.998 -69.056,-13.287 12.986,2.919 20.349,10.824 25.844,20.774 -16.968,-9.621 -47.892,-6.98 -71.053,5.042 15.084,2.354 25.696,8.409 34.75,17.499 -10.636,-2.991 -35.443,-1.685 -59.501,13.924 -8.232,5.331 -15.334,12.093 -21.875,20.571 -8.23,10.653 -15.715,21.853 -22.917,33.218 -5.929,9.367 -11.674,18.833 -18.146,27.85 -6.879,9.584 -14.659,18.357 -23.594,26.068 -15.227,13.121 -30.625,23.671 -48.733,30.746 11.288,9.353 21.853,12.323 35.4,16.091 -8.779,19.873 -10.526,47.569 0.191,68.567 5.878,11.521 12.514,18.785 23.657,24.618 -60.659,29.688 -79.281,63.978 -97.357,123.489 z"
   id="path3459" />
			<path
   fill-rule="evenodd"
   clip-rule="evenodd"
   fill="#ffead5"
   d="m 822.388,503.409 c 8.72,-12.999 15.271,-28.78 11.637,-44.123 -3.922,-16.49 -5.428,-10.6 0.863,-26.18 8.117,-20.14 -8.521,-30.798 -6.434,-53.978 0.492,-5.53 -0.973,-9.405 -3.446,-12.791 -3.328,-4.551 -8.928,-5.312 -16.158,-7.227 v 0.002 c 0,0 11.658,12.162 10.913,25.315 -0.744,13.145 4.472,31.262 6.205,37.215 1.733,5.951 -6.449,15.884 -5.212,22.581 1.241,6.694 10.095,26.253 6.697,41.431 -1.452,6.498 -3.304,12.781 -5.065,17.755 z"
   id="path3461" />
			<path
   fill-rule="evenodd"
   clip-rule="evenodd"
   fill="#e8c6a3"
   d="m 319.309,524.051 c 15.686,4.004 31.38,8.013 47.068,12.028 5.151,-15.197 4.866,-44.198 -2.551,-69.017 12.105,19.06 16.046,45.567 14.573,72.093 l 111.062,28.378 6.069,-1.217 c 10.765,-2.161 21.271,-5.555 31.216,-10.222 27.522,-12.903 48.421,-34.371 61.108,-61.959 2.462,-5.351 4.562,-10.821 6.348,-16.4 -6.941,8.56 -15.186,13.829 -25.932,20.256 -0.102,-4.136 -0.773,-8.47 -1.645,-12.6 -9.899,15.008 -25.785,29.081 -43.392,28.89 -13.473,-0.138 -32.593,-9.586 -41.87,-19.696 0.03,1.678 0.157,4.51 0.82,7.558 -20.209,-7.699 -37.946,-22.052 -53.125,-42.033 -0.893,6.191 -2.031,11.458 -2.301,17.753 -25.378,-27.283 -37.762,-50.647 -45.477,-86.664 -10.346,0.928 -29.865,6.649 -42.265,11.554 -28.888,12.805 -51.829,29.519 -67.664,50.161 -21.631,28.217 -34.526,70.494 -39.055,101.28 -2.463,-3.397 -5.039,-13.595 -4.683,-18.307 -29.529,23.657 -52.454,109.705 -9.802,138.091 22.119,14.722 46.499,20.495 72.746,25.252 28.003,5.074 52.427,6.975 82.08,17.065 -2.85,-3.979 -5.552,-9.094 -6.659,-13.753 5.521,6.836 24.355,22.852 48.881,30.396 13.879,4.269 34.269,7.356 46.326,-1.767 2.916,-2.441 5.55,-5.518 6.783,-8.528 0.499,-1.232 0.881,-2.434 1.207,-3.613 -4.606,1.408 -13.18,1.811 -18.632,-0.077 20.422,-3.996 42.495,-19.178 36.292,-42.664 -3.076,2.747 -8.974,6.107 -19.393,5.876 12.132,-3.572 26.799,-18.47 23.344,-36.906 -1.05,-5.615 -4.004,-8.264 -8.862,-11.242 -5.231,4.329 -24.207,9.717 -31.136,2.267 -0.563,-0.61 1.935,-4.269 2.714,-8.944 2.384,-14.217 0.625,-37.138 -17.308,-40.922 -3.87,-0.817 -10.309,-0.704 -11.068,3.845 -1.45,8.676 -5.713,23.373 -9.25,30.192 -2.293,4.432 -2.204,4.362 -4.185,4.708 -9.884,1.705 -20.296,9.225 -24.105,18.812 -2.032,-1.872 -0.962,-6.25 -0.987,-8.997 -11.727,-9.77 -34.396,-25.688 -66.107,-33.228 -28.961,-6.881 -45.796,-3.617 -67.299,1.131 12.84,-8.613 35.571,-11.515 44.613,-11.942 7.155,-22.295 14.333,-44.589 21.503,-66.888 z m 356.769,-28.949 c 12.089,21.93 20.846,40.872 28.576,73.468 3.784,15.935 7.08,35.087 9.912,59.294 0.31,3.356 -0.064,4.162 1.591,5.814 17.18,17.098 51.982,21.659 70.684,6.413 33.292,-27.169 37.654,-84.729 35.909,-124.643 -5.029,3.467 -19.279,14.095 -24.337,14.774 10.799,-9.171 42.745,-40.901 35.611,-70.937 -3.922,-16.49 -5.428,-10.6 0.863,-26.18 8.117,-20.14 -8.521,-30.798 -6.434,-53.978 0.492,-5.53 -0.973,-9.405 -3.446,-12.791 -4.395,-6.01 -12.724,-5.414 -23.58,-9.564 -6.856,-2.633 -20.39,-4.846 -28.499,-3.402 -8.716,1.555 -16.537,3.435 -22.226,10.211 -5.672,6.763 -9.22,18.42 -4.297,26.681 9.859,-7.64 46.123,-10.999 54.334,5.568 -19.23,-4.396 -51.127,-1.359 -54.977,21.35 -1.18,6.964 2.205,16.717 6.742,18.233 9.127,-11.509 36.983,-17.965 52.413,-1.624 -59.221,-9.819 -59.221,57.588 -20.125,56.716 25.887,-0.588 14.929,-20.37 1.335,-20.296 8.431,-7.544 26.777,0.181 24.897,13.222 -2.607,18.146 -27.087,22.111 -42.041,17.114 -23.331,-7.818 -24.976,-35.115 -21.37,-48.146 -30.367,30.878 -27.002,108.495 -10.425,139.33 -36.186,-39.648 -18.494,-125.58 -7.288,-140.086 -12.801,-35.492 -45.874,-57.53 -80.802,-58.496 16.099,30.184 26.736,70.27 26.98,101.955 z"
   id="path3463" />
			<path
   fill-rule="evenodd"
   clip-rule="evenodd"
   fill="#d6a675"
   d="m 748.038,477.898 c -2.551,-8.114 -2.714,-17.206 -0.455,-25.462 -30.331,30.908 -26.962,108.476 -10.393,139.295 -36.186,-39.648 -18.494,-125.58 -7.288,-140.086 -12.801,-35.492 -45.874,-57.53 -80.802,-58.496 16.097,30.182 26.733,70.268 26.978,101.953 12.089,21.93 20.846,40.872 28.576,73.468 3.784,15.935 7.08,35.087 9.912,59.294 0.31,3.356 -0.064,4.162 1.591,5.814 17.18,17.098 51.982,21.659 70.684,6.413 8.134,-6.646 14.542,-15.104 19.56,-24.683 h -0.057 c -77.076,27.954 -58.834,-80.807 -35.434,-114.287 -0.663,-0.181 -1.302,-0.372 -1.925,-0.574 -11.893,-3.986 -18.143,-13.015 -20.947,-22.649 z m 21.484,-93.868 0.131,-0.118 c -4.293,-6.85 -4.565,-16.565 0.354,-29.991 -7.54,1.492 -14.258,3.652 -19.304,9.662 -5.672,6.763 -9.22,18.42 -4.297,26.681 4.253,-3.29 13.416,-5.792 23.116,-6.234 z m 4.66,40.402 c -9.184,1.394 -17.436,5.642 -21.676,10.984 -4.537,-1.516 -7.922,-11.27 -6.742,-18.233 2.107,-12.431 12.63,-18.97 24.87,-21.615 -2.674,12.815 -1.615,22.518 3.609,28.754 z m 26.196,56.174 c 0.839,4.838 -3.063,9.609 -15.584,9.902 -30.985,0.694 -37.406,-41.512 -9.241,-54.155 -8.846,19.737 -2.555,57.008 24.825,44.253 z"
   id="path3465" />
			<path
   fill-rule="evenodd"
   clip-rule="evenodd"
   fill="#ffead5"
   d="m 722.225,435.603 c -15.809,-25.987 -43.812,-41.646 -73.124,-42.454 1.456,2.732 2.868,5.554 4.235,8.447 28.568,2.594 47.876,12.221 68.889,34.007 z"
   id="path3467" />
			<path
   fill-rule="evenodd"
   clip-rule="evenodd"
   fill="#d6a675"
   d="m 319.309,524.051 c 15.686,4.004 31.38,8.013 47.068,12.028 5.151,-15.197 4.866,-44.198 -2.551,-69.017 12.105,19.06 16.046,45.567 14.573,72.093 l 111.062,28.378 6.069,-1.217 c 10.765,-2.161 21.271,-5.555 31.216,-10.222 l 1.294,-0.606 c -35.547,11.434 -75.023,-27.132 -72.697,-68.5 v 0 c -9.475,-7.28 -18.235,-16.285 -26.284,-26.878 -0.893,6.191 -2.031,11.458 -2.301,17.753 -25.378,-27.283 -37.762,-50.647 -45.477,-86.664 -10.346,0.928 -29.865,6.649 -42.265,11.554 -28.888,12.805 -51.829,29.519 -67.664,50.161 -21.631,28.217 -34.526,70.494 -39.055,101.28 -2.463,-3.397 -5.039,-13.595 -4.683,-18.307 -29.529,23.657 -52.454,109.705 -9.802,138.091 22.119,14.722 46.499,20.495 72.746,25.252 28.003,5.074 52.427,6.975 82.08,17.065 -2.85,-3.979 -5.552,-9.094 -6.659,-13.753 5.521,6.836 24.355,22.852 48.881,30.396 13.879,4.269 34.269,7.356 46.326,-1.767 2.916,-2.441 5.55,-5.518 6.783,-8.528 0.499,-1.232 0.881,-2.434 1.207,-3.613 -4.606,1.408 -13.18,1.811 -18.632,-0.077 16.815,-3.292 34.733,-14.152 37.093,-30.99 -37.256,33.517 -95.519,26.156 -125.434,-10.681 -25.308,3.972 -103.307,-16.528 -116.681,-39.71 -5.178,-8.972 -3.979,-20.182 7.67,-34.692 12.84,-8.613 35.571,-11.515 44.613,-11.942 7.156,-22.294 14.334,-44.588 21.504,-66.887 z"
   id="path3469" />
			<path
   fill-rule="evenodd"
   clip-rule="evenodd"
   fill="#ffead5"
   d="m 383.045,398.895 c -0.608,-2.499 -1.202,-5.056 -1.766,-7.695 -10.346,0.928 -29.865,6.649 -42.265,11.554 -28.888,12.805 -51.829,29.519 -67.664,50.161 -13.532,17.658 -23.649,40.825 -30.434,63.239 v 0.008 c 16.357,-40.834 41.246,-67.667 65.006,-85.278 28.088,-20.816 59.399,-28.281 77.123,-31.989 z"
   id="path3471" />
			<path
   fill-rule="evenodd"
   clip-rule="evenodd"
   fill="#ffead5"
   d="m 229.072,546.211 c -1.007,-3.756 -1.648,-7.816 -1.458,-10.323 -29.366,23.523 -52.189,108.749 -10.486,137.614 -11.133,-16.085 -15.426,-34.68 -14.984,-53.438 0.646,-27.795 10.603,-51.721 26.928,-73.853 z"
   id="path3473" />
			<path
   fill-rule="evenodd"
   clip-rule="evenodd"
   fill="#f78e2d"
   d="m 497.743,577.371 c 2.134,4.993 4.264,9.99 6.395,14.982 -3.217,9.379 -10.409,24.524 -12.533,33.032 1.536,2.368 6.492,5.868 9.509,14.677 2.396,7.052 1.591,18.315 -2.376,24.977 -1.072,1.798 -1.383,1.879 -0.567,4.064 3.424,9.221 2.287,21.35 -2.053,29.443 -3.361,6.226 -8.537,12.479 -14.337,15.747 -2.928,1.66 -1.453,4.383 -4.828,12.618 -3.066,7.487 -10.551,14.412 -17.45,17.912 -2.663,1.354 -6.694,1.908 -8.818,3.052 -5.135,14.14 -10.276,28.279 -15.413,42.423 -36.949,-9.525 -73.896,-19.051 -110.854,-28.58 -0.201,4.207 -0.016,9.326 0.5,15.071 50.61,32.178 110.663,50.826 175.082,50.826 73.747,0 141.785,-24.422 196.469,-65.629 11.604,-69.715 10.319,-155.498 -7.613,-212.578 -0.224,-1.77 -7.356,-21.603 -8.98,-25.329 -3.442,-7.878 -8.907,-18.156 -11.556,-22.449 -2.616,-4.228 -2.71,-4.498 -2.625,-7.005 0.537,-17.666 -2.885,-37.722 -8.996,-57.176 -3.902,-12.427 -10.629,-27.883 -16.415,-39.04 -0.492,21.854 -4.337,35.315 -19.771,59.383 -1.083,-4.769 -1.925,-9.631 -5.453,-14.899 -1.054,2.563 -2.136,5.042 -3.255,7.432 -9.926,73.645 -57.806,115.755 -114.062,127.046 z"
   id="path3475" />
			<path
   fill-rule="evenodd"
   clip-rule="evenodd"
   fill="#fbaf67"
   d="m 696.468,761.987 c 7.332,-44.067 9.518,-94.548 5.607,-140.149 -3.276,64.669 -6.12,108.513 -14.526,146.631 3.011,-2.112 5.985,-4.273 8.919,-6.482 z"
   id="path3477" />
			<path
   fill-rule="evenodd"
   clip-rule="evenodd"
   fill="#dd7726"
   d="m 500.166,682.063 c -0.14,5.957 -1.579,11.869 -4.049,16.483 -3.361,6.226 -8.537,12.479 -14.337,15.747 -2.928,1.66 -1.453,4.383 -4.828,12.622 -3.066,7.483 -10.551,14.408 -17.45,17.908 -2.663,1.354 -6.694,1.908 -8.818,3.052 l -15.413,42.423 -110.854,-28.58 c -0.201,4.207 -0.016,9.326 0.5,15.071 36.953,23.494 78.933,39.774 123.975,46.851 0.62,-23.552 4.789,-48.779 11.149,-57.898 15.365,-5.114 25.321,-17.272 28.28,-35.733 20.455,-13.404 17.449,-35.197 11.845,-47.946 z"
   id="path3479" />
			<path
   fill-rule="evenodd"
   clip-rule="evenodd"
   fill="#e8c6a3"
   d="m 745.516,352.75 c 9.403,-7.104 16.765,-8.421 33.521,-9.755 -3.561,-19.849 -16.089,-24.561 -24.654,-22.241 -10.422,2.813 -16.22,16.507 -8.867,31.996 z"
   id="path3481" />
			<path
   fill-rule="evenodd"
   clip-rule="evenodd"
   fill="#ffffff"
   d="m 310.662,590.909 c 7.394,0.407 12.616,1.249 19.473,2.982 2.368,0.603 3.727,1.526 5.601,0.041 1.341,-1.058 2.637,-2.474 3.888,-3.573 3.381,-3.193 6.765,-6.404 10.134,-9.603 0.867,-0.952 0.271,-0.098 0.863,-1.225 -7.131,0.74 -12.988,-0.191 -19.54,0.199 -5.758,0.346 -11.546,0.956 -17.371,1.9 -1.02,3.091 -2.037,6.186 -3.048,9.279 z m -11.339,145.102 c 0.704,-0.334 1.469,-0.79 2.378,-1.335 2.429,-1.481 4.623,-2.922 7.18,-4.203 2.246,-1.127 5.947,-2.022 7.737,-3.202 l 12.254,-10.03 c -2.4,-1.311 -23.956,-4.22 -28.481,-4.777 -4.977,-0.627 -10.079,-0.875 -15.076,-1.64 -3.306,-0.492 -11.056,-2.344 -14.03,-2.259 -1.089,3.979 -4.806,15.435 -4.802,18.975 z m 130.64,12.549 c -12.038,-1.746 -15.979,-4.627 -21.047,-5.713 -2.6,-0.55 -4.598,-0.488 -7.471,-1.294 -4.578,-1.278 -9.048,-2.853 -13.09,-4.375 -2.822,-1.069 -10.467,-4.862 -12.522,-5.073 -2.287,1.265 -7.031,7.026 -8.423,9.586 -2.761,5.078 -2.152,7.162 -6.113,10.319 l 62.443,16.117 z m -75.177,1.765 -45.404,-11.719 c 1.611,-1.771 4.234,-3.031 6.197,-4.505 l 12.749,-10.042 c 1.365,-1.066 5.056,-4.309 6.374,-5.037 3.577,-1.986 30.133,8.524 34.81,9.854 -0.932,2.056 -2.675,2.291 -5.344,6.942 -1.485,2.588 -2.378,5.46 -3.668,8.117 -1.487,3.068 -3.078,4.35 -5.566,6.287 z M 462.947,575.564 c 1.758,4.456 -1.109,8.346 -2.85,11.735 -1.341,2.604 1.3,4.847 3.267,11.764 2.256,7.931 1.079,14.974 2.553,20.085 1.491,5.118 6.438,7.886 8.511,2.148 2.655,-7.382 12.882,-35.547 13.098,-38.969 z m -71.344,50.172 c -5.019,-5.51 -29.5,-19.678 -36.973,-23.06 -4.256,-1.925 -10.193,-3.947 -14.103,-6.018 3.52,-3.789 7.164,-7.605 10.887,-11.593 14.689,-15.698 15.979,-5.587 32.182,-25.208 0.623,-0.749 2.854,-3.097 4.56,-4.87 l 64.012,17.606 c 0.167,0.244 0.313,0.505 0.456,0.83 1.355,3.027 2.112,6.03 1.945,9.77 -4.895,-9.859 -35.571,-17.33 -38.55,-2.173 -0.447,2.267 -0.506,5.399 -1.422,9.676 -1.988,9.314 -5.646,20.37 -7.167,23.214 -2.76,2.036 -8.141,3.419 -15.827,11.826 z m -46.951,-50.472 c 3.155,0.272 6.488,0.086 11.965,-2.071 1.471,-0.586 3.459,-2.827 5.322,-5.375 4.799,-6.526 6.708,-10.543 11.851,-16.776 l -45.876,-12.614 c -4.213,12.777 -8.429,25.558 -12.634,38.33 11.904,-1.079 16.986,-2.561 29.372,-1.494 z"
   id="path3483" />
			<path
   fill-rule="evenodd"
   clip-rule="evenodd"
   fill="#cdcccc"
   d="m 315.732,587.516 c 5.186,0.517 10.044,1.392 15.324,2.723 0.558,0.142 1.746,0.581 2.399,0.699 1.267,-1.013 2.398,-2.274 3.627,-3.365 1.432,-1.351 2.871,-2.714 4.292,-4.064 -3.347,-0.077 -6.683,-0.216 -10.073,-0.013 -4.936,0.293 -9.851,0.794 -14.732,1.51 -0.278,0.846 -0.554,1.672 -0.837,2.51 z m -41.663,125.045 c -0.608,2.055 -1.245,4.122 -1.825,6.185 -0.393,1.372 -1.133,3.85 -1.585,5.978 l 28.178,7.271 c 0.313,-0.183 0.606,-0.358 0.903,-0.545 2.47,-1.493 4.866,-3.061 7.452,-4.346 2.035,-1.021 5.479,-1.827 7.208,-2.894 l 6.113,-5.009 c -2.217,-0.378 -4.445,-0.729 -6.673,-1.066 -4.618,-0.695 -9.275,-1.362 -13.906,-1.933 -5.06,-0.635 -10.144,-0.887 -15.188,-1.651 -2.301,-0.347 -4.618,-0.867 -6.915,-1.299 -1.023,-0.207 -2.427,-0.488 -3.762,-0.691 z m 102.557,23.653 c -1.992,1.831 -5.11,5.814 -5.898,7.275 -1.359,2.515 -1.937,4.484 -2.836,6.331 l 53.331,13.754 3.833,-12.021 c -2.932,-0.577 -5.817,-1.318 -8.696,-2.274 -2.407,-0.802 -4.854,-1.852 -7.29,-2.519 -0.309,-0.077 -0.626,-0.159 -0.946,-0.228 -2.596,-0.558 -5.043,-0.615 -7.688,-1.355 -4.543,-1.262 -9,-2.815 -13.416,-4.479 -2.033,-0.766 -4.089,-1.754 -6.081,-2.642 -1.01,-0.447 -2.87,-1.333 -4.313,-1.842 z m -13.539,-5.546 c -0.818,1.033 -1.524,2.124 -2.187,3.271 -1.561,2.71 -2.439,5.578 -3.792,8.357 -0.899,1.844 -1.851,2.836 -3.18,3.919 l -35.876,-9.266 12.616,-9.92 c 1.591,-1.258 3.809,-3.41 5.516,-4.501 2.889,-0.073 12.709,3.207 15.29,4.073 3.44,1.147 6.848,2.368 10.272,3.593 0.434,0.157 0.885,0.315 1.341,0.474 z M 467.083,580.606 c -0.558,2.828 -2.089,5.42 -3.566,8.276 0.126,0.598 0.761,1.953 0.966,2.409 0.991,2.229 1.841,4.382 2.506,6.746 1.125,3.955 1.493,7.845 1.713,11.938 0.122,2.511 0.139,5.709 0.834,8.118 0.163,0.541 0.643,1.651 1.202,2.271 0.059,-0.131 0.104,-0.257 0.132,-0.342 2.224,-6.193 4.46,-12.383 6.643,-18.592 1.455,-4.162 2.908,-8.357 4.275,-12.561 0.319,-0.989 0.832,-2.458 1.263,-3.866 z m -62.602,30.754 c 0.769,-1.66 1.445,-3.772 1.986,-5.375 1.153,-3.463 2.195,-6.995 3.125,-10.535 0.476,-1.831 0.922,-3.683 1.313,-5.542 0.7,-3.234 0.797,-6.441 1.416,-9.611 1.31,-6.66 6.411,-10.104 12.803,-11.23 l -35.821,-9.854 c -0.977,1.005 -1.963,2.03 -2.797,3.039 -5.815,7.052 -10.466,11.771 -18.811,15.471 -5.941,2.633 -9.005,5.086 -13.53,9.924 -2.435,2.601 -4.885,5.192 -7.328,7.788 3.106,1.294 6.329,2.438 9.344,3.813 6.407,2.889 13.22,6.958 19.245,10.583 3.802,2.295 7.586,4.68 11.247,7.19 1.487,1.021 3.19,2.209 4.775,3.471 2.425,-2.344 5.025,-4.447 7.925,-6.25 1.533,-0.966 3.562,-1.885 5.108,-2.882 z m -37.075,-58.167 c -2.909,4.086 -5.491,8.297 -8.504,12.395 -0.675,0.932 -2.724,3.601 -3.727,4.117 -3.44,1.363 -6.445,2.129 -10.195,1.803 -5.365,-0.459 -10.439,-0.504 -15.79,-0.032 -2.842,0.252 -5.67,0.594 -8.502,0.92 3.227,-9.79 6.451,-19.601 9.686,-29.383 z"
   id="path3485" />
			<g
   id="g3505">
				<path
   fill-rule="evenodd"
   clip-rule="evenodd"
   fill="#1a1a1a"
   d="m 640.336,670.963 c -4.635,3.475 -10.344,5.232 -16.158,5.232 -5.29,0 -10.263,-1.074 -14.75,-3.971 l -3.243,-2.092 v -25.887 l 9.762,5.953 c 2.616,1.587 5.106,2.778 8.231,2.778 0.154,0 0.342,-0.142 0.423,-0.244 0.7,-0.732 0.847,-2.466 0.847,-3.422 0,-1.456 -0.306,-2.592 -1.136,-3.784 -1.754,-2.511 -5.509,-5.2 -7.796,-7.409 -6.409,-6.218 -9.749,-13.285 -9.811,-22.294 -0.053,-8.594 4,-16.374 11.414,-20.854 7.637,-4.602 17.199,-4.679 24.987,-0.374 l 3.666,2.03 v 10.539 H 680 v 23.1 h -14.375 v 60.966 h -25.289 z"
   id="path3487" />
				<polygon
   fill-rule="evenodd"
   clip-rule="evenodd"
   fill="#f78e2d"
   points="646.748,684.818 646.748,623.848 632.368,623.848 632.368,613.578 673.592,613.578 673.592,623.848 659.216,623.848 659.216,684.818 "
   id="polygon3489" />
				<path
   fill-rule="evenodd"
   clip-rule="evenodd"
   fill="#ffffff"
   d="m 613.143,613.851 c 4.187,-0.529 8.357,-1.14 12.521,-1.815 -0.713,1.363 -0.903,2.938 -0.757,4.473 -1.4,0.272 -2.783,0.537 -4.175,0.817 -2.49,0.501 -4.989,1.021 -7.459,1.611 -0.13,-1.025 -0.199,-2.087 -0.203,-3.19 -0.005,-0.636 0.028,-1.266 0.073,-1.896 z"
   id="path3491" />
				<path
   fill-rule="evenodd"
   clip-rule="evenodd"
   fill="#ffffff"
   d="m 635.481,630.745 c -1.335,1.347 -2.661,2.453 -4.447,3.552 -1.742,1.083 -3.634,2.182 -5.563,3.215 -1.469,-1.302 -3.036,-2.58 -4.533,-4.036 -0.118,-0.118 -0.231,-0.232 -0.35,-0.351 0.716,-0.118 1.437,-0.265 2.152,-0.447 3.471,-0.911 6.368,-2.657 8.821,-5.241 0.302,0.261 0.595,0.525 0.899,0.777 1.003,0.847 2.02,1.677 3.021,2.531 z"
   id="path3493" />
				<g
   id="g3503">
					<path
   fill-rule="evenodd"
   clip-rule="evenodd"
   fill="#ffffff"
   d="m 639.416,609.896 c -2.584,-1.021 -5.623,-1.754 -8.419,-1.331 -1.904,0.289 -3.654,1.136 -4.797,2.719 -1.123,1.563 -1.44,3.511 -1.237,5.399 0.272,2.462 1.399,4.821 2.844,6.808 1.314,1.802 3.003,3.328 4.704,4.765 1.839,1.563 3.731,3.039 5.444,4.736 4.415,4.354 6.425,9.021 6.385,15.267 -0.041,6.156 -1.823,12.162 -6.462,16.423 -3.724,3.414 -8.684,5.103 -13.7,5.103 -4.021,0 -7.837,-0.732 -11.259,-2.946 l -0.322,-0.203 V 655.67 c 3.667,2.242 7.183,3.735 11.581,3.735 1.944,0 3.775,-0.863 5.103,-2.279 1.953,-2.071 2.584,-5.033 2.584,-7.813 0,-7.926 -5.844,-10.904 -10.881,-15.796 -5.151,-5.009 -7.82,-10.433 -7.865,-17.729 -0.041,-6.34 2.84,-12.023 8.313,-15.324 5.677,-3.426 12.797,-3.446 18.571,-0.248 l 0.354,0.199 v 9.848 z"
   id="path3495" />
					<path
   fill-rule="evenodd"
   clip-rule="evenodd"
   fill="#cdcccc"
   d="m 638.671,607.816 v -6.396 c -5.146,-2.625 -11.381,-2.515 -16.369,0.492 -4.964,2.999 -7.523,8.121 -7.491,13.871 0.045,6.815 2.515,11.82 7.353,16.528 2.909,2.815 6.454,5.236 8.789,8.577 1.782,2.556 2.601,5.307 2.601,8.423 0,3.219 -0.781,6.567 -3.052,8.977 -1.64,1.745 -3.91,2.796 -6.323,2.796 -3.675,0 -6.808,-0.953 -9.9,-2.527 v 7.153 c 3.036,1.799 6.393,2.385 9.9,2.385 4.586,0 9.146,-1.538 12.549,-4.667 4.297,-3.936 5.896,-9.506 5.92,-15.178 0.045,-5.778 -1.778,-10.006 -5.871,-14.059 -1.688,-1.656 -3.557,-3.117 -5.351,-4.639 -1.819,-1.538 -3.585,-3.146 -4.985,-5.074 -1.611,-2.222 -2.844,-4.858 -3.153,-7.617 -0.252,-2.295 0.167,-4.659 1.547,-6.563 1.42,-1.969 3.548,-3.043 5.903,-3.405 2.623,-0.4 5.39,0.085 7.933,0.923 z"
   id="path3497" />
					<path
   fill-rule="evenodd"
   clip-rule="evenodd"
   fill="#ffffff"
   d="m 635.53,630.781 c -1.331,1.355 -2.661,2.458 -4.443,3.561 -1.746,1.082 -3.634,2.169 -5.57,3.219 -1.465,-1.311 -3.032,-2.588 -4.533,-4.045 -0.11,-0.118 -0.232,-0.228 -0.346,-0.342 0.729,-0.126 1.437,-0.265 2.16,-0.455 3.463,-0.92 6.356,-2.649 8.813,-5.237 0.293,0.257 0.599,0.517 0.899,0.773 1.01,0.85 2.015,1.676 3.02,2.526 z m -22.331,-16.885 c 4.175,-0.533 8.35,-1.147 12.513,-1.819 -0.704,1.367 -0.903,2.938 -0.766,4.472 -1.383,0.272 -2.779,0.541 -4.162,0.818 -2.494,0.496 -4.997,1.025 -7.467,1.611 -0.122,-1.021 -0.191,-2.084 -0.199,-3.19 -0.004,-0.64 0.021,-1.267 0.081,-1.892 z"
   id="path3499" />
					<path
   fill-rule="evenodd"
   clip-rule="evenodd"
   fill="#1a1a1a"
   d="m 613.118,615.596 c 3.764,-0.476 7.743,-1.029 11.963,-1.709 -0.065,0.313 -0.114,0.627 -0.146,0.944 -3.891,0.749 -8.13,1.587 -11.771,2.449 -0.029,-0.484 -0.037,-0.984 -0.045,-1.493 v -0.191 z m 9.037,19.007 c 2.999,-0.644 7.015,-2.071 10.738,-6.019 0.447,0.37 0.899,0.741 1.347,1.111 -0.993,1.025 -2.205,2.071 -4.045,3.214 -2.173,1.339 -4.248,2.49 -6.066,3.435 -0.659,-0.562 -1.318,-1.14 -1.974,-1.741 z"
   id="path3501" />
				</g>
			</g>
			<path
   fill-rule="evenodd"
   clip-rule="evenodd"
   fill="#fbaf67"
   d="m 334.01,764.192 c -3.196,-0.822 -6.395,-1.652 -9.593,-2.474 -0.201,4.207 -0.016,9.326 0.5,15.071 3.841,2.441 7.735,4.802 11.678,7.084 -0.986,-6.542 -1.841,-13.117 -2.585,-19.681 z"
   id="path3507" />
			<path
   fill-rule="evenodd"
   clip-rule="evenodd"
   fill="#9a6f39"
   d="m 536.901,119.815 c 15.548,-13.764 47.437,-23.407 70.451,-7.471 -14.352,2.211 -37.81,13.96 -41.826,37.724 17.151,-4.15 32.891,-2.478 47.258,3.153 26.912,10.547 53.585,37.681 65.084,64.317 5.229,12.097 11.161,33.702 17.188,44.475 -8.943,-0.108 -19.886,-1.664 -31.022,-2.832 39.282,22.605 48.853,96.375 20.248,132.141 -6.071,-2.502 -12.451,-4.48 -19.401,-5.892 -8.143,-1.654 -16.023,-2.529 -26.115,-2.617 -0.406,-6.834 -0.509,-9.951 -1.688,-15.454 2.653,0.912 9.77,5.151 14.445,13.265 6.746,-22.048 -1.078,-42.401 -6.86,-53.485 -1.538,-2.944 -2.426,-4.417 -3.357,-5.922 17.208,-9.8 20.077,-36.863 11.972,-55.322 -5.669,-12.927 -16.915,-24.677 -31.706,-26.184 -5.208,-0.525 -10.026,0.527 -14.177,2.596 2.197,-23.398 -10.855,-40.312 -29.329,-47.196 -23.173,-8.628 -54.407,0.57 -62.22,27.724 -3.153,-5.467 -5.794,-10.329 -12.809,-15.775 -16.686,-12.99 -43.032,-13.635 -59.746,-0.423 -9.927,7.847 -15.633,17.714 -15.896,27.912 -4.683,-2.718 -12.241,-5.693 -25.041,-3.257 -14.244,2.708 -25.877,14.361 -31.419,29.409 -9.182,24.965 -1.432,46.153 9.505,57.741 -10.74,25.33 -11.821,40.056 -8.297,59.212 2.148,-3.774 4.403,-6.606 5.892,-7.843 -0.024,2.689 0.604,7.399 1.324,11.816 h -0.028 c -10.903,0.985 -27.661,5.206 -40.847,10.207 h -0.004 c -14.134,-6.443 -34.247,-23.083 -34.766,-53.363 -0.382,-21.443 11.29,-38.442 11.422,-45.754 -8.144,1.086 -20.701,-1.005 -28.268,-5.692 59.192,-31.535 63.511,-64.215 99.813,-111.249 8.675,-11.23 19.161,-20.514 36.656,-26.453 25.409,-8.623 50.964,-3.489 57.485,1.874 -0.897,-16.424 -20.377,-30.8 -24.666,-32.837 17.816,-2.012 41.431,-0.059 58.17,14.878 0.952,-13.59 -9.062,-30.497 -19.364,-39.138 21.736,0.67 33.464,13.379 41.939,25.715 z"
   id="path3509" />
			<path
   fill-rule="evenodd"
   clip-rule="evenodd"
   fill="#7b5221"
   d="m 664.941,385.444 -0.062,-0.014 c -8.143,-1.654 -16.023,-2.529 -26.115,-2.617 -0.406,-6.834 -0.509,-9.951 -1.688,-15.454 2.653,0.912 9.77,5.151 14.445,13.265 5.953,-19.474 0.545,-37.612 -4.781,-49.227 8.415,8.156 13.904,18.274 16.532,30.418 1.469,6.793 1.978,15.42 1.669,23.629 z"
   id="path3511" />
			<path
   fill-rule="evenodd"
   clip-rule="evenodd"
   fill="#7b5221"
   d="m 558.914,192.003 c -18.677,0.476 -37.288,10.736 -43.07,30.831 -3.153,-5.467 -5.794,-10.329 -12.809,-15.775 -16.686,-12.99 -43.032,-13.635 -59.746,-0.423 -9.927,7.847 -15.633,17.714 -15.896,27.912 -4.683,-2.718 -12.241,-5.693 -25.041,-3.257 -14.244,2.708 -25.877,14.361 -31.419,29.409 -9.182,24.965 -1.432,46.153 9.505,57.741 -10.74,25.33 -11.821,40.056 -8.297,59.212 2.148,-3.774 4.403,-6.606 5.892,-7.843 -0.024,2.689 0.604,7.399 1.324,11.816 h -0.028 c -10.903,0.985 -27.661,5.206 -40.847,10.207 h -0.004 c -14.134,-6.443 -34.247,-23.083 -34.766,-53.363 -0.382,-21.443 11.29,-38.442 11.422,-45.754 -8.144,1.086 -20.701,-1.005 -28.268,-5.692 59.192,-31.535 63.511,-64.215 99.813,-111.249 8.675,-11.23 19.161,-20.514 36.656,-26.453 25.409,-8.623 50.964,-3.489 57.485,1.874 -0.897,-16.424 -20.377,-30.8 -24.666,-32.837 17.816,-2.012 41.431,-0.059 58.17,14.878 0.952,-13.586 -9.058,-30.479 -19.352,-39.125 18.563,11.385 33.154,33.988 30.819,60.482 -7.703,-7.772 -15.499,-9.021 -22.66,-9.245 6.526,15.662 10.786,35.315 7.601,52.466 9.417,-6.772 32.696,-13.812 48.182,-5.812 z"
   id="path3513" />
			<path
   fill-rule="evenodd"
   clip-rule="evenodd"
   fill="#c8995e"
   d="m 346.758,388.938 c -2.84,0.921 -5.627,1.89 -8.274,2.895 h -0.004 c -14.134,-6.443 -34.247,-23.083 -34.766,-53.363 -0.254,-14.284 4.846,-26.597 8.311,-35.394 -4.858,22.67 -0.671,42.877 8.504,58.941 5.892,10.311 14.545,19.226 26.229,26.921 z"
   id="path3515" />
			<path
   fill-rule="evenodd"
   clip-rule="evenodd"
   fill="#c8995e"
   d="m 591.857,105.481 c 5.399,1.278 10.645,3.496 15.495,6.863 -12.744,1.959 -32.658,11.442 -39.775,30.171 v 0.002 c 0,0.001 3.211,-24.545 24.28,-37.036 z"
   id="path3517" />
			<path
   fill-rule="evenodd"
   clip-rule="evenodd"
   fill="#c8995e"
   d="m 479.823,145.623 c -4.181,-13.998 -19.875,-25.464 -23.667,-27.265 2.997,-0.332 6.148,-0.56 9.401,-0.633 3.524,2.975 7.18,6.982 9.137,10.5 3.687,6.655 5.129,17.401 5.129,17.401 z"
   id="path3519" />
			<path
   fill-rule="evenodd"
   clip-rule="evenodd"
   fill="#c8995e"
   d="m 298.286,291.495 c -4.219,-1.007 -8.25,-2.508 -11.417,-4.472 52.373,-27.905 61.788,-56.704 88.416,-95.553 -17.51,39.362 -37.483,78.703 -76.999,100.025 z"
   id="path3521" />
			<path
   fill-rule="evenodd"
   clip-rule="evenodd"
   fill="#e8c6a3"
   d="m 433.76,247.653 c -4.832,-22.375 12.785,-41.935 33.091,-44.069 11.867,-1.241 23.38,2.335 31.722,9.328 7.058,5.923 12.083,15.664 12.998,24.792 -11.002,-6.582 -23.456,-11.66 -39.29,-9.646 -15.991,2.044 -29,8.076 -38.521,19.595 z"
   id="path3523" />
			<path
   fill-rule="evenodd"
   clip-rule="evenodd"
   fill="#d6a675"
   d="m 433.76,247.653 c -4.832,-22.375 12.785,-41.935 33.091,-44.069 0.502,-0.053 0.999,-0.098 1.503,-0.13 -10.85,8.447 -16.797,19.725 -18.209,31.075 -6.251,3.183 -11.738,7.496 -16.385,13.124 z"
   id="path3525" />
			<path
   fill-rule="evenodd"
   clip-rule="evenodd"
   fill="#ffead5"
   d="m 433.76,247.653 c -3.083,-14.27 2.968,-27.395 13.023,-35.589 -8.696,10.756 -10.864,19.928 -9.917,32.145 -1.07,1.086 -2.116,2.233 -3.106,3.444 z"
   id="path3527" />
			<path
   fill-rule="evenodd"
   clip-rule="evenodd"
   fill="#e8c6a3"
   d="m 520.153,238.354 c 0.398,-23.771 16.296,-41.061 42.09,-40.11 21.362,0.781 40.824,17.987 39.718,41.893 -6.161,-5.219 -16.565,-13.739 -38.461,-15.088 -22.343,-1.385 -37.594,8.9 -43.347,13.305 z"
   id="path3529" />
			<path
   fill-rule="evenodd"
   clip-rule="evenodd"
   fill="#d6a675"
   d="m 520.153,238.354 c 0.37,-22.366 14.478,-38.996 37.643,-40.092 -9.673,7.713 -15.394,18.345 -17.632,29.633 -9.721,3.089 -16.572,7.822 -20.011,10.459 z"
   id="path3531" />
			<path
   fill-rule="evenodd"
   clip-rule="evenodd"
   fill="#ffead5"
   d="m 520.153,238.354 c 0.224,-13.489 5.444,-24.878 14.615,-32.042 -6.913,9.346 -10.237,19.434 -10.645,29.231 -1.614,1.055 -2.944,2.023 -3.97,2.811 z"
   id="path3533" />
			<path
   fill-rule="evenodd"
   clip-rule="evenodd"
   fill="#e8c6a3"
   d="m 388.575,257.964 c 8.073,-9.436 27.936,-14.687 35.276,4.696 -23.73,-8.95 -41.042,12.655 -31.923,38.568 l -7.804,10.982 c -8.987,-6.897 -11.192,-30.275 -8.747,-41.713 2.016,-9.404 6.472,-18.254 13.583,-24.644 8.866,-7.959 24.646,-12.519 37.693,-3.17 0.923,10.405 7.029,24.237 11.871,28.978 -18.284,3.685 -35.547,17.2 -41.282,23.96 -3.68,-10.683 -0.454,-20.388 6.496,-25.586 5.333,-3.979 12.858,-5.318 21.165,-2.433 2.385,0.84 4.724,2.437 6.38,0.726 1.284,-1.924 -2.319,-10.604 -8.256,-16.526 -10.774,-10.729 -29.524,-6.415 -34.452,6.162 z"
   id="path3535" />
			<path
   fill-rule="evenodd"
   clip-rule="evenodd"
   fill="#d6a675"
   d="m 388.575,257.964 c 8.073,-9.436 27.936,-14.687 35.276,4.696 -23.73,-8.95 -41.042,12.655 -31.923,38.568 l -7.804,10.982 c -8.987,-6.897 -11.192,-30.275 -8.747,-41.713 2.016,-9.404 6.472,-18.254 13.583,-24.644 3.345,-3.003 7.682,-5.526 12.471,-6.997 10.808,0.519 16.494,9.214 16.494,9.214 v 0.01 c -10.801,-5.588 -25.136,-0.881 -29.35,9.884 z"
   id="path3537" />
			<path
   fill-rule="evenodd"
   clip-rule="evenodd"
   fill="#ffffff"
   d="m 511.897,244.894 c 0.427,9.094 -3.833,16.833 -7.964,21.887 -1.139,1.404 -2.228,1.896 -3.497,2.669 -2.226,1.343 -5.025,2.663 -7.642,4.382 -2.962,1.947 -5.719,4.285 -7.973,5.498 -6.765,3.625 -17.234,3.078 -26.575,-0.69 -12.415,-5.033 -19.822,-14.626 -22.318,-24.461 9.29,-10.62 22.353,-18.327 36.937,-20.089 13.208,-1.608 27.12,1.399 39.032,10.804 z"
   id="path3539" />
			<path
   fill-rule="evenodd"
   clip-rule="evenodd"
   fill="#cdcccc"
   d="m 483.011,280.168 c -6.728,2.669 -16.228,1.918 -24.764,-1.528 -12.415,-5.033 -19.822,-14.626 -22.318,-24.461 4.01,-4.582 8.72,-8.612 13.946,-11.874 0.98,17.323 12.506,33.312 33.136,37.863 z"
   id="path3541" />
			<path
   fill-rule="evenodd"
   clip-rule="evenodd"
   fill="#ffffff"
   d="m 465.449,280.852 c -2.423,-0.521 -4.848,-1.259 -7.202,-2.211 -12.415,-5.033 -19.822,-14.626 -22.318,-24.461 0.726,-0.828 1.469,-1.634 2.238,-2.419 3.646,12.008 9.883,22.577 27.282,29.091 z"
   id="path3543" />
			<path
   fill-rule="evenodd"
   clip-rule="evenodd"
   fill="#ffffff"
   d="m 520.141,245.271 c 7.987,-6.97 20.211,-14.488 39.425,-14.579 11.593,-0.063 22.27,3.361 32.056,9.588 1.831,1.162 7.923,6.24 8.977,7.925 -6.307,16.711 -16.703,23.633 -23.584,26.536 -6.096,2.565 -11.385,3.412 -17.928,3.455 -6.759,0.051 -3.731,-2.537 -15.943,-7.55 -3.052,-1.247 -9.419,-2.728 -11.393,-4.083 -4.985,-3.413 -10.593,-12.652 -11.61,-21.292 z"
   id="path3545" />
			<path
   fill-rule="evenodd"
   clip-rule="evenodd"
   fill="#cdcccc"
   d="m 520.141,245.271 c 4.721,-4.114 10.917,-8.417 19.153,-11.279 -1.322,15.058 3.21,30.532 12.516,41.28 -1.619,-1.184 -4.057,-2.734 -8.667,-4.626 -3.052,-1.247 -9.419,-2.728 -11.393,-4.083 -4.984,-3.413 -10.592,-12.652 -11.609,-21.292 z"
   id="path3547" />
			<path
   fill-rule="evenodd"
   clip-rule="evenodd"
   fill="#ffffff"
   d="m 520.141,245.271 c 1.262,-1.099 2.633,-2.213 4.122,-3.31 0.818,9.342 4.236,18.203 9.64,25.626 -0.899,-0.348 -1.664,-0.688 -2.152,-1.025 -4.985,-3.412 -10.593,-12.651 -11.61,-21.291 z"
   id="path3549" />
			<path
   fill-rule="evenodd"
   clip-rule="evenodd"
   fill="#e8c6a3"
   d="m 608.964,268.171 c 16.943,-6.305 28.813,10.61 23.152,25.218 -1.029,2.649 -4.143,7.629 -6.689,8.562 -2.608,0.956 -4.952,-2.38 -8.854,-5.554 -5.493,-4.486 -11.287,-8.718 -18.14,-12.12 -1.465,-12.008 -1.737,-24.508 8.191,-33.419 2.999,-2.696 6.771,-4.504 11.206,-4.702 10.904,-0.48 20.011,7.554 24.41,13.838 5.493,7.827 9.473,19.206 8.846,31.248 -0.562,10.708 -6.12,21.292 -14.917,23.535 -2.763,-2.37 -5.249,-5.44 -7.479,-7.804 0.716,-1.009 1.444,-1.333 2.571,-2.535 6.909,-7.404 9.005,-18.435 5.477,-28.084 -3.561,-9.737 -14.786,-16.976 -27.319,-11.79 1.583,-13.493 20.085,-12.435 27.039,-5.099 -3.793,-6.498 -12.479,-9.401 -20.032,-7.389 -6.348,1.69 -10.733,6.211 -12.154,13.208 -1.115,5.522 1.038,4.242 4.692,2.887 z"
   id="path3551" />
			<path
   fill-rule="evenodd"
   clip-rule="evenodd"
   fill="#d6a675"
   d="m 608.964,268.171 c 16.943,-6.305 28.813,10.61 23.152,25.218 -1.029,2.649 -4.143,7.629 -6.689,8.562 -2.608,0.956 -4.952,-2.38 -8.854,-5.554 -5.493,-4.486 -11.287,-8.718 -18.14,-12.12 -1.465,-12.008 -1.737,-24.508 8.191,-33.419 2.999,-2.696 6.771,-4.504 11.206,-4.702 4.858,-0.214 9.366,1.268 13.257,3.526 -3.354,0.553 -6.132,1.296 -7.719,1.877 -2.308,-0.25 -4.68,-0.091 -6.942,0.517 -6.348,1.69 -10.733,6.211 -12.154,13.208 -1.115,5.522 1.038,4.242 4.692,2.887 z"
   id="path3553" />
			<path
   fill-rule="evenodd"
   clip-rule="evenodd"
   fill="#7b5221"
   d="m 516.149,254.42 c 2.047,5.306 5.041,9.568 6.823,11.642 -4.028,-0.456 -8.911,-0.039 -12.581,1.096 2.243,-3.087 3.695,-5.249 5.758,-12.738 z"
   id="path3555" />
			<path
   fill-rule="evenodd"
   clip-rule="evenodd"
   fill="#7b5221"
   d="m 591.063,280.614 -8.028,-2.977 c 3.313,-1.904 5.392,-3.707 8.041,-5.473 z"
   id="path3557" />
			<path
   fill-rule="evenodd"
   clip-rule="evenodd"
   fill="#e8c6a3"
   d="m 525.203,326.427 c -11.947,1.784 -24.699,-0.132 -33.84,-6.429 -26.375,-18.166 -3.668,-45.184 26.129,-48.252 47.79,-4.92 57.605,47.265 7.711,54.681 z"
   id="path3559" />
			<path
   fill-rule="evenodd"
   clip-rule="evenodd"
   fill="#ffead5"
   d="m 537.483,276.557 c 17.476,9.402 19.755,30.801 2.266,42.753 10.531,-12.727 7.557,-31.37 -2.266,-42.753 z"
   id="path3561" />
			<path
   fill-rule="evenodd"
   clip-rule="evenodd"
   fill="#d6a675"
   d="m 525.203,326.427 c -11.947,1.784 -24.699,-0.132 -33.84,-6.429 -26.375,-18.166 -3.668,-45.184 26.129,-48.252 1.412,-0.14 2.804,-0.234 4.15,-0.289 -13.306,5.664 -20.852,17.834 -20.295,28.782 0.684,13.399 13.386,24.99 35.167,23.436 -3.365,1.188 -7.12,2.13 -11.311,2.752 z"
   id="path3563" />
			<path
   fill-rule="evenodd"
   clip-rule="evenodd"
   fill="#ffead5"
   d="m 503.914,325.528 c -4.576,-1.153 -8.854,-2.982 -12.551,-5.53 -16.12,-11.104 -13.906,-25.525 -2.938,-35.742 -10.089,17.924 -0.672,32.936 15.489,41.272 z"
   id="path3565" />
			<path
   fill-rule="evenodd"
   clip-rule="evenodd"
   fill="#1a1a1a"
   d="m 474.7,264.57 c 16.748,-0.643 18.185,-27.014 -0.56,-26.243 -7.361,0.299 -11.764,4.651 -12.75,9.878 -1.438,7.562 3.799,16.727 13.31,16.365 z"
   id="path3567" />
			<path
   fill-rule="evenodd"
   clip-rule="evenodd"
   fill="#9a6f39"
   d="m 474.659,262.247 c 7.331,-0.279 11.092,-6.535 10.708,-12.242 -0.903,4.651 -4.523,8.873 -10.515,9.103 -6.616,0.25 -10.72,-5.104 -11.11,-10.531 l -0.041,0.202 c -1.176,6.221 3.124,13.773 10.958,13.468 z"
   id="path3569" />
			<path
   fill-rule="evenodd"
   clip-rule="evenodd"
   fill="#ffffff"
   d="m 481.53,249.539 c 6.384,-0.238 6.938,-10.294 -0.208,-10.001 -2.801,0.114 -4.488,1.78 -4.862,3.768 -0.549,2.882 1.444,6.376 5.07,6.233 z"
   id="path3571" />
			<path
   fill-rule="evenodd"
   clip-rule="evenodd"
   fill="#1a1a1a"
   d="m 559.154,260.894 c 16.761,-0.647 18.197,-27.018 -0.545,-26.249 -7.361,0.301 -11.78,4.659 -12.765,9.874 -1.436,7.557 3.793,16.733 13.31,16.375 z"
   id="path3573" />
			<path
   fill-rule="evenodd"
   clip-rule="evenodd"
   fill="#9a6f39"
   d="m 559.118,258.572 c 7.332,-0.285 11.101,-6.541 10.71,-12.248 -0.904,4.646 -4.521,8.868 -10.507,9.108 -6.628,0.248 -10.722,-5.119 -11.12,-10.539 l -0.041,0.208 c -1.172,6.21 3.129,13.773 10.958,13.471 z"
   id="path3575" />
			<path
   fill-rule="evenodd"
   clip-rule="evenodd"
   fill="#ffffff"
   d="m 565.982,245.861 c 6.393,-0.244 6.938,-10.289 -0.203,-9.998 -2.804,0.116 -4.488,1.772 -4.863,3.757 -0.541,2.881 1.449,6.377 5.066,6.241 z"
   id="path3577" />
			<path
   fill-rule="evenodd"
   clip-rule="evenodd"
   fill="#1a1a1a"
   d="m 433.418,190.709 c 14.807,-13.881 44.275,-16.174 64.992,-9.723 -20.32,-22.522 -58.001,-10.597 -64.992,9.723 z"
   id="path3579" />
			<path
   fill-rule="evenodd"
   clip-rule="evenodd"
   fill="#1a1a1a"
   d="m 528.381,182.229 c 16.602,-11.67 46.102,-9.835 65.719,-0.551 -16.985,-25.142 -55.962,-18.601 -65.719,0.551 z"
   id="path3581" />
			<path
   fill-rule="evenodd"
   clip-rule="evenodd"
   fill="#9a6f39"
   d="m 558.703,315.866 c 11.324,-13.813 3.678,-29.795 1.859,-32.518 5.359,0.024 10.526,-0.73 15.385,-2.729 17.514,6.405 36.234,16.282 53.117,35.917 12.089,14.056 19.979,31.211 19.637,50.826 -4.357,-5.572 -11.975,-10.056 -20.987,-11.666 3.922,19.914 9.143,58.626 -4.334,80.898 -0.911,-1.611 -3.979,-11.521 -13.595,-16.323 0.529,11.538 -21.618,56.421 -32.979,62.301 -0.239,-10.205 -3.678,-17.419 -6.571,-21.285 -9.229,15.583 -26.485,42.902 -47.502,42.678 -27.995,-0.293 -45.845,-33.999 -51.214,-38.563 -2.226,5.988 -2.108,14.785 -0.604,19.647 -9.033,-3.992 -38.579,-34.581 -46.139,-48.004 -2.305,4.987 -4.152,11.333 -5.144,18.199 -21.458,-24.27 -35.296,-77.753 -33.292,-101.88 -4.364,1.9 -6.439,4.264 -8.875,7.267 0.556,-19.822 7.432,-36.204 16.496,-48.948 12.468,-17.503 28.845,-29.309 49.72,-35.02 8.854,6.869 19.434,11.609 34.959,9.725 -5.683,8.81 -6.492,21.291 0.598,31.209 4.531,6.339 11.336,10.539 18.986,12.976 18.938,6.041 47.536,1.241 60.479,-14.707 z"
   id="path3583" />
			<path
   fill-rule="evenodd"
   clip-rule="evenodd"
   fill="#c8995e"
   d="m 690.319,289.189 c 15.345,31.826 14.363,76.636 -6.026,102.134 -2.47,-1.021 -5.013,-1.959 -7.601,-2.797 21.212,-28.314 21.652,-63.574 13.627,-99.337 z"
   id="path3585" />
			<path
   fill-rule="evenodd"
   clip-rule="evenodd"
   fill="#7b5221"
   d="m 504.964,499.161 c -17.825,-9.532 -29.328,-30.253 -33.446,-33.757 -2.226,5.988 -2.108,14.785 -0.604,19.647 -9.033,-3.992 -38.579,-34.581 -46.139,-48.004 -2.305,4.987 -4.152,11.333 -5.144,18.199 -21.458,-24.27 -35.296,-77.753 -33.292,-101.88 -4.364,1.9 -6.439,4.264 -8.875,7.267 0.556,-19.822 7.432,-36.204 16.496,-48.948 12.468,-17.503 28.845,-29.309 49.72,-35.02 8.854,6.869 19.434,11.609 34.959,9.725 -5.683,8.81 -6.492,21.291 0.598,31.209 4.531,6.339 11.336,10.539 18.986,12.976 16.843,5.365 41.347,2.171 55.65,-9.841 -16.557,34.587 -73.991,43.036 -112.939,15.432 -3.607,43.579 8.274,70.717 20.06,93.699 4.732,-11.741 10.589,-16.889 15.348,-21.58 -5.542,30.581 12.608,64.839 28.622,90.876 z"
   id="path3587" />
			<g
   id="g3597">
				<path
   fill-rule="evenodd"
   clip-rule="evenodd"
   fill="#1a1a1a"
   d="m 424.126,340.86 c 0.657,6.358 4.531,6.686 5.633,0.116 0.743,-4.405 3.573,-9.53 6.413,-10.712 7.703,36.586 36.194,81.962 85.209,77.844 45.438,-3.825 60.823,-50.492 65.234,-67.053 2.421,1.917 2.576,5.957 4.231,7.631 2.568,2.629 6.385,-0.073 4.444,-4.97 -3.472,-8.815 -8.862,-13.163 -18.03,-13.871 -2.702,-0.208 -5.135,0.159 -5.473,2.112 -0.647,3.823 4.87,1.501 10.123,5.078 -17.468,48.631 -125.423,46.869 -141.068,-9.591 1.833,-1.048 3.998,-1.664 5.845,-2.256 7.218,-2.348 4.02,-6.459 -1.658,-5.562 -4.559,0.712 -9.717,2.626 -13.951,6.533 -4.175,3.865 -7.464,9.708 -6.952,14.701 z"
   id="path3589" />
				<path
   fill-rule="evenodd"
   clip-rule="evenodd"
   fill="#cc4847"
   d="m 482.356,389.037 c 14.252,10.476 43.811,19.904 66.582,-0.889 -13.148,-11.979 -41.94,-13.033 -66.582,0.889 z"
   id="path3591" />
				<path
   fill-rule="evenodd"
   clip-rule="evenodd"
   fill="#b33535"
   d="m 482.356,389.037 c 6.295,4.63 15.597,9.056 25.977,10.754 -7.205,-10.718 8.569,-18.817 23.889,-19.637 -14.38,-3.127 -33.081,-0.598 -49.866,8.883 z"
   id="path3593" />
				<path
   fill-rule="evenodd"
   clip-rule="evenodd"
   fill="#ec8080"
   d="m 537.597,395.914 c 2.539,-1.239 5.033,-2.75 7.483,-4.569 -9.555,-8.138 -21.371,-10.463 -33.505,-8.868 11.251,1.382 20.752,7.075 26.022,13.437 z"
   id="path3595" />
			</g>
			<path
   fill-rule="evenodd"
   clip-rule="evenodd"
   fill="#c8995e"
   d="m 594.551,288.854 c 11.723,6.242 23.515,14.896 34.514,27.684 12.089,14.056 19.979,31.211 19.637,50.826 -4.357,-5.572 -11.975,-10.056 -20.987,-11.666 3.922,19.914 9.143,58.626 -4.334,80.898 -0.472,-0.834 -1.538,-3.931 -3.816,-7.389 10.949,-26.044 5.037,-64.191 -6.934,-87.193 8.797,0.191 16.427,1.996 22.587,5.814 -6.328,-24.271 -19.589,-40.745 -40.667,-58.974 z m 12.813,142.613 c -9.729,18.41 -21.854,35.722 -31.348,43.648 0.439,2.272 0.729,4.765 0.789,7.458 8.945,-4.628 24.578,-33.422 30.559,-51.106 z"
   id="path3599" />
			<path
   fill-rule="evenodd"
   clip-rule="evenodd"
   fill="#ffead5"
   d="m 713.447,618.469 c 0.371,3.035 0.745,6.156 1.119,9.396 0.31,3.356 -0.064,4.162 1.591,5.814 15.906,15.816 47.4,21.276 66.289,9.538 -34.839,8.109 -54.488,-6.958 -68.999,-24.748 z"
   id="path3601" />
			<path
   fill-rule="evenodd"
   clip-rule="evenodd"
   fill="#d6a675"
   d="m 745.516,352.75 c 4.98,-3.76 9.387,-5.904 14.925,-7.281 l -9.269,-23.434 c -8.314,4.514 -12.22,16.901 -5.656,30.715 z"
   id="path3603" />
		</g>

</svg>
