<?xml version="1.0" encoding="UTF-8" standalone="no"?>
<!-- Generator: Adobe Illustrator 15.0.0, SVG Export Plug-In . SVG Version: 6.00 Build 0)  -->

<svg
   version="1.1"
   id="Layer_1"
   x="0px"
   y="0px"
   width="683.82483"
   height="998.64868"
   viewBox="0 0 683.82483 998.64868"
   enable-background="new 0 0 1000 1000"
   xml:space="preserve"
   sodipodi:docname="logo-full.svg"
   inkscape:version="1.2 (dc2aedaf03, 2022-05-15)"
   inkscape:export-filename="logo-full.png"
   inkscape:export-xdpi="71.878059"
   inkscape:export-ydpi="71.878059"
   xmlns:inkscape="http://www.inkscape.org/namespaces/inkscape"
   xmlns:sodipodi="http://sodipodi.sourceforge.net/DTD/sodipodi-0.dtd"
   xmlns="http://www.w3.org/2000/svg"
   xmlns:svg="http://www.w3.org/2000/svg"><defs
   id="defs195">
		
		
	
			
			
		
				
				
				
				
				
				
				
				
				
				
				
				
				
				
				
				
				
				
				
				
				
				
				
				
				
				
				
				
				
				
				
				
				
				
				
				
				
				
				
				
				
				
				
				
				
				
				
				
				
				
				
				
				
				
				
				
				
				
				
				
				
				
				
				
				
				
				
				
				
				
				
				
				
				
				
				
				
				
			</defs><sodipodi:namedview
   id="namedview193"
   pagecolor="#505050"
   bordercolor="#eeeeee"
   borderopacity="1"
   inkscape:showpageshadow="0"
   inkscape:pageopacity="0"
   inkscape:pagecheckerboard="0"
   inkscape:deskcolor="#505050"
   showgrid="false"
   inkscape:zoom="0.4145"
   inkscape:cx="641.73703"
   inkscape:cy="756.33293"
   inkscape:window-width="1920"
   inkscape:window-height="1010"
   inkscape:window-x="-6"
   inkscape:window-y="1086"
   inkscape:window-maximized="1"
   inkscape:current-layer="Layer_1" />
	<g
   id="g1004"
   transform="matrix(1.1653478,0,0,1.1653478,-240.76516,-62.012376)"
   inkscape:export-filename=".\g1004.png"
   inkscape:export-xdpi="49.152"
   inkscape:export-ydpi="49.152"><path
     fill-rule="evenodd"
     clip-rule="evenodd"
     fill="#1a1a1a"
     d="m 245.698,437.021 c -22.386,20.648 -36.937,51.955 -38.904,84.825 -0.793,13.281 0.816,25.892 6.269,36.902 11.78,23.791 36.784,33.468 62.793,40.421 -1.898,7.695 -3.798,15.39 -5.709,23.08 2.637,5.001 6.171,10.254 8.803,15.259 13.757,3.491 27.515,6.982 41.274,10.474 2.468,41.251 11.896,85.262 33.948,121.745 3.326,-2.267 7.171,-4.854 11.326,-7.613 4.592,15.845 9.674,30.709 14.3,42.525 0.757,1.993 -4.226,8.057 -5.457,9.676 -3.67,4.847 -6.653,10.169 -10.292,15.035 -3.556,4.753 -7.033,9.55 -9.666,14.889 -3.038,6.156 -4.03,11.918 -4.271,18.717 -0.112,3.207 -0.085,6.445 -0.675,9.607 -1.292,6.934 -3.453,11.377 -1.003,18.559 4.364,12.797 17.712,14.453 29.287,11.89 1.149,-0.256 2.299,-0.513 3.449,-0.769 3.255,1.822 7,2.722 10.708,2.938 4.138,0.236 9.367,-0.614 13.346,-2.014 4.628,3.328 10.382,4.565 16.014,4.594 5.101,0.024 10.095,-1.091 14.256,-4.094 9.825,7.967 28.884,7.816 40.188,3.801 17.922,-6.377 20.207,-28.369 10.071,-42.489 -0.193,-1.505 -0.264,-3.027 -0.313,-4.541 -0.354,-10.51 -2.673,-18.978 -5.564,-28.963 -1.534,-5.302 -1.372,-9.196 -0.509,-14.588 2.057,-12.87 -0.413,-26.013 1.868,-38.721 2.621,-14.632 5.045,-29.309 7.058,-44.039 2.997,-2.177 6.098,-4.305 9.34,-6.363 2.165,27.71 5.921,55.362 8.171,83.073 0.285,3.544 0.31,6.799 -0.858,10.209 -11.949,34.781 -0.858,68.855 41.117,66.455 4.769,-0.269 9.44,-1.16 14.177,-1.652 20.906,9.054 39.791,8.65 61.897,10.771 1.485,0.143 2.734,0.529 4.118,1.063 10.604,4.098 23.006,6.16 34.273,4.093 11.381,-2.083 21.545,-8.211 25.228,-19.706 1.925,-6.006 2.702,-12.65 1.766,-18.917 5.493,-4.63 7.113,-12.544 5.347,-19.319 0.11,-3.813 0.212,-7.625 0.317,-11.438 0.18,-6.597 -2.466,-13.766 -8.166,-17.465 -2.364,-20.198 -20.707,-13.83 -34.811,-13.912 -8.256,-0.049 -19.178,-5.574 -27.312,-7.869 -7.397,-2.087 -15.193,-2.922 -22.863,-3.048 -0.009,0 -0.021,0 -0.028,0 0.154,-0.334 0.305,-0.667 0.455,-1.005 6.653,-14.925 14.201,-29.427 21.313,-44.133 2.665,2.775 5.221,5.709 7.602,8.773 39.697,-46.013 47.095,-134.859 46.68,-192.692 -0.024,-4 -0.054,-8 -0.086,-12 3.471,1.99 6.934,3.988 10.404,5.978 18.457,10.612 42.786,8.626 59.286,-4.834 32.112,-26.196 36.747,-78.99 35.063,-117.507 -0.098,-2.287 -0.195,-4.575 -0.297,-6.864 -0.004,-0.171 -0.017,-0.342 -0.024,-0.515 0.089,-0.151 0.175,-0.295 0.265,-0.444 7.816,-13.13 13.424,-28.045 9.762,-43.453 -0.611,-2.58 -1.311,-5.133 -2.043,-7.622 -0.195,-0.584 -0.391,-1.17 -0.586,-1.753 -0.065,-0.202 -0.135,-0.405 -0.199,-0.606 0.077,-0.195 0.162,-0.393 0.24,-0.59 0.239,-0.588 0.479,-1.18 0.72,-1.768 0.171,-0.419 0.354,-0.834 0.529,-1.253 0.553,-1.314 1.151,-2.608 1.685,-3.926 2.742,-6.806 3.332,-13.737 1.798,-20.913 -1.131,-5.308 -3.349,-10.374 -5.001,-15.542 -1.452,-4.557 -2.27,-8.993 -1.839,-13.798 0.578,-6.376 -0.997,-12.362 -4.781,-17.546 -1.997,-2.732 -4.524,-4.72 -7.568,-6.181 -5.396,-2.594 -11.743,-3.27 -17.374,-5.424 -2.959,-1.133 -6.039,-1.943 -9.144,-2.554 -1.091,-0.215 -2.189,-0.435 -3.275,-0.647 -0.366,-0.073 -0.729,-0.142 -1.099,-0.215 -0.077,-0.362 -0.163,-0.722 -0.248,-1.084 -0.248,-1.086 -0.501,-2.171 -0.753,-3.257 -1.844,-7.947 -5.611,-15.513 -12.35,-20.398 -5.855,-4.248 -13.33,-5.819 -20.345,-3.92 -1.848,0.499 -3.63,1.239 -5.286,2.191 -6.177,3.542 -10.147,9.687 -11.612,16.577 -1.596,7.532 -0.114,15.436 3.153,22.323 0.74,1.554 1.473,3.111 2.218,4.665 -0.436,0.971 -0.879,1.939 -1.318,2.91 -3.711,8.219 -4.456,18.311 0.293,26.288 1.013,1.693 2.026,3.386 3.039,5.076 -6.075,8.042 -6.836,19.236 -4.92,29.199 -4.976,-7.46 -9.948,-13.814 -15.612,-19.671 -5.916,-6.118 -12.793,-11.465 -20.467,-16.136 2.462,-2.521 4.581,-5.479 6.258,-8.93 12.622,-25.968 11.129,-60.986 -1.074,-86.881 -1.705,-3.624 -3.418,-7.249 -5.123,-10.879 6.873,1.135 12.472,1.51 17.77,1.416 -8.109,-11.464 -12.455,-21.985 -16.96,-35.187 -2.152,-6.317 -4.187,-12.72 -6.836,-18.852 -6.791,-15.71 -18.9,-31.461 -33.26,-43.672 C 595.678,102.972 578.336,97.211 560.294,99.091 567.972,89.232 580.793,83.007 600.842,84.486 581.204,55.376 541.52,56.951 521.309,70.749 506.388,51.867 482.031,48.693 460.384,59.02 c 11.452,2.58 17.955,9.556 22.805,18.337 -14.972,-8.492 -42.249,-6.159 -62.693,4.437 13.306,2.083 22.668,7.418 30.662,15.444 -9.387,-2.637 -31.274,-1.487 -52.495,12.28 -7.261,4.71 -13.527,10.675 -19.301,18.154 -7.255,9.399 -13.865,19.279 -20.217,29.305 -5.231,8.264 -10.307,16.622 -16.012,24.566 -6.069,8.458 -12.929,16.199 -20.821,22.998 -13.428,11.583 -27.014,20.891 -42.991,27.128 9.959,8.254 19.279,10.868 31.232,14.199 -7.737,17.538 -9.284,41.968 0.173,60.496 5.182,10.16 11.043,16.577 20.872,21.71 -53.525,26.199 -69.948,56.453 -85.9,108.947 z"
     id="path6" /><path
     fill-rule="evenodd"
     clip-rule="evenodd"
     fill="#ffead5"
     d="m 771.195,422.458 c 7.694,-11.466 13.477,-25.393 10.262,-38.926 -3.454,-14.551 -4.781,-9.351 0.761,-23.098 7.162,-17.768 -7.515,-27.171 -5.668,-47.628 0.439,-4.865 -0.858,-8.289 -3.044,-11.277 -2.938,-4.018 -7.869,-4.689 -14.258,-6.374 v 0 c 0,0 10.287,10.73 9.632,22.331 -0.655,11.603 3.938,27.584 5.473,32.835 1.534,5.253 -5.692,14.01 -4.598,19.92 1.094,5.91 8.907,23.163 5.912,36.556 -1.282,5.733 -2.922,11.272 -4.472,15.661 z"
     id="path8" /><path
     fill-rule="evenodd"
     clip-rule="evenodd"
     fill="#e8c6a3"
     d="m 327.351,440.665 c 13.845,3.538 27.688,7.078 41.534,10.616 4.547,-13.414 4.291,-38.989 -2.258,-60.889 10.679,16.817 14.16,40.2 12.864,63.599 l 97.976,25.039 5.357,-1.075 c 9.501,-1.904 18.771,-4.899 27.543,-9.015 24.279,-11.385 42.717,-30.322 53.91,-54.657 2.169,-4.724 4.028,-9.558 5.604,-14.476 -6.124,7.548 -13.396,12.199 -22.885,17.869 -0.089,-3.646 -0.68,-7.471 -1.452,-11.112 -8.729,13.236 -22.75,25.655 -38.281,25.488 -11.88,-0.126 -28.752,-8.463 -36.933,-17.377 0.024,1.478 0.132,3.972 0.718,6.665 -17.825,-6.791 -33.472,-19.452 -46.869,-37.083 -0.788,5.46 -1.784,10.115 -2.026,15.666 -22.39,-24.072 -33.315,-44.684 -40.125,-76.465 -9.131,0.818 -26.349,5.867 -37.289,10.193 -25.486,11.302 -45.726,26.045 -59.692,44.261 -19.083,24.888 -30.461,62.188 -34.458,89.345 -2.173,-2.993 -4.445,-11.985 -4.132,-16.146 -26.052,20.868 -46.277,96.788 -8.648,121.833 19.515,12.984 41.024,18.083 64.181,22.274 24.703,4.476 46.249,6.156 72.412,15.059 -2.508,-3.516 -4.895,-8.023 -5.872,-12.142 4.877,6.038 21.482,20.17 43.132,26.827 12.241,3.764 30.23,6.481 40.865,-1.559 2.572,-2.16 4.893,-4.87 5.983,-7.527 0.444,-1.083 0.779,-2.148 1.064,-3.19 -4.063,1.245 -11.631,1.6 -16.437,-0.061 18.02,-3.532 37.492,-16.919 32.015,-37.643 -2.714,2.421 -7.917,5.379 -17.106,5.18 10.702,-3.149 23.643,-16.297 20.594,-32.561 -0.926,-4.952 -3.53,-7.287 -7.823,-9.92 -4.61,3.82 -21.353,8.581 -27.464,2.006 -0.505,-0.541 1.705,-3.768 2.396,-7.898 2.098,-12.54 0.551,-32.759 -15.275,-36.096 -3.416,-0.722 -9.094,-0.629 -9.764,3.387 -1.278,7.66 -5.036,20.624 -8.159,26.642 -2.026,3.902 -1.945,3.85 -3.692,4.15 -8.722,1.501 -17.904,8.134 -21.267,16.594 -1.796,-1.652 -0.851,-5.51 -0.875,-7.935 -10.345,-8.618 -30.341,-22.665 -58.317,-29.313 -25.554,-6.075 -40.406,-3.194 -59.377,0.993 11.326,-7.598 31.384,-10.153 39.36,-10.535 6.321,-19.668 12.644,-39.34 18.968,-59.011 z m 314.762,-25.541 c 10.674,19.35 18.393,36.066 25.212,64.822 3.341,14.064 6.246,30.951 8.749,52.309 0.268,2.963 -0.058,3.675 1.403,5.132 15.161,15.088 45.862,19.112 62.354,5.664 29.378,-23.967 33.224,-74.76 31.682,-109.965 -4.436,3.054 -17.009,12.433 -21.473,13.029 9.53,-8.085 37.708,-36.088 31.417,-62.582 -3.454,-14.549 -4.781,-9.353 0.761,-23.098 7.166,-17.768 -7.511,-27.171 -5.668,-47.628 0.439,-4.867 -0.858,-8.289 -3.044,-11.277 -3.873,-5.302 -11.226,-4.775 -20.801,-8.439 -6.059,-2.319 -17.988,-4.277 -25.146,-3.001 -7.69,1.371 -14.591,3.029 -19.608,9.011 -4.996,5.967 -8.134,16.25 -3.788,23.537 8.695,-6.74 40.69,-9.708 47.933,4.914 -16.963,-3.882 -45.101,-1.198 -48.502,18.829 -1.042,6.146 1.944,14.75 5.953,16.087 8.048,-10.152 32.633,-15.849 46.24,-1.432 -52.251,-8.659 -52.246,50.814 -17.762,50.035 22.844,-0.515 13.176,-17.958 1.18,-17.902 7.435,-6.653 23.629,0.161 21.969,11.67 -2.307,16.008 -23.905,19.507 -37.097,15.092 -20.581,-6.893 -22.03,-30.979 -18.852,-42.468 -26.795,27.236 -23.82,95.713 -9.192,122.919 -31.938,-34.983 -16.321,-110.793 -6.433,-123.588 -11.288,-31.311 -40.475,-50.761 -71.285,-51.613 14.204,26.629 23.587,61.988 23.798,89.943 z"
     id="path10" /><path
     fill-rule="evenodd"
     clip-rule="evenodd"
     fill="#d6a675"
     d="m 705.606,399.954 c -2.254,-7.166 -2.4,-15.177 -0.415,-22.458 -26.754,27.258 -23.779,95.689 -9.159,122.884 -31.938,-34.983 -16.321,-110.793 -6.433,-123.588 -11.288,-31.311 -40.475,-50.761 -71.285,-51.613 14.204,26.631 23.588,61.991 23.799,89.945 10.674,19.35 18.393,36.066 25.212,64.822 3.341,14.064 6.246,30.951 8.749,52.309 0.268,2.963 -0.058,3.675 1.403,5.132 15.161,15.088 45.862,19.112 62.354,5.664 7.182,-5.864 12.834,-13.33 17.261,-21.773 h -0.049 c -67.997,24.658 -51.908,-71.302 -31.267,-100.839 -0.577,-0.156 -1.147,-0.327 -1.7,-0.508 -10.482,-3.514 -16,-11.483 -18.47,-19.977 z m 18.95,-82.823 0.114,-0.098 c -3.784,-6.044 -4.024,-14.616 0.313,-26.463 -6.653,1.321 -12.581,3.225 -17.033,8.529 -4.996,5.967 -8.134,16.25 -3.788,23.537 3.752,-2.907 11.833,-5.108 20.394,-5.505 z m 4.11,35.649 c -8.098,1.231 -15.385,4.98 -19.12,9.686 -4.009,-1.336 -6.995,-9.94 -5.953,-16.087 1.863,-10.966 11.141,-16.731 21.939,-19.067 -2.359,11.306 -1.424,19.867 3.183,25.371 z m 23.104,49.557 c 0.749,4.272 -2.697,8.484 -13.745,8.732 -27.336,0.619 -33,-36.615 -8.15,-47.77 -7.81,17.409 -2.259,50.297 21.895,39.038 z"
     id="path12" /><path
     fill-rule="evenodd"
     clip-rule="evenodd"
     fill="#ffead5"
     d="m 682.828,362.633 c -13.948,-22.925 -38.655,-36.739 -64.514,-37.455 1.285,2.415 2.53,4.903 3.739,7.448 25.204,2.293 42.237,10.793 60.775,30.007 z"
     id="path14" /><path
     fill-rule="evenodd"
     clip-rule="evenodd"
     fill="#d6a675"
     d="m 327.351,440.665 c 13.845,3.538 27.688,7.078 41.534,10.616 4.547,-13.414 4.291,-38.989 -2.258,-60.889 10.679,16.817 14.16,40.2 12.864,63.599 l 97.976,25.039 5.357,-1.075 c 9.501,-1.904 18.771,-4.899 27.543,-9.015 l 1.14,-0.539 c -31.36,10.091 -66.183,-23.936 -64.14,-60.431 v -0.002 c -8.354,-6.419 -16.087,-14.366 -23.188,-23.71 -0.788,5.46 -1.784,10.115 -2.026,15.666 -22.39,-24.072 -33.315,-44.684 -40.125,-76.465 -9.131,0.818 -26.349,5.867 -37.289,10.193 -25.486,11.302 -45.726,26.045 -59.692,44.261 -19.083,24.888 -30.461,62.188 -34.458,89.345 -2.173,-2.993 -4.445,-11.985 -4.132,-16.146 -26.052,20.868 -46.277,96.788 -8.648,121.833 19.515,12.984 41.024,18.083 64.181,22.274 24.703,4.476 46.249,6.156 72.412,15.059 -2.508,-3.516 -4.895,-8.023 -5.872,-12.142 4.877,6.038 21.482,20.17 43.132,26.827 12.241,3.764 30.23,6.481 40.865,-1.559 2.572,-2.16 4.893,-4.87 5.983,-7.527 0.444,-1.083 0.779,-2.148 1.064,-3.19 -4.063,1.245 -11.631,1.6 -16.437,-0.061 14.832,-2.905 30.646,-12.492 32.723,-27.349 -32.866,29.574 -84.271,23.084 -110.655,-9.424 -22.337,3.504 -91.152,-14.579 -102.946,-35.03 -4.567,-7.918 -3.521,-17.806 6.765,-30.61 11.326,-7.598 31.384,-10.153 39.36,-10.535 6.32,-19.67 12.643,-39.342 18.967,-59.013 z"
     id="path16" /><path
     fill-rule="evenodd"
     clip-rule="evenodd"
     fill="#ffead5"
     d="m 383.591,330.252 c -0.543,-2.208 -1.064,-4.468 -1.563,-6.793 -9.131,0.818 -26.349,5.867 -37.289,10.193 -25.486,11.302 -45.726,26.045 -59.692,44.261 -11.942,15.576 -20.868,36.015 -26.855,55.786 v 0.01 c 14.435,-36.029 36.389,-59.699 57.351,-75.238 24.78,-18.368 52.409,-24.951 68.048,-28.219 z"
     id="path18" /><path
     fill-rule="evenodd"
     clip-rule="evenodd"
     fill="#ffead5"
     d="m 247.747,460.225 c -0.893,-3.318 -1.457,-6.899 -1.29,-9.113 -25.909,20.754 -46.045,95.946 -9.255,121.406 -9.82,-14.189 -13.604,-30.591 -13.218,-47.14 0.571,-24.522 9.354,-45.632 23.763,-65.153 z"
     id="path20" /><path
     fill-rule="evenodd"
     clip-rule="evenodd"
     fill="#f78e2d"
     d="m 484.779,487.707 c 1.882,4.409 3.762,8.816 5.644,13.225 -2.84,8.276 -9.184,21.63 -11.062,29.142 1.353,2.088 5.729,5.176 8.384,12.947 2.122,6.222 1.412,16.154 -2.09,22.034 -0.95,1.591 -1.218,1.656 -0.502,3.589 3.025,8.134 2.021,18.831 -1.817,25.973 -2.958,5.501 -7.523,11.007 -12.64,13.899 -2.586,1.461 -1.284,3.857 -4.262,11.133 -2.704,6.601 -9.306,12.708 -15.389,15.796 -2.354,1.192 -5.917,1.685 -7.784,2.694 -4.531,12.476 -9.065,24.951 -13.594,37.431 -32.601,-8.407 -65.2,-16.813 -97.799,-25.216 -1.147,23.808 11.741,80.681 25.842,105.225 20.311,-16.117 47.711,-30.94 66.079,-41.361 12.465,12.438 17.252,17.7 30.241,35.038 15.501,-13.285 29.859,-25.317 51.817,-37.557 15.494,11.572 27.242,21.879 40.377,38.916 6.323,-6.653 34.884,-33.822 44.856,-39.783 11.938,5.604 28.309,17.302 38.465,27.381 36.747,-47.673 49.292,-194.174 23.844,-275.167 -0.199,-1.566 -6.49,-19.062 -7.926,-22.345 -3.04,-6.956 -7.857,-16.021 -10.197,-19.808 -2.308,-3.737 -2.385,-3.976 -2.315,-6.179 0.472,-15.589 -2.543,-33.285 -7.935,-50.444 -3.442,-10.97 -9.375,-24.601 -14.481,-34.448 -0.436,19.279 -3.821,31.163 -17.448,52.395 -0.952,-4.211 -1.696,-8.502 -4.813,-13.151 -0.928,2.271 -1.88,4.454 -2.864,6.559 -8.755,64.975 -50.999,102.131 -100.631,112.082 z"
     id="path22" /><path
     fill-rule="evenodd"
     clip-rule="evenodd"
     fill="#fbaf67"
     d="m 623.25,732.426 c 2.267,1.953 4.391,3.897 6.295,5.786 28.345,-36.771 42.281,-132.32 35.502,-211.268 -5.148,101.73 -9.095,145.048 -41.797,205.482 z"
     id="path24" /><path
     fill-rule="evenodd"
     clip-rule="evenodd"
     fill="#dd7726"
     d="m 486.916,580.082 c -0.126,5.244 -1.394,10.465 -3.579,14.534 -2.958,5.501 -7.523,11.007 -12.64,13.899 -2.586,1.461 -1.284,3.857 -4.262,11.133 -2.704,6.601 -9.306,12.708 -15.389,15.796 -2.352,1.192 -5.917,1.685 -7.784,2.694 l -13.594,37.431 -97.799,-25.216 c -1.147,23.808 11.741,80.681 25.84,105.225 20.313,-16.117 47.715,-30.94 66.079,-41.361 8.689,8.671 13.647,13.851 20.251,22.066 -5.381,-21.912 -1.349,-69.73 7.479,-82.386 13.55,-4.509 22.333,-15.234 24.953,-31.522 18.041,-11.824 15.388,-31.055 10.445,-42.293 z"
     id="path26" /><path
     fill-rule="evenodd"
     clip-rule="evenodd"
     fill="#e8c6a3"
     d="m 703.373,289.54 c 8.297,-6.264 14.791,-7.436 29.573,-8.608 -3.142,-17.509 -14.196,-21.67 -21.749,-19.629 -9.191,2.486 -14.314,14.569 -7.824,28.237 z"
     id="path28" /><path
     fill-rule="evenodd"
     clip-rule="evenodd"
     fill="#ffffff"
     d="m 319.722,499.651 c 6.528,0.364 11.137,1.109 17.177,2.639 2.093,0.529 3.296,1.343 4.95,0.037 1.178,-0.933 2.321,-2.186 3.43,-3.156 2.98,-2.824 5.959,-5.648 8.942,-8.472 0.763,-0.842 0.236,-0.083 0.755,-1.084 -6.285,0.651 -11.458,-0.169 -17.236,0.177 -5.081,0.305 -10.185,0.849 -15.326,1.677 -0.898,2.728 -1.795,5.454 -2.692,8.182 z m -9.996,128.022 c 0.616,-0.301 1.29,-0.696 2.095,-1.185 2.145,-1.302 4.075,-2.571 6.335,-3.706 1.988,-0.997 5.249,-1.778 6.826,-2.824 l 10.811,-8.846 c -2.118,-1.16 -21.134,-3.724 -25.124,-4.22 -4.396,-0.546 -8.897,-0.773 -13.306,-1.44 -2.914,-0.439 -9.75,-2.071 -12.38,-1.994 -0.958,3.512 -4.238,13.615 -4.232,16.736 z m 115.257,11.071 c -10.626,-1.542 -14.101,-4.085 -18.573,-5.041 -2.289,-0.492 -4.055,-0.432 -6.587,-1.144 -4.041,-1.127 -7.983,-2.519 -11.552,-3.861 -2.486,-0.94 -9.239,-4.285 -11.045,-4.472 -2.014,1.114 -6.203,6.192 -7.43,8.451 -2.436,4.488 -1.906,6.315 -5.397,9.106 L 419.483,656 Z m -66.325,1.559 -40.059,-10.343 c 1.422,-1.563 3.731,-2.674 5.471,-3.976 l 11.247,-8.854 c 1.198,-0.944 4.452,-3.809 5.617,-4.455 3.154,-1.746 26.589,7.527 30.713,8.703 -0.824,1.814 -2.356,2.015 -4.716,6.12 -1.312,2.286 -2.096,4.821 -3.235,7.169 -1.313,2.702 -2.714,3.833 -4.913,5.542 z m 95.418,-154.189 c 1.55,3.939 -0.975,7.365 -2.513,10.357 -1.186,2.301 1.147,4.279 2.885,10.376 1.992,6.998 0.946,13.212 2.252,17.716 1.313,4.517 5.681,6.967 7.5,1.904 2.344,-6.514 11.371,-31.361 11.566,-34.389 z m -62.937,44.265 c -4.435,-4.863 -26.036,-17.363 -32.627,-20.346 -3.746,-1.696 -8.986,-3.479 -12.439,-5.306 3.109,-3.337 6.319,-6.714 9.605,-10.228 12.96,-13.855 14.099,-4.928 28.394,-22.239 0.547,-0.661 2.513,-2.729 4.018,-4.297 l 56.474,15.531 c 0.148,0.21 0.283,0.452 0.413,0.743 1.19,2.663 1.857,5.31 1.711,8.606 -4.325,-8.697 -31.382,-15.289 -34.009,-1.915 -0.393,2.002 -0.452,4.767 -1.257,8.541 -1.754,8.211 -4.982,17.964 -6.328,20.475 -2.432,1.8 -7.172,3.021 -13.955,10.435 z m -41.427,-44.524 c 2.783,0.24 5.726,0.071 10.553,-1.835 1.298,-0.513 3.056,-2.494 4.702,-4.738 4.23,-5.762 5.917,-9.304 10.454,-14.803 l -40.477,-11.13 c -3.715,11.273 -7.43,22.548 -11.147,33.821 10.508,-0.955 14.988,-2.261 25.915,-1.315 z"
     id="path30" /><path
     fill-rule="evenodd"
     clip-rule="evenodd"
     fill="#cdcccc"
     d="m 324.208,496.661 c 4.565,0.456 8.854,1.227 13.507,2.405 0.49,0.122 1.548,0.509 2.12,0.612 1.121,-0.891 2.12,-2.008 3.203,-2.962 1.263,-1.198 2.527,-2.395 3.79,-3.593 -2.956,-0.073 -5.9,-0.189 -8.891,-0.01 -4.35,0.261 -8.689,0.7 -13,1.333 -0.245,0.738 -0.487,1.476 -0.729,2.215 z m -36.768,110.32 c -0.535,1.819 -1.093,3.634 -1.609,5.457 -0.342,1.208 -0.997,3.397 -1.402,5.27 l 24.868,6.421 c 0.269,-0.159 0.535,-0.321 0.795,-0.48 2.179,-1.322 4.291,-2.693 6.573,-3.841 1.789,-0.896 4.834,-1.604 6.36,-2.543 l 5.396,-4.415 c -1.959,-0.342 -3.926,-0.651 -5.89,-0.948 -4.077,-0.614 -8.179,-1.2 -12.272,-1.709 -4.458,-0.554 -8.946,-0.777 -13.393,-1.448 -2.032,-0.31 -4.081,-0.77 -6.104,-1.156 -0.905,-0.172 -2.14,-0.432 -3.322,-0.608 z m 90.48,20.867 c -1.753,1.615 -4.502,5.131 -5.204,6.421 -1.203,2.214 -1.703,3.951 -2.499,5.583 l 47.05,12.142 3.385,-10.612 c -2.592,-0.513 -5.139,-1.163 -7.672,-2.002 -2.128,-0.708 -4.285,-1.64 -6.436,-2.222 -0.276,-0.073 -0.553,-0.142 -0.834,-0.203 -2.289,-0.492 -4.452,-0.537 -6.787,-1.188 -4.004,-1.123 -7.937,-2.494 -11.827,-3.955 -1.8,-0.679 -3.611,-1.554 -5.375,-2.335 -0.883,-0.392 -2.525,-1.173 -3.801,-1.629 z m -11.946,-4.887 c -0.716,0.907 -1.345,1.872 -1.927,2.881 -1.374,2.393 -2.155,4.924 -3.345,7.377 -0.79,1.624 -1.63,2.494 -2.806,3.45 l -31.651,-8.166 11.129,-8.761 c 1.396,-1.099 3.357,-3.007 4.86,-3.967 2.553,-0.065 11.214,2.832 13.495,3.597 3.031,1.018 6.046,2.087 9.06,3.161 0.392,0.143 0.786,0.285 1.185,0.428 z m 91.758,-132.394 c -0.49,2.492 -1.848,4.781 -3.151,7.306 0.107,0.525 0.675,1.719 0.85,2.114 0.871,1.969 1.624,3.874 2.216,5.954 0.995,3.495 1.324,6.925 1.507,10.534 0.11,2.222 0.122,5.033 0.741,7.161 0.138,0.48 0.565,1.461 1.056,2.007 0.053,-0.118 0.093,-0.229 0.122,-0.302 1.963,-5.465 3.933,-10.925 5.853,-16.402 1.29,-3.682 2.57,-7.377 3.774,-11.088 0.281,-0.869 0.736,-2.163 1.117,-3.41 z M 402.5,517.695 c 0.675,-1.461 1.271,-3.324 1.746,-4.74 1.027,-3.056 1.945,-6.173 2.759,-9.294 0.421,-1.619 0.816,-3.249 1.166,-4.887 0.61,-2.86 0.695,-5.69 1.245,-8.486 1.153,-5.878 5.66,-8.915 11.289,-9.906 l -31.602,-8.689 c -0.86,0.883 -1.729,1.792 -2.466,2.683 -5.127,6.211 -9.23,10.376 -16.593,13.642 -5.245,2.328 -7.947,4.488 -11.937,8.752 -2.148,2.299 -4.311,4.586 -6.468,6.879 2.739,1.139 5.583,2.148 8.244,3.353 5.652,2.56 11.66,6.148 16.978,9.354 3.354,2.022 6.695,4.114 9.922,6.336 1.309,0.899 2.82,1.949 4.211,3.063 2.139,-2.066 4.443,-3.931 6.995,-5.521 1.357,-0.846 3.139,-1.66 4.511,-2.539 z m -32.709,-51.314 c -2.567,3.604 -4.85,7.322 -7.503,10.932 -0.6,0.818 -2.409,3.184 -3.286,3.634 -3.042,1.2 -5.687,1.882 -9.003,1.595 -4.724,-0.407 -9.21,-0.454 -13.93,-0.032 -2.504,0.222 -5.001,0.522 -7.501,0.812 2.849,-8.643 5.697,-17.285 8.545,-25.928 z"
     id="path32" /><g
     id="g52">
					<path
   fill-rule="evenodd"
   clip-rule="evenodd"
   fill="#1a1a1a"
   d="m 610.579,570.283 c -4.086,3.061 -9.127,4.614 -14.25,4.614 -4.663,0 -9.058,-0.944 -13.013,-3.499 l -2.864,-1.852 v -22.835 l 8.602,5.249 c 2.315,1.407 4.517,2.453 7.275,2.453 0.126,0 0.289,-0.126 0.37,-0.211 0.619,-0.655 0.745,-2.178 0.745,-3.023 0,-1.286 -0.272,-2.287 -1.005,-3.341 -1.543,-2.21 -4.859,-4.578 -6.873,-6.535 -5.652,-5.489 -8.605,-11.727 -8.659,-19.661 -0.049,-7.593 3.528,-14.457 10.075,-18.404 6.734,-4.063 15.178,-4.126 22.042,-0.33 l 3.234,1.791 v 9.302 h 29.317 v 20.377 h -12.683 v 53.789 h -22.314 v -17.884 z"
   id="path34" />
					<polygon
   fill-rule="evenodd"
   clip-rule="evenodd"
   fill="#f78e2d"
   points="603.548,519.656 639.921,519.656 639.921,528.719 627.233,528.719 627.233,582.507 616.234,582.507 616.234,528.719 603.548,528.719 "
   id="polygon36" />
					<path
   fill-rule="evenodd"
   clip-rule="evenodd"
   fill="#ffffff"
   d="m 586.592,519.896 c 3.69,-0.472 7.373,-1.013 11.044,-1.607 -0.623,1.205 -0.802,2.593 -0.672,3.947 -1.225,0.24 -2.453,0.477 -3.683,0.725 -2.197,0.439 -4.398,0.899 -6.579,1.42 -0.11,-0.903 -0.171,-1.839 -0.175,-2.812 -0.005,-0.565 0.016,-1.123 0.065,-1.673 z"
   id="path38" />
					<path
   fill-rule="evenodd"
   clip-rule="evenodd"
   fill="#ffffff"
   d="m 606.294,534.793 c -1.172,1.196 -2.344,2.165 -3.918,3.142 -1.538,0.956 -3.207,1.925 -4.916,2.832 -1.289,-1.144 -2.673,-2.278 -3.991,-3.561 -0.105,-0.102 -0.208,-0.203 -0.31,-0.305 0.635,-0.106 1.27,-0.236 1.904,-0.403 3.052,-0.806 5.607,-2.335 7.776,-4.614 0.26,0.229 0.528,0.456 0.793,0.68 0.884,0.749 1.783,1.481 2.662,2.229 z"
   id="path40" />
					<g
   id="g50">
						<path
   fill-rule="evenodd"
   clip-rule="evenodd"
   fill="#ffffff"
   d="m 609.77,516.397 c -2.283,-0.892 -4.969,-1.542 -7.427,-1.168 -1.685,0.257 -3.218,1.001 -4.231,2.4 -0.997,1.376 -1.273,3.097 -1.091,4.757 0.236,2.173 1.237,4.261 2.507,6.01 1.16,1.596 2.649,2.938 4.15,4.208 1.619,1.371 3.288,2.682 4.806,4.179 3.894,3.841 5.664,7.951 5.632,13.464 -0.033,5.437 -1.607,10.73 -5.705,14.49 -3.279,3.011 -7.662,4.5 -12.081,4.5 -3.557,0 -6.917,-0.643 -9.94,-2.592 l -0.277,-0.179 v -9.676 c 3.231,1.969 6.332,3.283 10.218,3.283 1.709,0 3.328,-0.753 4.492,-1.994 1.729,-1.839 2.283,-4.451 2.283,-6.9 0,-6.991 -5.151,-9.619 -9.595,-13.937 -4.546,-4.415 -6.901,-9.204 -6.942,-15.638 -0.036,-5.595 2.503,-10.607 7.337,-13.525 5.005,-3.015 11.287,-3.035 16.382,-0.22 l 0.313,0.175 v 8.688 z"
   id="path42" />
						<path
   fill-rule="evenodd"
   clip-rule="evenodd"
   fill="#cdcccc"
   d="m 609.11,514.574 v -5.651 c -4.546,-2.312 -10.039,-2.218 -14.438,0.436 -4.382,2.645 -6.645,7.173 -6.612,12.235 0.037,6.014 2.214,10.429 6.486,14.579 2.567,2.494 5.696,4.622 7.756,7.576 1.574,2.255 2.291,4.68 2.291,7.431 0,2.844 -0.684,5.794 -2.686,7.922 -1.449,1.538 -3.459,2.466 -5.579,2.466 -3.251,0 -6.01,-0.847 -8.728,-2.229 v 6.307 c 2.665,1.591 5.627,2.104 8.728,2.104 4.045,0 8.069,-1.351 11.076,-4.109 3.78,-3.471 5.188,-8.395 5.216,-13.399 0.033,-5.095 -1.566,-8.825 -5.184,-12.398 -1.485,-1.461 -3.133,-2.755 -4.724,-4.098 -1.6,-1.354 -3.154,-2.771 -4.391,-4.468 -1.429,-1.969 -2.519,-4.288 -2.783,-6.722 -0.224,-2.034 0.146,-4.118 1.363,-5.798 1.249,-1.726 3.137,-2.682 5.212,-2.999 2.318,-0.353 4.759,0.075 6.997,0.815 z"
   id="path44" />
						<path
   fill-rule="evenodd"
   clip-rule="evenodd"
   fill="#ffffff"
   d="m 606.339,534.83 c -1.172,1.196 -2.348,2.165 -3.918,3.142 -1.543,0.956 -3.207,1.924 -4.916,2.832 -1.294,-1.144 -2.673,-2.275 -3.995,-3.561 -0.106,-0.098 -0.208,-0.199 -0.31,-0.302 0.639,-0.109 1.27,-0.235 1.904,-0.406 3.052,-0.802 5.611,-2.336 7.775,-4.614 0.265,0.231 0.529,0.46 0.798,0.684 0.884,0.744 1.779,1.476 2.662,2.225 z m -19.702,-14.896 c 3.69,-0.473 7.369,-1.014 11.043,-1.604 -0.626,1.2 -0.801,2.588 -0.671,3.943 -1.229,0.239 -2.454,0.479 -3.683,0.724 -2.197,0.443 -4.398,0.899 -6.58,1.425 -0.113,-0.908 -0.17,-1.844 -0.179,-2.816 -0.004,-0.566 0.021,-1.124 0.07,-1.672 z"
   id="path46" />
						<path
   fill-rule="evenodd"
   clip-rule="evenodd"
   fill="#1a1a1a"
   d="m 586.567,521.438 c 3.324,-0.423 6.832,-0.923 10.551,-1.514 -0.057,0.273 -0.093,0.554 -0.122,0.83 -3.434,0.668 -7.178,1.404 -10.388,2.165 -0.024,-0.432 -0.037,-0.866 -0.041,-1.314 z m 7.968,16.765 c 2.648,-0.565 6.196,-1.831 9.48,-5.314 0.395,0.33 0.789,0.659 1.184,0.989 -0.874,0.896 -1.94,1.818 -3.564,2.828 -1.912,1.188 -3.751,2.205 -5.354,3.031 -0.579,-0.496 -1.165,-1.005 -1.746,-1.534 z"
   id="path48" />
					</g>
				</g><path
     fill-rule="evenodd"
     clip-rule="evenodd"
     fill="#e8c6a3"
     d="m 662.979,836.283 c -2.01,0.179 -8.427,1.27 -9.948,0.216 2.421,-0.346 4.598,-1.005 6.689,-1.762 12.483,-4.513 16.544,-4.785 23.682,-2.612 0.158,-5.722 -2.719,-9.433 -6.096,-9.811 0.289,1.668 -0.184,2.335 -2.267,3.865 0.306,-1.77 0.31,-4.484 -4.179,-3.841 -7.536,1.078 -12.883,5.232 -18.66,4.703 5.57,-1.371 14.286,-9.721 23.141,-10.596 -0.306,-3.719 -3.984,-6.53 -6.71,-6.474 0.406,1.408 0.329,3.943 -1.107,4.862 0.396,-1.725 -0.012,-5.106 -4.036,-4.402 -6.083,1.063 -14.164,5.396 -20.54,3.401 3.666,-0.765 4.911,-1.444 7.202,-3.035 -9.042,-0.053 -26.848,-7.373 -29.912,-8.235 -6.445,-1.819 -13.517,-2.572 -20.369,-2.682 -14.27,-0.24 -13.391,-3.463 -8.35,-14.771 4.708,-10.56 13.908,-28.512 22.815,-47.241 -7.41,-6.466 -15.166,-11.581 -22.07,-14.714 -16.378,12.984 -31.71,27.913 -46.591,42.396 -11.234,-13.75 -23.967,-28.765 -38.473,-40.564 2.128,28.45 6.063,56.84 8.35,85.055 0.562,6.922 -0.187,10.771 -1.354,14.181 -9.396,27.355 -4.236,55.542 31.307,53.512 8.143,-0.468 15.353,-1.966 16.476,-1.827 21.195,9.811 39.014,8.858 61.088,10.97 1.872,0.18 3.72,0.518 6.714,1.677 8.659,3.349 19.381,5.354 28.983,3.597 7.683,-1.407 15.133,-5.139 17.672,-13.069 3.149,-9.827 1.957,-19.552 -3.609,-24.935 -1.391,5.554 -9.635,17.854 -13.676,18.277 -2.881,0.297 -13.253,-1.029 -18.448,-4.951 11.043,1.338 15.845,0.834 17.892,-0.065 1.729,-0.761 7.396,-9.204 10.339,-15.951 -5.054,-2.282 -13.229,-1.225 -19.938,0.55 -4.024,1.062 -13.969,2.303 -17.423,-1.953 6.429,1.131 12.313,-0.428 16.951,-1.961 13.281,-4.395 25.932,-2.441 32.564,7.686 4.398,-3.495 3.104,-12.675 -1.673,-14.819 -0.577,2.112 -2.104,4.114 -3.629,4.541 0.524,-1.904 1.277,-6.9 -0.802,-8.032 -4.013,-2.187 -7.28,-1.609 -12.005,-1.186 z"
     id="path54" /><path
     fill-rule="evenodd"
     clip-rule="evenodd"
     fill="#ffead5"
     d="m 675.785,845.499 c 0.524,-1.904 1.277,-6.9 -0.802,-8.032 -1.245,-0.679 -2.421,-1.09 -3.589,-1.322 -2.535,5.575 -3.47,8.398 4.391,9.354 z"
     id="path56" /><path
     fill-rule="evenodd"
     clip-rule="evenodd"
     fill="#ffead5"
     d="m 649.56,851.855 c 6.597,-1.681 14.462,-2.616 19.373,-0.399 -2.942,6.747 -8.61,15.19 -10.339,15.951 -2.047,0.899 -6.849,1.403 -17.892,0.065 5.069,-5 7.287,-9.729 8.858,-15.617 z"
     id="path58" /><path
     fill-rule="evenodd"
     clip-rule="evenodd"
     fill="#ffead5"
     d="m 660.322,811.182 c 1.099,-0.31 2.161,-0.574 3.166,-0.749 4.024,-0.704 4.432,2.678 4.036,4.402 -2.636,1.579 -4.032,4.212 -7.202,-3.653 z"
     id="path60" /><path
     fill-rule="evenodd"
     clip-rule="evenodd"
     fill="#ffead5"
     d="m 675.04,826.18 c 0.306,-1.77 0.31,-4.484 -4.179,-3.841 -0.212,0.032 -0.428,0.069 -0.639,0.102 -0.398,1.884 -0.599,3.829 0.13,4.712 0.648,0.788 2.04,0.732 4.688,-0.973 z"
     id="path62" /><path
     fill-rule="evenodd"
     clip-rule="evenodd"
     fill="#d6a675"
     d="m 609.496,747.929 c 1.604,-3.305 3.228,-6.669 4.839,-10.059 -7.41,-6.466 -15.166,-11.581 -22.07,-14.714 -16.378,12.984 -31.71,27.913 -46.591,42.396 -11.234,-13.75 -23.967,-28.765 -38.473,-40.564 2.128,28.45 6.063,56.84 8.35,85.055 0.562,6.922 -0.187,10.771 -1.354,14.181 -9.396,27.355 -4.236,55.542 31.307,53.512 8.143,-0.468 15.353,-1.966 16.476,-1.827 21.195,9.811 39.014,8.858 61.088,10.97 1.872,0.18 3.72,0.518 6.714,1.677 8.659,3.349 19.381,5.354 28.983,3.597 7.683,-1.407 15.133,-5.139 17.672,-13.069 0.342,-1.054 0.627,-2.107 0.867,-3.157 -13.685,10.774 -36.947,6.217 -52.34,-6.344 -19.401,0.997 -38.123,0.301 -55.127,-14.982 -44.608,4.065 -42.563,-18.986 -29.965,-41.35 11.26,-38.98 35.462,-65.914 51.539,-77.299 6.025,3.989 12.055,7.981 18.085,11.977 z"
     id="path64" /><path
     fill-rule="evenodd"
     clip-rule="evenodd"
     fill="#e8c6a3"
     d="m 383.282,868.99 c -2.366,6.632 -4.612,14.705 -0.313,21.895 1.798,3.004 5.593,4.297 9.475,4.521 3.607,0.211 8.722,-0.948 10.96,-2.06 -2.415,-11.222 -0.324,-12.964 4.087,-22.025 -1.599,8.061 -6.051,26.555 13.794,26.652 15.145,0.073 15.285,-15.845 13.729,-25.603 1.086,2.507 2.161,4.68 2.433,7.813 0.378,4.37 0.244,9.249 1.969,13.07 3.469,7.661 22.188,8.829 32.988,4.988 12.445,-4.419 11.595,-20.699 4.142,-29.143 -0.628,-2.856 -0.795,-5.603 -0.887,-8.333 -0.362,-10.909 -2.197,-16.26 -5.184,-26.575 -1.481,-5.118 -2.214,-9.811 -0.769,-18.852 2.138,-13.387 -0.486,-25.623 1.894,-38.899 1.687,-9.403 3.694,-21.118 5.563,-33.643 -8.096,6.697 -15.75,13.794 -23.92,21.109 -9.605,-12.288 -19.242,-24.617 -31.061,-35.9 -10.673,4.699 -30.599,17.049 -47.929,28.349 4.718,16.891 9.994,32.805 14.657,44.715 0.885,2.258 1.273,3.454 1.058,4.354 -1.153,4.789 -4.995,12.386 -5.381,23.775 -1.957,-0.574 -2.384,-7.414 -2.445,-8.977 -2.389,3.153 -8.081,12.077 -10.258,14.986 -3.203,4.284 -6.378,8.605 -8.724,13.358 -4.749,9.619 -2.405,16.712 -4.104,25.79 -0.641,3.454 -2.887,9.131 -1.361,13.606 2.58,7.552 11.796,6.848 17.908,5.493 -0.862,-6.996 -0.805,-16.835 7.679,-24.464 z"
     id="path66" /><path
     fill-rule="evenodd"
     clip-rule="evenodd"
     fill="#d6a675"
     d="m 383.282,868.99 c -2.366,6.632 -4.612,14.705 -0.313,21.895 1.798,3.004 5.593,4.297 9.475,4.521 3.607,0.211 8.722,-0.948 10.96,-2.06 -2.415,-11.222 -0.324,-12.964 4.087,-22.025 -1.599,8.061 -6.051,26.555 13.794,26.652 8.016,0.036 11.829,-4.403 13.409,-10.038 -11.198,3.914 -17.096,2.982 -13.883,-10.6 5.788,-24.483 11.454,-34.855 0.702,-60.503 -8.817,-26.452 -5.495,-23.019 3.591,-49.735 14.575,10.551 12.874,14.974 27.62,7.141 7.074,-3.764 14.152,-7.523 21.226,-11.283 1.06,-6.282 2.161,-13.09 3.215,-20.157 -8.098,6.697 -15.751,13.794 -23.922,21.109 -9.605,-12.288 -19.242,-24.617 -31.061,-35.9 -10.673,4.699 -30.599,17.049 -47.929,28.349 4.718,16.891 9.994,32.805 14.657,44.715 0.885,2.258 1.273,3.454 1.058,4.354 -1.153,4.789 -4.995,12.386 -5.381,23.775 -1.957,-0.574 -2.384,-7.414 -2.445,-8.977 -2.389,3.153 -8.081,12.077 -10.258,14.986 -3.203,4.284 -6.378,8.605 -8.724,13.358 -4.749,9.619 -2.405,16.712 -4.104,25.79 -0.641,3.454 -2.887,9.131 -1.361,13.606 2.58,7.552 11.796,6.848 17.908,5.493 -0.862,-6.998 -0.805,-16.837 7.679,-24.466 z m 54.632,17.819 c 6.337,7.674 24.917,11.486 41.667,5.847 -1.557,2.445 -3.906,4.427 -7.178,5.587 -10.799,3.841 -29.519,2.673 -32.988,-4.988 -0.876,-1.942 -1.273,-4.16 -1.501,-6.446 z"
     id="path68" /><path
     fill-rule="evenodd"
     clip-rule="evenodd"
     fill="#ffead5"
     d="m 374.252,756.352 c 3.212,11.507 6.683,22.555 10.046,32.198 -0.968,-7.361 -2.781,-25.077 -3.892,-36.182 -2.074,1.334 -4.131,2.665 -6.154,3.984 z"
     id="path70" /><path
     fill-rule="evenodd"
     clip-rule="evenodd"
     fill="#fbaf67"
     d="m 340.319,652.53 c -2.816,-0.725 -5.636,-1.452 -8.451,-2.177 -1.147,23.808 11.741,80.681 25.84,105.225 2.722,-2.16 5.572,-4.297 8.51,-6.404 -14.707,-27.714 -22.009,-62.366 -25.899,-96.644 z"
     id="path72" /><path
     fill-rule="evenodd"
     clip-rule="evenodd"
     fill="#ffead5"
     d="m 375.243,877.136 c -2.1,-0.476 -4.199,-0.952 -6.299,-1.428 -2.529,0.256 -5.056,0.509 -7.587,0.765 1.855,-4.724 4.11,-7.491 8.907,-7.397 2.534,0.048 6.989,2.2 4.979,8.06 z"
     id="path74" /><path
     fill-rule="evenodd"
     clip-rule="evenodd"
     fill="#ffead5"
     d="m 385.062,878.202 c 0.238,-3.361 1.146,-5.798 2.779,-7.027 0.999,-0.753 3.638,-1.354 6.146,-1.343 5.829,0.024 7.603,2.653 5.933,7.906 -5.027,-2.433 -9.978,-2.238 -14.858,0.464 z"
     id="path76" /><path
     fill-rule="evenodd"
     clip-rule="evenodd"
     fill="#ffead5"
     d="m 412.458,879.513 c -0.608,-8.753 6.272,-9.53 10.127,-9.359 3.756,0.167 8.722,1.925 6.942,8.989 -2.851,-1.653 -13.026,0.044 -17.069,0.37 z"
     id="path78" /><path
     fill-rule="evenodd"
     clip-rule="evenodd"
     fill="#ffead5"
     d="m 467.909,878.756 c 1.766,-0.261 3.53,-0.521 5.295,-0.777 -0.358,-4.154 -1.436,-9.009 -3.523,-11.174 -6.037,-6.262 -16.504,-4.028 -22.089,-0.646 -5.837,3.535 -6.826,12.198 -3.099,13.439 1.459,0.484 6.975,0.977 8.11,0.651 1.135,-0.326 15.306,-1.493 15.306,-1.493 z"
     id="path80" /><path
     fill-rule="evenodd"
     clip-rule="evenodd"
     fill="#1a1a1a"
     d="m 411.911,881.246 c 3.104,-1.941 11.2,-2.584 17.617,-2.104 -0.846,-4.333 -15.741,-5.509 -17.617,2.104 z"
     id="path82" /><path
     fill-rule="evenodd"
     clip-rule="evenodd"
     fill="#1a1a1a"
     d="m 375.243,877.136 c -6.075,-1.172 -10.28,-0.558 -13.886,-0.663 5.819,-5.847 13.066,-2.934 13.886,0.663 z"
     id="path84" /><path
     fill-rule="evenodd"
     clip-rule="evenodd"
     fill="#1a1a1a"
     d="m 385.062,878.202 c 0.006,0.004 8.616,-2.682 14.858,-0.464 -0.466,-3.434 -11.532,-6.697 -14.858,0.464 z"
     id="path86" /><path
     fill-rule="evenodd"
     clip-rule="evenodd"
     fill="#1a1a1a"
     d="m 467.909,878.756 c -4.763,-1.632 -9.733,-1.718 -14.034,-1.555 -3.449,0.13 -6,0.826 -6.975,-0.049 -3.601,-3.227 -1.347,-8.688 -0.513,-10.425 -5.397,5.273 -6.999,13.343 1.333,15.063 3.587,0.745 12.527,-2.371 20.189,-3.034 z"
     id="path88" /><path
     fill-rule="evenodd"
     clip-rule="evenodd"
     fill="#9a6f39"
     d="m 519.331,84.032 c 13.713,-12.14 41.842,-20.654 62.15,-6.594 -12.667,1.951 -33.358,12.321 -36.902,33.287 15.129,-3.658 29.017,-2.193 41.699,2.781 23.739,9.308 47.266,33.248 57.414,56.736 4.614,10.681 9.843,29.74 15.165,39.241 -7.894,-0.091 -17.545,-1.462 -27.364,-2.498 34.652,19.946 43.091,85.032 17.863,116.583 -5.358,-2.211 -10.994,-3.953 -17.126,-5.198 -7.183,-1.459 -14.136,-2.232 -23.031,-2.307 -0.366,-6.028 -0.451,-8.773 -1.493,-13.635 2.344,0.808 8.622,4.549 12.74,11.698 5.957,-19.448 -0.952,-37.398 -6.055,-47.184 -1.355,-2.6 -2.132,-3.898 -2.958,-5.223 15.182,-8.647 17.712,-32.526 10.563,-48.808 -5.005,-11.405 -14.925,-21.771 -27.97,-23.098 -4.603,-0.468 -8.847,0.456 -12.513,2.285 1.941,-20.646 -9.574,-35.559 -25.883,-41.636 -20.438,-7.615 -47.994,0.505 -54.879,24.457 -2.783,-4.818 -5.121,-9.106 -11.304,-13.92 -14.718,-11.455 -37.964,-12.026 -52.71,-0.371 -8.756,6.923 -13.792,15.627 -14.03,24.62 -4.13,-2.396 -10.797,-5.019 -22.09,-2.871 -12.567,2.389 -22.829,12.667 -27.72,25.952 -8.102,22.018 -1.259,40.717 8.395,50.94 -9.483,22.347 -10.435,35.337 -7.322,52.236 1.896,-3.328 3.884,-5.831 5.194,-6.923 -0.024,2.382 0.529,6.535 1.164,10.435 l -0.024,0.002 c -9.615,0.861 -24.4,4.586 -36.036,9.001 h -0.002 c -12.463,-5.688 -30.208,-20.372 -30.674,-47.077 -0.33,-18.921 9.963,-33.915 10.081,-40.373 -7.186,0.958 -18.264,-0.889 -24.935,-5.021 52.22,-27.82 56.031,-56.653 88.056,-98.146 7.652,-9.91 16.899,-18.095 32.345,-23.338 22.414,-7.607 44.958,-3.078 50.71,1.654 -0.787,-14.494 -17.977,-27.175 -21.757,-28.967 15.712,-1.78 36.55,-0.055 51.316,13.123 0.84,-11.993 -7.994,-26.912 -17.084,-34.532 19.177,0.594 29.525,11.802 37.007,22.689 z"
     id="path90" /><path
     fill-rule="evenodd"
     clip-rule="evenodd"
     fill="#7b5221"
     d="m 632.287,318.383 -0.057,-0.012 c -7.183,-1.459 -14.136,-2.232 -23.031,-2.307 -0.366,-6.028 -0.451,-8.773 -1.493,-13.635 2.344,0.808 8.622,4.549 12.74,11.698 5.261,-17.175 0.488,-33.177 -4.216,-43.426 7.422,7.2 12.269,16.123 14.588,26.839 1.298,5.995 1.745,13.602 1.469,20.843 z"
     id="path92" /><path
     fill-rule="evenodd"
     clip-rule="evenodd"
     fill="#7b5221"
     d="m 538.748,147.72 c -16.479,0.419 -32.897,9.468 -37.996,27.199 -2.783,-4.818 -5.121,-9.106 -11.304,-13.92 -14.718,-11.455 -37.964,-12.026 -52.71,-0.371 -8.756,6.923 -13.792,15.627 -14.03,24.62 -4.13,-2.396 -10.797,-5.019 -22.09,-2.871 -12.567,2.389 -22.829,12.667 -27.72,25.952 -8.102,22.018 -1.259,40.717 8.395,50.94 -9.483,22.347 -10.435,35.337 -7.322,52.236 1.896,-3.328 3.884,-5.831 5.194,-6.923 -0.024,2.382 0.529,6.535 1.164,10.435 l -0.024,0.002 c -9.615,0.861 -24.4,4.586 -36.036,9.001 h -0.002 c -12.463,-5.688 -30.208,-20.372 -30.674,-47.077 -0.33,-18.921 9.963,-33.915 10.081,-40.373 -7.186,0.958 -18.264,-0.889 -24.935,-5.021 52.22,-27.82 56.031,-56.653 88.056,-98.146 7.652,-9.91 16.899,-18.095 32.345,-23.338 22.414,-7.607 44.958,-3.078 50.71,1.654 -0.787,-14.494 -17.977,-27.175 -21.757,-28.967 15.712,-1.78 36.55,-0.055 51.316,13.123 0.84,-11.985 -7.985,-26.896 -17.069,-34.52 16.374,10.041 29.25,29.991 27.183,53.361 -6.795,-6.854 -13.678,-7.957 -19.987,-8.156 5.756,13.812 9.513,31.154 6.704,46.287 8.304,-5.975 28.845,-12.185 42.508,-5.127 z"
     id="path94" /><path
     fill-rule="evenodd"
     clip-rule="evenodd"
     fill="#c8995e"
     d="m 351.578,321.465 c -2.519,0.814 -4.976,1.67 -7.31,2.556 h -0.002 c -12.463,-5.688 -30.208,-20.372 -30.674,-47.077 -0.222,-12.608 4.277,-23.472 7.336,-31.228 -4.282,19.999 -0.592,37.828 7.505,51.998 5.198,9.095 12.828,16.962 23.145,23.751 z"
     id="path96" /><path
     fill-rule="evenodd"
     clip-rule="evenodd"
     fill="#c8995e"
     d="m 567.806,71.381 c 4.769,1.135 9.396,3.092 13.676,6.057 -11.243,1.731 -28.809,10.099 -35.096,26.624 v 0 c 0,0 2.836,-21.652 21.42,-32.681 z"
     id="path98" /><path
     fill-rule="evenodd"
     clip-rule="evenodd"
     fill="#c8995e"
     d="m 468.967,106.8 c -3.69,-12.349 -17.529,-22.463 -20.874,-24.048 2.635,-0.299 5.416,-0.499 8.287,-0.563 3.111,2.625 6.339,6.163 8.061,9.261 3.257,5.872 4.531,15.353 4.531,15.353 z"
     id="path100" /><path
     fill-rule="evenodd"
     clip-rule="evenodd"
     fill="#c8995e"
     d="m 308.811,235.497 c -3.723,-0.891 -7.284,-2.22 -10.073,-3.947 46.204,-24.615 54.513,-50.026 77.999,-84.298 -15.453,34.725 -33.061,69.434 -67.926,88.245 z"
     id="path102" /><path
     fill-rule="evenodd"
     clip-rule="evenodd"
     fill="#e8c6a3"
     d="m 428.324,196.815 c -4.258,-19.741 11.287,-36.996 29.199,-38.877 10.471,-1.099 20.63,2.057 27.984,8.226 6.234,5.23 10.661,13.822 11.469,21.881 -9.705,-5.811 -20.691,-10.296 -34.666,-8.512 -14.105,1.799 -25.582,7.119 -33.986,17.282 z"
     id="path104" /><path
     fill-rule="evenodd"
     clip-rule="evenodd"
     fill="#d6a675"
     d="m 428.324,196.815 c -4.258,-19.741 11.287,-36.996 29.199,-38.877 0.443,-0.045 0.885,-0.085 1.329,-0.114 -9.579,7.451 -14.82,17.399 -16.069,27.415 -5.518,2.807 -10.356,6.614 -14.459,11.576 z"
     id="path106" /><path
     fill-rule="evenodd"
     clip-rule="evenodd"
     fill="#ffead5"
     d="m 428.324,196.815 c -2.716,-12.59 2.622,-24.164 11.493,-31.389 -7.676,9.483 -9.583,17.572 -8.749,28.351 -0.948,0.96 -1.861,1.972 -2.744,3.038 z"
     id="path108" /><path
     fill-rule="evenodd"
     clip-rule="evenodd"
     fill="#e8c6a3"
     d="m 504.549,188.609 c 0.35,-20.972 14.375,-36.22 37.138,-35.386 18.844,0.689 36.019,15.871 35.042,36.955 -5.44,-4.6 -14.624,-12.113 -33.939,-13.306 -19.707,-1.218 -33.163,7.854 -38.241,11.737 z"
     id="path110" /><path
     fill-rule="evenodd"
     clip-rule="evenodd"
     fill="#d6a675"
     d="m 504.549,188.609 c 0.329,-19.736 12.772,-34.403 33.207,-35.366 -8.537,6.803 -13.574,16.183 -15.552,26.14 -8.582,2.722 -14.616,6.903 -17.655,9.226 z"
     id="path112" /><path
     fill-rule="evenodd"
     clip-rule="evenodd"
     fill="#ffead5"
     d="m 504.549,188.609 c 0.199,-11.894 4.797,-21.946 12.895,-28.267 -6.1,8.252 -9.025,17.145 -9.392,25.781 -1.424,0.936 -2.6,1.793 -3.503,2.486 z"
     id="path114" /><path
     fill-rule="evenodd"
     clip-rule="evenodd"
     fill="#e8c6a3"
     d="m 388.465,205.913 c 7.119,-8.329 24.644,-12.962 31.124,4.146 -20.939,-7.896 -36.214,11.161 -28.17,34.023 l -6.878,9.688 c -7.929,-6.083 -9.875,-26.709 -7.719,-36.796 1.774,-8.303 5.709,-16.111 11.983,-21.745 7.823,-7.025 21.737,-11.047 33.252,-2.797 0.816,9.18 6.199,21.38 10.478,25.563 -16.132,3.255 -31.366,15.173 -36.42,21.139 -3.247,-9.426 -0.411,-17.987 5.729,-22.571 4.702,-3.512 11.34,-4.69 18.667,-2.141 2.106,0.734 4.177,2.145 5.632,0.635 1.133,-1.703 -2.049,-9.363 -7.288,-14.579 -9.503,-9.468 -26.048,-5.661 -30.39,5.435 z"
     id="path116" /><path
     fill-rule="evenodd"
     clip-rule="evenodd"
     fill="#d6a675"
     d="m 388.465,205.913 c 7.119,-8.329 24.644,-12.962 31.124,4.146 -20.939,-7.896 -36.214,11.161 -28.17,34.023 l -6.878,9.688 c -7.929,-6.083 -9.875,-26.709 -7.719,-36.796 1.774,-8.303 5.709,-16.111 11.983,-21.745 2.954,-2.651 6.773,-4.875 11.005,-6.173 9.532,0.454 14.548,8.134 14.548,8.134 l 0.002,0.004 c -9.527,-4.93 -22.179,-0.776 -25.895,8.719 z"
     id="path118" /><path
     fill-rule="evenodd"
     clip-rule="evenodd"
     fill="#ffffff"
     d="m 497.265,194.381 c 0.378,8.026 -3.381,14.85 -7.027,19.314 -1.011,1.235 -1.961,1.676 -3.083,2.354 -1.961,1.184 -4.441,2.348 -6.744,3.864 -2.612,1.717 -5.044,3.778 -7.036,4.848 -5.959,3.202 -15.208,2.722 -23.443,-0.61 -10.952,-4.433 -17.491,-12.903 -19.688,-21.572 8.195,-9.373 19.723,-16.17 32.579,-17.731 11.659,-1.418 23.931,1.239 34.442,9.533 z"
     id="path120" /><path
     fill-rule="evenodd"
     clip-rule="evenodd"
     fill="#cdcccc"
     d="m 471.783,225.5 c -5.937,2.362 -14.317,1.701 -21.851,-1.349 -10.952,-4.433 -17.491,-12.903 -19.688,-21.572 3.536,-4.042 7.688,-7.605 12.303,-10.476 0.869,15.283 11.029,29.388 29.236,33.397 z"
     id="path122" /><path
     fill-rule="evenodd"
     clip-rule="evenodd"
     fill="#ffffff"
     d="m 456.282,226.112 c -2.134,-0.464 -4.272,-1.121 -6.35,-1.961 -10.952,-4.433 -17.491,-12.903 -19.688,-21.572 0.637,-0.729 1.296,-1.445 1.976,-2.143 3.212,10.596 8.721,19.926 24.062,25.676 z"
     id="path124" /><path
     fill-rule="evenodd"
     clip-rule="evenodd"
     fill="#ffffff"
     d="m 504.536,194.725 c 7.052,-6.158 17.83,-12.795 34.782,-12.878 10.229,-0.053 19.649,2.977 28.283,8.462 1.62,1.031 6.986,5.509 7.919,6.995 -5.566,14.744 -14.73,20.854 -20.81,23.411 -5.371,2.26 -10.038,3.005 -15.812,3.049 -5.97,0.049 -3.288,-2.24 -14.071,-6.659 -2.686,-1.103 -8.305,-2.407 -10.046,-3.601 -4.397,-3.017 -9.342,-11.168 -10.245,-18.779 z"
     id="path126" /><path
     fill-rule="evenodd"
     clip-rule="evenodd"
     fill="#cdcccc"
     d="m 504.536,194.725 c 4.163,-3.638 9.632,-7.442 16.902,-9.965 -1.172,13.285 2.828,26.943 11.035,36.424 -1.424,-1.048 -3.576,-2.413 -7.646,-4.079 -2.686,-1.103 -8.305,-2.407 -10.046,-3.601 -4.397,-3.017 -9.342,-11.168 -10.245,-18.779 z"
     id="path128" /><path
     fill-rule="evenodd"
     clip-rule="evenodd"
     fill="#ffffff"
     d="m 504.536,194.725 c 1.115,-0.977 2.327,-1.965 3.642,-2.936 0.717,8.248 3.735,16.063 8.5,22.616 -0.797,-0.305 -1.465,-0.606 -1.896,-0.901 -4.398,-3.017 -9.343,-11.168 -10.246,-18.779 z"
     id="path130" /><path
     fill-rule="evenodd"
     clip-rule="evenodd"
     fill="#e8c6a3"
     d="m 582.897,214.916 c 14.958,-5.555 25.423,9.367 20.431,22.251 -0.907,2.336 -3.654,6.726 -5.904,7.554 -2.299,0.842 -4.37,-2.104 -7.805,-4.903 -4.85,-3.955 -9.965,-7.687 -16.003,-10.689 -1.298,-10.596 -1.538,-21.621 7.222,-29.484 2.646,-2.374 5.974,-3.973 9.889,-4.148 9.623,-0.423 17.651,6.669 21.537,12.205 4.842,6.91 8.357,16.948 7.8,27.574 -0.496,9.444 -5.403,18.777 -13.167,20.762 -2.43,-2.087 -4.627,-4.795 -6.592,-6.885 0.631,-0.891 1.273,-1.178 2.267,-2.238 6.104,-6.531 7.95,-16.258 4.838,-24.774 -3.146,-8.594 -13.045,-14.978 -24.104,-10.404 1.396,-11.904 17.72,-10.97 23.848,-4.499 -3.328,-5.733 -11.006,-8.298 -17.667,-6.516 -5.595,1.497 -9.473,5.477 -10.722,11.649 -0.983,4.872 0.914,3.743 4.132,2.545 z"
     id="path132" /><path
     fill-rule="evenodd"
     clip-rule="evenodd"
     fill="#d6a675"
     d="m 582.897,214.916 c 14.958,-5.555 25.423,9.367 20.431,22.251 -0.907,2.336 -3.654,6.726 -5.904,7.554 -2.299,0.842 -4.37,-2.104 -7.805,-4.903 -4.85,-3.955 -9.965,-7.687 -16.003,-10.689 -1.298,-10.596 -1.538,-21.621 7.222,-29.484 2.646,-2.374 5.974,-3.973 9.889,-4.148 4.288,-0.188 8.264,1.117 11.689,3.11 -2.962,0.486 -5.399,1.146 -6.803,1.652 -2.039,-0.218 -4.131,-0.073 -6.128,0.462 -5.595,1.497 -9.473,5.477 -10.722,11.649 -0.981,4.873 0.916,3.744 4.134,2.546 z"
     id="path134" /><path
     fill-rule="evenodd"
     clip-rule="evenodd"
     fill="#7b5221"
     d="m 501.019,202.788 c 1.805,4.675 4.438,8.445 6.021,10.272 -3.553,-0.405 -7.866,-0.033 -11.103,0.964 1.981,-2.721 3.261,-4.63 5.082,-11.236 z"
     id="path136" /><path
     fill-rule="evenodd"
     clip-rule="evenodd"
     fill="#7b5221"
     d="m 567.113,225.898 -7.088,-2.626 c 2.926,-1.681 4.761,-3.27 7.101,-4.83 z"
     id="path138" /><path
     fill-rule="evenodd"
     clip-rule="evenodd"
     fill="#e8c6a3"
     d="m 509.004,266.32 c -10.539,1.568 -21.79,-0.118 -29.852,-5.672 -23.269,-16.034 -3.241,-39.87 23.048,-42.574 42.168,-4.336 50.822,41.697 6.804,48.246 z"
     id="path140" /><path
     fill-rule="evenodd"
     clip-rule="evenodd"
     fill="#ffead5"
     d="m 519.836,222.317 c 15.421,8.294 17.432,27.171 1.998,37.72 9.297,-11.226 6.677,-27.68 -1.998,-37.72 z"
     id="path142" /><path
     fill-rule="evenodd"
     clip-rule="evenodd"
     fill="#d6a675"
     d="m 509.004,266.32 c -10.539,1.568 -21.79,-0.118 -29.852,-5.672 -23.269,-16.034 -3.241,-39.87 23.048,-42.574 1.25,-0.128 2.471,-0.209 3.662,-0.25 -11.743,4.993 -18.396,15.733 -17.901,25.384 0.604,11.821 11.809,22.054 31.021,20.675 -2.963,1.053 -6.284,1.886 -9.978,2.437 z"
     id="path144" /><path
     fill-rule="evenodd"
     clip-rule="evenodd"
     fill="#ffead5"
     d="m 490.221,265.524 c -4.038,-1.023 -7.814,-2.635 -11.069,-4.877 -14.226,-9.802 -12.268,-22.518 -2.592,-31.541 -8.903,15.817 -0.597,29.063 13.661,36.418 z"
     id="path146" /><path
     fill-rule="evenodd"
     clip-rule="evenodd"
     fill="#1a1a1a"
     d="m 464.442,211.742 c 14.787,-0.568 16.05,-23.831 -0.484,-23.153 -6.494,0.264 -10.386,4.107 -11.257,8.714 -1.263,6.667 3.347,14.762 11.741,14.439 z"
     id="path148" /><path
     fill-rule="evenodd"
     clip-rule="evenodd"
     fill="#9a6f39"
     d="m 464.41,209.697 c 6.468,-0.248 9.792,-5.77 9.448,-10.807 -0.8,4.105 -3.986,7.831 -9.271,8.034 -5.843,0.222 -9.46,-4.509 -9.808,-9.296 l -0.037,0.179 c -1.04,5.49 2.757,12.155 9.668,11.89 z"
     id="path150" /><path
     fill-rule="evenodd"
     clip-rule="evenodd"
     fill="#ffffff"
     d="m 470.473,198.481 c 5.633,-0.216 6.118,-9.08 -0.184,-8.822 -2.476,0.102 -3.957,1.565 -4.291,3.32 -0.479,2.54 1.276,5.626 4.475,5.502 z"
     id="path152" /><path
     fill-rule="evenodd"
     clip-rule="evenodd"
     fill="#1a1a1a"
     d="m 538.956,208.495 c 14.787,-0.568 16.052,-23.831 -0.48,-23.155 -6.494,0.266 -10.388,4.107 -11.259,8.713 -1.262,6.668 3.348,14.763 11.739,14.442 z"
     id="path154" /><path
     fill-rule="evenodd"
     clip-rule="evenodd"
     fill="#9a6f39"
     d="m 538.928,206.448 c 6.466,-0.248 9.79,-5.768 9.448,-10.808 -0.802,4.104 -3.988,7.831 -9.273,8.035 -5.843,0.224 -9.461,-4.509 -9.811,-9.294 l -0.032,0.179 c -1.038,5.487 2.759,12.153 9.668,11.888 z"
     id="path156" /><path
     fill-rule="evenodd"
     clip-rule="evenodd"
     fill="#ffffff"
     d="m 544.99,195.234 c 5.632,-0.216 6.116,-9.08 -0.188,-8.824 -2.474,0.102 -3.955,1.564 -4.288,3.32 -0.48,2.541 1.278,5.626 4.476,5.504 z"
     id="path158" /><path
     fill-rule="evenodd"
     clip-rule="evenodd"
     fill="#1a1a1a"
     d="m 428.026,146.581 c 13.063,-12.244 39.063,-14.276 57.343,-8.577 -17.934,-19.874 -51.176,-9.356 -57.343,8.577 z"
     id="path160" /><path
     fill-rule="evenodd"
     clip-rule="evenodd"
     fill="#1a1a1a"
     d="m 511.808,139.098 c 14.645,-10.301 40.674,-8.681 57.979,-0.484 -14.982,-22.183 -49.369,-16.411 -57.979,0.484 z"
     id="path162" /><path
     fill-rule="evenodd"
     clip-rule="evenodd"
     fill="#9a6f39"
     d="m 538.558,256.998 c 9.989,-12.185 3.247,-26.29 1.64,-28.688 4.732,0.022 9.289,-0.645 13.574,-2.405 15.454,5.654 31.97,14.37 46.862,31.686 10.669,12.402 17.627,27.535 17.326,44.84 -3.841,-4.911 -10.559,-8.873 -18.518,-10.291 3.467,17.566 8.068,51.725 -3.817,71.373 -0.81,-1.424 -3.516,-10.167 -11.999,-14.404 0.468,10.189 -19.071,49.778 -29.094,54.968 -0.22,-9.002 -3.251,-15.369 -5.799,-18.778 -8.138,13.745 -23.368,37.854 -41.91,37.657 -24.697,-0.265 -40.448,-30.003 -45.187,-34.025 -1.963,5.278 -1.854,13.043 -0.529,17.328 -7.971,-3.516 -34.039,-30.505 -40.7,-42.342 -2.039,4.398 -3.672,9.989 -4.545,16.05 -18.927,-21.413 -31.143,-68.596 -29.37,-89.878 -3.854,1.666 -5.674,3.751 -7.835,6.404 0.496,-17.482 6.561,-31.939 14.563,-43.182 10.992,-15.446 25.439,-25.856 43.858,-30.896 7.816,6.059 17.149,10.24 30.843,8.575 -5.013,7.78 -5.729,18.789 0.525,27.535 4,5.593 10.012,9.304 16.754,11.45 16.709,5.321 41.94,1.099 53.358,-12.977 z"
     id="path164" /><path
     fill-rule="evenodd"
     clip-rule="evenodd"
     fill="#c8995e"
     d="m 654.675,233.464 c 13.538,28.074 12.675,67.611 -5.311,90.108 -2.185,-0.903 -4.419,-1.725 -6.714,-2.47 18.718,-24.981 19.105,-56.082 12.025,-87.638 z"
     id="path166" /><path
     fill-rule="evenodd"
     clip-rule="evenodd"
     fill="#7b5221"
     d="m 491.139,418.714 c -15.713,-8.417 -25.861,-26.695 -29.502,-29.785 -1.963,5.278 -1.854,13.043 -0.529,17.328 -7.971,-3.516 -34.039,-30.505 -40.7,-42.342 -2.039,4.398 -3.672,9.989 -4.545,16.05 -18.927,-21.413 -31.143,-68.596 -29.37,-89.878 -3.854,1.666 -5.674,3.751 -7.835,6.404 0.496,-17.482 6.561,-31.939 14.563,-43.182 10.992,-15.446 25.439,-25.856 43.858,-30.896 7.816,6.059 17.149,10.24 30.843,8.575 -5.013,7.78 -5.729,18.789 0.525,27.535 4,5.593 10.012,9.304 16.754,11.45 14.866,4.734 36.479,1.915 49.104,-8.679 -14.611,30.512 -65.287,37.964 -99.648,13.613 -3.184,38.446 7.302,62.395 17.7,82.666 4.177,-10.364 9.341,-14.895 13.532,-19.039 -4.881,26.98 11.134,57.211 25.25,80.18 z"
     id="path168" /><g
     id="g178">
					<path
   fill-rule="evenodd"
   clip-rule="evenodd"
   fill="#1a1a1a"
   d="m 419.832,279.052 c 0.578,5.607 3.994,5.898 4.966,0.102 0.655,-3.894 3.153,-8.411 5.658,-9.452 6.795,32.275 31.934,72.308 75.183,68.675 40.084,-3.367 53.658,-44.542 57.549,-59.149 2.14,1.687 2.274,5.253 3.727,6.728 2.274,2.312 5.636,-0.065 3.931,-4.382 -3.072,-7.782 -7.824,-11.621 -15.909,-12.239 -2.385,-0.181 -4.537,0.136 -4.826,1.859 -0.57,3.375 4.293,1.324 8.928,4.48 -15.41,42.902 -110.655,41.354 -124.456,-8.461 1.616,-0.922 3.524,-1.467 5.144,-1.99 6.382,-2.073 3.554,-5.697 -1.459,-4.91 -4.016,0.629 -8.567,2.322 -12.298,5.77 -3.693,3.408 -6.59,8.556 -6.138,12.969 z"
   id="path170" />
					<path
   fill-rule="evenodd"
   clip-rule="evenodd"
   fill="#cc4847"
   d="m 471.201,321.559 c 12.573,9.237 38.654,17.552 58.747,-0.787 -11.61,-10.57 -37.005,-11.5 -58.747,0.787 z"
   id="path172" />
					<path
   fill-rule="evenodd"
   clip-rule="evenodd"
   fill="#b33535"
   d="m 471.201,321.559 c 5.558,4.085 13.762,7.985 22.917,9.485 -6.358,-9.46 7.566,-16.608 21.08,-17.326 -12.688,-2.761 -29.188,-0.528 -43.997,7.841 z"
   id="path174" />
					<path
   fill-rule="evenodd"
   clip-rule="evenodd"
   fill="#ec8080"
   d="m 519.938,327.62 c 2.238,-1.091 4.447,-2.427 6.6,-4.035 -8.431,-7.176 -18.852,-9.225 -29.553,-7.816 9.927,1.216 18.306,6.237 22.953,11.851 z"
   id="path176" />
				</g><path
     fill-rule="evenodd"
     clip-rule="evenodd"
     fill="#c8995e"
     d="m 570.189,233.159 c 10.344,5.512 20.74,13.145 30.444,24.431 10.669,12.402 17.627,27.535 17.326,44.84 -3.841,-4.911 -10.559,-8.873 -18.518,-10.291 3.467,17.566 8.068,51.725 -3.817,71.373 -0.423,-0.743 -1.363,-3.475 -3.365,-6.521 9.656,-22.976 4.439,-56.631 -6.115,-76.925 7.756,0.173 14.485,1.762 19.918,5.129 -5.579,-21.414 -17.281,-35.943 -35.873,-52.036 z m 11.304,125.828 c -8.585,16.242 -19.287,31.511 -27.661,38.513 0.391,2.004 0.644,4.199 0.7,6.576 7.89,-4.087 21.68,-29.492 26.961,-45.089 z"
     id="path180" /><path
     fill-rule="evenodd"
     clip-rule="evenodd"
     fill="#ffead5"
     d="m 675.081,523.97 c 0.329,2.678 0.659,5.433 0.993,8.289 0.268,2.958 -0.058,3.67 1.399,5.122 14.03,13.961 41.821,18.779 58.479,8.428 -30.736,7.148 -48.061,-6.141 -60.871,-21.839 z"
     id="path182" /><path
     fill-rule="evenodd"
     clip-rule="evenodd"
     fill="#d6a675"
     d="m 703.373,289.54 c 4.395,-3.32 8.284,-5.208 13.171,-6.425 l -8.183,-20.677 c -7.328,3.985 -10.778,14.915 -4.988,27.102 z"
     id="path184" /></g>
</svg>
