<?xml version="1.0" encoding="UTF-8" standalone="no"?>
<!-- Generator: Adobe Illustrator 15.0.0, SVG Export Plug-In . SVG Version: 6.00 Build 0)  -->

<svg version="1.1" id="Layer_1" x="0px" y="0px" width="876.27301" height="309.27179" viewBox="0 0 876.27301 309.27179" enable-background="new 0 0 1000 1000" xml:space="preserve" sodipodi:docname="st_horizontal.svg" inkscape:version="1.1 (c68e22c387, 2021-05-23)"
   xmlns:inkscape="http://www.inkscape.org/namespaces/inkscape"
   xmlns:sodipodi="http://sodipodi.sourceforge.net/DTD/sodipodi-0.dtd"
   xmlns="http://www.w3.org/2000/svg"
   xmlns:svg="http://www.w3.org/2000/svg">
   <defs id="defs2338">





   </defs>
   <sodipodi:namedview id="namedview2336" pagecolor="#505050" bordercolor="#eeeeee" borderopacity="1" inkscape:pageshadow="0" inkscape:pageopacity="0" inkscape:pagecheckerboard="0" showgrid="false" fit-margin-top="1" fit-margin-right="1" fit-margin-bottom="1" fit-margin-left="1" inkscape:zoom="0.29132799" inkscape:cx="1261.4648" inkscape:cy="374.14873" inkscape:window-width="1920" inkscape:window-height="1010" inkscape:window-x="-6" inkscape:window-y="-6" inkscape:window-maximized="1" inkscape:current-layer="Layer_1" />
   <g id="g2329" transform="translate(-61.861008,-345.36521)">
      <g id="g2171">
         <path fill-rule="evenodd" clip-rule="evenodd" fill="#1a1a1a" d="m 414.078,559.684 c -7.817,6.111 -17.607,9.212 -27.556,9.212 -13.165,0 -21.387,-4.207 -29.749,-9.948 0,-13.79 0,-27.584 0,-41.378 5.672,3.979 15.015,9.961 22.874,12.231 12.036,3.483 11.963,-6.152 7.601,-12.406 -2.999,-4.301 -9.318,-8.802 -13.225,-12.598 -10.691,-10.386 -16.278,-22.156 -16.374,-37.175 -0.092,-14.298 6.63,-27.232 18.968,-34.672 12.695,-7.654 28.609,-7.768 41.546,-0.615 1.958,1.081 3.913,2.161 5.868,3.243 0,6.181 0,12.362 0,18.542 17.297,0 34.595,0 51.892,0 0,2.549 0,5.099 0,7.65 8.317,-5.888 18.345,-8.527 28.485,-8.527 10.481,0 20.842,2.82 29.317,9.131 1.925,1.433 3.678,2.982 5.273,4.635 0,-4.297 0,-8.592 0,-12.889 29.179,0 51.823,0 82.072,0 0,-8.915 0,-17.831 0,-26.748 29.996,0 59.993,0 89.99,0 0,8.946 0,17.889 0,26.833 3.206,0.1 6.412,0.299 9.599,0.663 9.611,1.091 18.534,3.809 25.313,8.757 0,-3.168 0,-6.335 0,-9.505 21.505,0 43.014,0 64.522,0 1.392,8.187 2.787,16.376 4.183,24.561 3.605,-13.953 16.081,-24.561 30.501,-24.561 30.652,0 61.305,0 91.956,0 0,37.966 0,75.932 0,113.896 -19.438,0 -31.673,0 -50.46,0 -3.629,0 -3.585,0.786 -3.585,4.484 v 17.659 c 0,16.276 -4.663,16.797 -19.12,16.797 H 435.546 c -12.915,0 -17.428,-1.082 -17.428,-16.797 0,-11.075 0,-15.865 0,-25.907 0,-7.453 0.625,-8.214 -4.04,-4.568 z" id="path2157" />
         <path fill-rule="evenodd" clip-rule="evenodd" fill="#f78e2d" d="m 905.9,519.754 h -11.666 v 38.063 h -21.069 v -93.494 h 21.069 v 38.065 H 905.9 v -38.065 h 21.04 v 93.494 H 905.9 Z M 756.177,464.322 h 14.384 27.868 3.459 l 15.922,93.494 h -21.134 l -3.28,-23.349 h -14.343 l -3.28,23.349 h -21.134 l 12.968,-76.158 h -11.43 z m -79.591,-9.414 V 557.816 H 655.55 V 454.908 h -24.276 v -17.334 h 69.589 v 17.334 z m 59.977,57.534 c 8.183,-4.447 11.833,-12.99 11.833,-22.402 0,-23.816 -25.407,-25.718 -43.318,-25.718 -6.246,0 -12.496,0 -18.742,0 h -1.164 v 1.166 c 0,30.388 0,60.777 0,91.165 v 1.164 h 1.164 c 6.246,0 12.496,0 18.742,0 h 1.163 v -1.164 c 0,-11.869 0,-23.734 0,-35.604 12.402,-0.891 21.285,1.372 21.103,15.991 -0.082,6.543 0,13.078 0.049,19.621 l 0.008,1.156 h 20.996 V 536.41 c -0.001,-10.979 -2.035,-19.049 -11.834,-23.968 z m -30.322,-30.763 c 1.278,-0.027 2.552,-0.08 3.833,-0.069 2.368,0.022 4.773,0.175 7.101,0.612 2.747,0.515 5.799,1.516 7.788,3.566 1.668,1.719 2.287,3.882 2.234,6.24 -0.058,2.623 -0.68,5.154 -2.535,7.092 -3.874,4.045 -12.695,4.436 -18.421,4.61 0,-7.348 0,-14.701 0,-22.051 z m 75.249,35.451 h 9.468 l -4.731,-33.771 z m 70.617,-17.808 c 9.574,9.678 15.34,17.731 15.34,31.736 0,9.66 -4.557,17.762 -11.646,22.657 -9.7,6.689 -23.571,5.082 -31.006,1.664 l -2.778,-17.245 1.563,0.565 c 4.183,1.51 9.663,2.661 14.091,2.661 4.793,0 8.74,-3.491 8.74,-8.386 0,-7.625 -3.414,-12.708 -8.378,-18.29 -3.101,-3.483 -6.319,-7.133 -8.969,-10.982 -1.94,-2.814 -3.54,-5.748 -4.427,-9.068 -0.635,-2.372 -0.867,-4.777 -0.867,-7.225 0,-13.937 11.382,-23.964 25.041,-23.964 5.27,0 9.493,0.871 14.38,2.74 l 0.749,0.287 v 16.3 l -1.604,-0.649 c -3.512,-1.418 -8.772,-2.024 -12.487,-2.024 -3.121,0 -5.884,2.563 -5.884,5.719 0,1.945 0.483,3.518 1.42,5.22 1.628,2.965 4.358,5.893 6.722,8.284 z" id="path2159" />
         <path fill-rule="evenodd" clip-rule="evenodd" fill="#ffffff" d="m 631.4,481.658 v 20.729 h 13.997 v 17.366 H 631.4 v 20.728 h 13.997 v 17.335 h -35.071 v -93.494 h 35.071 v 17.336 z M 412.245,457.594 c -4.37,-1.703 -9.507,-2.948 -14.213,-2.231 -3.217,0.49 -6.159,1.912 -8.097,4.592 -1.904,2.633 -2.434,5.926 -2.085,9.104 0.456,4.154 2.364,8.144 4.797,11.495 2.22,3.052 5.068,5.624 7.937,8.049 3.104,2.625 6.297,5.133 9.196,7.994 7.453,7.351 10.84,15.216 10.777,25.767 -0.065,10.396 -3.076,20.532 -10.913,27.719 -6.28,5.762 -14.659,8.614 -23.12,8.614 -6.799,0 -13.232,-1.233 -19.015,-4.961 l -0.533,-0.346 v -18.51 c 6.181,3.768 12.115,6.286 19.547,6.286 3.273,0 6.37,-1.448 8.602,-3.82 3.304,-3.516 4.36,-8.517 4.36,-13.204 0,-13.375 -9.851,-18.4 -18.354,-26.66 -8.699,-8.451 -13.2,-17.608 -13.279,-29.923 -0.069,-10.704 4.788,-20.296 14.034,-25.871 9.575,-5.774 21.596,-5.816 31.346,-0.423 l 0.6,0.332 v 16.618 z m 37.144,24.064 h 16.337 v -17.336 h -53.778 v 17.336 h 16.37 v 76.158 h 21.071 z m 55.021,59.702 c 4.265,0 8.215,-2.018 11.039,-5.167 5.745,-6.393 6.958,-16.907 6.958,-25.106 0,-8.207 -1.208,-18.739 -6.945,-25.142 -2.828,-3.155 -6.775,-5.166 -11.052,-5.166 -4.271,0 -8.215,2.02 -11.04,5.167 -5.747,6.403 -6.958,16.929 -6.958,25.14 0,8.199 1.213,18.714 6.958,25.106 2.825,3.151 6.774,5.168 11.04,5.168 z m 0,-77.915 c 8.269,0 16.524,2.12 23.226,7.11 12.573,9.361 15.841,25.725 15.841,40.531 0,14.804 -3.268,31.165 -15.841,40.527 -6.701,4.993 -14.957,7.113 -23.226,7.113 -8.266,0 -16.528,-2.132 -23.228,-7.125 -12.567,-9.363 -15.839,-25.712 -15.839,-40.516 0,-14.807 3.268,-31.17 15.839,-40.531 6.704,-4.989 14.96,-7.109 23.228,-7.109 z m 77.528,48.774 -11.662,-14.24 v 59.837 h -21.073 v -93.494 h 16.072 l 16.663,20.345 v -20.345 h 21.04 v 93.494 h -21.04 z" id="path2161" />
         <path fill-rule="evenodd" clip-rule="evenodd" fill="#cdcccc" d="m 642.545,478.806 v -11.631 h -29.366 v 87.793 h 29.366 v -11.634 h -13.997 v -26.432 h 13.997 V 505.24 h -13.997 v -26.435 h 13.997 z M 410.981,454.107 v -10.812 c -8.696,-4.425 -19.206,-4.242 -27.623,0.832 -8.386,5.056 -12.718,13.721 -12.657,23.411 0.075,11.505 4.242,19.955 12.417,27.897 4.909,4.769 10.895,8.844 14.836,14.492 3.011,4.317 4.382,8.956 4.382,14.213 0,5.444 -1.309,11.088 -5.133,15.157 -2.773,2.946 -6.62,4.72 -10.681,4.72 -6.213,0 -11.495,-1.615 -16.695,-4.264 v 12.064 c 5.103,3.048 10.767,4.024 16.695,4.024 7.746,0 15.442,-2.584 21.193,-7.861 7.235,-6.641 9.929,-16.057 9.987,-25.635 0.059,-9.75 -3.003,-16.891 -9.926,-23.721 -2.84,-2.799 -5.994,-5.273 -9.035,-7.847 -3.058,-2.586 -6.036,-5.294 -8.4,-8.549 -2.734,-3.762 -4.816,-8.201 -5.329,-12.86 -0.425,-3.89 0.285,-7.874 2.61,-11.088 2.395,-3.308 6,-5.133 9.979,-5.739 4.424,-0.672 9.098,0.148 13.38,1.566 z m 51.893,24.699 h -16.337 v 76.162 H 431.17 v -76.162 h -16.368 v -11.631 h 48.071 v 11.631 z m 41.536,-12.508 c -7.65,0 -15.324,1.929 -21.525,6.547 -11.775,8.769 -14.691,24.42 -14.691,38.242 0,13.818 2.921,29.46 14.691,38.229 6.197,4.618 13.877,6.56 21.525,6.56 7.649,0 15.324,-1.929 21.525,-6.547 11.775,-8.769 14.688,-24.423 14.688,-38.241 0,-13.822 -2.913,-29.474 -14.688,-38.242 -6.201,-4.619 -13.875,-6.548 -21.525,-6.548 z m 0,77.911 c -5.08,0 -9.794,-2.36 -13.161,-6.107 -6.271,-6.979 -7.688,-17.973 -7.688,-27.015 0,-9.047 1.416,-20.058 7.688,-27.044 3.365,-3.751 8.077,-6.116 13.161,-6.116 5.09,0 9.802,2.356 13.176,6.116 6.266,6.987 7.674,18.001 7.674,27.044 0,9.038 -1.416,20.036 -7.687,27.015 -3.369,3.752 -8.085,6.107 -13.163,6.107 z m 80.379,10.759 h 15.337 v -87.793 h -15.337 v 25.474 l -20.865,-25.474 h -11.87 v 87.793 h 15.369 v -64.97 l 17.366,21.2 z" id="path2163" />
         <path fill-rule="evenodd" clip-rule="evenodd" fill="#ffffff" d="m 631.966,502.388 h 13.269 c -3.731,4.061 -8.19,7.454 -13.346,9.497 -7.264,2.881 -14.368,6.128 -21.563,9.168 v -8.851 c 4.004,-2.055 7.788,-4.028 12.228,-5.001 3.556,-0.777 6.657,-2.555 9.412,-4.813 z m -21.64,1.416 c 0.302,-0.338 0.599,-0.663 0.888,-0.98 2.128,-2.317 4.476,-4.641 6.998,-6.521 5.225,-3.896 7.061,-7.957 9.863,-13.455 1.848,-3.625 3.553,-7.367 5.249,-11.067 1.136,-2.484 2.263,-4.973 3.394,-7.458 h -9.948 c -0.789,2.537 -1.53,5.088 -2.396,7.603 -2.255,6.563 -5.343,12.991 -11.153,17.125 -0.944,0.671 -1.912,1.357 -2.894,2.063 v 12.69 z m -147.99,-39.482 c -2.714,0.582 -5.457,1.092 -8.156,1.599 -0.861,0.161 -1.801,0.256 -2.639,0.091 -9.884,4.254 -19.827,8.688 -29.405,13.548 -1.296,0.655 -2.588,1.351 -3.852,2.098 h -6.337 v -5.204 c 7.141,-4.777 15.389,-8.903 23.47,-12.132 z m -56.663,28.542 c -2.238,2.289 -4.484,4.14 -7.491,6.008 -2.952,1.831 -6.138,3.683 -9.407,5.42 -2.47,-2.189 -5.115,-4.356 -7.642,-6.812 -0.2,-0.193 -0.397,-0.387 -0.592,-0.582 1.221,-0.208 2.429,-0.449 3.644,-0.771 5.841,-1.54 10.736,-4.474 14.876,-8.832 0.505,0.441 1.013,0.875 1.522,1.306 1.69,1.431 3.408,2.827 5.09,4.263 z m 127.155,-17.49 c -2.601,1.39 -5.208,2.757 -7.771,4.211 -0.672,0.38 -1.339,0.767 -2.002,1.16 -2.417,1.435 -4.883,3.331 -7.324,5.507 -0.09,-0.104 -0.18,-0.206 -0.269,-0.307 -1.555,-1.729 -3.442,-3.117 -5.538,-4.016 1.245,-1.259 2.494,-2.515 3.743,-3.768 2.942,-2.94 6.917,-5.753 10.237,-8.305 0.351,-0.267 0.781,-0.592 1.27,-0.964 0.843,0.515 1.665,1.07 2.462,1.664 1.945,1.448 3.666,3.066 5.192,4.818 z m -45.494,46.977 c -0.771,1.27 -1.526,2.547 -2.265,3.833 -3.694,6.421 -6.934,13.009 -9.712,19.845 -1.97,-2.405 -3.585,-5.05 -4.897,-7.854 0.704,-1.579 1.394,-3.108 2.057,-4.569 -1.154,0.419 -2.218,0.777 -3.04,1.054 l -0.425,0.143 c -0.858,-2.312 -1.54,-4.708 -2.075,-7.146 4.881,-1.604 9.202,-3.959 11.336,-7.625 2.386,-4.098 5.178,-8.094 8.156,-11.951 -0.039,1.025 -0.057,2.03 -0.057,3.007 0.001,3.499 0.223,7.421 0.922,11.263 z m -37.945,18.375 c -4.161,1.196 -8.325,2.397 -12.461,3.667 -2.738,0.842 -5.853,1.762 -8.61,2.889 v -11.805 c 6.6,-2.404 14.429,-3.389 21.053,-4.35 l 0.018,-0.004 z m -81.407,-76.367 c 7.058,-0.901 14.104,-1.935 21.13,-3.07 -1.196,2.303 -1.536,4.958 -1.286,7.55 -2.35,0.456 -4.7,0.913 -7.045,1.385 -4.208,0.844 -8.417,1.719 -12.59,2.72 -0.213,-1.729 -0.33,-3.521 -0.34,-5.387 -0.007,-1.078 0.038,-2.144 0.131,-3.198 z m 39.441,-8.321 c 1.803,-1.298 3.451,-2.844 4.975,-4.482 0.49,-0.527 0.968,-1.062 1.434,-1.609 v 8.266 l -1.587,-0.619 c -1.53,-0.596 -3.156,-1.137 -4.822,-1.556 z m 141.779,32.637 c 8.243,-1.546 18.213,-5.538 27.014,-10.997 l 4.745,5.792 c -10.156,6.82 -21.68,11.863 -31.759,14.256 z m 32.736,-14.88 c 3.906,-2.907 7.389,-6.104 10.14,-9.473 h 9.069 c -4.728,6.915 -11.543,13.208 -19.209,18.485 z m -39.455,24.107 c -0.712,-0.36 -1.302,-0.948 -1.664,-1.854 -0.513,-1.292 -0.187,-2.637 0.477,-3.825 0.488,1.866 0.879,3.764 1.187,5.679 z m 60.495,15.207 c -0.679,1.001 -1.306,1.994 -1.859,2.958 -0.138,0.24 -0.366,0.603 -0.622,1.014 0.138,-0.045 0.272,-0.094 0.406,-0.146 0.696,-0.257 1.388,-0.554 2.075,-0.879 v 8 c -2.832,1.106 -5.668,2.192 -8.487,3.328 -3.536,1.428 -8.721,3.516 -12.553,5.884 v -8.891 c 1.965,-0.599 4.325,-1.347 5.952,-2.629 2.246,-1.77 3.679,-5.225 4.717,-7.796 1.696,-4.208 3.486,-8.635 6.177,-12.319 1.204,-1.648 2.637,-3.188 4.194,-4.637 z m -32.703,33.481 c -0.468,0.679 -0.932,1.358 -1.392,2.038 -2.055,3.04 -4.053,6.112 -6.043,9.188 h -10.506 c 0.936,-1.465 1.827,-2.975 2.759,-4.443 1.623,-2.552 3.32,-5.066 5.159,-7.463 1.177,-1.534 2.417,-3.036 3.756,-4.432 0.736,-0.777 1.481,-1.578 2.222,-2.404 -0.688,0.309 -1.375,0.626 -2.063,0.939 -5.063,2.323 -10.03,4.773 -14.966,7.313 v -10.702 c 6.168,-3.54 13.79,-6.376 20.187,-8.467 l 0.887,-0.285 z" id="path2165" />
         <path fill-rule="evenodd" clip-rule="evenodd" fill="#1a1a1a" d="m 636.755,502.388 h 4.476 c -2.853,2.727 -6.311,5.229 -10.396,6.849 -9.321,3.694 -15.107,6.323 -20.508,8.675 v -2.507 c 3.369,-1.741 7.41,-3.54 13.099,-4.785 5.475,-1.201 9.813,-4.546 13.329,-8.232 z M 367.852,467.242 c 6.356,-0.808 13.07,-1.764 20.187,-2.895 -0.108,0.522 -0.185,1.054 -0.232,1.589 -6.578,1.275 -13.733,2.682 -19.875,4.14 -0.049,-0.824 -0.073,-1.664 -0.08,-2.519 z m 181.35,27.547 c 9.159,-2.285 20.142,-7.027 29.943,-13.534 l -1.106,-1.349 c -9.343,5.866 -19.975,10.11 -28.837,11.67 z m 32.736,-15.462 c 6.104,-4.37 11.608,-9.432 15.73,-15.004 h -2.006 c -3.455,4.716 -8.265,9.125 -13.725,12.986 v 2.018 z m -32.736,60.626 c 5.432,-3.32 13.436,-6.588 21.073,-9.086 v 3.255 c -7.239,3.251 -12.513,5.611 -21.073,9.993 z m 32.736,-12.594 c 7.568,-2.254 9.806,-3.65 13.313,-12.337 2.727,-6.755 4.447,-10.441 7.727,-14.004 v 7.277 c -1.961,2.601 -3.495,4.891 -4.333,6.348 -2.389,4.15 -5.091,7.296 1.481,5.534 0.984,-0.265 1.924,-0.603 2.852,-0.997 v 1.811 l -0.81,0.317 c -6.534,2.56 -14.566,5.542 -20.23,8.688 z m 28.388,-32.684 c 1.348,-1.005 2.849,-2.093 4.546,-3.3 9.436,-6.716 12.194,-18.532 14.888,-27.053 h 3.825 c -2.6,5.721 -5.888,12.986 -8.049,17.23 -2.254,4.415 -3.983,8.702 -9.028,12.463 -2.06,1.534 -4.163,3.481 -6.182,5.585 z m -40.051,46.959 v -2.894 c -1.237,1.469 -2.653,3.08 -4.203,4.704 -4.244,4.447 -8.163,10.759 -10.389,14.372 h 3.756 c 2.874,-4.463 7.028,-10.88 10.836,-16.182 z m -42.623,-71.066 c -4.533,3.528 -9.563,7.205 -11.967,9.611 -1.029,1.027 -2.088,2.089 -3.166,3.182 0.415,0.283 0.813,0.584 1.2,0.908 2.723,-2.452 5.375,-4.49 7.878,-5.976 3.052,-1.811 6.271,-3.512 9.188,-5.066 -0.972,-0.938 -2.014,-1.827 -3.133,-2.659 z m -41.219,42.342 c -2.114,2.894 -4.028,5.762 -5.654,8.558 -2.602,4.463 -7.347,7.145 -13.125,8.96 0.152,0.562 0.313,1.118 0.482,1.672 5.17,-1.729 9.06,-3.308 10.305,-4.553 -1.624,3.527 -3.892,8.418 -6.274,13.883 0.383,0.651 0.786,1.294 1.207,1.925 2.425,-5.803 5.4,-11.95 9.225,-18.596 1.284,-2.233 2.667,-4.528 4.128,-6.84 -0.168,-1.709 -0.257,-3.394 -0.294,-5.009 z m -37.044,21.098 c -7.568,1.095 -15.114,2.177 -21.071,4.525 v 5.708 c 4.932,-1.839 12.905,-4.126 21.071,-6.481 z M 383.094,499.32 c 5.066,-1.088 11.853,-3.508 18.138,-10.173 0.755,0.633 1.512,1.262 2.269,1.89 -1.681,1.717 -3.715,3.481 -6.824,5.412 -3.66,2.271 -7.178,4.217 -10.242,5.805 -1.105,-0.957 -2.228,-1.925 -3.341,-2.934 z m 28.854,-19.355 c 8.585,-6.006 19.82,-11.66 31.659,-15.643 h 4.671 c -7.924,3.444 -18.77,8.299 -27.431,12.693 -3.298,1.672 -5.79,3.204 -7.776,4.643 h -1.123 z" id="path2167" />
         <path fill-rule="evenodd" clip-rule="evenodd" fill="#ffffff" d="m 431.986,569.148 h 12.927 v 3.824 h -4.438 v 22.949 h -4.055 v -22.949 h -4.435 v -3.824 z m 17.27,26.774 v -26.773 h 4.053 v 11.283 h 4.82 v -11.283 h 4.055 v 26.773 h -4.055 v -11.666 h -4.82 v 11.666 z m 18.574,-26.774 h 11.511 v 3.824 h -7.458 v 7.459 h 5.929 v 3.824 h -5.929 v 7.842 h 7.458 v 3.824 H 467.83 Z m 29.396,27.157 c -1.275,0 -2.411,-0.28 -3.404,-0.842 -0.997,-0.562 -1.766,-1.339 -2.315,-2.332 -0.549,-0.997 -0.822,-2.132 -0.822,-3.406 v -0.956 l 3.902,-0.423 v 0.997 c 0,0.968 0.228,1.733 0.688,2.295 0.458,0.562 1.095,0.842 1.913,0.842 0.792,0 1.422,-0.231 1.892,-0.688 0.472,-0.46 0.708,-1.086 0.708,-1.876 0,-0.866 -0.248,-1.696 -0.745,-2.486 -0.499,-0.789 -1.485,-1.888 -2.964,-3.287 -1.99,-1.889 -3.347,-3.455 -4.073,-4.708 -0.73,-1.249 -1.093,-2.612 -1.093,-4.089 0,-2.019 0.549,-3.618 1.646,-4.802 1.097,-1.185 2.602,-1.778 4.513,-1.778 1.914,0 3.418,0.598 4.514,1.799 1.095,1.196 1.645,2.803 1.645,4.817 v 0.688 l -3.9,0.423 v -0.765 c 0,-1.021 -0.191,-1.798 -0.576,-2.335 -0.38,-0.533 -0.93,-0.802 -1.644,-0.802 -0.712,0 -1.262,0.216 -1.644,0.65 -0.382,0.432 -0.574,1.07 -0.574,1.913 0,0.842 0.256,1.647 0.765,2.429 0.511,0.777 1.491,1.893 2.946,3.345 1.988,1.99 3.345,3.589 4.073,4.802 0.725,1.208 1.091,2.543 1.091,3.995 0,1.274 -0.273,2.409 -0.822,3.406 -0.55,0.993 -1.32,1.771 -2.315,2.332 -0.996,0.561 -2.129,0.842 -3.405,0.842 z m 9.776,-27.157 h 12.928 v 3.824 h -4.439 v 22.949 h -4.053 v -22.949 h -4.436 z m 23.43,27.157 c -1.941,0 -3.508,-0.594 -4.708,-1.778 -1.196,-1.188 -1.799,-2.751 -1.799,-4.688 v -14.607 c 0,-1.941 0.603,-3.504 1.799,-4.688 1.2,-1.185 2.767,-1.778 4.708,-1.778 1.937,0 3.503,0.594 4.703,1.778 1.196,1.184 1.795,2.746 1.795,4.688 v 14.607 c 0,1.937 -0.599,3.5 -1.795,4.688 -1.2,1.184 -2.767,1.778 -4.703,1.778 z m 0,-3.826 c 0.761,0 1.363,-0.231 1.794,-0.688 0.436,-0.46 0.651,-1.11 0.651,-1.953 v -14.607 c 0,-0.843 -0.216,-1.493 -0.651,-1.953 -0.431,-0.46 -1.033,-0.688 -1.794,-0.688 -0.766,0 -1.367,0.228 -1.799,0.688 -0.436,0.46 -0.651,1.11 -0.651,1.953 v 14.607 c 0,0.843 0.216,1.493 0.651,1.953 0.431,0.457 1.033,0.688 1.799,0.688 z m 11.799,-23.331 h 4.476 l 5.164,17.977 v -17.977 h 3.976 v 26.773 h -4.281 l -5.354,-17.135 v 17.135 h -3.979 v -26.773 z m 19.263,0 h 11.512 v 3.824 h -7.459 v 7.459 h 5.929 v 3.824 h -5.929 v 7.842 h 7.459 v 3.824 h -11.512 z m 35.323,26.774 -1.147,-1.875 c -1.428,1.505 -3.108,2.258 -5.046,2.258 -1.762,0 -3.198,-0.573 -4.305,-1.721 -1.11,-1.147 -1.664,-2.82 -1.664,-5.01 0,-1.505 0.289,-2.812 0.862,-3.922 0.57,-1.107 1.469,-2.315 2.693,-3.613 l -0.573,-0.92 c -0.635,-1.07 -1.151,-2.111 -1.55,-3.117 -0.396,-1.009 -0.591,-2.07 -0.591,-3.193 0,-1.758 0.542,-3.207 1.628,-4.342 1.082,-1.136 2.515,-1.701 4.301,-1.701 1.709,0 3.085,0.521 4.13,1.566 1.046,1.046 1.567,2.449 1.567,4.207 0,0.969 -0.118,1.812 -0.362,2.527 -0.24,0.712 -0.644,1.457 -1.205,2.238 -0.562,0.777 -1.428,1.803 -2.6,3.076 l 2.56,3.979 c 0.231,-0.794 0.524,-2.067 0.883,-3.825 h 4.057 c -0.716,3.288 -1.521,5.876 -2.413,7.764 l 3.634,5.623 h -4.859 z m -5.354,-23.523 c -0.635,0 -1.14,0.216 -1.51,0.651 -0.37,0.431 -0.554,1.017 -0.554,1.758 0,1.302 0.521,2.791 1.566,4.476 0.867,-0.867 1.494,-1.632 1.876,-2.295 0.379,-0.663 0.574,-1.392 0.574,-2.181 0,-0.79 -0.167,-1.393 -0.497,-1.799 -0.332,-0.406 -0.816,-0.61 -1.455,-0.61 z m -0.078,20.08 c 0.489,0 0.92,-0.109 1.303,-0.325 0.383,-0.216 0.753,-0.594 1.106,-1.127 l -3.516,-5.623 c -0.562,0.688 -0.964,1.33 -1.204,1.928 -0.244,0.603 -0.366,1.282 -0.366,2.047 0,2.067 0.896,3.1 2.677,3.1 z m 21.253,-23.331 h 12.928 v 3.824 h -4.436 v 22.949 h -4.057 v -22.949 h -4.436 v -3.824 z m 17.268,0 h 4.058 v 26.773 h -4.058 z m 9.701,0 h 4.053 v 22.949 h 7.23 v 3.824 h -11.283 z m 15.625,0 h 11.516 v 3.824 h -7.459 v 7.459 h 5.929 v 3.824 h -5.929 v 7.842 h 7.459 v 3.824 h -11.516 z m 42.212,0 v 26.773 h -4.053 v -18.359 l -3.788,18.359 h -2.832 l -3.784,-18.359 v 18.359 h -3.979 v -26.773 h 5.737 l 3.52,17.098 3.365,-17.098 z m 13.64,20.846 h -4.362 l -0.879,5.928 h -4.053 l 4.436,-26.773 h 5.432 l 4.436,26.773 h -4.13 z m -0.537,-3.902 -1.645,-11.206 -1.644,11.206 z m 18.994,9.83 -2.946,-11.055 h -2.104 v 11.055 h -4.053 v -26.773 h 6.348 c 1.937,0 3.482,0.582 4.626,1.741 1.147,1.159 1.722,2.706 1.722,4.646 v 2.942 c 0,1.225 -0.24,2.311 -0.725,3.251 -0.484,0.944 -1.172,1.685 -2.067,2.222 l 3.406,11.971 z m -5.05,-14.876 h 2.104 c 0.789,0 1.403,-0.22 1.835,-0.651 0.436,-0.436 0.651,-1.045 0.651,-1.839 v -3.097 c 0,-0.789 -0.216,-1.403 -0.651,-1.835 -0.432,-0.436 -1.046,-0.651 -1.835,-0.651 h -2.104 z m 19.376,3.861 -1.529,2.942 v 8.072 h -4.057 v -26.773 h 4.057 v 10.859 l 5.351,-10.859 h 4.362 l -5.697,11.36 6.12,15.413 h -4.362 z m 12.834,-15.759 h 11.516 v 3.824 h -7.463 v 7.459 h 5.933 v 3.824 h -5.933 v 7.842 h 7.463 v 3.824 h -11.516 z m 14.823,0 h 12.928 v 3.824 h -4.436 v 22.949 h -4.057 v -22.949 h -4.436 v -3.824 z m 17.274,0 h 6.348 c 1.937,0 3.483,0.582 4.626,1.741 1.152,1.159 1.722,2.706 1.722,4.646 v 3.134 c 0,1.94 -0.569,3.491 -1.722,4.65 -1.143,1.16 -2.689,1.737 -4.626,1.737 h -2.295 v 10.864 h -4.053 z m 6.156,12.085 c 0.789,0 1.403,-0.216 1.835,-0.647 0.436,-0.436 0.651,-1.046 0.651,-1.835 v -3.292 c 0,-0.789 -0.216,-1.403 -0.651,-1.835 -0.432,-0.436 -1.046,-0.651 -1.835,-0.651 h -2.104 v 8.261 h 2.104 z m 11.153,-12.085 h 4.053 v 22.949 h 7.23 v 3.824 h -11.283 z m 23.999,20.846 h -4.358 l -0.879,5.928 h -4.057 l 4.439,-26.773 h 5.428 l 4.439,26.773 h -4.13 z m -0.533,-3.902 -1.644,-11.206 -1.648,11.206 z m 15.858,10.213 c -1.885,0 -3.414,-0.586 -4.59,-1.762 -1.172,-1.172 -1.763,-2.702 -1.763,-4.59 v -14.84 c 0,-1.884 0.591,-3.414 1.763,-4.59 1.176,-1.172 2.705,-1.758 4.59,-1.758 1.888,0 3.418,0.586 4.59,1.758 1.176,1.176 1.762,2.706 1.762,4.59 v 3.137 h -3.979 v -3.137 c 0,-0.765 -0.216,-1.375 -0.651,-1.835 -0.432,-0.46 -0.993,-0.688 -1.681,-0.688 -0.691,0 -1.249,0.228 -1.685,0.688 -0.431,0.46 -0.65,1.07 -0.65,1.835 v 14.84 c 0,0.765 0.22,1.379 0.65,1.839 0.436,0.456 0.993,0.688 1.685,0.688 0.688,0 1.249,-0.231 1.681,-0.688 0.436,-0.46 0.651,-1.074 0.651,-1.839 v -3.825 h 3.979 v 3.825 c 0,1.888 -0.586,3.418 -1.762,4.59 -1.172,1.176 -2.703,1.762 -4.59,1.762 z m 11.266,-27.157 h 11.512 v 3.824 h -7.459 v 7.459 h 5.933 v 3.824 h -5.933 v 7.842 h 7.459 v 3.824 h -11.512 z" id="path2169" />
      </g>
      <g id="g2327">
         <g id="g2179">
            <circle fill-rule="evenodd" clip-rule="evenodd" fill="#1a1a1a" cx="203.425" cy="513.073" r="140.564" id="circle2173" />
            <circle fill-rule="evenodd" clip-rule="evenodd" fill="#ffffff" cx="203.425" cy="513.07202" r="130.995" id="circle2175" />
            <circle fill-rule="evenodd" clip-rule="evenodd" fill="#cdcccc" cx="203.425" cy="513.07202" r="126.682" id="circle2177" />
         </g>
         <path fill-rule="evenodd" clip-rule="evenodd" fill="#1a1a1a" d="m 93.905,520.739 c -10.17,9.379 -16.783,23.6 -17.674,38.533 -0.364,6.034 0.368,11.764 2.844,16.765 5.353,10.807 16.711,15.206 28.528,18.363 -0.86,3.495 -1.723,6.99 -2.592,10.486 1.196,2.274 2.806,4.658 4,6.934 6.25,1.587 12.5,3.174 18.75,4.761 0.071,1.196 0.156,2.4 0.254,3.608 21.326,15.039 47.331,23.877 75.409,23.877 31.842,0 61.023,-11.36 83.726,-30.249 1.839,-13.069 2.348,-26.065 2.271,-36.739 -0.012,-1.814 -0.026,-3.633 -0.039,-5.452 1.577,0.903 3.149,1.815 4.726,2.723 8.386,4.817 19.44,3.914 26.933,-2.197 14.591,-11.902 16.695,-35.885 15.934,-53.386 -0.047,-1.042 -0.091,-2.083 -0.136,-3.121 -0.006,-0.081 -0.008,-0.154 -0.014,-0.231 0.044,-0.069 0.081,-0.135 0.122,-0.204 3.552,-5.965 6.097,-12.74 4.437,-19.741 -0.281,-1.172 -0.596,-2.33 -0.928,-3.462 -0.091,-0.267 -0.177,-0.531 -0.271,-0.8 -0.028,-0.089 -0.059,-0.181 -0.087,-0.274 0.033,-0.085 0.075,-0.179 0.11,-0.267 0.108,-0.265 0.216,-0.533 0.326,-0.802 0.077,-0.191 0.161,-0.38 0.24,-0.57 0.254,-0.596 0.521,-1.188 0.763,-1.788 1.249,-3.09 1.516,-6.238 0.82,-9.499 -0.515,-2.409 -1.524,-4.71 -2.269,-7.06 -0.665,-2.073 -1.036,-4.087 -0.838,-6.266 0.263,-2.899 -0.454,-5.619 -2.173,-7.973 -0.907,-1.241 -2.055,-2.146 -3.438,-2.808 -2.452,-1.178 -5.336,-1.483 -7.896,-2.466 -1.341,-0.513 -2.745,-0.883 -4.152,-1.16 -0.497,-0.098 -0.995,-0.195 -1.489,-0.295 -0.165,-0.033 -0.328,-0.063 -0.499,-0.096 -0.037,-0.165 -0.073,-0.328 -0.116,-0.495 -0.11,-0.492 -0.224,-0.984 -0.34,-1.479 -0.836,-3.611 -2.549,-7.047 -5.607,-9.267 -2.657,-1.929 -6.057,-2.645 -9.247,-1.782 -0.838,0.23 -1.646,0.565 -2.403,0.993 -2.804,1.613 -4.606,4.401 -5.273,7.536 -0.727,3.422 -0.051,7.011 1.434,10.142 0.336,0.704 0.667,1.412 1.005,2.118 -0.195,0.441 -0.399,0.881 -0.594,1.32 -1.693,3.735 -2.026,8.319 0.132,11.945 0.459,0.769 0.919,1.538 1.379,2.307 -2.763,3.656 -3.107,8.74 -2.236,13.265 -2.261,-3.389 -4.521,-6.276 -7.095,-8.939 -2.686,-2.775 -5.806,-5.208 -9.297,-7.328 1.121,-1.144 2.079,-2.488 2.842,-4.055 5.737,-11.802 5.056,-27.71 -0.484,-39.475 -0.775,-1.644 -1.552,-3.29 -2.33,-4.94 3.119,0.515 5.668,0.684 8.071,0.643 -3.682,-5.208 -5.656,-9.989 -7.705,-15.987 -0.979,-2.869 -1.9,-5.778 -3.103,-8.567 -3.086,-7.135 -8.585,-14.291 -15.11,-19.84 -10.624,-9.027 -18.504,-11.644 -26.703,-10.789 3.491,-4.48 9.316,-7.308 18.427,-6.635 -8.919,-13.226 -26.951,-12.512 -36.137,-6.242 -6.777,-8.578 -17.845,-10.022 -27.678,-5.327 5.204,1.17 8.156,4.338 10.358,8.325 -6.799,-3.855 -19.196,-2.797 -28.479,2.022 6.046,0.942 10.298,3.369 13.928,7.013 -4.265,-1.199 -14.207,-0.676 -23.849,5.581 -3.3,2.136 -6.146,4.848 -8.769,8.246 -3.298,4.271 -6.299,8.759 -9.186,13.314 -2.376,3.754 -4.679,7.55 -7.273,11.164 -2.757,3.841 -5.875,7.356 -9.457,10.449 -6.104,5.259 -12.274,9.487 -19.533,12.323 4.525,3.748 8.759,4.94 14.191,6.45 -3.52,7.965 -4.222,19.067 0.075,27.484 2.356,4.616 5.017,7.53 9.483,9.865 -24.309,11.9 -31.774,25.643 -39.019,49.498 z" id="path2181" />
         <path fill-rule="evenodd" clip-rule="evenodd" fill="#ffead5" d="m 332.645,514.119 c 3.496,-5.209 6.122,-11.536 4.665,-17.685 -1.57,-6.61 -2.175,-4.248 0.346,-10.494 3.253,-8.073 -3.416,-12.346 -2.578,-21.635 0.197,-2.217 -0.391,-3.77 -1.382,-5.127 -1.334,-1.825 -3.579,-2.13 -6.476,-2.897 v 0 c 0,0 4.671,4.875 4.372,10.148 -0.297,5.27 1.794,12.531 2.488,14.917 0.694,2.385 -2.584,6.366 -2.087,9.052 0.497,2.682 4.044,10.522 2.684,16.604 -0.582,2.604 -1.324,5.123 -2.032,7.117 z" id="path2183" />
         <path fill-rule="evenodd" clip-rule="evenodd" fill="#e8c6a3" d="m 131.002,522.391 c 6.287,1.607 12.577,3.215 18.864,4.822 2.065,-6.092 1.951,-17.713 -1.021,-27.661 4.852,7.638 6.431,18.262 5.841,28.894 l 44.517,11.377 2.431,-0.488 c 4.315,-0.866 8.525,-2.226 12.513,-4.097 11.031,-5.172 19.407,-13.778 24.493,-24.834 0.987,-2.148 1.827,-4.337 2.545,-6.575 -2.783,3.431 -6.089,5.542 -10.396,8.118 -0.041,-1.656 -0.309,-3.394 -0.657,-5.05 -3.969,6.018 -10.335,11.657 -17.393,11.58 -5.399,-0.057 -13.063,-3.841 -16.783,-7.894 0.012,0.671 0.063,1.807 0.33,3.031 -8.101,-3.089 -15.21,-8.842 -21.295,-16.85 -0.358,2.482 -0.814,4.592 -0.922,7.117 -10.172,-10.935 -15.135,-20.302 -18.229,-34.737 -4.146,0.372 -11.969,2.665 -16.939,4.63 -11.578,5.133 -20.774,11.831 -27.12,20.105 -8.671,11.312 -13.841,28.255 -15.655,40.596 -0.987,-1.362 -2.021,-5.452 -1.876,-7.34 -11.837,9.484 -21.024,43.974 -3.931,55.351 8.866,5.9 18.638,8.215 29.159,10.124 11.224,2.03 21.014,2.795 32.9,6.836 -1.144,-1.591 -2.224,-3.642 -2.669,-5.51 2.214,2.738 9.762,9.159 19.593,12.183 5.562,1.709 13.735,2.95 18.569,-0.708 1.167,-0.977 2.224,-2.209 2.718,-3.418 0.2,-0.492 0.354,-0.977 0.484,-1.448 -1.845,0.565 -5.284,0.724 -7.469,-0.028 8.185,-1.604 17.033,-7.69 14.547,-17.103 -1.233,1.099 -3.597,2.445 -7.774,2.355 4.862,-1.432 10.742,-7.405 9.357,-14.795 -0.421,-2.25 -1.605,-3.312 -3.552,-4.504 -2.096,1.733 -9.703,3.895 -12.48,0.907 -0.226,-0.244 0.775,-1.709 1.088,-3.585 0.955,-5.696 0.25,-14.884 -6.938,-16.402 -1.55,-0.329 -4.132,-0.284 -4.435,1.538 -0.584,3.479 -2.291,9.371 -3.709,12.105 -0.919,1.774 -0.883,1.746 -1.676,1.884 -3.963,0.684 -8.136,3.699 -9.662,7.545 -0.816,-0.753 -0.387,-2.507 -0.397,-3.609 -4.699,-3.915 -13.786,-10.295 -26.497,-13.318 -11.607,-2.759 -18.355,-1.448 -26.974,0.456 5.146,-3.455 14.258,-4.618 17.879,-4.789 2.87,-8.935 5.747,-17.871 8.621,-26.811 z m 143,-11.601 c 4.846,8.789 8.356,16.382 11.454,29.447 1.516,6.389 2.838,14.063 3.974,23.768 0.124,1.343 -0.026,1.668 0.637,2.327 6.887,6.856 20.835,8.684 28.333,2.572 13.344,-10.889 15.092,-33.965 14.392,-49.96 -2.016,1.392 -7.727,5.652 -9.755,5.925 4.33,-3.679 17.135,-16.395 14.274,-28.435 -1.57,-6.61 -2.175,-4.248 0.346,-10.494 3.253,-8.073 -3.416,-12.346 -2.578,-21.635 0.197,-2.217 -0.391,-3.77 -1.382,-5.127 -1.762,-2.409 -5.1,-2.168 -9.45,-3.833 -2.75,-1.058 -8.172,-1.943 -11.426,-1.365 -3.491,0.623 -6.626,1.377 -8.907,4.094 -2.274,2.71 -3.694,7.383 -1.723,10.695 3.953,-3.062 18.488,-4.409 21.777,2.232 -7.705,-1.764 -20.489,-0.545 -22.034,8.555 -0.472,2.793 0.885,6.702 2.702,7.31 3.658,-4.612 14.825,-7.202 21.008,-0.651 -23.737,-3.935 -23.735,23.082 -8.067,22.732 10.378,-0.236 5.985,-8.165 0.535,-8.134 3.379,-3.023 10.732,0.073 9.979,5.302 -1.043,7.271 -10.856,8.862 -16.85,6.856 -9.353,-3.134 -10.01,-14.075 -8.567,-19.296 -12.172,12.374 -10.822,43.485 -4.179,55.844 -14.502,-15.89 -7.412,-50.334 -2.92,-56.149 -5.131,-14.225 -18.388,-23.059 -32.387,-23.445 6.452,12.097 10.716,28.164 10.814,40.865 z" id="path2185" />
         <path fill-rule="evenodd" clip-rule="evenodd" fill="#d6a675" d="m 302.845,503.894 c -1.021,-3.251 -1.088,-6.895 -0.183,-10.206 -12.156,12.39 -10.805,43.478 -4.167,55.832 -14.502,-15.89 -7.412,-50.334 -2.92,-56.149 -5.131,-14.225 -18.388,-23.059 -32.387,-23.445 6.452,12.097 10.716,28.164 10.813,40.865 4.846,8.789 8.356,16.382 11.454,29.447 1.516,6.389 2.838,14.063 3.974,23.768 0.124,1.343 -0.026,1.668 0.637,2.327 6.887,6.856 20.835,8.684 28.333,2.572 3.261,-2.661 5.827,-6.055 7.839,-9.893 h -0.022 c -30.894,11.202 -23.582,-32.389 -14.203,-45.809 -0.265,-0.073 -0.521,-0.15 -0.771,-0.231 -4.767,-1.596 -7.274,-5.217 -8.397,-9.078 z m 8.612,-37.625 0.051,-0.047 c -1.719,-2.747 -1.829,-6.641 0.14,-12.02 -3.021,0.596 -5.713,1.462 -7.735,3.872 -2.274,2.71 -3.694,7.383 -1.723,10.695 1.707,-1.32 5.379,-2.323 9.267,-2.5 z m 1.868,16.195 c -3.681,0.56 -6.989,2.26 -8.689,4.403 -1.817,-0.608 -3.174,-4.517 -2.702,-7.31 0.847,-4.982 5.062,-7.601 9.969,-8.663 -1.072,5.137 -0.649,9.027 1.444,11.525 z m 10.498,22.515 c 0.337,1.941 -1.227,3.854 -6.246,3.968 -12.419,0.28 -14.992,-16.636 -3.703,-21.707 -3.546,7.913 -1.025,22.851 9.949,17.739 z" id="path2187" />
         <path fill-rule="evenodd" clip-rule="evenodd" fill="#ffead5" d="m 292.498,486.94 c -6.337,-10.415 -17.56,-16.691 -29.309,-17.015 0.584,1.094 1.149,2.226 1.699,3.385 11.449,1.042 19.189,4.899 27.61,13.63 z" id="path2189" />
         <path fill-rule="evenodd" clip-rule="evenodd" fill="#d6a675" d="m 131.002,522.391 c 6.287,1.607 12.577,3.215 18.864,4.822 2.065,-6.092 1.951,-17.713 -1.021,-27.661 4.852,7.638 6.431,18.262 5.841,28.894 l 44.517,11.377 2.431,-0.488 c 4.315,-0.866 8.525,-2.226 12.513,-4.097 l 0.519,-0.244 c -14.25,4.581 -30.07,-10.877 -29.14,-27.458 v 0 c -3.796,-2.913 -7.308,-6.524 -10.535,-10.771 -0.358,2.482 -0.814,4.592 -0.922,7.117 -10.172,-10.935 -15.135,-20.302 -18.229,-34.737 -4.146,0.372 -11.969,2.665 -16.939,4.63 -11.578,5.133 -20.774,11.831 -27.12,20.105 -8.671,11.312 -13.841,28.255 -15.655,40.596 -0.987,-1.362 -2.021,-5.452 -1.876,-7.34 -11.837,9.484 -21.024,43.974 -3.931,55.351 8.866,5.9 18.638,8.215 29.159,10.124 11.224,2.03 21.014,2.795 32.9,6.836 -1.144,-1.591 -2.224,-3.642 -2.669,-5.51 2.214,2.738 9.762,9.159 19.593,12.183 5.562,1.709 13.735,2.95 18.569,-0.708 1.167,-0.977 2.224,-2.209 2.718,-3.418 0.2,-0.492 0.354,-0.977 0.484,-1.448 -1.845,0.565 -5.284,0.724 -7.469,-0.028 6.74,-1.323 13.922,-5.677 14.868,-12.423 -14.933,13.432 -38.285,10.481 -50.277,-4.285 -10.144,1.596 -41.406,-6.62 -46.769,-15.914 -2.073,-3.597 -1.593,-8.089 3.076,-13.903 5.146,-3.455 14.258,-4.618 17.879,-4.789 2.87,-8.937 5.747,-17.873 8.621,-26.813 z" id="path2191" />
         <path fill-rule="evenodd" clip-rule="evenodd" fill="#ffead5" d="m 156.55,472.228 c -0.246,-1.003 -0.484,-2.026 -0.71,-3.084 -4.146,0.372 -11.969,2.665 -16.939,4.63 -11.578,5.133 -20.774,11.831 -27.12,20.105 -5.424,7.078 -9.48,16.366 -12.201,25.346 v 0.008 c 6.557,-16.369 16.532,-27.126 26.058,-34.184 11.257,-8.343 23.805,-11.334 30.912,-12.821 z" id="path2193" />
         <path fill-rule="evenodd" clip-rule="evenodd" fill="#ffead5" d="m 94.833,531.273 c -0.405,-1.505 -0.661,-3.129 -0.584,-4.138 -11.771,9.428 -20.919,43.591 -4.203,55.159 -4.464,-6.445 -6.183,-13.899 -6.006,-21.419 0.258,-11.141 4.25,-20.73 10.793,-29.602 z" id="path2195" />
         <path fill-rule="evenodd" clip-rule="evenodd" fill="#f78e2d" d="m 202.521,543.766 c 0.856,2.002 1.709,4.004 2.563,6.002 -1.29,3.764 -4.173,9.83 -5.023,13.244 0.616,0.948 2.602,2.353 3.813,5.88 0.958,2.828 0.637,7.341 -0.954,10.01 -0.429,0.725 -0.556,0.757 -0.226,1.632 1.372,3.694 0.916,8.557 -0.826,11.8 -1.345,2.499 -3.42,5.001 -5.746,6.312 -1.172,0.667 -0.582,1.758 -1.935,5.062 -1.229,2.999 -4.229,5.774 -6.995,7.178 -1.066,0.541 -2.683,0.766 -3.534,1.225 -2.059,5.664 -4.12,11.333 -6.179,17.001 -14.809,-3.817 -29.619,-7.634 -44.432,-11.454 -0.082,1.685 -0.006,3.739 0.199,6.042 20.286,12.895 44.356,20.369 70.176,20.369 29.56,0 56.832,-9.79 78.75,-26.302 4.651,-27.946 4.138,-62.329 -3.05,-85.209 -0.092,-0.708 -2.95,-8.659 -3.601,-10.152 -1.379,-3.157 -3.571,-7.275 -4.633,-8.997 -1.048,-1.696 -1.086,-1.802 -1.05,-2.808 0.214,-7.08 -1.158,-15.12 -3.607,-22.917 -1.564,-4.982 -4.26,-11.177 -6.58,-15.649 -0.198,8.761 -1.738,14.156 -7.925,23.802 -0.433,-1.91 -0.771,-3.859 -2.187,-5.971 -0.421,1.027 -0.854,2.022 -1.304,2.98 -3.973,29.516 -23.165,46.395 -45.714,50.92 z" id="path2197" />
         <path fill-rule="evenodd" clip-rule="evenodd" fill="#fbaf67" d="m 282.175,617.765 c 2.939,-17.668 3.814,-37.898 2.246,-56.177 -1.313,25.92 -2.452,43.494 -5.821,58.772 1.207,-0.845 2.399,-1.713 3.575,-2.595 z" id="path2199" />
         <path fill-rule="evenodd" clip-rule="evenodd" fill="#dd7726" d="m 203.494,585.729 c -0.057,2.384 -0.635,4.757 -1.625,6.604 -1.345,2.499 -3.42,5.001 -5.746,6.312 -1.172,0.667 -0.582,1.758 -1.935,5.062 -1.229,2.999 -4.229,5.774 -6.995,7.178 -1.066,0.541 -2.683,0.766 -3.534,1.225 l -6.179,17.001 -44.432,-11.454 c -0.082,1.685 -0.006,3.739 0.199,6.042 14.811,9.416 31.639,15.938 49.693,18.778 0.248,-9.439 1.92,-19.552 4.468,-23.209 6.159,-2.051 10.15,-6.922 11.336,-14.319 8.2,-5.377 6.996,-14.113 4.75,-19.22 z" id="path2201" />
         <path fill-rule="evenodd" clip-rule="evenodd" fill="#e8c6a3" d="m 301.834,453.732 c 3.768,-2.848 6.72,-3.375 13.436,-3.91 -1.428,-7.957 -6.45,-9.845 -9.882,-8.916 -4.177,1.128 -6.502,6.617 -3.554,12.826 z" id="path2203" />
         <path fill-rule="evenodd" clip-rule="evenodd" fill="#ffffff" d="m 127.536,549.189 c 2.962,0.167 5.058,0.501 7.807,1.196 0.948,0.244 1.491,0.61 2.244,0.017 0.537,-0.424 1.056,-0.989 1.559,-1.429 1.355,-1.285 2.71,-2.571 4.061,-3.854 0.348,-0.378 0.11,-0.036 0.346,-0.488 -2.858,0.298 -5.206,-0.077 -7.831,0.078 -2.31,0.142 -4.629,0.386 -6.962,0.765 -0.41,1.238 -0.82,2.478 -1.224,3.715 z m -4.545,58.164 c 0.283,-0.135 0.59,-0.317 0.954,-0.537 0.973,-0.595 1.852,-1.168 2.879,-1.685 0.899,-0.452 2.382,-0.811 3.101,-1.282 l 4.911,-4.021 c -0.962,-0.524 -9.603,-1.692 -11.416,-1.916 -1.996,-0.252 -4.041,-0.35 -6.042,-0.655 -1.327,-0.199 -4.433,-0.939 -5.625,-0.907 -0.436,1.595 -1.925,6.188 -1.922,7.604 z m 52.364,5.029 c -4.826,-0.7 -6.405,-1.855 -8.438,-2.291 -1.042,-0.22 -1.843,-0.195 -2.995,-0.521 -1.835,-0.513 -3.625,-1.143 -5.245,-1.749 -1.131,-0.432 -4.197,-1.949 -5.019,-2.035 -0.917,0.509 -2.82,2.816 -3.377,3.842 -1.106,2.034 -0.862,2.872 -2.449,4.134 l 25.028,6.462 z m -30.133,0.708 -18.199,-4.7 c 0.645,-0.708 1.697,-1.213 2.484,-1.803 l 5.108,-4.028 c 0.549,-0.427 2.028,-1.725 2.555,-2.018 1.435,-0.794 12.077,3.418 13.953,3.95 -0.372,0.826 -1.072,0.916 -2.142,2.783 -0.594,1.038 -0.952,2.189 -1.469,3.252 -0.596,1.232 -1.235,1.745 -2.232,2.522 z m 43.353,-70.049 c 0.706,1.786 -0.444,3.345 -1.144,4.704 -0.537,1.042 0.521,1.94 1.31,4.716 0.903,3.178 0.432,6.002 1.023,8.049 0.598,2.051 2.58,3.161 3.412,0.862 1.064,-2.958 5.164,-14.25 5.249,-15.621 z m -28.597,20.109 c -2.012,-2.209 -11.825,-7.886 -14.819,-9.245 -1.705,-0.769 -4.085,-1.578 -5.652,-2.408 1.41,-1.519 2.871,-3.048 4.362,-4.647 5.89,-6.29 6.405,-2.237 12.901,-10.104 0.248,-0.301 1.144,-1.24 1.827,-1.953 l 25.657,7.056 c 0.067,0.098 0.124,0.204 0.183,0.334 0.543,1.213 0.846,2.417 0.779,3.919 -1.963,-3.955 -14.258,-6.95 -15.452,-0.875 -0.179,0.911 -0.204,2.164 -0.57,3.882 -0.795,3.731 -2.265,8.162 -2.875,9.302 -1.102,0.813 -3.259,1.37 -6.341,4.739 z m -18.819,-20.231 c 1.266,0.11 2.602,0.037 4.797,-0.83 0.588,-0.235 1.386,-1.131 2.132,-2.152 1.924,-2.616 2.689,-4.228 4.75,-6.726 l -18.388,-5.054 c -1.689,5.118 -3.377,10.241 -5.064,15.36 4.772,-0.431 6.808,-1.025 11.773,-0.598 z" id="path2205" />
         <path fill-rule="evenodd" clip-rule="evenodd" fill="#cdcccc" d="m 129.568,547.83 c 2.079,0.208 4.026,0.558 6.142,1.091 0.222,0.057 0.698,0.236 0.96,0.281 0.511,-0.407 0.962,-0.912 1.455,-1.352 0.574,-0.537 1.151,-1.086 1.721,-1.627 -1.343,-0.029 -2.68,-0.086 -4.037,-0.005 -1.979,0.118 -3.951,0.317 -5.906,0.606 -0.111,0.339 -0.221,0.669 -0.335,1.006 z m -16.699,50.123 c -0.244,0.821 -0.499,1.651 -0.732,2.478 -0.157,0.55 -0.454,1.542 -0.635,2.396 l 11.295,2.914 c 0.124,-0.073 0.242,-0.143 0.362,-0.22 0.989,-0.599 1.949,-1.226 2.984,-1.742 0.816,-0.406 2.197,-0.732 2.889,-1.159 l 2.452,-2.006 c -0.889,-0.155 -1.78,-0.293 -2.673,-0.428 -1.852,-0.28 -3.719,-0.549 -5.575,-0.777 -2.028,-0.252 -4.067,-0.354 -6.087,-0.659 -0.921,-0.138 -1.851,-0.346 -2.773,-0.521 -0.411,-0.081 -0.972,-0.195 -1.507,-0.276 z m 41.107,9.481 c -0.799,0.732 -2.049,2.327 -2.364,2.917 -0.545,1.006 -0.775,1.795 -1.138,2.535 l 21.377,5.514 1.536,-4.817 c -1.176,-0.232 -2.332,-0.529 -3.485,-0.916 -0.966,-0.317 -1.947,-0.74 -2.924,-1.005 -0.124,-0.032 -0.25,-0.065 -0.378,-0.094 -1.042,-0.224 -2.02,-0.244 -3.08,-0.541 -1.821,-0.509 -3.609,-1.131 -5.377,-1.794 -0.815,-0.31 -1.64,-0.704 -2.437,-1.063 -0.407,-0.179 -1.152,-0.533 -1.73,-0.736 z m -5.428,-2.222 c -0.327,0.411 -0.61,0.851 -0.876,1.311 -0.625,1.086 -0.977,2.233 -1.52,3.349 -0.36,0.74 -0.741,1.135 -1.273,1.57 l -14.38,-3.715 5.056,-3.976 c 0.639,-0.505 1.528,-1.367 2.211,-1.803 1.158,-0.028 5.094,1.282 6.128,1.632 1.379,0.46 2.745,0.948 4.118,1.44 0.172,0.062 0.355,0.126 0.536,0.192 z m 41.683,-60.152 c -0.222,1.135 -0.836,2.173 -1.428,3.32 0.051,0.24 0.305,0.781 0.387,0.964 0.396,0.896 0.738,1.758 1.005,2.706 0.452,1.583 0.6,3.142 0.688,4.785 0.049,1.005 0.055,2.287 0.333,3.251 0.065,0.216 0.258,0.664 0.482,0.912 0.022,-0.053 0.043,-0.102 0.053,-0.139 0.891,-2.482 1.786,-4.96 2.661,-7.45 0.584,-1.668 1.166,-3.349 1.715,-5.033 0.126,-0.399 0.334,-0.985 0.507,-1.551 z m -25.091,12.329 c 0.309,-0.667 0.58,-1.514 0.797,-2.156 0.462,-1.388 0.879,-2.8 1.251,-4.22 0.191,-0.736 0.37,-1.478 0.527,-2.222 0.281,-1.298 0.319,-2.584 0.567,-3.854 0.525,-2.669 2.57,-4.049 5.131,-4.5 l -14.358,-3.951 c -0.393,0.402 -0.787,0.813 -1.121,1.217 -2.332,2.827 -4.195,4.72 -7.54,6.201 -2.382,1.058 -3.609,2.038 -5.424,3.979 -0.974,1.041 -1.957,2.079 -2.938,3.12 1.245,0.521 2.537,0.977 3.748,1.526 2.565,1.159 5.298,2.791 7.713,4.244 1.523,0.919 3.042,1.876 4.508,2.881 0.596,0.411 1.278,0.887 1.913,1.392 0.972,-0.936 2.016,-1.782 3.176,-2.503 0.617,-0.385 1.431,-0.756 2.05,-1.154 z m -14.861,-23.316 c -1.166,1.636 -2.199,3.328 -3.408,4.968 -0.271,0.375 -1.092,1.445 -1.493,1.652 -1.379,0.545 -2.584,0.851 -4.087,0.721 -2.15,-0.184 -4.185,-0.204 -6.33,-0.013 -1.139,0.102 -2.272,0.24 -3.408,0.37 1.294,-3.927 2.586,-7.857 3.884,-11.779 z" id="path2207" />
         <g id="g2227">
            <path fill-rule="evenodd" clip-rule="evenodd" fill="#1a1a1a" d="m 259.675,581.277 c -1.857,1.393 -4.146,2.096 -6.476,2.096 -2.12,0 -4.112,-0.427 -5.913,-1.591 l -1.3,-0.838 v -10.376 l 3.912,2.389 c 1.05,0.635 2.047,1.11 3.3,1.11 0.061,0 0.136,-0.057 0.169,-0.094 0.281,-0.297 0.339,-0.988 0.339,-1.375 0,-0.582 -0.122,-1.038 -0.456,-1.514 -0.702,-1.009 -2.208,-2.087 -3.125,-2.971 -2.567,-2.494 -3.908,-5.326 -3.931,-8.939 -0.021,-3.442 1.603,-6.56 4.576,-8.357 3.062,-1.844 6.895,-1.872 10.016,-0.15 l 1.467,0.817 v 4.224 h 13.32 v 9.257 h -5.764 V 589.4 h -10.136 v -8.123 z" id="path2209" />
            <polygon fill-rule="evenodd" clip-rule="evenodd" fill="#f78e2d" points="267.241,562.394 267.241,586.832 262.247,586.832 262.247,562.394 256.483,562.394 256.483,558.275 273.005,558.275 273.005,562.394 " id="polygon2211" />
            <path fill-rule="evenodd" clip-rule="evenodd" fill="#ffffff" d="m 248.776,558.386 c 1.679,-0.212 3.351,-0.456 5.02,-0.725 -0.287,0.546 -0.364,1.176 -0.305,1.79 -0.56,0.11 -1.115,0.216 -1.672,0.33 -0.997,0.199 -2,0.407 -2.991,0.643 -0.051,-0.41 -0.08,-0.834 -0.08,-1.277 -0.002,-0.256 0.01,-0.509 0.028,-0.761 z" id="path2213" />
            <path fill-rule="evenodd" clip-rule="evenodd" fill="#ffffff" d="m 257.73,565.156 c -0.535,0.541 -1.066,0.984 -1.782,1.424 -0.698,0.436 -1.457,0.875 -2.23,1.29 -0.588,-0.521 -1.216,-1.033 -1.817,-1.619 -0.046,-0.045 -0.093,-0.09 -0.14,-0.139 0.287,-0.049 0.576,-0.105 0.863,-0.183 1.389,-0.362 2.553,-1.063 3.536,-2.096 0.12,0.102 0.238,0.207 0.36,0.31 0.402,0.342 0.809,0.671 1.21,1.013 z" id="path2215" />
            <g id="g2225">
               <path fill-rule="evenodd" clip-rule="evenodd" fill="#ffffff" d="m 259.307,556.799 c -1.036,-0.407 -2.254,-0.7 -3.375,-0.533 -0.761,0.118 -1.463,0.456 -1.921,1.091 -0.452,0.626 -0.578,1.407 -0.496,2.164 0.11,0.989 0.562,1.933 1.139,2.73 0.529,0.721 1.205,1.335 1.886,1.908 0.736,0.627 1.495,1.221 2.181,1.9 1.772,1.741 2.576,3.613 2.56,6.12 -0.017,2.466 -0.73,4.875 -2.59,6.579 -1.491,1.372 -3.481,2.047 -5.491,2.047 -1.611,0 -3.142,-0.293 -4.513,-1.18 l -0.13,-0.081 v -4.399 c 1.471,0.899 2.881,1.498 4.643,1.498 0.779,0 1.512,-0.347 2.044,-0.912 0.784,-0.83 1.036,-2.018 1.036,-3.133 0,-3.174 -2.34,-4.37 -4.36,-6.327 -2.065,-2.01 -3.135,-4.184 -3.153,-7.108 -0.017,-2.544 1.139,-4.822 3.333,-6.141 2.274,-1.375 5.129,-1.384 7.442,-0.102 l 0.145,0.081 v 3.947 z" id="path2217" />
               <path fill-rule="evenodd" clip-rule="evenodd" fill="#cdcccc" d="m 259.01,555.969 v -2.563 c -2.065,-1.054 -4.563,-1.01 -6.563,0.195 -1.99,1.204 -3.015,3.255 -3.001,5.558 0.019,2.734 1.007,4.741 2.946,6.629 1.167,1.127 2.588,2.1 3.523,3.438 0.714,1.021 1.042,2.124 1.042,3.373 0,1.29 -0.313,2.633 -1.223,3.601 -0.657,0.7 -1.569,1.119 -2.535,1.119 -1.471,0 -2.729,-0.382 -3.967,-1.013 v 2.868 c 1.216,0.721 2.562,0.957 3.967,0.957 1.839,0 3.668,-0.619 5.029,-1.872 1.723,-1.579 2.364,-3.813 2.374,-6.083 0.017,-2.315 -0.712,-4.013 -2.354,-5.636 -0.676,-0.663 -1.424,-1.249 -2.146,-1.859 -0.727,-0.614 -1.437,-1.262 -1.996,-2.035 -0.647,-0.891 -1.139,-1.948 -1.263,-3.052 -0.102,-0.919 0.065,-1.867 0.618,-2.633 0.57,-0.789 1.422,-1.221 2.368,-1.362 1.053,-0.16 2.159,0.032 3.181,0.37 z" id="path2219" />
               <path fill-rule="evenodd" clip-rule="evenodd" fill="#ffffff" d="m 257.748,565.173 c -0.531,0.541 -1.066,0.984 -1.78,1.428 -0.698,0.432 -1.457,0.867 -2.23,1.286 -0.59,-0.521 -1.217,-1.033 -1.819,-1.615 -0.045,-0.049 -0.094,-0.094 -0.138,-0.139 0.291,-0.053 0.576,-0.109 0.864,-0.183 1.388,-0.37 2.547,-1.063 3.534,-2.1 0.116,0.102 0.238,0.207 0.36,0.309 0.406,0.342 0.807,0.672 1.209,1.014 z m -8.95,-6.767 c 1.674,-0.216 3.349,-0.464 5.017,-0.729 -0.285,0.545 -0.362,1.176 -0.309,1.79 -0.553,0.11 -1.111,0.216 -1.667,0.33 -1.001,0.195 -2.004,0.411 -2.993,0.643 -0.051,-0.407 -0.077,-0.834 -0.081,-1.277 0.001,-0.257 0.009,-0.509 0.033,-0.757 z" id="path2221" />
               <path fill-rule="evenodd" clip-rule="evenodd" fill="#1a1a1a" d="m 248.766,559.086 c 1.509,-0.191 3.104,-0.411 4.795,-0.684 -0.026,0.126 -0.044,0.248 -0.059,0.378 -1.559,0.301 -3.257,0.635 -4.718,0.98 -0.01,-0.195 -0.014,-0.395 -0.018,-0.598 z m 3.623,7.617 c 1.203,-0.257 2.812,-0.83 4.303,-2.409 0.179,0.146 0.36,0.293 0.539,0.443 -0.396,0.411 -0.883,0.83 -1.619,1.286 -0.871,0.537 -1.703,1.001 -2.432,1.379 -0.263,-0.223 -0.528,-0.455 -0.791,-0.699 z" id="path2223" />
            </g>
         </g>
         <path fill-rule="evenodd" clip-rule="evenodd" fill="#fbaf67" d="m 136.895,618.647 c -1.282,-0.329 -2.563,-0.663 -3.845,-0.992 -0.082,1.685 -0.006,3.739 0.199,6.042 1.54,0.977 3.101,1.925 4.682,2.84 -0.396,-2.624 -0.74,-5.261 -1.036,-7.89 z" id="path2229" />
         <path fill-rule="evenodd" clip-rule="evenodd" fill="#9a6f39" d="m 218.216,360.367 c 6.231,-5.515 19.015,-9.381 28.241,-2.993 -5.753,0.885 -15.157,5.595 -16.766,15.119 6.875,-1.663 13.184,-0.993 18.941,1.263 10.789,4.23 21.478,15.104 26.088,25.781 2.096,4.848 4.474,13.507 6.889,17.827 -3.584,-0.045 -7.971,-0.667 -12.435,-1.135 15.745,9.06 19.581,38.629 8.118,52.964 -2.436,-1.003 -4.993,-1.796 -7.778,-2.362 -3.265,-0.663 -6.423,-1.013 -10.469,-1.048 -0.163,-2.74 -0.202,-3.99 -0.676,-6.195 1.064,0.366 3.918,2.065 5.791,5.316 2.704,-8.838 -0.434,-16.994 -2.749,-21.438 -0.616,-1.18 -0.972,-1.77 -1.345,-2.372 6.895,-3.929 8.044,-14.777 4.797,-22.176 -2.272,-5.182 -6.781,-9.89 -12.708,-10.494 -2.089,-0.211 -4.02,0.21 -5.682,1.04 0.879,-9.379 -4.354,-16.158 -11.757,-18.917 -9.288,-3.459 -21.808,0.228 -24.939,11.112 -1.263,-2.191 -2.321,-4.14 -5.133,-6.323 -6.689,-5.206 -17.249,-5.465 -23.948,-0.169 -3.978,3.146 -6.266,7.099 -6.372,11.186 -1.876,-1.089 -4.907,-2.281 -10.036,-1.304 -5.709,1.084 -10.372,5.755 -12.594,11.788 -3.68,10.005 -0.574,18.498 3.811,23.142 -4.305,10.154 -4.738,16.057 -3.324,23.735 0.86,-1.512 1.764,-2.649 2.36,-3.146 -0.008,1.078 0.242,2.966 0.531,4.736 h -0.01 c -4.37,0.397 -11.088,2.087 -16.374,4.091 v 0 c -5.667,-2.582 -13.729,-9.25 -13.935,-21.389 -0.155,-8.594 4.523,-15.407 4.576,-18.339 -3.263,0.435 -8.297,-0.403 -11.328,-2.281 23.724,-12.641 25.456,-25.739 40.004,-44.592 3.477,-4.5 7.683,-8.222 14.693,-10.602 10.185,-3.457 20.428,-1.399 23.041,0.751 -0.36,-6.584 -8.167,-12.346 -9.885,-13.161 7.141,-0.808 16.605,-0.024 23.315,5.963 0.382,-5.446 -3.632,-12.223 -7.762,-15.686 8.711,0.27 13.413,5.364 16.809,10.308 z" id="path2231" />
         <path fill-rule="evenodd" clip-rule="evenodd" fill="#7b5221" d="m 269.538,466.837 -0.024,-0.006 c -3.265,-0.663 -6.423,-1.013 -10.469,-1.048 -0.163,-2.74 -0.202,-3.99 -0.676,-6.195 1.064,0.366 3.918,2.065 5.791,5.316 2.386,-7.804 0.22,-15.076 -1.917,-19.73 3.373,3.27 5.574,7.324 6.626,12.193 0.59,2.721 0.793,6.18 0.669,9.47 z" id="path2233" />
         <path fill-rule="evenodd" clip-rule="evenodd" fill="#7b5221" d="m 227.042,389.302 c -7.487,0.191 -14.946,4.303 -17.265,12.357 -1.263,-2.191 -2.321,-4.14 -5.133,-6.323 -6.689,-5.206 -17.249,-5.465 -23.948,-0.169 -3.978,3.146 -6.266,7.099 -6.372,11.186 -1.876,-1.089 -4.907,-2.281 -10.036,-1.304 -5.709,1.084 -10.372,5.755 -12.594,11.788 -3.68,10.005 -0.574,18.498 3.811,23.142 -4.305,10.154 -4.738,16.057 -3.324,23.735 0.86,-1.512 1.764,-2.649 2.36,-3.146 -0.008,1.078 0.242,2.966 0.531,4.736 h -0.01 c -4.37,0.397 -11.088,2.087 -16.374,4.091 v 0 c -5.667,-2.582 -13.729,-9.25 -13.935,-21.389 -0.155,-8.594 4.523,-15.407 4.576,-18.339 -3.263,0.435 -8.297,-0.403 -11.328,-2.281 23.724,-12.641 25.456,-25.739 40.004,-44.592 3.477,-4.5 7.683,-8.222 14.693,-10.602 10.185,-3.457 20.428,-1.399 23.041,0.751 -0.36,-6.584 -8.167,-12.346 -9.885,-13.161 7.141,-0.808 16.605,-0.024 23.315,5.963 0.382,-5.444 -3.63,-12.215 -7.758,-15.682 7.442,4.563 13.29,13.623 12.355,24.243 -3.09,-3.115 -6.215,-3.617 -9.084,-3.705 2.617,6.276 4.323,14.154 3.046,21.029 3.774,-2.713 13.104,-5.535 19.314,-2.328 z" id="path2235" />
         <path fill-rule="evenodd" clip-rule="evenodd" fill="#c8995e" d="m 142.003,468.236 c -1.137,0.371 -2.254,0.759 -3.316,1.16 v 0 c -5.667,-2.582 -13.729,-9.25 -13.935,-21.389 -0.102,-5.725 1.941,-10.661 3.331,-14.187 -1.949,9.086 -0.271,17.188 3.408,23.625 2.362,4.135 5.831,7.707 10.512,10.791 z" id="path2237" />
         <path fill-rule="evenodd" clip-rule="evenodd" fill="#c8995e" d="m 240.243,354.622 c 2.165,0.513 4.267,1.402 6.213,2.752 -5.108,0.783 -13.092,4.584 -15.942,12.091 l -0.002,0.002 c 0,0 1.288,-9.839 9.731,-14.845 z" id="path2239" />
         <path fill-rule="evenodd" clip-rule="evenodd" fill="#c8995e" d="m 195.34,370.712 c -1.677,-5.611 -7.967,-10.207 -9.487,-10.929 1.2,-0.132 2.463,-0.224 3.768,-0.254 1.414,1.194 2.877,2.799 3.662,4.209 1.479,2.667 2.057,6.974 2.057,6.974 z" id="path2241" />
         <path fill-rule="evenodd" clip-rule="evenodd" fill="#c8995e" d="m 122.574,429.18 c -1.689,-0.405 -3.306,-1.005 -4.574,-1.792 20.99,-11.186 24.764,-22.728 35.437,-38.3 -7.017,15.776 -15.023,31.545 -30.863,40.092 z" id="path2243" />
         <path fill-rule="evenodd" clip-rule="evenodd" fill="#e8c6a3" d="m 176.876,411.606 c -1.937,-8.968 5.125,-16.809 13.261,-17.664 4.758,-0.497 9.375,0.938 12.715,3.739 2.83,2.375 4.844,6.279 5.21,9.938 -4.411,-2.639 -9.401,-4.673 -15.747,-3.867 -6.409,0.819 -11.622,3.238 -15.439,7.854 z" id="path2245" />
         <path fill-rule="evenodd" clip-rule="evenodd" fill="#d6a675" d="m 176.876,411.606 c -1.937,-8.968 5.125,-16.809 13.261,-17.664 0.203,-0.021 0.403,-0.039 0.604,-0.051 -4.348,3.385 -6.732,7.906 -7.298,12.455 -2.505,1.277 -4.705,3.006 -6.567,5.26 z" id="path2247" />
         <path fill-rule="evenodd" clip-rule="evenodd" fill="#ffead5" d="m 176.876,411.606 c -1.237,-5.719 1.188,-10.98 5.219,-14.264 -3.485,4.312 -4.354,7.988 -3.974,12.885 -0.429,0.435 -0.848,0.895 -1.245,1.379 z" id="path2249" />
         <path fill-rule="evenodd" clip-rule="evenodd" fill="#e8c6a3" d="m 211.504,407.879 c 0.161,-9.528 6.533,-16.458 16.872,-16.077 8.562,0.313 16.362,7.21 15.918,16.791 -2.47,-2.089 -6.641,-5.505 -15.417,-6.046 -8.952,-0.554 -15.068,3.568 -17.373,5.332 z" id="path2251" />
         <path fill-rule="evenodd" clip-rule="evenodd" fill="#d6a675" d="m 211.504,407.879 c 0.148,-8.964 5.802,-15.629 15.088,-16.069 -3.875,3.093 -6.17,7.353 -7.066,11.877 -3.896,1.24 -6.645,3.136 -8.022,4.192 z" id="path2253" />
         <path fill-rule="evenodd" clip-rule="evenodd" fill="#ffead5" d="m 211.504,407.879 c 0.092,-5.406 2.183,-9.971 5.859,-12.842 -2.771,3.745 -4.104,7.788 -4.266,11.717 -0.649,0.421 -1.182,0.811 -1.593,1.125 z" id="path2255" />
         <path fill-rule="evenodd" clip-rule="evenodd" fill="#e8c6a3" d="m 158.766,415.74 c 3.235,-3.782 11.196,-5.886 14.138,1.882 -9.511,-3.587 -16.449,5.072 -12.795,15.458 l -3.127,4.403 c -3.601,-2.763 -4.486,-12.136 -3.505,-16.72 0.808,-3.77 2.594,-7.316 5.444,-9.877 3.554,-3.19 9.877,-5.019 15.106,-1.271 0.372,4.171 2.818,9.715 4.759,11.615 -7.329,1.477 -14.248,6.895 -16.545,9.605 -1.475,-4.283 -0.183,-8.172 2.602,-10.256 2.136,-1.595 5.156,-2.13 8.484,-0.977 0.957,0.338 1.895,0.977 2.558,0.293 0.515,-0.771 -0.932,-4.252 -3.31,-6.625 -4.319,-4.301 -11.834,-2.571 -13.809,2.47 z" id="path2257" />
         <path fill-rule="evenodd" clip-rule="evenodd" fill="#d6a675" d="m 158.766,415.74 c 3.235,-3.782 11.196,-5.886 14.138,1.882 -9.511,-3.587 -16.449,5.072 -12.795,15.458 l -3.127,4.403 c -3.601,-2.763 -4.486,-12.136 -3.505,-16.72 0.808,-3.77 2.594,-7.316 5.444,-9.877 1.341,-1.205 3.078,-2.216 4.999,-2.806 4.332,0.208 6.61,3.695 6.61,3.695 v 0.004 c -4.33,-2.24 -10.076,-0.354 -11.764,3.961 z" id="path2259" />
         <path fill-rule="evenodd" clip-rule="evenodd" fill="#ffffff" d="m 208.194,410.501 c 0.173,3.646 -1.534,6.747 -3.192,8.773 -0.456,0.563 -0.891,0.761 -1.399,1.07 -0.891,0.537 -2.014,1.066 -3.064,1.756 -1.187,0.781 -2.291,1.717 -3.196,2.203 -2.71,1.455 -6.907,1.235 -10.651,-0.277 -4.976,-2.016 -7.945,-5.861 -8.946,-9.804 3.723,-4.256 8.96,-7.344 14.805,-8.05 5.293,-0.647 10.87,0.559 15.643,4.329 z" id="path2261" />
         <path fill-rule="evenodd" clip-rule="evenodd" fill="#cdcccc" d="m 196.617,424.639 c -2.698,1.07 -6.504,0.769 -9.926,-0.613 -4.976,-2.016 -7.945,-5.861 -8.946,-9.804 1.607,-1.835 3.496,-3.45 5.591,-4.758 0.393,6.943 5.011,13.35 13.281,15.175 z" id="path2263" />
         <path fill-rule="evenodd" clip-rule="evenodd" fill="#ffffff" d="m 189.578,424.916 c -0.971,-0.209 -1.943,-0.506 -2.887,-0.889 -4.976,-2.016 -7.945,-5.861 -8.946,-9.804 0.291,-0.332 0.59,-0.655 0.897,-0.968 1.462,4.812 3.962,9.048 10.936,11.661 z" id="path2265" />
         <path fill-rule="evenodd" clip-rule="evenodd" fill="#ffffff" d="m 211.5,410.654 c 3.2,-2.795 8.099,-5.809 15.802,-5.845 4.647,-0.024 8.925,1.347 12.848,3.843 0.734,0.466 3.176,2.5 3.597,3.176 -2.527,6.698 -6.693,9.473 -9.452,10.636 -2.441,1.028 -4.563,1.367 -7.184,1.384 -2.71,0.022 -1.498,-1.018 -6.393,-3.023 -1.223,-0.5 -3.776,-1.095 -4.565,-1.638 -1.998,-1.368 -4.246,-5.07 -4.653,-8.533 z" id="path2267" />
         <path fill-rule="evenodd" clip-rule="evenodd" fill="#cdcccc" d="m 211.5,410.654 c 1.892,-1.65 4.376,-3.375 7.676,-4.523 -0.531,6.037 1.286,12.238 5.017,16.545 -0.649,-0.474 -1.628,-1.095 -3.475,-1.852 -1.223,-0.5 -3.776,-1.095 -4.565,-1.638 -1.998,-1.367 -4.246,-5.069 -4.653,-8.532 z" id="path2269" />
         <path fill-rule="evenodd" clip-rule="evenodd" fill="#ffffff" d="m 211.5,410.654 c 0.504,-0.441 1.054,-0.889 1.652,-1.329 0.328,3.744 1.697,7.296 3.864,10.272 -0.362,-0.139 -0.667,-0.277 -0.863,-0.411 -1.998,-1.367 -4.246,-5.069 -4.653,-8.532 z" id="path2271" />
         <path fill-rule="evenodd" clip-rule="evenodd" fill="#e8c6a3" d="m 247.102,419.832 c 6.792,-2.527 11.548,4.252 9.279,10.107 -0.413,1.062 -1.66,3.058 -2.681,3.432 -1.046,0.382 -1.986,-0.954 -3.548,-2.228 -2.203,-1.799 -4.525,-3.494 -7.271,-4.856 -0.588,-4.814 -0.696,-9.825 3.284,-13.396 1.203,-1.08 2.712,-1.807 4.492,-1.886 4.37,-0.191 8.02,3.029 9.782,5.548 2.203,3.137 3.798,7.697 3.546,12.524 -0.224,4.293 -2.452,8.533 -5.979,9.434 -1.107,-0.95 -2.104,-2.181 -2.997,-3.129 0.287,-0.405 0.58,-0.535 1.029,-1.015 2.771,-2.968 3.611,-7.39 2.197,-11.259 -1.428,-3.9 -5.926,-6.801 -10.95,-4.724 0.633,-5.408 8.049,-4.982 10.836,-2.044 -1.518,-2.604 -5.001,-3.766 -8.028,-2.96 -2.545,0.678 -4.303,2.49 -4.873,5.294 -0.446,2.213 0.417,1.701 1.882,1.158 z" id="path2273" />
         <path fill-rule="evenodd" clip-rule="evenodd" fill="#d6a675" d="m 247.102,419.832 c 6.792,-2.527 11.548,4.252 9.279,10.107 -0.413,1.062 -1.66,3.058 -2.681,3.432 -1.046,0.382 -1.986,-0.954 -3.548,-2.228 -2.203,-1.799 -4.525,-3.494 -7.271,-4.856 -0.588,-4.814 -0.696,-9.825 3.284,-13.396 1.203,-1.08 2.712,-1.807 4.492,-1.886 1.947,-0.085 3.754,0.509 5.313,1.414 -1.345,0.222 -2.458,0.519 -3.095,0.752 -0.924,-0.1 -1.874,-0.037 -2.781,0.208 -2.545,0.678 -4.303,2.49 -4.873,5.294 -0.447,2.214 0.416,1.702 1.881,1.159 z" id="path2275" />
         <path fill-rule="evenodd" clip-rule="evenodd" fill="#7b5221" d="m 209.898,414.32 c 0.82,2.126 2.021,3.835 2.737,4.666 -1.616,-0.184 -3.573,-0.015 -5.046,0.439 0.902,-1.237 1.484,-2.104 2.309,-5.105 z" id="path2277" />
         <path fill-rule="evenodd" clip-rule="evenodd" fill="#7b5221" d="m 239.926,424.818 -3.218,-1.192 c 1.329,-0.763 2.163,-1.487 3.225,-2.195 z" id="path2279" />
         <path fill-rule="evenodd" clip-rule="evenodd" fill="#e8c6a3" d="m 213.528,443.182 c -4.789,0.714 -9.9,-0.053 -13.564,-2.578 -10.571,-7.282 -1.469,-18.109 10.474,-19.34 19.155,-1.972 23.087,18.945 3.09,21.918 z" id="path2281" />
         <path fill-rule="evenodd" clip-rule="evenodd" fill="#ffead5" d="m 218.45,423.192 c 7.007,3.768 7.918,12.346 0.907,17.137 4.224,-5.102 3.032,-12.573 -0.907,-17.137 z" id="path2283" />
         <path fill-rule="evenodd" clip-rule="evenodd" fill="#d6a675" d="m 213.528,443.182 c -4.789,0.714 -9.9,-0.053 -13.564,-2.578 -10.571,-7.282 -1.469,-18.109 10.474,-19.34 0.565,-0.057 1.123,-0.094 1.664,-0.116 -5.334,2.271 -8.358,7.149 -8.136,11.538 0.275,5.369 5.367,10.016 14.095,9.393 -1.347,0.476 -2.852,0.854 -4.533,1.103 z" id="path2285" />
         <path fill-rule="evenodd" clip-rule="evenodd" fill="#ffead5" d="m 204.996,442.821 c -1.835,-0.462 -3.55,-1.196 -5.031,-2.217 -6.462,-4.452 -5.575,-10.229 -1.178,-14.325 -4.045,7.184 -0.269,13.202 6.209,16.542 z" id="path2287" />
         <path fill-rule="evenodd" clip-rule="evenodd" fill="#1a1a1a" d="m 193.287,418.389 c 6.711,-0.258 7.288,-10.83 -0.226,-10.521 -2.95,0.12 -4.716,1.864 -5.111,3.959 -0.575,3.032 1.524,6.706 5.337,6.562 z" id="path2289" />
         <path fill-rule="evenodd" clip-rule="evenodd" fill="#9a6f39" d="m 193.269,417.455 c 2.938,-0.11 4.447,-2.616 4.293,-4.905 -0.362,1.864 -1.813,3.557 -4.213,3.648 -2.653,0.102 -4.299,-2.046 -4.454,-4.222 l -0.019,0.083 c -0.47,2.493 1.253,5.52 4.393,5.396 z" id="path2291" />
         <path fill-rule="evenodd" clip-rule="evenodd" fill="#ffffff" d="m 196.023,412.363 c 2.559,-0.096 2.781,-4.126 -0.083,-4.01 -1.123,0.047 -1.798,0.714 -1.949,1.512 -0.22,1.155 0.58,2.555 2.032,2.498 z" id="path2293" />
         <path fill-rule="evenodd" clip-rule="evenodd" fill="#1a1a1a" d="m 227.137,416.914 c 6.716,-0.258 7.293,-10.83 -0.22,-10.521 -2.95,0.12 -4.72,1.866 -5.115,3.957 -0.575,3.03 1.52,6.709 5.335,6.564 z" id="path2295" />
         <path fill-rule="evenodd" clip-rule="evenodd" fill="#9a6f39" d="m 227.121,415.984 c 2.94,-0.114 4.45,-2.623 4.295,-4.909 -0.362,1.861 -1.813,3.554 -4.211,3.649 -2.657,0.1 -4.299,-2.051 -4.458,-4.224 l -0.018,0.083 c -0.469,2.49 1.254,5.521 4.392,5.401 z" id="path2297" />
         <path fill-rule="evenodd" clip-rule="evenodd" fill="#ffffff" d="m 229.874,410.888 c 2.563,-0.098 2.781,-4.122 -0.082,-4.006 -1.125,0.047 -1.798,0.71 -1.949,1.505 -0.218,1.156 0.58,2.556 2.031,2.501 z" id="path2299" />
         <path fill-rule="evenodd" clip-rule="evenodd" fill="#1a1a1a" d="m 176.738,388.783 c 5.935,-5.564 17.747,-6.484 26.052,-3.898 -8.146,-9.025 -23.25,-4.246 -26.052,3.898 z" id="path2301" />
         <path fill-rule="evenodd" clip-rule="evenodd" fill="#1a1a1a" d="m 214.802,385.385 c 6.653,-4.679 18.478,-3.943 26.341,-0.224 -6.808,-10.077 -22.431,-7.454 -26.341,0.224 z" id="path2303" />
         <path fill-rule="evenodd" clip-rule="evenodd" fill="#9a6f39" d="m 226.956,438.948 c 4.537,-5.536 1.475,-11.942 0.745,-13.033 2.148,0.01 4.22,-0.293 6.167,-1.092 7.019,2.565 14.524,6.524 21.291,14.394 4.844,5.636 8.008,12.51 7.87,20.374 -1.744,-2.234 -4.799,-4.03 -8.411,-4.675 1.571,7.981 3.664,23.499 -1.737,32.426 -0.366,-0.647 -1.595,-4.618 -5.449,-6.545 0.212,4.626 -8.665,22.614 -13.218,24.974 -0.098,-4.092 -1.477,-6.983 -2.634,-8.531 -3.699,6.244 -10.616,17.193 -19.041,17.104 -11.221,-0.118 -18.376,-13.627 -20.528,-15.457 -0.891,2.401 -0.842,5.926 -0.242,7.875 -3.619,-1.599 -15.462,-13.861 -18.492,-19.242 -0.923,2 -1.664,4.543 -2.061,7.296 -8.602,-9.729 -14.15,-31.167 -13.344,-40.837 -1.751,0.763 -2.582,1.709 -3.561,2.914 0.224,-7.945 2.981,-14.512 6.614,-19.621 4.997,-7.015 11.56,-11.748 19.928,-14.036 3.548,2.752 7.79,4.653 14.012,3.898 -2.277,3.532 -2.602,8.535 0.24,12.51 1.817,2.541 4.543,4.224 7.609,5.202 7.592,2.419 19.054,0.494 24.242,-5.898 z" id="path2305" />
         <path fill-rule="evenodd" clip-rule="evenodd" fill="#c8995e" d="m 279.709,428.256 c 6.15,12.756 5.759,30.717 -2.415,40.937 -0.991,-0.409 -2.008,-0.786 -3.046,-1.121 8.502,-11.349 8.679,-25.481 5.461,-39.816 z" id="path2307" />
         <path fill-rule="evenodd" clip-rule="evenodd" fill="#7b5221" d="m 205.415,512.418 c -7.143,-3.821 -11.753,-12.128 -13.405,-13.532 -0.891,2.401 -0.842,5.926 -0.242,7.875 -3.619,-1.599 -15.462,-13.861 -18.492,-19.242 -0.923,2 -1.664,4.543 -2.061,7.296 -8.602,-9.729 -14.15,-31.167 -13.344,-40.837 -1.751,0.763 -2.582,1.709 -3.561,2.914 0.224,-7.945 2.981,-14.512 6.614,-19.621 4.997,-7.015 11.56,-11.748 19.928,-14.036 3.548,2.752 7.79,4.653 14.012,3.898 -2.277,3.532 -2.602,8.535 0.24,12.51 1.817,2.541 4.543,4.224 7.609,5.202 6.752,2.148 16.575,0.869 22.308,-3.945 -6.636,13.861 -29.659,17.249 -45.27,6.183 -1.447,17.468 3.316,28.347 8.04,37.557 1.896,-4.706 4.244,-6.769 6.15,-8.648 -2.219,12.258 5.055,25.988 11.474,36.426 z" id="path2309" />
         <g id="g2319">
            <path fill-rule="evenodd" clip-rule="evenodd" fill="#1a1a1a" d="m 173.015,448.968 c 0.262,2.547 1.817,2.677 2.256,0.044 0.299,-1.766 1.432,-3.818 2.571,-4.292 3.088,14.665 14.506,32.851 34.153,31.201 18.213,-1.532 24.38,-20.239 26.147,-26.876 0.971,0.767 1.034,2.387 1.695,3.058 1.032,1.054 2.56,-0.029 1.782,-1.992 -1.39,-3.534 -3.552,-5.275 -7.227,-5.56 -1.082,-0.083 -2.059,0.063 -2.193,0.846 -0.261,1.532 1.953,0.603 4.057,2.035 -7.001,19.495 -50.271,18.787 -56.543,-3.843 0.734,-0.419 1.603,-0.667 2.344,-0.903 2.893,-0.942 1.611,-2.59 -0.666,-2.23 -1.827,0.285 -3.894,1.054 -5.591,2.619 -1.672,1.547 -2.99,3.891 -2.785,5.893 z" id="path2311" />
            <path fill-rule="evenodd" clip-rule="evenodd" fill="#cc4847" d="m 196.355,468.277 c 5.711,4.199 17.56,7.977 26.687,-0.358 -5.27,-4.799 -16.812,-5.223 -26.687,0.358 z" id="path2313" />
            <path fill-rule="evenodd" clip-rule="evenodd" fill="#b33535" d="m 196.355,468.277 c 2.523,1.855 6.25,3.629 10.411,4.309 -2.887,-4.295 3.436,-7.54 9.576,-7.87 -5.764,-1.255 -13.259,-0.239 -19.987,3.561 z" id="path2315" />
            <path fill-rule="evenodd" clip-rule="evenodd" fill="#ec8080" d="m 218.495,471.032 c 1.019,-0.496 2.02,-1.101 3.001,-1.831 -3.829,-3.261 -8.565,-4.193 -13.428,-3.554 4.506,0.555 8.317,2.835 10.427,5.385 z" id="path2317" />
         </g>
         <path fill-rule="evenodd" clip-rule="evenodd" fill="#c8995e" d="m 241.326,428.122 c 4.698,2.5 9.424,5.969 13.833,11.094 4.844,5.636 8.008,12.51 7.87,20.374 -1.744,-2.234 -4.799,-4.03 -8.411,-4.675 1.571,7.981 3.664,23.499 -1.737,32.426 -0.189,-0.335 -0.617,-1.577 -1.53,-2.962 4.389,-10.441 2.019,-25.73 -2.779,-34.949 3.525,0.075 6.583,0.799 9.053,2.329 -2.536,-9.729 -7.852,-16.331 -16.299,-23.637 z m 5.135,57.162 c -3.9,7.377 -8.761,14.317 -12.565,17.495 0.175,0.911 0.293,1.908 0.317,2.991 3.583,-1.856 9.849,-13.398 12.248,-20.486 z" id="path2321" />
         <path fill-rule="evenodd" clip-rule="evenodd" fill="#ffead5" d="m 288.98,560.237 c 0.148,1.216 0.299,2.47 0.45,3.768 0.124,1.343 -0.026,1.668 0.637,2.327 6.374,6.344 19,8.529 26.571,3.825 -13.966,3.251 -21.841,-2.791 -27.658,-9.92 z" id="path2323" />
         <path fill-rule="evenodd" clip-rule="evenodd" fill="#d6a675" d="m 301.834,453.732 c 1.996,-1.507 3.764,-2.366 5.983,-2.917 l -3.717,-9.393 c -3.332,1.808 -4.896,6.772 -2.266,12.31 z" id="path2325" />
      </g>
   </g>

</svg>
