<svg xmlns="http://www.w3.org/2000/svg" viewBox="0 0 738.84 746.78"><defs><style>.cls-1{fill:#ff914d;}.cls-2{fill:#4d4d4f;stroke-width:2px;}.cls-10,.cls-11,.cls-12,.cls-13,.cls-2,.cls-4,.cls-5,.cls-6,.cls-7,.cls-8,.cls-9{stroke:#000;}.cls-10,.cls-11,.cls-13,.cls-2,.cls-3,.cls-5,.cls-6,.cls-8{stroke-miterlimit:10;}.cls-3{fill:#abadb0;stroke:#231f20;}.cls-3,.cls-7{stroke-width:4px;}.cls-4{fill:#996e39;stroke-width:8px;}.cls-10,.cls-12,.cls-4,.cls-7,.cls-8,.cls-9{stroke-linecap:round;}.cls-12,.cls-4,.cls-7,.cls-9{stroke-linejoin:round;}.cls-5{fill:#e8c6a4;}.cls-10,.cls-5,.cls-9{stroke-width:5px;}.cls-6{fill:#fff;}.cls-13,.cls-6,.cls-8{stroke-width:6px;}.cls-10,.cls-7,.cls-8,.cls-9{fill:none;}.cls-12,.cls-13{fill:#e8c6a3;}.cls-12{stroke-width:7px;}</style></defs><g id="Layer_2" data-name="Layer 2"><ellipse class="cls-1" cx="885.93" cy="528.16" rx="373.39" ry="369.42" transform="translate(-172.45 1251) rotate(-89.11)"/><ellipse class="cls-2" cx="380.32" cy="378.67" rx="348.12" ry="355.7"/><ellipse class="cls-3" cx="361.31" cy="369.49" rx="348.12" ry="355.7"/></g><g id="Layer_4" data-name="Layer 4"><path class="cls-4" d="M930.72,271.3l0,0c-.24-16.86-15.41-30.94-32.37-36.46s-35.47-4.31-53.37-3c21.83,1.56,41,19.46,42.81,40-33.39-8.66-72.83-16.27-99.68,4.3,19-1.73,38.63,8.27,47.45,24.18-3.92-7.07-43.13-7.18-50.95-6.91A179.48,179.48,0,0,0,730,304c-73.14,26.36-112.8,92.65-123.08,167.14l32.77-.89c-26.77,11.11-38.93,41.6-43.07,68.82-6.86,45-5.33,98,27.3,134.18,13.42-16.12,38.5-7.61,60.27-7.29,105.76,1.55,203.28,5.38,308.92.63,38.06-1.71,88.3-14.38,118.19,7.82,26.07-27.33,44.17-62.22,46.27-98.86s-13-74.75-43.25-98c-4-3.09-18.52-8.12-13.43-7.19,11.08,2,28.17,1.2,33.5,6.58,4.62,4.64,3.14-15.21,3-17-1.07-12.78-4.7-24.68-8.61-37-9-28.31-20.87-56.7-42.45-78.76-14.15-14.47-31.78-25.4-50.4-34.11-4.91-2.3-46.57-22-51.06-16a57,57,0,0,1,31.86-21c12.88-3.22,26.92-2.37,38.79,3.38-12.18-20.39-36-34.18-60.89-35.2S944.76,252,930.72,271.3Z" transform="translate(-516.51 -154.77)"/></g><g id="Layer_5" data-name="Layer 5"><path class="cls-5" d="M764.44,485.41c2.59-17-2.57-36-12.64-49.66-4.73-6.44-10.59-12.15-17.69-14.84-10.33-3.93-21.9-.92-31.62,4.6-19.67,11.17-28.61,33.39-29.11,57-.36,16.88,3.32,50.17,20,58,7.86,3.69,23.44-10.07,31.12-14.61,9.39-5.56,26.39-11.43,32.73-21.14A48.57,48.57,0,0,0,764.44,485.41Z" transform="translate(-516.51 -154.77)"/><path class="cls-5" d="M994.06,495.33c.42-16.3,8.34-33.08,20-44.19,5.46-5.21,11.85-9.56,18.87-10.9,10.24-1.95,20.47,2.76,28.57,9.51,16.4,13.67,21,35.85,17.54,57.94-2.47,15.79-11.41,46.2-28.2,50.74-7.9,2.13-20.07-13.26-26.44-18.76-7.79-6.73-22.58-15-26.85-25.11A46,46,0,0,1,994.06,495.33Z" transform="translate(-516.51 -154.77)"/><path class="cls-4" d="M880.64,435.93c-25.88,2.81-50.93,39.21-76.95,40-13.58.41-23.71-7.52-36.83-4.19-15.93,4-24.23,10.77-32.81,15.71-26.46,15.21-48.84,42.31-59.5,70.24C668,574.79,653.83,627,672.36,641.3c-.54-.42,5.17-15.45,5.9-17.11a194.79,194.79,0,0,1,9.7-20.05c1-1.74,4.2-8.3,6.75-7.79,1.77.36-8.93,12.54-10.05,39.21-1.18,28.19,10.22,73.78,27.27,95.61,1.79,2.3,5.55-6.73,5.89-7.55,3.48-8.29,9.09-13.63,15.62-19.67,7.27-6.73-3.55,14.15,10.26,36.38,13.29,21.39,38.64,41.44,51.1,50.23-4.16-2.94,1.94-12.82,3.51-15.81,3.82-7.3,6.51-15.19,10.72-22.28-7.75,13.06,9.71,28.42,18.16,35.85a207.47,207.47,0,0,0,31.68,22.88,151.15,151.15,0,0,1,14,8.94c1.56,1.15,6.9,6.64,8.89,6.58,11.77-.34,32.76-24.84,39.34-32.7,9.56-11.43,18.17-23.36,21-37.37,0,0,2-12.14,2-12.21,6.51,7.94,8.06,6.51,11,16.87,2.23,7.84.52,18.38.74,26.58-.06-2.51,23.74-22.24,26.7-26,17.74-22.56,24.93-41.68,28.48-68.19.92-1.15,8.48,6.7,9.15,7.37,3.94,3.94,8.79,7.93,10.09,13.66.28,1.25.37,3.8,1.77,4.43,2.78,1.24,23.21-31.8,25.4-54.86.68-7.2,2.86-14.11,2.83-21.42,0-8.68-2.59-20.79-9-27.2-2.63-2.61-5.1-4.52-7.23-7.58.23.32,6.79,1.68,7.67,2.1a37.22,37.22,0,0,1,13.4,11.48c.88,1.21,4,8.71,5.68,8.69,2.31,0,8-17.77,5.18-36.17-4-26.29-15.79-58.07-42-89.37-22-26.32-51.15-36.18-61.76-34.24-5.33,1-2.82,17-2.82,17S893.27,434.56,880.64,435.93Z" transform="translate(-516.51 -154.77)"/></g><g id="Layer_6" data-name="Layer 6"><circle class="cls-6" cx="303.21" cy="281.9" r="61.48"/><circle class="cls-6" cx="429.6" cy="281.9" r="61.48"/></g><g id="Layer_10" data-name="Layer 10"><path class="cls-7" d="M1063.9,483c-3.53-11.13-21.35-32.15-33.64-21.06-4.83,4.36-7.9,11.28-10,17.37.12-.32,20.72,9.29,22.55,10.78a25.38,25.38,0,0,1,9.24,16.77c.72,5.42,1.53,16.38-1.8,20.88" transform="translate(-516.51 -154.77)"/><path class="cls-8" d="M756.22,566.58c19.55,31.35,31.77,60.6,63.48,82.75,10.93,7.63,23,14,36.07,16.64,26.61,5.4,54.6-5.47,75.09-23.29s34.49-41.87,46.2-66.37" transform="translate(-516.51 -154.77)"/><path class="cls-9" d="M958,578.63c8.07-3.28,18.42-6.15,24.54,0,5.26,5.31,3.92,14,2.22,21.31" transform="translate(-516.51 -154.77)"/><path class="cls-10" d="M746.64,586.48c-.79-8.67-.52-19.41,7.18-23.46,6.62-3.48,14.56.34,21,4.09" transform="translate(-516.51 -154.77)"/><path class="cls-7" d="M695.07,452.4c5.85-10.38,27.78-27.54,37.39-13.76,3.78,5.42,5.28,13,6.06,19.58,0-.35-22.23,4.79-24.34,5.88-11.64,6-25.32,35.51-10.93,44.2" transform="translate(-516.51 -154.77)"/></g><g id="Layer_7" data-name="Layer 7"><circle class="cls-11" cx="303.06" cy="280.52" r="14.51"/><circle class="cls-11" cx="428.07" cy="280.73" r="14.51"/></g><g id="Layer_8" data-name="Layer 8"><path class="cls-12" d="M883,437.09c-8-3.16-18.84-8-26.53-12-13.58-7-29.49-11.08-44.56-8.28-20.61,3.85-40.76,16.39-56.64,30,1.48-1.26,1.16-10.36,1.37-12.45.42-4.42.87-8.85,1.69-13.2,6-31.84,40.1-49.71,68.46-49.68,12.28,0,24.73,3.35,34.67,11.22a59.42,59.42,0,0,1,14.33,17,54.37,54.37,0,0,1,5.77,13.65C882.44,417.48,883.29,423.89,883,437.09Z" transform="translate(-516.51 -154.77)"/><path class="cls-12" d="M882.61,437.1c8-3,19-7.74,26.71-11.58C923,418.73,939,414.89,954,417.94c20.55,4.16,40.51,17,56.17,30.84-1.45-1.28-1-10.38-1.17-12.47-.36-4.43-.74-8.86-1.49-13.23-5.53-31.92-39.33-50.33-67.68-50.73-12.28-.17-24.78,3-34.84,10.67a59.44,59.44,0,0,0-14.59,16.77,54.49,54.49,0,0,0-6,13.56C883.42,417.49,882.47,423.89,882.61,437.1Z" transform="translate(-516.51 -154.77)"/></g><g id="Layer_9" data-name="Layer 9"><ellipse class="cls-13" cx="362.33" cy="363.86" rx="66.6" ry="46.91"/></g></svg>