<?xml version="1.0" encoding="UTF-8" standalone="no"?>
<!-- Created with Inkscape (http://www.inkscape.org/) -->

<svg width="24mm" height="24mm" viewBox="0 0 24 24" version="1.1" id="svg5552" inkscape:version="1.1 (c68e22c387, 2021-05-23)" sodipodi:docname="st.svg"
   xmlns:inkscape="http://www.inkscape.org/namespaces/inkscape"
   xmlns:sodipodi="http://sodipodi.sourceforge.net/DTD/sodipodi-0.dtd"
   xmlns="http://www.w3.org/2000/svg"
   xmlns:svg="http://www.w3.org/2000/svg">
   <sodipodi:namedview id="namedview5554" pagecolor="#505050" bordercolor="#eeeeee" borderopacity="1" inkscape:pageshadow="0" inkscape:pageopacity="0" inkscape:pagecheckerboard="0" inkscape:document-units="mm" showgrid="false" fit-margin-left="1" fit-margin-top="1" fit-margin-right="1" fit-margin-bottom="1" inkscape:zoom="2.9362514" inkscape:cx="9.7062534" inkscape:cy="72.541472" inkscape:window-width="1920" inkscape:window-height="1010" inkscape:window-x="-6" inkscape:window-y="-6" inkscape:window-maximized="1" inkscape:current-layer="layer1" />
   <defs id="defs5549" />
   <g inkscape:label="Layer 1" inkscape:groupmode="layer" id="layer1" transform="translate(-111.49157,-101.25071)">
      <g id="g822" transform="matrix(0.26458333,0,0,0.26458333,-38.701583,-30.721123)">
         <path fill-rule="evenodd" clip-rule="evenodd" fill="#1a1a1a" d="m 610.579,570.283 c -4.086,3.061 -9.127,4.614 -14.25,4.614 -4.663,0 -9.058,-0.944 -13.013,-3.499 l -2.864,-1.852 v -22.835 l 8.602,5.249 c 2.315,1.407 4.517,2.453 7.275,2.453 0.126,0 0.289,-0.126 0.37,-0.211 0.619,-0.655 0.745,-2.178 0.745,-3.023 0,-1.286 -0.272,-2.287 -1.005,-3.341 -1.543,-2.21 -4.859,-4.578 -6.873,-6.535 -5.652,-5.489 -8.605,-11.727 -8.659,-19.661 -0.049,-7.593 3.528,-14.457 10.075,-18.404 6.734,-4.063 15.178,-4.126 22.042,-0.33 l 3.234,1.791 v 9.302 h 29.317 v 20.377 h -12.683 v 53.789 h -22.314 v -17.884 z" id="path804" />
         <polygon fill-rule="evenodd" clip-rule="evenodd" fill="#f78e2d" points="603.548,528.719 603.548,519.656 639.921,519.656 639.921,528.719 627.233,528.719 627.233,582.507 616.234,582.507 616.234,528.719 " id="polygon806" />
         <path fill-rule="evenodd" clip-rule="evenodd" fill="#ffffff" d="m 586.592,519.896 c 3.69,-0.472 7.373,-1.013 11.044,-1.607 -0.623,1.205 -0.802,2.593 -0.672,3.947 -1.225,0.24 -2.453,0.477 -3.683,0.725 -2.197,0.439 -4.398,0.899 -6.579,1.42 -0.11,-0.903 -0.171,-1.839 -0.175,-2.812 -0.005,-0.565 0.016,-1.123 0.065,-1.673 z" id="path808" />
         <path fill-rule="evenodd" clip-rule="evenodd" fill="#ffffff" d="m 606.294,534.793 c -1.172,1.196 -2.344,2.165 -3.918,3.142 -1.538,0.956 -3.207,1.925 -4.916,2.832 -1.289,-1.144 -2.673,-2.278 -3.991,-3.561 -0.105,-0.102 -0.208,-0.203 -0.31,-0.305 0.635,-0.106 1.27,-0.236 1.904,-0.403 3.052,-0.806 5.607,-2.335 7.776,-4.614 0.26,0.229 0.528,0.456 0.793,0.68 0.884,0.749 1.783,1.481 2.662,2.229 z" id="path810" />
         <g id="g820">
            <path fill-rule="evenodd" clip-rule="evenodd" fill="#ffffff" d="m 609.77,516.397 c -2.283,-0.892 -4.969,-1.542 -7.427,-1.168 -1.685,0.257 -3.218,1.001 -4.231,2.4 -0.997,1.376 -1.273,3.097 -1.091,4.757 0.236,2.173 1.237,4.261 2.507,6.01 1.16,1.596 2.649,2.938 4.15,4.208 1.619,1.371 3.288,2.682 4.806,4.179 3.894,3.841 5.664,7.951 5.632,13.464 -0.033,5.437 -1.607,10.73 -5.705,14.49 -3.279,3.011 -7.662,4.5 -12.081,4.5 -3.557,0 -6.917,-0.643 -9.94,-2.592 l -0.277,-0.179 v -9.676 c 3.231,1.969 6.332,3.283 10.218,3.283 1.709,0 3.328,-0.753 4.492,-1.994 1.729,-1.839 2.283,-4.451 2.283,-6.9 0,-6.991 -5.151,-9.619 -9.595,-13.937 -4.546,-4.415 -6.901,-9.204 -6.942,-15.638 -0.036,-5.595 2.503,-10.607 7.337,-13.525 5.005,-3.015 11.287,-3.035 16.382,-0.22 l 0.313,0.175 v 8.688 z" id="path812" />
            <path fill-rule="evenodd" clip-rule="evenodd" fill="#cdcccc" d="m 609.11,514.574 v -5.651 c -4.546,-2.312 -10.039,-2.218 -14.438,0.436 -4.382,2.645 -6.645,7.173 -6.612,12.235 0.037,6.014 2.214,10.429 6.486,14.579 2.567,2.494 5.696,4.622 7.756,7.576 1.574,2.255 2.291,4.68 2.291,7.431 0,2.844 -0.684,5.794 -2.686,7.922 -1.449,1.538 -3.459,2.466 -5.579,2.466 -3.251,0 -6.01,-0.847 -8.728,-2.229 v 6.307 c 2.665,1.591 5.627,2.104 8.728,2.104 4.045,0 8.069,-1.351 11.076,-4.109 3.78,-3.471 5.188,-8.395 5.216,-13.399 0.033,-5.095 -1.566,-8.825 -5.184,-12.398 -1.485,-1.461 -3.133,-2.755 -4.724,-4.098 -1.6,-1.354 -3.154,-2.771 -4.391,-4.468 -1.429,-1.969 -2.519,-4.288 -2.783,-6.722 -0.224,-2.034 0.146,-4.118 1.363,-5.798 1.249,-1.726 3.137,-2.682 5.212,-2.999 2.318,-0.353 4.759,0.075 6.997,0.815 z" id="path814" />
            <path fill-rule="evenodd" clip-rule="evenodd" fill="#ffffff" d="m 606.339,534.83 c -1.172,1.196 -2.348,2.165 -3.918,3.142 -1.543,0.956 -3.207,1.924 -4.916,2.832 -1.294,-1.144 -2.673,-2.275 -3.995,-3.561 -0.106,-0.098 -0.208,-0.199 -0.31,-0.302 0.639,-0.109 1.27,-0.235 1.904,-0.406 3.052,-0.802 5.611,-2.336 7.775,-4.614 0.265,0.231 0.529,0.46 0.798,0.684 0.884,0.744 1.779,1.476 2.662,2.225 z m -19.702,-14.896 c 3.69,-0.473 7.369,-1.014 11.043,-1.604 -0.626,1.2 -0.801,2.588 -0.671,3.943 -1.229,0.239 -2.454,0.479 -3.683,0.724 -2.197,0.443 -4.398,0.899 -6.58,1.425 -0.113,-0.908 -0.17,-1.844 -0.179,-2.816 -0.004,-0.566 0.021,-1.124 0.07,-1.672 z" id="path816" />
            <path fill-rule="evenodd" clip-rule="evenodd" fill="#1a1a1a" d="m 586.567,521.438 c 3.324,-0.423 6.832,-0.923 10.551,-1.514 -0.057,0.273 -0.093,0.554 -0.122,0.83 -3.434,0.668 -7.178,1.404 -10.388,2.165 -0.024,-0.432 -0.037,-0.866 -0.041,-1.314 z m 7.968,16.765 c 2.648,-0.565 6.196,-1.831 9.48,-5.314 0.395,0.33 0.789,0.659 1.184,0.989 -0.874,0.896 -1.94,1.818 -3.564,2.828 -1.912,1.188 -3.751,2.205 -5.354,3.031 -0.579,-0.496 -1.165,-1.005 -1.746,-1.534 z" id="path818" />
         </g>
      </g>
   </g>
</svg>
