<?xml version="1.0" encoding="UTF-8" standalone="no"?>
<!-- Created with Inkscape (http://www.inkscape.org/) -->

<svg width="128mm" height="128mm" viewBox="0 0 128 128" version="1.1" id="svg5808" inkscape:version="1.1 (c68e22c387, 2021-05-23)" sodipodi:docname="st_face.svg" inkscape:export-filename="C:\Users\Joseph Rall\source\repos\StoneAwesomeWeb\sites\stonetrash\public\images\logo\st_face.png" inkscape:export-xdpi="203.2" inkscape:export-ydpi="203.2"
   xmlns:inkscape="http://www.inkscape.org/namespaces/inkscape"
   xmlns:sodipodi="http://sodipodi.sourceforge.net/DTD/sodipodi-0.dtd"
   xmlns="http://www.w3.org/2000/svg"
   xmlns:svg="http://www.w3.org/2000/svg">
   <sodipodi:namedview id="namedview5810" pagecolor="#505050" bordercolor="#eeeeee" borderopacity="1" inkscape:pageshadow="0" inkscape:pageopacity="0" inkscape:pagecheckerboard="0" inkscape:document-units="mm" showgrid="false" inkscape:zoom="1.4681257" inkscape:cx="227.16039" inkscape:cy="230.22552" inkscape:window-width="1920" inkscape:window-height="1010" inkscape:window-x="-6" inkscape:window-y="-6" inkscape:window-maximized="1" inkscape:current-layer="layer1" fit-margin-top="1" fit-margin-left="1" fit-margin-right="1" fit-margin-bottom="1" />
   <defs id="defs5805" />
   <g inkscape:label="Layer 1" inkscape:groupmode="layer" id="layer1" transform="translate(-39.872199,-30.945762)">
      <g id="g15214" transform="translate(3.5020895,6.5462675)">
         <path fill-rule="evenodd" clip-rule="evenodd" fill="#1a1a1a" d="m 156.39722,111.02477 c 3.78645,-7.78907 3.33719,-18.290908 -0.31988,-26.056164 -0.5125,-1.08585 -1.02473,-2.173023 -1.5375,-3.261518 2.05846,0.340254 3.74015,0.451643 5.32818,0.423597 -2.43178,-3.436937 -3.73459,-6.593945 -5.08714,-10.551583 -0.64479,-1.894152 -1.25413,-3.814498 -2.04867,-5.655733 -2.03676,-4.710112 -5.66605,-9.434248 -9.97347,-13.096346 -7.01278,-5.958945 -12.21396,-7.686939 -17.62601,-7.123377 2.30399,-2.956189 6.14839,-4.823618 12.16237,-4.379648 -5.88778,-8.730191 -17.79059,-8.258439 -23.85272,-4.12062 -4.47437,-5.660761 -11.77951,-6.614054 -18.271067,-3.515519 3.435879,0.772319 5.384007,2.86385 6.837887,5.496454 -4.489445,-2.545556 -12.67142,-1.846792 -18.799435,1.334029 3.990975,0.622829 6.798734,2.224881 9.194271,4.629944 -2.814108,-0.791369 -9.377627,-0.445823 -15.742973,3.684058 -2.17805,1.410494 -4.05712,3.199606 -5.78776,5.442744 -2.177521,2.818606 -4.157927,5.781939 -6.063456,8.788929 -1.568715,2.478352 -3.088746,4.982898 -4.801129,7.368646 -1.820069,2.535766 -3.878527,4.856956 -6.242579,6.897158 -4.028811,3.471598 -8.102865,6.262952 -12.89394,8.134879 2.986617,2.474648 5.78194,3.26046 9.36625,4.25741 -2.322777,5.258065 -2.785004,12.58596 0.05054,18.14169 1.55522,3.04826 4.967633,6.18081 7.915885,7.72413 9.385097,-0.85934 9.385912,-1.963 13.815831,-2.29772 0,0 5.842376,16.71569 9.207683,20.71522 0.975396,1.15922 2.330019,-5.0657 2.330019,-5.0657 0,0 9.463923,9.90157 12.791727,12.45391 0.929013,-1.96743 -0.796608,-7.46711 -0.01215,-6.45616 4.287886,5.42087 8.134386,12.7649 16.090846,8.77657 4.61742,-2.52396 7.29067,-6.49104 8.95446,-9.2629 0,0 0.006,6.53777 1.81829,5.53276 2.52814,-1.40224 9.96081,-15.10215 9.96081,-15.10215 l 2.93941,3.81705 4.76574,-15.36847 11.2758,2.46285 z" id="path3459" style="stroke-width:0.264583" sodipodi:nodetypes="cccccccccccccccccsccccccscccccsccccc" />
         <path fill-rule="evenodd" clip-rule="evenodd" fill="#9a6f39" d="m 112.84861,41.189061 c 4.11374,-3.641725 12.55103,-6.193102 18.64016,-1.976702 -3.7973,0.584994 -10.0039,3.693583 -11.06647,9.981141 4.53787,-1.09802 8.70241,-0.655637 12.50368,0.834232 7.12047,2.79056 14.1777,9.969764 17.22014,17.017206 1.38351,3.200664 2.95302,8.916987 4.54766,11.767343 -2.36617,-0.02858 -5.2615,-0.440266 -8.2079,-0.7493 10.39336,5.980907 12.92569,25.499219 5.35728,34.962309 -1.60628,-0.66199 -3.29433,-1.18534 -5.13318,-1.55893 -2.1545,-0.43762 -4.23942,-0.66913 -6.90959,-0.69241 -0.10742,-1.80816 -0.13468,-2.63287 -0.44662,-4.08887 0.70194,0.2413 2.58498,1.36287 3.82191,3.50969 1.78488,-5.83353 -0.28522,-11.218593 -1.81505,-14.151235 -0.40692,-0.778933 -0.64187,-1.168664 -0.8882,-1.566862 4.55295,-2.592917 5.31204,-9.753335 3.16759,-14.637279 -1.49992,-3.420269 -4.47543,-6.529123 -8.38888,-6.92785 -1.37795,-0.138906 -2.65271,0.139435 -3.751,0.686858 0.58129,-6.190721 -2.87205,-10.665883 -7.75996,-12.487275 -6.13119,-2.282825 -14.39519,0.150813 -16.46238,7.335309 -0.83423,-1.446477 -1.53299,-2.732882 -3.38904,-4.173802 -4.414842,-3.436938 -11.385554,-3.607594 -15.8078,-0.111919 -2.626519,2.076185 -4.136231,4.686829 -4.205817,7.38505 -1.239043,-0.719138 -3.238764,-1.506273 -6.625431,-0.861748 -3.768725,0.716492 -6.846623,3.799681 -8.312943,7.781131 -2.429405,6.605323 -0.378884,12.211314 2.514864,15.277306 -2.841625,6.701896 -3.127639,10.598146 -2.195248,15.666506 0.568325,-0.99854 1.164961,-1.74784 1.558925,-2.07512 -0.0063,0.71146 0.159808,1.95765 0.350308,3.12631 h -0.0074 c -2.884752,0.26062 -7.318639,1.37742 -10.807435,2.7006 h -0.0011 c -3.739621,-1.70471 -9.061186,-6.10737 -9.198505,-14.118956 -0.10107,-5.673461 2.987146,-10.171113 3.022071,-12.105746 -2.154766,0.287337 -5.477139,-0.265906 -7.479241,-1.506008 15.661216,-8.343636 16.803952,-16.990219 26.408856,-29.434631 2.29526,-2.971271 5.069681,-5.427663 9.698566,-6.999023 6.722798,-2.281502 13.484225,-0.923131 15.209573,0.495829 -0.237331,-4.345517 -5.391415,-8.149167 -6.526213,-8.688123 4.713817,-0.532341 10.96196,-0.01561 15.39082,3.936471 0.25188,-3.595687 -2.39766,-8.068998 -5.12339,-10.355262 5.75098,0.17727 8.85401,3.53986 11.09636,6.80376 z" id="path3509" style="stroke-width:0.264583" />
         <path fill-rule="evenodd" clip-rule="evenodd" fill="#7b5221" d="m 146.72586,111.47007 -0.0164,-0.004 c -2.1545,-0.43762 -4.23942,-0.66913 -6.90959,-0.69241 -0.10742,-1.80816 -0.13468,-2.63287 -0.44662,-4.08887 0.70194,0.2413 2.58498,1.36287 3.82191,3.50969 1.57506,-5.15249 0.14419,-9.9515 -1.26498,-13.024639 2.22647,2.157942 3.67877,4.834999 4.3741,8.048099 0.38867,1.79731 0.52334,4.07987 0.44159,6.25184 z" id="path3511" style="stroke-width:0.264583" />
         <path fill-rule="evenodd" clip-rule="evenodd" fill="#7b5221" d="m 118.67288,60.288802 c -4.94162,0.125942 -9.86578,2.840567 -11.39561,8.157369 -0.83423,-1.446477 -1.53299,-2.732881 -3.38904,-4.173802 C 99.473389,60.835432 92.502677,60.664775 88.080431,64.16045 85.453912,66.236636 83.9442,68.847279 83.874614,71.5455 82.63557,70.826363 80.63585,70.039227 77.249183,70.683752 c -3.768725,0.716492 -6.846623,3.799681 -8.312944,7.781131 -2.429404,6.605323 -0.378883,12.211315 2.514865,15.277306 -2.841625,6.701901 -3.12764,10.598151 -2.195248,15.666511 0.568325,-0.99854 1.16496,-1.74784 1.558925,-2.07513 -0.0063,0.71147 0.159808,1.95765 0.350308,3.12632 h -0.0074 c -2.884752,0.26061 -7.31864,1.37742 -10.807435,2.7006 h -0.0011 c -3.73962,-1.70471 -9.061185,-6.10738 -9.198504,-14.118961 -0.101071,-5.67346 2.987146,-10.171112 3.022071,-12.105746 -2.154767,0.287338 -5.477139,-0.265906 -7.479241,-1.506008 15.661216,-8.343635 16.803951,-16.990219 26.408855,-29.434631 2.295261,-2.971271 5.069682,-5.427662 9.698567,-6.999023 6.722798,-2.281502 13.484225,-0.923131 15.209573,0.495829 -0.237332,-4.345516 -5.391415,-8.149166 -6.526213,-8.688122 4.713817,-0.532342 10.961958,-0.01561 15.390818,3.93647 0.25188,-3.594629 -2.3966,-8.064235 -5.12022,-10.351822 4.91146,3.012281 8.772,8.992658 8.15419,16.002529 -2.03808,-2.056342 -4.10077,-2.386807 -5.99545,-2.446073 1.72667,4.143904 2.85379,9.34376 2.01109,13.881629 2.49159,-1.791759 8.65082,-3.654425 12.74816,-1.537759 z" id="path3513" style="stroke-width:0.264583" />
         <path fill-rule="evenodd" clip-rule="evenodd" fill="#c8995e" d="m 62.539937,112.39452 c -0.751416,0.24368 -1.48881,0.50006 -2.189162,0.76597 h -0.0011 c -3.739621,-1.70471 -9.061186,-6.10738 -9.198505,-14.118961 -0.0672,-3.779308 1.282171,-7.037123 2.198953,-9.364662 -1.285346,5.998104 -0.177536,11.344543 2.250016,15.594803 1.558925,2.72812 3.848365,5.08688 6.939756,7.12285 z" id="path3515" style="stroke-width:0.264583" />
         <path fill-rule="evenodd" clip-rule="evenodd" fill="#c8995e" d="m 127.38905,37.396524 c 1.42848,0.338137 2.81649,0.924983 4.09972,1.815835 -3.37185,0.518319 -8.64077,3.027362 -10.52381,7.982744 v 5.29e-4 c 0,2.64e-4 0.84958,-6.494198 6.42409,-9.799108 z" id="path3517" style="stroke-width:0.264583" />
         <path fill-rule="evenodd" clip-rule="evenodd" fill="#c8995e" d="m 97.746718,48.017428 c -1.106223,-3.703638 -5.258594,-6.73735 -6.261894,-7.213865 0.792957,-0.08784 1.626659,-0.148167 2.487348,-0.167481 0.932392,0.787135 1.899709,1.847321 2.417498,2.778125 0.975519,1.760802 1.357048,4.604014 1.357048,4.604014 z" id="path3519" style="stroke-width:0.264583" />
         <path fill-rule="evenodd" clip-rule="evenodd" fill="#c8995e" d="M 49.715054,86.612727 C 48.598777,86.346292 47.532242,85.949152 46.694306,85.42951 60.551329,78.046313 63.042381,70.426577 70.087706,60.147779 65.454852,70.562309 60.170329,80.971281 49.715054,86.612727 Z" id="path3521" style="stroke-width:0.264583" />
         <path fill-rule="evenodd" clip-rule="evenodd" fill="#e8c6a3" d="m 85.559216,75.012865 c -1.278466,-5.920052 3.382698,-11.095302 8.755327,-11.659923 3.139811,-0.328348 6.185957,0.617802 8.393117,2.468033 1.86742,1.567127 3.19696,4.144434 3.43905,6.55955 -2.91095,-1.741487 -6.206067,-3.085041 -10.395479,-2.552171 -4.230952,0.540809 -7.672917,2.136775 -10.192015,5.184511 z" id="path3523" style="stroke-width:0.264583" />
         <path fill-rule="evenodd" clip-rule="evenodd" fill="#d6a675" d="m 85.559216,75.012865 c -1.278466,-5.920052 3.382698,-11.095302 8.755327,-11.659923 0.132821,-0.01402 0.264319,-0.02593 0.397669,-0.0344 -2.870729,2.234936 -4.444206,5.218906 -4.817798,8.221927 -1.65391,0.842169 -3.105679,1.983317 -4.335198,3.472392 z" id="path3525" style="stroke-width:0.264583" />
         <path fill-rule="evenodd" clip-rule="evenodd" fill="#ffead5" d="m 85.559216,75.012865 c -0.81571,-3.775604 0.785284,-7.248261 3.445669,-9.416256 -2.300817,2.845858 -2.874433,5.272616 -2.623873,8.505031 -0.283104,0.287337 -0.559858,0.590814 -0.821796,0.911225 z" id="path3527" style="stroke-width:0.264583" />
         <path fill-rule="evenodd" clip-rule="evenodd" fill="#e8c6a3" d="m 108.41736,72.552504 c 0.10531,-6.28941 4.31165,-10.864056 11.13632,-10.612437 5.65203,0.20664 10.80135,4.75906 10.50872,11.084189 -1.6301,-1.38086 -4.38283,-3.63511 -10.17614,-3.992033 -5.91159,-0.366448 -9.94675,2.354792 -11.4689,3.520281 z" id="path3529" style="stroke-width:0.264583" />
         <path fill-rule="evenodd" clip-rule="evenodd" fill="#d6a675" d="m 108.41736,72.552504 c 0.0979,-5.91767 3.83064,-10.317691 9.95971,-10.607675 -2.55931,2.040732 -4.07299,4.853782 -4.66513,7.840398 -2.57201,0.817298 -4.38467,2.069571 -5.29458,2.767277 z" id="path3531" style="stroke-width:0.264583" />
         <path fill-rule="evenodd" clip-rule="evenodd" fill="#ffead5" d="m 108.41736,72.552504 c 0.0593,-3.568964 1.4404,-6.582304 3.86689,-8.477779 -1.82907,2.472796 -2.70854,5.141913 -2.81649,7.734036 -0.42704,0.279135 -0.77893,0.535252 -1.0504,0.743743 z" id="path3533" style="stroke-width:0.264583" />
         <path fill-rule="evenodd" clip-rule="evenodd" fill="#e8c6a3" d="m 73.604018,77.740983 c 2.135982,-2.496608 7.3914,-3.885935 9.333442,1.242484 -6.278562,-2.368021 -10.859029,3.348302 -8.446294,10.20445 l -2.064808,2.905654 c -2.37781,-1.824831 -2.961217,-8.010261 -2.31431,-11.036565 0.5334,-2.488141 1.712383,-4.829704 3.593835,-6.520391 2.345796,-2.105819 6.520921,-3.312319 9.972939,-0.838729 0.244211,2.752989 1.859757,6.412706 3.140869,7.667095 -4.837641,0.97499 -9.405143,4.550834 -10.922529,6.339417 -0.973666,-2.826544 -0.120121,-5.394325 1.718733,-6.769629 1.411023,-1.052777 3.402013,-1.407054 5.599907,-0.643731 0.631031,0.22225 1.249891,0.644789 1.688041,0.192087 0.339725,-0.509058 -0.613568,-2.805642 -2.1844,-4.372504 -2.85062,-2.838715 -7.811558,-1.697302 -9.115425,1.630362 z" id="path3535" style="stroke-width:0.264583" />
         <path fill-rule="evenodd" clip-rule="evenodd" fill="#d6a675" d="m 73.604018,77.740983 c 2.135982,-2.496608 7.3914,-3.885935 9.333442,1.242484 -6.278562,-2.368021 -10.859029,3.348302 -8.446294,10.20445 l -2.064808,2.905654 c -2.37781,-1.824831 -2.961217,-8.010261 -2.31431,-11.036565 0.5334,-2.488141 1.712383,-4.829704 3.593835,-6.520391 0.885031,-0.794544 2.032529,-1.462088 3.299619,-1.85129 2.859616,0.137319 4.364037,2.437871 4.364037,2.437871 v 0.0026 c -2.857764,-1.478492 -6.650566,-0.233098 -7.765521,2.615141 z" id="path3537" style="stroke-width:0.264583" />
         <path fill-rule="evenodd" clip-rule="evenodd" fill="#ffffff" d="m 106.23296,74.282879 c 0.11298,2.406121 -1.01414,4.453732 -2.10714,5.790936 -0.30136,0.371475 -0.58949,0.50165 -0.92525,0.706173 -0.58896,0.355335 -1.32953,0.704585 -2.02194,1.159404 -0.7837,0.515143 -1.513154,1.133739 -2.109524,1.454679 -1.789907,0.959114 -4.559829,0.814387 -7.031302,-0.182563 -3.284802,-1.331648 -5.244571,-3.869795 -5.904971,-6.471972 2.457979,-2.809875 5.914231,-4.849019 9.772914,-5.315215 3.494617,-0.42545 7.175503,0.370152 10.327213,2.858558 z" id="path3539" style="stroke-width:0.264583" />
         <path fill-rule="evenodd" clip-rule="evenodd" fill="#cdcccc" d="m 98.59021,83.615792 c -1.780117,0.706173 -4.293658,0.507471 -6.552142,-0.404284 -3.284802,-1.331648 -5.244571,-3.869795 -5.904971,-6.471972 1.06098,-1.212321 2.307167,-2.278592 3.68988,-3.141663 0.259291,4.583377 3.308879,8.8138 8.767233,10.017919 z" id="path3541" style="stroke-width:0.264583" />
         <path fill-rule="evenodd" clip-rule="evenodd" fill="#ffffff" d="m 93.943597,83.796767 c -0.641085,-0.137848 -1.2827,-0.333111 -1.905529,-0.584994 -3.284802,-1.331648 -5.244571,-3.869796 -5.904971,-6.471973 0.192088,-0.219075 0.388673,-0.432329 0.592138,-0.640027 0.964671,3.177117 2.614877,5.973498 7.218362,7.696994 z" id="path3543" style="stroke-width:0.264583" />
         <path fill-rule="evenodd" clip-rule="evenodd" fill="#ffffff" d="m 108.41419,74.382627 c 2.11323,-1.844146 5.34749,-3.833283 10.4312,-3.85736 3.06731,-0.01667 5.89227,0.889264 8.48148,2.536825 0.48445,0.307446 2.09629,1.651 2.37516,2.096823 -1.66872,4.421452 -4.41933,6.252898 -6.23993,7.020983 -1.6129,0.678656 -3.01228,0.902758 -4.74345,0.914135 -1.78832,0.01349 -0.98716,-0.671248 -4.21825,-1.997604 -0.80751,-0.329935 -2.49211,-0.721783 -3.0144,-1.080294 -1.31895,-0.903022 -2.80273,-3.347508 -3.07181,-5.633508 z" id="path3545" style="stroke-width:0.264583" />
         <path fill-rule="evenodd" clip-rule="evenodd" fill="#cdcccc" d="m 108.41419,74.382627 c 1.2491,-1.088496 2.88846,-2.226998 5.06756,-2.984235 -0.34978,3.984096 0.84932,8.078258 3.31153,10.922 -0.42836,-0.313267 -1.07342,-0.723371 -2.29315,-1.223963 -0.8075,-0.329935 -2.49211,-0.721783 -3.01439,-1.080294 -1.31869,-0.903022 -2.80247,-3.347508 -3.07155,-5.633508 z" id="path3547" style="stroke-width:0.264583" />
         <path fill-rule="evenodd" clip-rule="evenodd" fill="#ffffff" d="m 108.41419,74.382627 c 0.3339,-0.290777 0.69665,-0.585523 1.09061,-0.875771 0.21643,2.471738 1.12078,4.816211 2.55058,6.780213 -0.23786,-0.09208 -0.44026,-0.182034 -0.56938,-0.271198 -1.31895,-0.902758 -2.80273,-3.347244 -3.07181,-5.633244 z" id="path3549" style="stroke-width:0.264583" />
         <path fill-rule="evenodd" clip-rule="evenodd" fill="#e8c6a3" d="m 131.91527,80.441585 c 4.48284,-1.668197 7.62344,2.80723 6.12564,6.672263 -0.27226,0.700881 -1.09617,2.018506 -1.7698,2.265362 -0.69003,0.252942 -1.31022,-0.629708 -2.34262,-1.469495 -1.45336,-1.186921 -2.98635,-2.306638 -4.79954,-3.20675 -0.38762,-3.177117 -0.45958,-6.484409 2.1672,-8.842111 0.79348,-0.713316 1.79149,-1.191683 2.96492,-1.244071 2.88502,-0.127 5.29458,1.998663 6.45848,3.661305 1.45336,2.070893 2.5064,5.081587 2.3405,8.267699 -0.14869,2.833159 -1.61925,5.633509 -3.94679,6.226969 -0.73104,-0.627062 -1.38879,-1.439333 -1.97882,-2.064808 0.18945,-0.266965 0.38206,-0.35269 0.68025,-0.670719 1.828,-1.958975 2.38257,-4.877594 1.44912,-7.430558 -0.94218,-2.576248 -3.91213,-4.491567 -7.22815,-3.119438 0.41883,-3.570022 5.31416,-3.290093 7.15407,-1.34911 -1.00357,-1.719262 -3.30174,-2.487348 -5.30014,-1.955006 -1.67957,0.447146 -2.83977,1.643327 -3.21574,3.494616 -0.29501,1.46103 0.27464,1.122363 1.24142,0.763852 z" id="path3551" style="stroke-width:0.264583" />
         <path fill-rule="evenodd" clip-rule="evenodd" fill="#d6a675" d="m 131.91527,80.441585 c 4.48284,-1.668197 7.62344,2.80723 6.12564,6.672263 -0.27226,0.700881 -1.09617,2.018506 -1.7698,2.265362 -0.69003,0.252942 -1.31022,-0.629708 -2.34262,-1.469495 -1.45336,-1.186921 -2.98635,-2.306638 -4.79954,-3.20675 -0.38762,-3.177117 -0.45958,-6.484409 2.1672,-8.842111 0.79348,-0.713316 1.79149,-1.191683 2.96492,-1.244071 1.28535,-0.05662 2.47809,0.335492 3.50758,0.932921 -0.88741,0.146315 -1.62242,0.3429 -2.04232,0.496623 -0.61066,-0.06615 -1.23825,-0.02408 -1.83674,0.13679 -1.67957,0.447146 -2.83977,1.643327 -3.21574,3.494616 -0.29501,1.46103 0.27464,1.122363 1.24142,0.763852 z" id="path3553" style="stroke-width:0.264583" />
         <path fill-rule="evenodd" clip-rule="evenodd" fill="#7b5221" d="m 107.35797,76.8033 c 0.5416,1.403879 1.33377,2.531533 1.80525,3.080279 -1.06574,-0.12065 -2.3577,-0.01032 -3.32872,0.289984 0.59346,-0.816769 0.97764,-1.388798 1.52347,-3.370263 z" id="path3555" style="stroke-width:0.264583" />
         <path fill-rule="evenodd" clip-rule="evenodd" fill="#7b5221" d="m 127.17897,83.733796 -2.12408,-0.787665 c 0.87657,-0.503766 1.42664,-0.98081 2.12752,-1.448064 z" id="path3557" style="stroke-width:0.264583" />
         <path fill-rule="evenodd" clip-rule="evenodd" fill="#e8c6a3" d="m 109.75351,95.855152 c -3.16098,0.472017 -6.53494,-0.03493 -8.9535,-1.701006 -6.978386,-4.806421 -0.970492,-11.954933 6.9133,-12.766675 12.64443,-1.30175 15.24132,12.505531 2.0402,14.467681 z" id="path3559" style="stroke-width:0.264583" />
         <path fill-rule="evenodd" clip-rule="evenodd" fill="#ffead5" d="m 113.00259,82.660381 c 4.62386,2.487613 5.22685,8.149431 0.59955,11.311731 2.78633,-3.367352 1.99946,-8.299979 -0.59955,-11.311731 z" id="path3561" style="stroke-width:0.264583" />
         <path fill-rule="evenodd" clip-rule="evenodd" fill="#d6a675" d="m 109.75351,95.855152 c -3.16098,0.472017 -6.53494,-0.03493 -8.9535,-1.701006 -6.978386,-4.806421 -0.970492,-11.954933 6.9133,-12.766675 0.37359,-0.03704 0.74189,-0.06191 1.09802,-0.07646 -3.52055,1.4986 -5.51709,4.718579 -5.36972,7.615238 0.18097,3.545152 3.54171,6.611937 9.3046,6.200775 -0.89032,0.314325 -1.88383,0.563562 -2.9927,0.728133 z" id="path3563" style="stroke-width:0.264583" />
         <path fill-rule="evenodd" clip-rule="evenodd" fill="#ffead5" d="m 104.1208,95.617292 c -1.21074,-0.305065 -2.34263,-0.788988 -3.32079,-1.463146 -4.265084,-2.937934 -3.679296,-6.75349 -0.77735,-9.456738 -2.669377,4.742392 -0.177796,8.714317 4.09814,10.919884 z" id="path3565" style="stroke-width:0.264583" />
         <path fill-rule="evenodd" clip-rule="evenodd" fill="#1a1a1a" d="m 96.391258,79.488821 c 4.431242,-0.170127 4.811452,-7.147454 -0.148167,-6.94346 -1.947598,0.07911 -3.112558,1.230577 -3.373437,2.613554 -0.380471,2.000779 1.005152,4.425685 3.521604,4.329906 z" id="path3567" style="stroke-width:0.264583" />
         <path fill-rule="evenodd" clip-rule="evenodd" fill="#9a6f39" d="m 96.38041,78.874194 c 1.93966,-0.07382 2.934758,-1.729052 2.833158,-3.239029 -0.238919,1.230577 -1.19671,2.347648 -2.782094,2.408502 -1.750483,0.06615 -2.836333,-1.350434 -2.93952,-2.786327 l -0.01085,0.05345 c -0.31115,1.645972 0.826558,3.644106 2.899304,3.563408 z" id="path3569" style="stroke-width:0.264583" />
         <path fill-rule="evenodd" clip-rule="evenodd" fill="#ffffff" d="m 98.198362,75.511869 c 1.6891,-0.06297 1.835678,-2.723621 -0.05503,-2.646098 -0.741098,0.03016 -1.18745,0.470958 -1.286405,0.99695 -0.145256,0.762529 0.382059,1.686983 1.341438,1.649148 z" id="path3571" style="stroke-width:0.264583" />
         <path fill-rule="evenodd" clip-rule="evenodd" fill="#1a1a1a" d="m 118.73638,78.516213 c 4.43468,-0.171186 4.81462,-7.148513 -0.1442,-6.945048 -1.9476,0.07964 -3.11679,1.232694 -3.37741,2.612496 -0.37994,1.999456 1.00357,4.427272 3.52161,4.332552 z" id="path3573" style="stroke-width:0.264583" />
         <path fill-rule="evenodd" clip-rule="evenodd" fill="#9a6f39" d="m 118.72685,77.90185 c 1.93993,-0.07541 2.93714,-1.730639 2.83369,-3.240617 -0.23918,1.229255 -1.19618,2.346325 -2.77998,2.409825 -1.75365,0.06562 -2.83686,-1.354402 -2.94216,-2.788443 l -0.0108,0.05503 c -0.31009,1.643063 0.82788,3.644106 2.8993,3.564202 z" id="path3575" style="stroke-width:0.264583" />
         <path fill-rule="evenodd" clip-rule="evenodd" fill="#ffffff" d="m 120.54295,74.538731 c 1.69148,-0.06456 1.83568,-2.722297 -0.0537,-2.645304 -0.74189,0.03069 -1.18745,0.468842 -1.28667,0.99404 -0.14314,0.762264 0.38339,1.687248 1.34038,1.651264 z" id="path3577" style="stroke-width:0.264583" />
         <path fill-rule="evenodd" clip-rule="evenodd" fill="#1a1a1a" d="M 85.468729,59.946432 C 89.386414,56.27375 97.183156,55.667061 102.66453,57.373888 97.288195,51.414942 87.318431,54.570098 85.468729,59.946432 Z" id="path3579" style="stroke-width:0.264583" />
         <path fill-rule="evenodd" clip-rule="evenodd" fill="#1a1a1a" d="m 110.59436,57.702765 c 4.39261,-3.087688 12.19782,-2.602177 17.38815,-0.145785 -4.49395,-6.652155 -14.80661,-4.921515 -17.38815,0.145785 z" id="path3581" style="stroke-width:0.264583" />
         <path fill-rule="evenodd" clip-rule="evenodd" fill="#9a6f39" d="m 118.61705,93.060887 c 2.99614,-3.654689 0.97314,-7.88326 0.49186,-8.60372 1.4179,0.0063 2.78501,-0.193146 4.07062,-0.722048 4.63391,1.694656 9.58691,4.307946 14.05387,9.503039 3.19855,3.718984 5.28611,8.257912 5.19562,13.447712 -1.15279,-1.47426 -3.16838,-2.66065 -5.55281,-3.08663 1.0377,5.26891 2.41909,15.51146 -1.1467,21.40426 -0.24104,-0.42624 -1.05278,-3.04826 -3.59701,-4.31879 0.13996,3.05276 -5.71977,14.92806 -8.7257,16.48381 -0.0632,-2.70008 -0.97313,-4.60878 -1.73857,-5.63166 -2.44184,4.123 -7.00749,11.35115 -12.56824,11.29189 -7.40701,-0.0775 -12.129824,-8.99557 -13.550372,-10.20313 -0.588962,1.58433 -0.557741,3.91186 -0.159808,5.19827 -2.389981,-1.05622 -10.20736,-9.14956 -12.20761,-12.70106 -0.609865,1.31948 -1.09855,2.99852 -1.361017,4.81515 -5.677429,-6.42143 -9.338733,-20.57214 -8.808508,-26.95575 -1.154642,0.50271 -1.703652,1.12819 -2.348177,1.92273 0.147108,-5.244571 1.966383,-9.578975 4.364566,-12.950825 3.298825,-4.631002 7.631906,-7.754672 13.155083,-9.265708 2.342621,1.817423 5.141913,3.071548 9.249569,2.573073 -1.503627,2.330979 -1.717675,5.633244 0.158221,8.257381 1.198827,1.677194 2.999313,2.788444 5.023383,3.433233 5.01068,1.598348 12.57723,0.328348 16.00173,-3.891227 z" id="path3583" style="stroke-width:0.264583" />
         <path fill-rule="evenodd" clip-rule="evenodd" fill="#c8995e" d="m 153.44045,86.002598 c 4.06003,8.420629 3.80021,20.276612 -1.59438,27.022952 -0.65352,-0.27014 -1.32635,-0.51832 -2.0111,-0.74004 5.61235,-7.49141 5.72876,-16.820618 3.60548,-26.282912 z" id="path3585" style="stroke-width:0.264583" />
         <path fill-rule="evenodd" clip-rule="evenodd" fill="#7b5221" d="m 104.39861,141.55769 c -4.7162,-2.52201 -7.759702,-8.00444 -8.849256,-8.93154 -0.588963,1.58432 -0.557742,3.91186 -0.159809,5.19827 -2.389981,-1.05622 -10.20736,-9.14956 -12.20761,-12.70106 -0.609865,1.31948 -1.09855,2.99852 -1.361017,4.81515 -5.677429,-6.42144 -9.338733,-20.57215 -8.808508,-26.95575 -1.154642,0.50271 -1.703652,1.12819 -2.348177,1.92273 0.147108,-5.244571 1.966383,-9.578976 4.364567,-12.950825 3.298825,-4.631003 7.631906,-7.754673 13.155083,-9.265709 2.342621,1.817423 5.141912,3.071548 9.249568,2.573073 -1.503627,2.330979 -1.717674,5.633244 0.158221,8.257381 1.198827,1.677194 2.999318,2.788444 5.023378,3.433234 4.45638,1.419489 10.93973,0.57441 14.72406,-2.603765 -4.3807,9.151141 -19.576781,11.386611 -29.881773,4.08305 -0.954352,11.530281 2.189163,18.710541 5.307542,24.791191 1.252008,-3.10647 2.801673,-4.46855 4.060825,-5.70971 -1.466321,8.09123 3.335866,17.15532 7.572906,24.04428 z" id="path3587" style="stroke-width:0.264583" />
         <g id="g3597" transform="matrix(0.26458333,0,0,0.26458333,-29.206449,9.4880093)">
            <path fill-rule="evenodd" clip-rule="evenodd" fill="#1a1a1a" d="m 424.126,340.86 c 0.657,6.358 4.531,6.686 5.633,0.116 0.743,-4.405 3.573,-9.53 6.413,-10.712 7.703,36.586 36.194,81.962 85.209,77.844 45.438,-3.825 60.823,-50.492 65.234,-67.053 2.421,1.917 2.576,5.957 4.231,7.631 2.568,2.629 6.385,-0.073 4.444,-4.97 -3.472,-8.815 -8.862,-13.163 -18.03,-13.871 -2.702,-0.208 -5.135,0.159 -5.473,2.112 -0.647,3.823 4.87,1.501 10.123,5.078 -17.468,48.631 -125.423,46.869 -141.068,-9.591 1.833,-1.048 3.998,-1.664 5.845,-2.256 7.218,-2.348 4.02,-6.459 -1.658,-5.562 -4.559,0.712 -9.717,2.626 -13.951,6.533 -4.175,3.865 -7.464,9.708 -6.952,14.701 z" id="path3589" />
            <path fill-rule="evenodd" clip-rule="evenodd" fill="#cc4847" d="m 482.356,389.037 c 14.252,10.476 43.811,19.904 66.582,-0.889 -13.148,-11.979 -41.94,-13.033 -66.582,0.889 z" id="path3591" />
            <path fill-rule="evenodd" clip-rule="evenodd" fill="#b33535" d="m 482.356,389.037 c 6.295,4.63 15.597,9.056 25.977,10.754 -7.205,-10.718 8.569,-18.817 23.889,-19.637 -14.38,-3.127 -33.081,-0.598 -49.866,8.883 z" id="path3593" />
            <path fill-rule="evenodd" clip-rule="evenodd" fill="#ec8080" d="m 537.597,395.914 c 2.539,-1.239 5.033,-2.75 7.483,-4.569 -9.555,-8.138 -21.371,-10.463 -33.505,-8.868 11.251,1.382 20.752,7.075 26.022,13.437 z" id="path3595" />
         </g>
         <path fill-rule="evenodd" clip-rule="evenodd" fill="#c8995e" d="m 128.10183,85.913963 c 3.10171,1.651529 6.22168,3.941233 9.13183,7.324724 3.19855,3.718984 5.28611,8.257913 5.19563,13.447713 -1.15279,-1.47426 -3.16839,-2.66065 -5.55281,-3.08663 1.03769,5.26891 2.41908,15.51146 -1.14671,21.40426 -0.12488,-0.22066 -0.40693,-1.04007 -1.00965,-1.955 2.89692,-6.89081 1.33271,-16.98387 -1.83462,-23.069818 2.32754,0.05054 4.34631,0.528108 5.97614,1.538288 -1.67428,-6.421702 -5.18292,-10.780448 -10.75981,-15.603537 z m 3.39011,37.733017 c -2.57413,4.87098 -5.7822,9.45145 -8.29416,11.54854 0.11615,0.60113 0.19288,1.26074 0.20876,1.97326 2.3667,-1.22449 6.50293,-8.8429 8.0854,-13.5218 z" id="path3599" style="stroke-width:0.264583" />
      </g>
   </g>
</svg>
