<?xml version="1.0" encoding="UTF-8" standalone="no"?>
<!-- Created with Inkscape (http://www.inkscape.org/) -->

<svg
   width="208.51523mm"
   height="66.00383mm"
   viewBox="0 0 208.51523 66.00383"
   version="1.1"
   id="svg4566"
   inkscape:version="1.1 (c68e22c387, 2021-05-23)"
   sodipodi:docname="st_text.svg"
   xmlns:inkscape="http://www.inkscape.org/namespaces/inkscape"
   xmlns:sodipodi="http://sodipodi.sourceforge.net/DTD/sodipodi-0.dtd"
   xmlns="http://www.w3.org/2000/svg"
   xmlns:svg="http://www.w3.org/2000/svg">
  <sodipodi:namedview
     id="namedview4568"
     pagecolor="#505050"
     bordercolor="#eeeeee"
     borderopacity="1"
     inkscape:pageshadow="0"
     inkscape:pageopacity="0"
     inkscape:pagecheckerboard="0"
     inkscape:document-units="mm"
     showgrid="false"
     fit-margin-top="1"
     fit-margin-left="1"
     fit-margin-right="1"
     fit-margin-bottom="1"
     inkscape:zoom="0.51906082"
     inkscape:cx="189.76582"
     inkscape:cy="131.00584"
     inkscape:window-width="1920"
     inkscape:window-height="1010"
     inkscape:window-x="-6"
     inkscape:window-y="-6"
     inkscape:window-maximized="1"
     inkscape:current-layer="layer1" />
  <defs
     id="defs4563" />
  <g
     inkscape:label="Layer 1"
     inkscape:groupmode="layer"
     id="layer1"
     transform="translate(-0.7125843,-146.5242)">
    <g
       id="g3952"
       transform="matrix(0.26458333,0,0,0.26458333,-27.321732,-22.763953)">
      <path
         fill-rule="evenodd"
         clip-rule="evenodd"
         fill="#1a1a1a"
         d="m 186.803,821.936 c -10.512,8.22 -23.682,12.391 -37.061,12.391 -17.704,0 -28.762,-5.656 -40.006,-13.375 0,-18.551 0,-37.105 0,-55.656 7.625,5.359 20.19,13.396 30.762,16.451 16.185,4.684 16.089,-8.272 10.221,-16.683 -4.034,-5.782 -12.53,-11.841 -17.786,-16.943 -14.375,-13.965 -21.891,-29.798 -22.02,-49.996 -0.122,-19.23 8.917,-36.626 25.511,-46.631 17.074,-10.295 38.475,-10.445 55.874,-0.826 2.632,1.452 5.261,2.905 7.892,4.361 0,8.31 0,16.626 0,24.939 23.263,0 46.527,0 69.79,0 0,3.426 0,6.856 0,10.286 11.188,-7.918 24.67,-11.466 38.31,-11.466 14.097,0 28.029,3.792 39.433,12.28 2.584,1.924 4.942,4.012 7.088,6.233 0,-5.778 0,-11.556 0,-17.334 39.242,0 69.7,0 110.38,0 0,-11.991 0,-23.982 0,-35.975 40.342,0 80.682,0 121.027,0 0,12.028 0,24.061 0,36.089 4.313,0.134 8.622,0.402 12.911,0.891 12.923,1.469 24.927,5.123 34.041,11.78 0,-4.265 0,-8.524 0,-12.785 28.927,0 57.85,0 86.776,0 1.875,11.011 3.747,22.021 5.623,33.032 4.851,-18.767 21.631,-33.032 41.028,-33.032 41.219,0 82.446,0 123.669,0 0,51.058 0,102.12 0,153.178 -26.144,0 -42.599,0 -67.867,0 -4.879,0 -4.817,1.055 -4.817,6.03 v 23.751 c 0,21.888 -6.274,22.587 -25.717,22.587 h -576.19 c -17.367,0 -23.44,-1.452 -23.44,-22.587 0,-14.9 0,-21.338 0,-34.843 0,-10.025 0.84,-11.051 -5.432,-6.147 z"
         id="path3938" />
      <path
         fill-rule="evenodd"
         clip-rule="evenodd"
         fill="#f78e2d"
         d="m 848.254,768.237 h -15.689 v 51.192 H 804.228 V 693.685 h 28.337 v 51.192 h 15.689 V 693.685 H 876.55 V 819.43 H 848.254 Z M 646.887,693.685 h 19.348 37.484 4.646 L 729.78,819.43 h -28.422 l -4.41,-31.405 h -19.292 l -4.41,31.405 H 644.823 L 662.264,717 H 646.887 Z M 539.852,681.025 V 819.43 H 511.556 V 681.025 H 478.91 V 657.71 h 93.591 v 23.315 z m 80.66,77.377 c 11.006,-5.981 15.918,-17.473 15.918,-30.127 0,-32.031 -34.176,-34.591 -58.265,-34.591 -8.398,0 -16.801,0 -25.203,0 h -1.567 v 1.57 c 0,40.865 0,81.734 0,122.604 v 1.571 h 1.567 c 8.402,0 16.805,0 25.203,0 h 1.57 v -1.571 c 0,-15.958 0,-31.921 0,-47.88 16.675,-1.204 28.626,1.848 28.382,21.505 -0.11,8.801 -0.004,17.586 0.061,26.388 l 0.013,1.559 h 28.239 v -28.797 c 0,-14.763 -2.74,-25.614 -15.918,-32.231 z m -40.777,-41.374 c 1.714,-0.036 3.427,-0.105 5.151,-0.09 3.187,0.024 6.421,0.232 9.555,0.822 3.687,0.691 7.792,2.039 10.47,4.798 2.241,2.311 3.076,5.216 3.007,8.39 -0.077,3.524 -0.916,6.93 -3.41,9.538 -5.212,5.44 -17.078,5.961 -24.772,6.201 -10e-4,-9.883 -10e-4,-19.775 -10e-4,-29.659 z m 101.202,47.677 h 12.728 l -6.364,-45.418 z m 94.97,-23.95 c 12.874,13.021 20.634,23.849 20.634,42.688 0,12.983 -6.132,23.885 -15.666,30.464 -13.041,8.997 -31.697,6.841 -41.699,2.238 l -3.735,-23.189 2.104,0.761 c 5.624,2.031 12.997,3.577 18.945,3.577 6.446,0 11.756,-4.696 11.756,-11.275 0,-10.258 -4.586,-17.094 -11.263,-24.597 -4.175,-4.692 -8.501,-9.6 -12.061,-14.771 -2.612,-3.788 -4.761,-7.734 -5.957,-12.198 -0.854,-3.19 -1.164,-6.421 -1.164,-9.717 0,-18.742 15.304,-32.231 33.671,-32.231 7.089,0 12.769,1.172 19.345,3.688 l 1.005,0.386 v 21.924 l -2.153,-0.874 c -4.724,-1.904 -11.8,-2.723 -16.797,-2.723 -4.199,0 -7.91,3.45 -7.91,7.69 0,2.616 0.651,4.732 1.904,7.023 2.189,3.983 5.863,7.925 9.041,11.136 z"
         id="path3940" />
      <path
         fill-rule="evenodd"
         clip-rule="evenodd"
         fill="#ffffff"
         d="m 479.079,717 v 27.877 h 18.825 v 23.36 h -18.825 v 27.876 h 18.825 v 23.316 H 450.74 V 693.685 h 47.164 V 717 Z M 184.335,684.635 c -5.874,-2.287 -12.785,-3.963 -19.114,-2.999 -4.325,0.659 -8.282,2.572 -10.891,6.173 -2.56,3.54 -3.271,7.972 -2.804,12.248 0.613,5.587 3.18,10.949 6.454,15.458 2.983,4.105 6.816,7.564 10.673,10.823 4.175,3.532 8.467,6.905 12.368,10.751 10.022,9.888 14.577,20.463 14.494,34.655 -0.085,13.981 -4.138,27.612 -14.677,37.28 -8.447,7.748 -19.714,11.581 -31.096,11.581 -9.145,0 -17.798,-1.656 -25.572,-6.669 l -0.718,-0.464 v -24.895 c 8.313,5.065 16.296,8.451 26.29,8.451 4.403,0 8.569,-1.945 11.568,-5.135 4.445,-4.729 5.866,-11.455 5.866,-17.758 0,-17.989 -13.249,-24.747 -24.683,-35.855 -11.7,-11.365 -17.755,-23.687 -17.861,-40.243 -0.091,-14.396 6.438,-27.299 18.874,-34.798 12.881,-7.764 29.045,-7.821 42.157,-0.57 l 0.81,0.448 v 22.351 z M 234.292,717 h 21.971 V 693.685 H 183.938 V 717 h 22.015 v 102.43 h 28.339 V 717 Z m 73.998,80.294 c 5.739,0 11.047,-2.714 14.848,-6.946 7.723,-8.602 9.355,-22.737 9.355,-33.769 0,-11.035 -1.622,-25.199 -9.34,-33.81 -3.805,-4.248 -9.113,-6.949 -14.862,-6.949 -5.741,0 -11.049,2.718 -14.848,6.949 -7.727,8.61 -9.357,22.767 -9.357,33.81 0,11.031 1.632,25.167 9.357,33.769 3.797,4.232 9.107,6.946 14.847,6.946 z m 0,-104.79 c 11.119,0 22.223,2.853 31.238,9.566 16.909,12.59 21.303,34.595 21.303,54.509 0,19.91 -4.395,41.915 -21.303,54.509 -9.015,6.71 -20.119,9.563 -31.238,9.563 -11.117,0 -22.229,-2.869 -31.24,-9.579 -16.901,-12.594 -21.301,-34.582 -21.301,-54.492 0,-19.914 4.395,-41.919 21.303,-54.509 9.012,-6.715 20.119,-9.567 31.238,-9.567 z m 104.27,65.597 -15.69,-19.148 v 80.478 H 368.529 V 693.685 h 21.617 l 22.414,27.36 v -27.36 h 28.292 V 819.43 H 412.56 Z"
         id="path3942" />
      <path
         fill-rule="evenodd"
         clip-rule="evenodd"
         fill="#cdcccc"
         d="m 494.069,713.163 v -15.642 h -39.494 v 118.07 h 39.494 V 799.95 H 475.243 V 764.4 h 18.826 v -15.687 h -18.826 v -35.551 h 18.826 z M 182.636,679.947 v -14.538 c -11.696,-5.953 -25.828,-5.709 -37.148,1.118 -11.279,6.8 -17.104,18.449 -17.021,31.486 0.1,15.471 5.703,26.835 16.699,37.517 6.602,6.413 14.653,11.894 19.951,19.49 4.049,5.803 5.894,12.045 5.894,19.116 0,7.324 -1.76,14.913 -6.905,20.386 -3.725,3.964 -8.903,6.344 -14.364,6.344 -8.355,0 -15.46,-2.169 -22.455,-5.733 v 16.228 c 6.864,4.098 14.481,5.412 22.455,5.412 10.417,0 20.767,-3.479 28.503,-10.575 9.731,-8.928 13.354,-21.591 13.432,-34.473 0.079,-13.111 -4.041,-22.718 -13.351,-31.901 -3.819,-3.769 -8.059,-7.097 -12.15,-10.556 -4.114,-3.475 -8.12,-7.12 -11.3,-11.499 -3.678,-5.058 -6.476,-11.03 -7.164,-17.293 -0.576,-5.232 0.382,-10.592 3.51,-14.913 3.218,-4.451 8.069,-6.905 13.419,-7.719 5.953,-0.907 12.235,0.199 17.995,2.103 z m 69.79,33.216 h -21.97 V 815.592 H 209.789 V 713.163 h -22.014 v -15.642 h 64.65 v 15.642 z m 55.864,-16.821 c -10.287,0 -20.607,2.596 -28.949,8.805 -15.836,11.792 -19.757,32.846 -19.757,51.433 0,18.587 3.926,39.62 19.759,51.412 8.333,6.214 18.66,8.821 28.947,8.821 10.289,0 20.609,-2.596 28.947,-8.801 15.837,-11.796 19.757,-32.846 19.757,-51.433 0,-18.587 -3.92,-39.641 -19.757,-51.433 -8.338,-6.208 -18.659,-8.804 -28.947,-8.804 z m 0,104.785 c -6.834,0 -13.171,-3.174 -17.702,-8.216 -8.433,-9.387 -10.337,-24.174 -10.337,-36.332 0,-12.166 1.902,-26.974 10.337,-36.373 4.529,-5.045 10.866,-8.224 17.702,-8.224 6.846,0 13.186,3.17 17.721,8.224 8.423,9.399 10.319,24.211 10.319,36.373 0,12.158 -1.906,26.945 -10.337,36.332 -4.532,5.042 -10.871,8.216 -17.703,8.216 z m 108.105,14.465 h 20.622 v -118.07 h -20.622 v 34.261 l -28.064,-34.261 h -15.967 v 118.07 h 20.668 v -87.374 l 23.362,28.512 v 58.862 z"
         id="path3944" />
      <path
         fill-rule="evenodd"
         clip-rule="evenodd"
         fill="#ffffff"
         d="m 479.841,744.877 h 17.841 c -5.017,5.465 -11.013,10.025 -17.951,12.78 -9.764,3.866 -19.322,8.236 -28.994,12.329 v -11.91 c 5.381,-2.759 10.469,-5.411 16.443,-6.718 4.784,-1.049 8.957,-3.442 12.661,-6.481 z m -29.103,1.908 c 0.403,-0.452 0.804,-0.892 1.194,-1.318 2.858,-3.117 6.016,-6.242 9.41,-8.772 7.025,-5.241 9.495,-10.698 13.265,-18.091 2.488,-4.875 4.779,-9.908 7.058,-14.889 1.53,-3.341 3.044,-6.686 4.568,-10.03 h -13.379 c -1.064,3.414 -2.057,6.844 -3.223,10.226 -3.037,8.825 -7.188,17.472 -15.004,23.03 -1.268,0.903 -2.574,1.827 -3.888,2.775 v 17.069 z m -199.034,-53.1 c -3.648,0.781 -7.336,1.469 -10.97,2.152 -1.156,0.216 -2.419,0.342 -3.546,0.122 -13.293,5.721 -26.666,11.683 -39.549,18.217 -1.739,0.888 -3.479,1.819 -5.178,2.824 h -8.522 v -6.999 c 9.603,-6.425 20.695,-11.975 31.563,-16.316 z m -76.205,38.386 c -3.011,3.08 -6.032,5.57 -10.077,8.081 -3.967,2.462 -8.254,4.948 -12.648,7.288 -3.325,-2.942 -6.883,-5.855 -10.281,-9.159 -0.269,-0.261 -0.533,-0.521 -0.793,-0.781 1.64,-0.281 3.266,-0.606 4.901,-1.038 7.853,-2.075 14.437,-6.018 20.007,-11.882 0.678,0.595 1.361,1.181 2.045,1.758 2.275,1.925 4.586,3.801 6.846,5.733 z m 171.009,-23.522 c -3.498,1.867 -7.003,3.707 -10.453,5.664 -0.901,0.513 -1.801,1.033 -2.692,1.563 -3.251,1.925 -6.567,4.476 -9.851,7.405 -0.118,-0.139 -0.238,-0.276 -0.358,-0.411 -2.089,-2.331 -4.628,-4.195 -7.446,-5.403 1.672,-1.697 3.351,-3.386 5.033,-5.066 3.955,-3.955 9.304,-7.739 13.77,-11.173 0.466,-0.358 1.048,-0.798 1.703,-1.298 1.131,0.695 2.24,1.44 3.314,2.241 2.616,1.949 4.931,4.121 6.98,6.478 z m -61.184,63.18 c -1.036,1.705 -2.051,3.426 -3.046,5.151 -4.968,8.638 -9.326,17.496 -13.062,26.692 -2.651,-3.234 -4.822,-6.791 -6.586,-10.563 0.946,-2.124 1.874,-4.183 2.765,-6.14 -1.55,0.562 -2.982,1.037 -4.085,1.412 l -0.576,0.195 c -1.153,-3.113 -2.071,-6.336 -2.787,-9.611 6.563,-2.152 12.374,-5.33 15.247,-10.258 3.208,-5.51 6.962,-10.885 10.968,-16.073 -0.053,1.384 -0.077,2.734 -0.077,4.045 0,4.708 0.299,9.982 1.239,15.15 z m -51.032,24.714 c -5.597,1.611 -11.196,3.219 -16.762,4.932 -3.681,1.131 -7.872,2.368 -11.579,3.882 V 789.38 c 8.876,-3.231 19.405,-4.558 28.314,-5.848 l 0.026,-0.004 v 12.915 z M 124.805,693.737 c 9.495,-1.217 18.97,-2.604 28.418,-4.13 -1.607,3.097 -2.063,6.669 -1.728,10.152 -3.16,0.614 -6.319,1.229 -9.477,1.863 -5.656,1.136 -11.318,2.315 -16.931,3.658 -0.287,-2.323 -0.442,-4.736 -0.458,-7.243 -0.007,-1.451 0.052,-2.884 0.176,-4.3 z m 53.046,-11.194 c 2.425,-1.745 4.641,-3.824 6.689,-6.025 0.659,-0.708 1.302,-1.433 1.931,-2.165 v 11.116 l -2.136,-0.83 c -2.057,-0.806 -4.242,-1.53 -6.484,-2.096 z m 190.678,43.897 c 11.088,-2.08 24.491,-7.451 36.334,-14.791 l 6.378,7.792 c -13.66,9.167 -29.159,15.95 -42.712,19.169 z m 44.031,-20.015 c 5.247,-3.91 9.933,-8.207 13.633,-12.74 h 12.195 c -6.356,9.302 -15.521,17.766 -25.828,24.861 z m -53.064,32.422 c -0.958,-0.484 -1.752,-1.273 -2.238,-2.49 -0.694,-1.742 -0.252,-3.549 0.639,-5.147 0.655,2.51 1.182,5.064 1.599,7.637 z m 81.356,20.45 c -0.91,1.348 -1.754,2.682 -2.5,3.98 -0.187,0.325 -0.49,0.81 -0.836,1.367 0.185,-0.065 0.366,-0.131 0.549,-0.2 0.934,-0.342 1.863,-0.744 2.787,-1.18 v 10.755 c -3.807,1.488 -7.624,2.949 -11.412,4.479 -4.761,1.921 -11.729,4.729 -16.88,7.91 v -11.955 c 2.637,-0.81 5.811,-1.814 8,-3.536 3.021,-2.38 4.948,-7.026 6.344,-10.485 2.285,-5.656 4.692,-11.613 8.311,-16.565 1.618,-2.217 3.542,-4.288 5.638,-6.241 v 21.671 z m -43.982,45.032 c -0.627,0.911 -1.25,1.827 -1.87,2.738 -2.767,4.09 -5.453,8.22 -8.128,12.362 h -14.128 c 1.257,-1.974 2.454,-4.004 3.711,-5.978 2.181,-3.431 4.462,-6.812 6.936,-10.038 1.583,-2.067 3.255,-4.082 5.051,-5.962 0.991,-1.041 1.994,-2.124 2.987,-3.234 -0.924,0.419 -1.847,0.842 -2.773,1.266 -6.808,3.129 -13.489,6.421 -20.127,9.835 v -14.393 c 8.295,-4.761 18.549,-8.573 27.146,-11.389 l 1.194,-0.387 v 25.18 z"
         id="path3946" />
      <path
         fill-rule="evenodd"
         clip-rule="evenodd"
         fill="#1a1a1a"
         d="m 486.278,744.877 h 6.021 c -3.835,3.67 -8.486,7.035 -13.981,9.212 -12.537,4.969 -20.316,8.509 -27.58,11.67 v -3.369 c 4.535,-2.344 9.967,-4.765 17.613,-6.441 7.368,-1.612 13.199,-6.112 17.927,-11.072 z M 124.63,697.611 c 8.551,-1.087 17.58,-2.373 27.15,-3.895 -0.144,0.704 -0.248,1.42 -0.311,2.141 -8.846,1.713 -18.467,3.605 -26.729,5.566 -0.065,-1.111 -0.102,-2.238 -0.11,-3.386 z m 243.899,37.048 c 12.319,-3.072 27.085,-9.452 40.271,-18.2 l -1.485,-1.815 c -12.565,7.891 -26.868,13.599 -38.786,15.694 z m 44.031,-20.792 c 8.205,-5.88 15.607,-12.688 21.149,-20.183 h -2.694 c -4.647,6.344 -11.115,12.276 -18.455,17.468 z m -44.031,81.539 c 7.308,-4.469 18.073,-8.863 28.341,-12.224 v 4.378 c -9.731,4.37 -16.823,7.544 -28.341,13.437 z m 44.031,-16.943 c 10.172,-3.032 13.184,-4.908 17.902,-16.594 3.666,-9.082 5.983,-14.038 10.39,-18.832 v 9.79 c -2.633,3.496 -4.698,6.576 -5.825,8.537 -3.212,5.579 -6.846,9.811 1.99,7.442 1.322,-0.354 2.588,-0.813 3.835,-1.343 v 2.438 l -1.086,0.427 c -8.789,3.438 -19.59,7.451 -27.206,11.683 z m 38.178,-43.954 c 1.809,-1.354 3.829,-2.815 6.111,-4.439 12.689,-9.029 16.402,-24.927 20.026,-36.385 h 5.143 c -3.499,7.694 -7.918,17.468 -10.828,23.173 -3.029,5.937 -5.356,11.702 -12.144,16.765 -2.765,2.059 -5.593,4.684 -8.309,7.511 v -6.625 z M 396.87,797.66 v -3.891 c -1.658,1.979 -3.569,4.146 -5.654,6.332 -5.707,5.978 -10.977,14.465 -13.969,19.328 h 5.054 c 3.864,-6.005 9.448,-14.636 14.569,-21.769 z m -57.322,-95.577 c -6.096,4.744 -12.86,9.692 -16.095,12.927 -1.383,1.384 -2.806,2.813 -4.254,4.281 0.553,0.378 1.092,0.785 1.613,1.221 3.66,-3.3 7.227,-6.039 10.594,-8.036 4.102,-2.434 8.433,-4.725 12.359,-6.812 -1.312,-1.262 -2.714,-2.458 -4.217,-3.581 z m -55.435,56.945 c -2.844,3.895 -5.417,7.752 -7.605,11.508 -3.499,6.006 -9.881,9.615 -17.651,12.052 0.206,0.758 0.421,1.506 0.651,2.251 6.952,-2.323 12.181,-4.448 13.859,-6.124 -2.187,4.744 -5.237,11.324 -8.439,18.673 0.513,0.879 1.054,1.741 1.619,2.588 3.264,-7.805 7.266,-16.073 12.407,-25.009 1.729,-3.003 3.589,-6.087 5.552,-9.199 -0.224,-2.295 -0.341,-4.562 -0.393,-6.74 z m -49.821,28.374 c -10.179,1.477 -20.329,2.93 -28.341,6.087 v 7.683 c 6.635,-2.475 17.356,-5.555 28.341,-8.721 z m -89.158,-46.647 c 6.812,-1.465 15.938,-4.716 24.392,-13.68 1.015,0.85 2.035,1.692 3.05,2.539 -2.258,2.311 -4.995,4.683 -9.176,7.279 -4.921,3.056 -9.654,5.672 -13.775,7.809 -1.486,-1.286 -2.996,-2.593 -4.491,-3.947 z m 38.804,-26.029 c 11.548,-8.077 26.656,-15.683 42.574,-21.041 h 6.284 c -10.657,4.631 -25.244,11.161 -36.894,17.073 -4.433,2.25 -7.784,4.306 -10.456,6.242 h -1.509 v -2.274 z"
         id="path3948" />
      <path
         fill-rule="evenodd"
         clip-rule="evenodd"
         fill="#ffffff"
         d="m 210.883,834.668 h 17.389 v 5.143 h -5.969 v 30.864 h -5.451 v -30.864 h -5.969 z m 23.232,36.007 v -36.007 h 5.451 v 15.173 h 6.482 v -15.173 h 5.453 v 36.007 h -5.453 v -15.687 h -6.482 v 15.687 z m 24.978,-36.007 h 15.48 v 5.143 h -10.028 v 10.03 h 7.971 v 5.147 h -7.971 v 10.543 h 10.028 v 5.144 h -15.48 z m 39.539,36.52 c -1.715,0 -3.241,-0.375 -4.578,-1.127 -1.341,-0.758 -2.376,-1.803 -3.113,-3.142 -0.739,-1.335 -1.105,-2.86 -1.105,-4.578 v -1.285 l 5.245,-0.566 v 1.339 c 0,1.303 0.309,2.332 0.926,3.085 0.616,0.757 1.473,1.135 2.571,1.135 1.062,0 1.911,-0.31 2.545,-0.928 0.634,-0.618 0.952,-1.457 0.952,-2.522 0,-1.164 -0.333,-2.279 -1.001,-3.341 -0.671,-1.066 -1.998,-2.539 -3.988,-4.427 -2.673,-2.535 -4.502,-4.647 -5.479,-6.323 -0.977,-1.681 -1.467,-3.516 -1.467,-5.506 0,-2.71 0.739,-4.862 2.211,-6.457 1.477,-1.596 3.5,-2.389 6.073,-2.389 2.569,0 4.596,0.806 6.069,2.417 1.475,1.611 2.211,3.771 2.211,6.481 v 0.924 l -5.247,0.565 v -1.025 c 0,-1.375 -0.256,-2.421 -0.771,-3.141 -0.517,-0.717 -1.251,-1.079 -2.213,-1.079 -0.958,0 -1.697,0.289 -2.211,0.875 -0.513,0.582 -0.771,1.44 -0.771,2.572 0,1.131 0.344,2.217 1.029,3.263 0.686,1.05 2.006,2.548 3.961,4.505 2.673,2.673 4.5,4.825 5.477,6.453 0.977,1.628 1.469,3.422 1.469,5.375 0,1.718 -0.372,3.243 -1.108,4.578 -0.737,1.339 -1.772,2.384 -3.111,3.142 -1.337,0.752 -2.863,1.127 -4.576,1.127 z m 13.145,-36.52 h 17.389 v 5.143 h -5.969 v 30.864 h -5.45 v -30.864 h -5.969 v -5.143 z m 31.512,36.52 c -2.604,0 -4.716,-0.794 -6.327,-2.393 -1.611,-1.592 -2.417,-3.691 -2.417,-6.299 v -19.649 c 0,-2.608 0.806,-4.708 2.417,-6.303 1.611,-1.596 3.723,-2.389 6.327,-2.389 2.606,0 4.716,0.793 6.328,2.389 1.611,1.595 2.417,3.694 2.417,6.303 v 19.649 c 0,2.607 -0.806,4.707 -2.417,6.299 -1.612,1.599 -3.721,2.393 -6.328,2.393 z m 0,-5.14 c 1.027,0 1.833,-0.31 2.419,-0.928 0.582,-0.618 0.873,-1.489 0.873,-2.624 v -19.649 c 0,-1.132 -0.291,-2.006 -0.873,-2.625 -0.586,-0.618 -1.392,-0.924 -2.419,-0.924 -1.029,0 -1.835,0.306 -2.419,0.924 -0.582,0.619 -0.873,1.493 -0.873,2.625 v 19.649 c 0,1.135 0.291,2.006 0.873,2.624 0.584,0.618 1.39,0.928 2.419,0.928 z m 15.874,-31.38 h 6.018 l 6.943,24.178 v -24.178 h 5.351 v 36.007 h -5.762 l -7.202,-23.043 v 23.043 h -5.349 v -36.007 z m 25.905,0 h 15.482 v 5.143 h -10.03 v 10.03 h 7.971 v 5.147 h -7.971 v 10.543 h 10.03 v 5.144 h -15.482 z m 47.508,36.007 -1.542,-2.519 c -1.921,2.021 -4.183,3.031 -6.79,3.031 -2.368,0 -4.297,-0.77 -5.786,-2.312 -1.495,-1.546 -2.24,-3.792 -2.24,-6.738 0,-2.022 0.384,-3.78 1.16,-5.273 0.769,-1.493 1.979,-3.113 3.625,-4.862 l -0.773,-1.233 c -0.857,-1.44 -1.553,-2.836 -2.083,-4.19 -0.529,-1.355 -0.797,-2.792 -0.797,-4.297 0,-2.364 0.73,-4.313 2.185,-5.84 1.459,-1.525 3.388,-2.286 5.791,-2.286 2.297,0 4.148,0.699 5.554,2.104 1.406,1.408 2.11,3.296 2.11,5.66 0,1.306 -0.165,2.438 -0.49,3.394 -0.324,0.964 -0.865,1.965 -1.62,3.011 -0.755,1.046 -1.92,2.43 -3.498,4.143 l 3.447,5.347 c 0.309,-1.063 0.702,-2.775 1.182,-5.14 h 5.452 c -0.96,4.419 -2.039,7.902 -3.241,10.441 l 4.889,7.561 h -6.535 z m -7.201,-31.637 c -0.858,0 -1.534,0.293 -2.033,0.879 -0.496,0.582 -0.744,1.367 -0.744,2.364 0,1.749 0.702,3.751 2.105,6.018 1.168,-1.168 2.008,-2.193 2.523,-3.084 0.515,-0.896 0.771,-1.872 0.771,-2.934 0,-1.066 -0.222,-1.872 -0.669,-2.422 -0.445,-0.545 -1.096,-0.821 -1.953,-0.821 z m -0.104,27.01 c 0.651,0 1.235,-0.146 1.75,-0.439 0.515,-0.293 1.011,-0.798 1.491,-1.518 l -4.732,-7.561 c -0.755,0.924 -1.294,1.791 -1.621,2.597 -0.324,0.806 -0.488,1.721 -0.488,2.75 0,2.779 1.2,4.171 3.6,4.171 z m 28.578,-31.38 h 17.389 v 5.143 h -5.967 v 30.864 h -5.452 v -30.864 h -5.969 v -5.143 z m 23.234,0 h 5.451 v 36.007 h -5.451 z m 13.045,0 h 5.45 v 30.863 h 9.723 v 5.144 h -15.173 z m 21.017,0 h 15.482 v 5.143 h -10.03 v 10.03 h 7.972 v 5.147 h -7.972 v 10.543 h 10.03 v 5.144 h -15.482 z m 56.766,0 v 36.007 h -5.452 v -24.691 l -5.091,24.691 h -3.809 l -5.095,-24.691 v 24.691 h -5.347 v -36.007 h 7.715 l 4.732,22.994 4.529,-22.994 z m 18.343,28.035 h -5.867 l -1.18,7.972 h -5.453 l 5.966,-36.007 h 7.304 l 5.969,36.007 h -5.554 z m -0.72,-5.249 -2.214,-15.071 -2.213,15.071 z m 25.541,13.221 -3.959,-14.864 h -2.828 v 14.864 h -5.452 v -36.007 h 8.536 c 2.608,0 4.684,0.781 6.226,2.34 1.543,1.558 2.315,3.642 2.315,6.25 v 3.959 c 0,1.647 -0.329,3.104 -0.98,4.374 -0.651,1.27 -1.574,2.263 -2.779,2.982 l 4.582,16.102 z m -6.787,-20.008 h 2.828 c 1.062,0 1.888,-0.293 2.47,-0.875 0.582,-0.586 0.871,-1.407 0.871,-2.47 v -4.167 c 0,-1.065 -0.289,-1.888 -0.871,-2.47 -0.582,-0.582 -1.408,-0.875 -2.47,-0.875 h -2.828 z m 26.058,5.192 -2.059,3.963 v 10.853 h -5.452 v -36.007 h 5.452 v 14.607 l 7.202,-14.607 h 5.863 l -7.662,15.274 8.228,20.732 h -5.863 z m 17.26,-21.191 h 15.483 v 5.143 h -10.03 v 10.03 h 7.976 v 5.147 h -7.976 v 10.543 h 10.03 v 5.144 h -15.483 z m 19.939,0 h 17.391 v 5.143 h -5.969 v 30.864 h -5.452 v -30.864 h -5.97 z m 23.234,0 h 8.537 c 2.607,0 4.683,0.781 6.226,2.34 1.542,1.558 2.314,3.642 2.314,6.25 v 4.215 c 0,2.608 -0.772,4.691 -2.314,6.254 -1.543,1.559 -3.618,2.34 -6.226,2.34 h -3.085 v 14.608 h -5.452 z m 8.281,16.256 c 1.063,0 1.888,-0.293 2.47,-0.875 0.582,-0.586 0.875,-1.408 0.875,-2.47 v -4.424 c 0,-1.065 -0.293,-1.888 -0.875,-2.47 -0.582,-0.582 -1.407,-0.875 -2.47,-0.875 h -2.828 v 11.113 h 2.828 z m 14.998,-16.256 h 5.453 v 30.863 h 9.725 v 5.144 h -15.178 z m 32.284,28.035 h -5.868 l -1.18,7.972 h -5.452 l 5.965,-36.007 h 7.304 l 5.97,36.007 h -5.555 z m -0.721,-5.249 -2.213,-15.071 -2.214,15.071 z m 21.326,13.734 c -2.539,0 -4.594,-0.785 -6.173,-2.364 -1.579,-1.579 -2.368,-3.634 -2.368,-6.173 v -19.959 c 0,-2.539 0.789,-4.594 2.368,-6.172 1.579,-1.579 3.634,-2.364 6.173,-2.364 2.539,0 4.594,0.785 6.173,2.364 1.574,1.578 2.368,3.633 2.368,6.172 v 4.22 h -5.355 v -4.22 c 0,-1.029 -0.289,-1.851 -0.87,-2.47 -0.582,-0.618 -1.339,-0.924 -2.263,-0.924 -0.928,0 -1.681,0.306 -2.267,0.924 -0.582,0.619 -0.875,1.44 -0.875,2.47 v 19.959 c 0,1.029 0.293,1.852 0.875,2.47 0.586,0.618 1.339,0.928 2.267,0.928 0.924,0 1.681,-0.31 2.263,-0.928 0.581,-0.618 0.87,-1.44 0.87,-2.47 v -5.144 h 5.355 v 5.144 c 0,2.539 -0.794,4.594 -2.368,6.173 -1.579,1.578 -3.634,2.364 -6.173,2.364 z m 15.153,-36.52 h 15.483 v 5.143 h -10.03 v 10.03 h 7.971 v 5.147 h -7.971 v 10.543 h 10.03 v 5.144 H 782.1 Z"
         id="path3950" />
    </g>
  </g>
</svg>
