<?xml version="1.0" encoding="UTF-8" standalone="no"?>
<!-- Generator: Adobe Illustrator 15.0.0, SVG Export Plug-In . SVG Version: 6.00 Build 0)  -->

<svg version="1.1" id="Layer_1" x="0px" y="0px" width="782.53003" height="773.02533" viewBox="0 0 782.53003 773.02533" enable-background="new 0 0 1000 1000" xml:space="preserve" sodipodi:docname="st_vertical.svg" inkscape:version="1.1 (c68e22c387, 2021-05-23)"
   xmlns:inkscape="http://www.inkscape.org/namespaces/inkscape"
   xmlns:sodipodi="http://sodipodi.sourceforge.net/DTD/sodipodi-0.dtd"
   xmlns="http://www.w3.org/2000/svg"
   xmlns:svg="http://www.w3.org/2000/svg">
   <defs id="defs4119">





   </defs>
   <sodipodi:namedview id="namedview4117" pagecolor="#505050" bordercolor="#eeeeee" borderopacity="1" inkscape:pageshadow="0" inkscape:pageopacity="0" inkscape:pagecheckerboard="0" showgrid="false" fit-margin-left="1" fit-margin-top="1" fit-margin-right="1" fit-margin-bottom="1" inkscape:zoom="0.824" inkscape:cx="221.48058" inkscape:cy="354.36893" inkscape:window-width="1920" inkscape:window-height="1010" inkscape:window-x="-6" inkscape:window-y="-6" inkscape:window-maximized="1" inkscape:current-layer="Layer_1" />
   <g id="g4110" transform="translate(-108.736,-113.48766)" inkscape:export-filename="C:\Users\Joseph Rall\source\repos\StoneAwesomeWeb\sites\stonetrash\public\images\logo\og_2.png" inkscape:export-xdpi="74.705719" inkscape:export-ydpi="74.705719">
      <g id="g3952">
         <path fill-rule="evenodd" clip-rule="evenodd" fill="#1a1a1a" d="m 186.803,821.936 c -10.512,8.22 -23.682,12.391 -37.061,12.391 -17.704,0 -28.762,-5.656 -40.006,-13.375 0,-18.551 0,-37.105 0,-55.656 7.625,5.359 20.19,13.396 30.762,16.451 16.185,4.684 16.089,-8.272 10.221,-16.683 -4.034,-5.782 -12.53,-11.841 -17.786,-16.943 -14.375,-13.965 -21.891,-29.798 -22.02,-49.996 -0.122,-19.23 8.917,-36.626 25.511,-46.631 17.074,-10.295 38.475,-10.445 55.874,-0.826 2.632,1.452 5.261,2.905 7.892,4.361 0,8.31 0,16.626 0,24.939 23.263,0 46.527,0 69.79,0 0,3.426 0,6.856 0,10.286 11.188,-7.918 24.67,-11.466 38.31,-11.466 14.097,0 28.029,3.792 39.433,12.28 2.584,1.924 4.942,4.012 7.088,6.233 0,-5.778 0,-11.556 0,-17.334 39.242,0 69.7,0 110.38,0 0,-11.991 0,-23.982 0,-35.975 40.342,0 80.682,0 121.027,0 0,12.028 0,24.061 0,36.089 4.313,0.134 8.622,0.402 12.911,0.891 12.923,1.469 24.927,5.123 34.041,11.78 0,-4.265 0,-8.524 0,-12.785 28.927,0 57.85,0 86.776,0 1.875,11.011 3.747,22.021 5.623,33.032 4.851,-18.767 21.631,-33.032 41.028,-33.032 41.219,0 82.446,0 123.669,0 0,51.058 0,102.12 0,153.178 -26.144,0 -42.599,0 -67.867,0 -4.879,0 -4.817,1.055 -4.817,6.03 v 23.751 c 0,21.888 -6.274,22.587 -25.717,22.587 h -576.19 c -17.367,0 -23.44,-1.452 -23.44,-22.587 0,-14.9 0,-21.338 0,-34.843 0,-10.025 0.84,-11.051 -5.432,-6.147 z" id="path3938" />
         <path fill-rule="evenodd" clip-rule="evenodd" fill="#f78e2d" d="m 848.254,768.237 h -15.689 v 51.192 H 804.228 V 693.685 h 28.337 v 51.192 h 15.689 V 693.685 H 876.55 V 819.43 H 848.254 Z M 646.887,693.685 h 19.348 37.484 4.646 L 729.78,819.43 h -28.422 l -4.41,-31.405 h -19.292 l -4.41,31.405 H 644.823 L 662.264,717 H 646.887 Z M 539.852,681.025 V 819.43 H 511.556 V 681.025 H 478.91 V 657.71 h 93.591 v 23.315 z m 80.66,77.377 c 11.006,-5.981 15.918,-17.473 15.918,-30.127 0,-32.031 -34.176,-34.591 -58.265,-34.591 -8.398,0 -16.801,0 -25.203,0 h -1.567 v 1.57 c 0,40.865 0,81.734 0,122.604 v 1.571 h 1.567 c 8.402,0 16.805,0 25.203,0 h 1.57 v -1.571 c 0,-15.958 0,-31.921 0,-47.88 16.675,-1.204 28.626,1.848 28.382,21.505 -0.11,8.801 -0.004,17.586 0.061,26.388 l 0.013,1.559 h 28.239 v -28.797 c 0,-14.763 -2.74,-25.614 -15.918,-32.231 z m -40.777,-41.374 c 1.714,-0.036 3.427,-0.105 5.151,-0.09 3.187,0.024 6.421,0.232 9.555,0.822 3.687,0.691 7.792,2.039 10.47,4.798 2.241,2.311 3.076,5.216 3.007,8.39 -0.077,3.524 -0.916,6.93 -3.41,9.538 -5.212,5.44 -17.078,5.961 -24.772,6.201 -10e-4,-9.883 -10e-4,-19.775 -10e-4,-29.659 z m 101.202,47.677 h 12.728 l -6.364,-45.418 z m 94.97,-23.95 c 12.874,13.021 20.634,23.849 20.634,42.688 0,12.983 -6.132,23.885 -15.666,30.464 -13.041,8.997 -31.697,6.841 -41.699,2.238 l -3.735,-23.189 2.104,0.761 c 5.624,2.031 12.997,3.577 18.945,3.577 6.446,0 11.756,-4.696 11.756,-11.275 0,-10.258 -4.586,-17.094 -11.263,-24.597 -4.175,-4.692 -8.501,-9.6 -12.061,-14.771 -2.612,-3.788 -4.761,-7.734 -5.957,-12.198 -0.854,-3.19 -1.164,-6.421 -1.164,-9.717 0,-18.742 15.304,-32.231 33.671,-32.231 7.089,0 12.769,1.172 19.345,3.688 l 1.005,0.386 v 21.924 l -2.153,-0.874 c -4.724,-1.904 -11.8,-2.723 -16.797,-2.723 -4.199,0 -7.91,3.45 -7.91,7.69 0,2.616 0.651,4.732 1.904,7.023 2.189,3.983 5.863,7.925 9.041,11.136 z" id="path3940" />
         <path fill-rule="evenodd" clip-rule="evenodd" fill="#ffffff" d="m 479.079,717 v 27.877 h 18.825 v 23.36 h -18.825 v 27.876 h 18.825 v 23.316 H 450.74 V 693.685 h 47.164 V 717 Z M 184.335,684.635 c -5.874,-2.287 -12.785,-3.963 -19.114,-2.999 -4.325,0.659 -8.282,2.572 -10.891,6.173 -2.56,3.54 -3.271,7.972 -2.804,12.248 0.613,5.587 3.18,10.949 6.454,15.458 2.983,4.105 6.816,7.564 10.673,10.823 4.175,3.532 8.467,6.905 12.368,10.751 10.022,9.888 14.577,20.463 14.494,34.655 -0.085,13.981 -4.138,27.612 -14.677,37.28 -8.447,7.748 -19.714,11.581 -31.096,11.581 -9.145,0 -17.798,-1.656 -25.572,-6.669 l -0.718,-0.464 v -24.895 c 8.313,5.065 16.296,8.451 26.29,8.451 4.403,0 8.569,-1.945 11.568,-5.135 4.445,-4.729 5.866,-11.455 5.866,-17.758 0,-17.989 -13.249,-24.747 -24.683,-35.855 -11.7,-11.365 -17.755,-23.687 -17.861,-40.243 -0.091,-14.396 6.438,-27.299 18.874,-34.798 12.881,-7.764 29.045,-7.821 42.157,-0.57 l 0.81,0.448 v 22.351 z M 234.292,717 h 21.971 V 693.685 H 183.938 V 717 h 22.015 v 102.43 h 28.339 V 717 Z m 73.998,80.294 c 5.739,0 11.047,-2.714 14.848,-6.946 7.723,-8.602 9.355,-22.737 9.355,-33.769 0,-11.035 -1.622,-25.199 -9.34,-33.81 -3.805,-4.248 -9.113,-6.949 -14.862,-6.949 -5.741,0 -11.049,2.718 -14.848,6.949 -7.727,8.61 -9.357,22.767 -9.357,33.81 0,11.031 1.632,25.167 9.357,33.769 3.797,4.232 9.107,6.946 14.847,6.946 z m 0,-104.79 c 11.119,0 22.223,2.853 31.238,9.566 16.909,12.59 21.303,34.595 21.303,54.509 0,19.91 -4.395,41.915 -21.303,54.509 -9.015,6.71 -20.119,9.563 -31.238,9.563 -11.117,0 -22.229,-2.869 -31.24,-9.579 -16.901,-12.594 -21.301,-34.582 -21.301,-54.492 0,-19.914 4.395,-41.919 21.303,-54.509 9.012,-6.715 20.119,-9.567 31.238,-9.567 z m 104.27,65.597 -15.69,-19.148 v 80.478 H 368.529 V 693.685 h 21.617 l 22.414,27.36 v -27.36 h 28.292 V 819.43 H 412.56 Z" id="path3942" />
         <path fill-rule="evenodd" clip-rule="evenodd" fill="#cdcccc" d="m 494.069,713.163 v -15.642 h -39.494 v 118.07 h 39.494 V 799.95 H 475.243 V 764.4 h 18.826 v -15.687 h -18.826 v -35.551 h 18.826 z M 182.636,679.947 v -14.538 c -11.696,-5.953 -25.828,-5.709 -37.148,1.118 -11.279,6.8 -17.104,18.449 -17.021,31.486 0.1,15.471 5.703,26.835 16.699,37.517 6.602,6.413 14.653,11.894 19.951,19.49 4.049,5.803 5.894,12.045 5.894,19.116 0,7.324 -1.76,14.913 -6.905,20.386 -3.725,3.964 -8.903,6.344 -14.364,6.344 -8.355,0 -15.46,-2.169 -22.455,-5.733 v 16.228 c 6.864,4.098 14.481,5.412 22.455,5.412 10.417,0 20.767,-3.479 28.503,-10.575 9.731,-8.928 13.354,-21.591 13.432,-34.473 0.079,-13.111 -4.041,-22.718 -13.351,-31.901 -3.819,-3.769 -8.059,-7.097 -12.15,-10.556 -4.114,-3.475 -8.12,-7.12 -11.3,-11.499 -3.678,-5.058 -6.476,-11.03 -7.164,-17.293 -0.576,-5.232 0.382,-10.592 3.51,-14.913 3.218,-4.451 8.069,-6.905 13.419,-7.719 5.953,-0.907 12.235,0.199 17.995,2.103 z m 69.79,33.216 h -21.97 V 815.592 H 209.789 V 713.163 h -22.014 v -15.642 h 64.65 v 15.642 z m 55.864,-16.821 c -10.287,0 -20.607,2.596 -28.949,8.805 -15.836,11.792 -19.757,32.846 -19.757,51.433 0,18.587 3.926,39.62 19.759,51.412 8.333,6.214 18.66,8.821 28.947,8.821 10.289,0 20.609,-2.596 28.947,-8.801 15.837,-11.796 19.757,-32.846 19.757,-51.433 0,-18.587 -3.92,-39.641 -19.757,-51.433 -8.338,-6.208 -18.659,-8.804 -28.947,-8.804 z m 0,104.785 c -6.834,0 -13.171,-3.174 -17.702,-8.216 -8.433,-9.387 -10.337,-24.174 -10.337,-36.332 0,-12.166 1.902,-26.974 10.337,-36.373 4.529,-5.045 10.866,-8.224 17.702,-8.224 6.846,0 13.186,3.17 17.721,8.224 8.423,9.399 10.319,24.211 10.319,36.373 0,12.158 -1.906,26.945 -10.337,36.332 -4.532,5.042 -10.871,8.216 -17.703,8.216 z m 108.105,14.465 h 20.622 v -118.07 h -20.622 v 34.261 l -28.064,-34.261 h -15.967 v 118.07 h 20.668 v -87.374 l 23.362,28.512 v 58.862 z" id="path3944" />
         <path fill-rule="evenodd" clip-rule="evenodd" fill="#ffffff" d="m 479.841,744.877 h 17.841 c -5.017,5.465 -11.013,10.025 -17.951,12.78 -9.764,3.866 -19.322,8.236 -28.994,12.329 v -11.91 c 5.381,-2.759 10.469,-5.411 16.443,-6.718 4.784,-1.049 8.957,-3.442 12.661,-6.481 z m -29.103,1.908 c 0.403,-0.452 0.804,-0.892 1.194,-1.318 2.858,-3.117 6.016,-6.242 9.41,-8.772 7.025,-5.241 9.495,-10.698 13.265,-18.091 2.488,-4.875 4.779,-9.908 7.058,-14.889 1.53,-3.341 3.044,-6.686 4.568,-10.03 h -13.379 c -1.064,3.414 -2.057,6.844 -3.223,10.226 -3.037,8.825 -7.188,17.472 -15.004,23.03 -1.268,0.903 -2.574,1.827 -3.888,2.775 v 17.069 z m -199.034,-53.1 c -3.648,0.781 -7.336,1.469 -10.97,2.152 -1.156,0.216 -2.419,0.342 -3.546,0.122 -13.293,5.721 -26.666,11.683 -39.549,18.217 -1.739,0.888 -3.479,1.819 -5.178,2.824 h -8.522 v -6.999 c 9.603,-6.425 20.695,-11.975 31.563,-16.316 z m -76.205,38.386 c -3.011,3.08 -6.032,5.57 -10.077,8.081 -3.967,2.462 -8.254,4.948 -12.648,7.288 -3.325,-2.942 -6.883,-5.855 -10.281,-9.159 -0.269,-0.261 -0.533,-0.521 -0.793,-0.781 1.64,-0.281 3.266,-0.606 4.901,-1.038 7.853,-2.075 14.437,-6.018 20.007,-11.882 0.678,0.595 1.361,1.181 2.045,1.758 2.275,1.925 4.586,3.801 6.846,5.733 z m 171.009,-23.522 c -3.498,1.867 -7.003,3.707 -10.453,5.664 -0.901,0.513 -1.801,1.033 -2.692,1.563 -3.251,1.925 -6.567,4.476 -9.851,7.405 -0.118,-0.139 -0.238,-0.276 -0.358,-0.411 -2.089,-2.331 -4.628,-4.195 -7.446,-5.403 1.672,-1.697 3.351,-3.386 5.033,-5.066 3.955,-3.955 9.304,-7.739 13.77,-11.173 0.466,-0.358 1.048,-0.798 1.703,-1.298 1.131,0.695 2.24,1.44 3.314,2.241 2.616,1.949 4.931,4.121 6.98,6.478 z m -61.184,63.18 c -1.036,1.705 -2.051,3.426 -3.046,5.151 -4.968,8.638 -9.326,17.496 -13.062,26.692 -2.651,-3.234 -4.822,-6.791 -6.586,-10.563 0.946,-2.124 1.874,-4.183 2.765,-6.14 -1.55,0.562 -2.982,1.037 -4.085,1.412 l -0.576,0.195 c -1.153,-3.113 -2.071,-6.336 -2.787,-9.611 6.563,-2.152 12.374,-5.33 15.247,-10.258 3.208,-5.51 6.962,-10.885 10.968,-16.073 -0.053,1.384 -0.077,2.734 -0.077,4.045 0,4.708 0.299,9.982 1.239,15.15 z m -51.032,24.714 c -5.597,1.611 -11.196,3.219 -16.762,4.932 -3.681,1.131 -7.872,2.368 -11.579,3.882 V 789.38 c 8.876,-3.231 19.405,-4.558 28.314,-5.848 l 0.026,-0.004 v 12.915 z M 124.805,693.737 c 9.495,-1.217 18.97,-2.604 28.418,-4.13 -1.607,3.097 -2.063,6.669 -1.728,10.152 -3.16,0.614 -6.319,1.229 -9.477,1.863 -5.656,1.136 -11.318,2.315 -16.931,3.658 -0.287,-2.323 -0.442,-4.736 -0.458,-7.243 -0.007,-1.451 0.052,-2.884 0.176,-4.3 z m 53.046,-11.194 c 2.425,-1.745 4.641,-3.824 6.689,-6.025 0.659,-0.708 1.302,-1.433 1.931,-2.165 v 11.116 l -2.136,-0.83 c -2.057,-0.806 -4.242,-1.53 -6.484,-2.096 z m 190.678,43.897 c 11.088,-2.08 24.491,-7.451 36.334,-14.791 l 6.378,7.792 c -13.66,9.167 -29.159,15.95 -42.712,19.169 z m 44.031,-20.015 c 5.247,-3.91 9.933,-8.207 13.633,-12.74 h 12.195 c -6.356,9.302 -15.521,17.766 -25.828,24.861 z m -53.064,32.422 c -0.958,-0.484 -1.752,-1.273 -2.238,-2.49 -0.694,-1.742 -0.252,-3.549 0.639,-5.147 0.655,2.51 1.182,5.064 1.599,7.637 z m 81.356,20.45 c -0.91,1.348 -1.754,2.682 -2.5,3.98 -0.187,0.325 -0.49,0.81 -0.836,1.367 0.185,-0.065 0.366,-0.131 0.549,-0.2 0.934,-0.342 1.863,-0.744 2.787,-1.18 v 10.755 c -3.807,1.488 -7.624,2.949 -11.412,4.479 -4.761,1.921 -11.729,4.729 -16.88,7.91 v -11.955 c 2.637,-0.81 5.811,-1.814 8,-3.536 3.021,-2.38 4.948,-7.026 6.344,-10.485 2.285,-5.656 4.692,-11.613 8.311,-16.565 1.618,-2.217 3.542,-4.288 5.638,-6.241 v 21.671 z m -43.982,45.032 c -0.627,0.911 -1.25,1.827 -1.87,2.738 -2.767,4.09 -5.453,8.22 -8.128,12.362 h -14.128 c 1.257,-1.974 2.454,-4.004 3.711,-5.978 2.181,-3.431 4.462,-6.812 6.936,-10.038 1.583,-2.067 3.255,-4.082 5.051,-5.962 0.991,-1.041 1.994,-2.124 2.987,-3.234 -0.924,0.419 -1.847,0.842 -2.773,1.266 -6.808,3.129 -13.489,6.421 -20.127,9.835 v -14.393 c 8.295,-4.761 18.549,-8.573 27.146,-11.389 l 1.194,-0.387 v 25.18 z" id="path3946" />
         <path fill-rule="evenodd" clip-rule="evenodd" fill="#1a1a1a" d="m 486.278,744.877 h 6.021 c -3.835,3.67 -8.486,7.035 -13.981,9.212 -12.537,4.969 -20.316,8.509 -27.58,11.67 v -3.369 c 4.535,-2.344 9.967,-4.765 17.613,-6.441 7.368,-1.612 13.199,-6.112 17.927,-11.072 z M 124.63,697.611 c 8.551,-1.087 17.58,-2.373 27.15,-3.895 -0.144,0.704 -0.248,1.42 -0.311,2.141 -8.846,1.713 -18.467,3.605 -26.729,5.566 -0.065,-1.111 -0.102,-2.238 -0.11,-3.386 z m 243.899,37.048 c 12.319,-3.072 27.085,-9.452 40.271,-18.2 l -1.485,-1.815 c -12.565,7.891 -26.868,13.599 -38.786,15.694 z m 44.031,-20.792 c 8.205,-5.88 15.607,-12.688 21.149,-20.183 h -2.694 c -4.647,6.344 -11.115,12.276 -18.455,17.468 z m -44.031,81.539 c 7.308,-4.469 18.073,-8.863 28.341,-12.224 v 4.378 c -9.731,4.37 -16.823,7.544 -28.341,13.437 z m 44.031,-16.943 c 10.172,-3.032 13.184,-4.908 17.902,-16.594 3.666,-9.082 5.983,-14.038 10.39,-18.832 v 9.79 c -2.633,3.496 -4.698,6.576 -5.825,8.537 -3.212,5.579 -6.846,9.811 1.99,7.442 1.322,-0.354 2.588,-0.813 3.835,-1.343 v 2.438 l -1.086,0.427 c -8.789,3.438 -19.59,7.451 -27.206,11.683 z m 38.178,-43.954 c 1.809,-1.354 3.829,-2.815 6.111,-4.439 12.689,-9.029 16.402,-24.927 20.026,-36.385 h 5.143 c -3.499,7.694 -7.918,17.468 -10.828,23.173 -3.029,5.937 -5.356,11.702 -12.144,16.765 -2.765,2.059 -5.593,4.684 -8.309,7.511 v -6.625 z M 396.87,797.66 v -3.891 c -1.658,1.979 -3.569,4.146 -5.654,6.332 -5.707,5.978 -10.977,14.465 -13.969,19.328 h 5.054 c 3.864,-6.005 9.448,-14.636 14.569,-21.769 z m -57.322,-95.577 c -6.096,4.744 -12.86,9.692 -16.095,12.927 -1.383,1.384 -2.806,2.813 -4.254,4.281 0.553,0.378 1.092,0.785 1.613,1.221 3.66,-3.3 7.227,-6.039 10.594,-8.036 4.102,-2.434 8.433,-4.725 12.359,-6.812 -1.312,-1.262 -2.714,-2.458 -4.217,-3.581 z m -55.435,56.945 c -2.844,3.895 -5.417,7.752 -7.605,11.508 -3.499,6.006 -9.881,9.615 -17.651,12.052 0.206,0.758 0.421,1.506 0.651,2.251 6.952,-2.323 12.181,-4.448 13.859,-6.124 -2.187,4.744 -5.237,11.324 -8.439,18.673 0.513,0.879 1.054,1.741 1.619,2.588 3.264,-7.805 7.266,-16.073 12.407,-25.009 1.729,-3.003 3.589,-6.087 5.552,-9.199 -0.224,-2.295 -0.341,-4.562 -0.393,-6.74 z m -49.821,28.374 c -10.179,1.477 -20.329,2.93 -28.341,6.087 v 7.683 c 6.635,-2.475 17.356,-5.555 28.341,-8.721 z m -89.158,-46.647 c 6.812,-1.465 15.938,-4.716 24.392,-13.68 1.015,0.85 2.035,1.692 3.05,2.539 -2.258,2.311 -4.995,4.683 -9.176,7.279 -4.921,3.056 -9.654,5.672 -13.775,7.809 -1.486,-1.286 -2.996,-2.593 -4.491,-3.947 z m 38.804,-26.029 c 11.548,-8.077 26.656,-15.683 42.574,-21.041 h 6.284 c -10.657,4.631 -25.244,11.161 -36.894,17.073 -4.433,2.25 -7.784,4.306 -10.456,6.242 h -1.509 v -2.274 z" id="path3948" />
         <path fill-rule="evenodd" clip-rule="evenodd" fill="#ffffff" d="m 210.883,834.668 h 17.389 v 5.143 h -5.969 v 30.864 h -5.451 v -30.864 h -5.969 z m 23.232,36.007 v -36.007 h 5.451 v 15.173 h 6.482 v -15.173 h 5.453 v 36.007 h -5.453 v -15.687 h -6.482 v 15.687 z m 24.978,-36.007 h 15.48 v 5.143 h -10.028 v 10.03 h 7.971 v 5.147 h -7.971 v 10.543 h 10.028 v 5.144 h -15.48 z m 39.539,36.52 c -1.715,0 -3.241,-0.375 -4.578,-1.127 -1.341,-0.758 -2.376,-1.803 -3.113,-3.142 -0.739,-1.335 -1.105,-2.86 -1.105,-4.578 v -1.285 l 5.245,-0.566 v 1.339 c 0,1.303 0.309,2.332 0.926,3.085 0.616,0.757 1.473,1.135 2.571,1.135 1.062,0 1.911,-0.31 2.545,-0.928 0.634,-0.618 0.952,-1.457 0.952,-2.522 0,-1.164 -0.333,-2.279 -1.001,-3.341 -0.671,-1.066 -1.998,-2.539 -3.988,-4.427 -2.673,-2.535 -4.502,-4.647 -5.479,-6.323 -0.977,-1.681 -1.467,-3.516 -1.467,-5.506 0,-2.71 0.739,-4.862 2.211,-6.457 1.477,-1.596 3.5,-2.389 6.073,-2.389 2.569,0 4.596,0.806 6.069,2.417 1.475,1.611 2.211,3.771 2.211,6.481 v 0.924 l -5.247,0.565 v -1.025 c 0,-1.375 -0.256,-2.421 -0.771,-3.141 -0.517,-0.717 -1.251,-1.079 -2.213,-1.079 -0.958,0 -1.697,0.289 -2.211,0.875 -0.513,0.582 -0.771,1.44 -0.771,2.572 0,1.131 0.344,2.217 1.029,3.263 0.686,1.05 2.006,2.548 3.961,4.505 2.673,2.673 4.5,4.825 5.477,6.453 0.977,1.628 1.469,3.422 1.469,5.375 0,1.718 -0.372,3.243 -1.108,4.578 -0.737,1.339 -1.772,2.384 -3.111,3.142 -1.337,0.752 -2.863,1.127 -4.576,1.127 z m 13.145,-36.52 h 17.389 v 5.143 h -5.969 v 30.864 h -5.45 v -30.864 h -5.969 v -5.143 z m 31.512,36.52 c -2.604,0 -4.716,-0.794 -6.327,-2.393 -1.611,-1.592 -2.417,-3.691 -2.417,-6.299 v -19.649 c 0,-2.608 0.806,-4.708 2.417,-6.303 1.611,-1.596 3.723,-2.389 6.327,-2.389 2.606,0 4.716,0.793 6.328,2.389 1.611,1.595 2.417,3.694 2.417,6.303 v 19.649 c 0,2.607 -0.806,4.707 -2.417,6.299 -1.612,1.599 -3.721,2.393 -6.328,2.393 z m 0,-5.14 c 1.027,0 1.833,-0.31 2.419,-0.928 0.582,-0.618 0.873,-1.489 0.873,-2.624 v -19.649 c 0,-1.132 -0.291,-2.006 -0.873,-2.625 -0.586,-0.618 -1.392,-0.924 -2.419,-0.924 -1.029,0 -1.835,0.306 -2.419,0.924 -0.582,0.619 -0.873,1.493 -0.873,2.625 v 19.649 c 0,1.135 0.291,2.006 0.873,2.624 0.584,0.618 1.39,0.928 2.419,0.928 z m 15.874,-31.38 h 6.018 l 6.943,24.178 v -24.178 h 5.351 v 36.007 h -5.762 l -7.202,-23.043 v 23.043 h -5.349 v -36.007 z m 25.905,0 h 15.482 v 5.143 h -10.03 v 10.03 h 7.971 v 5.147 h -7.971 v 10.543 h 10.03 v 5.144 h -15.482 z m 47.508,36.007 -1.542,-2.519 c -1.921,2.021 -4.183,3.031 -6.79,3.031 -2.368,0 -4.297,-0.77 -5.786,-2.312 -1.495,-1.546 -2.24,-3.792 -2.24,-6.738 0,-2.022 0.384,-3.78 1.16,-5.273 0.769,-1.493 1.979,-3.113 3.625,-4.862 l -0.773,-1.233 c -0.857,-1.44 -1.553,-2.836 -2.083,-4.19 -0.529,-1.355 -0.797,-2.792 -0.797,-4.297 0,-2.364 0.73,-4.313 2.185,-5.84 1.459,-1.525 3.388,-2.286 5.791,-2.286 2.297,0 4.148,0.699 5.554,2.104 1.406,1.408 2.11,3.296 2.11,5.66 0,1.306 -0.165,2.438 -0.49,3.394 -0.324,0.964 -0.865,1.965 -1.62,3.011 -0.755,1.046 -1.92,2.43 -3.498,4.143 l 3.447,5.347 c 0.309,-1.063 0.702,-2.775 1.182,-5.14 h 5.452 c -0.96,4.419 -2.039,7.902 -3.241,10.441 l 4.889,7.561 h -6.535 z m -7.201,-31.637 c -0.858,0 -1.534,0.293 -2.033,0.879 -0.496,0.582 -0.744,1.367 -0.744,2.364 0,1.749 0.702,3.751 2.105,6.018 1.168,-1.168 2.008,-2.193 2.523,-3.084 0.515,-0.896 0.771,-1.872 0.771,-2.934 0,-1.066 -0.222,-1.872 -0.669,-2.422 -0.445,-0.545 -1.096,-0.821 -1.953,-0.821 z m -0.104,27.01 c 0.651,0 1.235,-0.146 1.75,-0.439 0.515,-0.293 1.011,-0.798 1.491,-1.518 l -4.732,-7.561 c -0.755,0.924 -1.294,1.791 -1.621,2.597 -0.324,0.806 -0.488,1.721 -0.488,2.75 0,2.779 1.2,4.171 3.6,4.171 z m 28.578,-31.38 h 17.389 v 5.143 h -5.967 v 30.864 h -5.452 v -30.864 h -5.969 v -5.143 z m 23.234,0 h 5.451 v 36.007 h -5.451 z m 13.045,0 h 5.45 v 30.863 h 9.723 v 5.144 h -15.173 z m 21.017,0 h 15.482 v 5.143 h -10.03 v 10.03 h 7.972 v 5.147 h -7.972 v 10.543 h 10.03 v 5.144 h -15.482 z m 56.766,0 v 36.007 h -5.452 v -24.691 l -5.091,24.691 h -3.809 l -5.095,-24.691 v 24.691 h -5.347 v -36.007 h 7.715 l 4.732,22.994 4.529,-22.994 z m 18.343,28.035 h -5.867 l -1.18,7.972 h -5.453 l 5.966,-36.007 h 7.304 l 5.969,36.007 h -5.554 z m -0.72,-5.249 -2.214,-15.071 -2.213,15.071 z m 25.541,13.221 -3.959,-14.864 h -2.828 v 14.864 h -5.452 v -36.007 h 8.536 c 2.608,0 4.684,0.781 6.226,2.34 1.543,1.558 2.315,3.642 2.315,6.25 v 3.959 c 0,1.647 -0.329,3.104 -0.98,4.374 -0.651,1.27 -1.574,2.263 -2.779,2.982 l 4.582,16.102 z m -6.787,-20.008 h 2.828 c 1.062,0 1.888,-0.293 2.47,-0.875 0.582,-0.586 0.871,-1.407 0.871,-2.47 v -4.167 c 0,-1.065 -0.289,-1.888 -0.871,-2.47 -0.582,-0.582 -1.408,-0.875 -2.47,-0.875 h -2.828 z m 26.058,5.192 -2.059,3.963 v 10.853 h -5.452 v -36.007 h 5.452 v 14.607 l 7.202,-14.607 h 5.863 l -7.662,15.274 8.228,20.732 h -5.863 z m 17.26,-21.191 h 15.483 v 5.143 h -10.03 v 10.03 h 7.976 v 5.147 h -7.976 v 10.543 h 10.03 v 5.144 h -15.483 z m 19.939,0 h 17.391 v 5.143 h -5.969 v 30.864 h -5.452 v -30.864 h -5.97 z m 23.234,0 h 8.537 c 2.607,0 4.683,0.781 6.226,2.34 1.542,1.558 2.314,3.642 2.314,6.25 v 4.215 c 0,2.608 -0.772,4.691 -2.314,6.254 -1.543,1.559 -3.618,2.34 -6.226,2.34 h -3.085 v 14.608 h -5.452 z m 8.281,16.256 c 1.063,0 1.888,-0.293 2.47,-0.875 0.582,-0.586 0.875,-1.408 0.875,-2.47 v -4.424 c 0,-1.065 -0.293,-1.888 -0.875,-2.47 -0.582,-0.582 -1.407,-0.875 -2.47,-0.875 h -2.828 v 11.113 h 2.828 z m 14.998,-16.256 h 5.453 v 30.863 h 9.725 v 5.144 h -15.178 z m 32.284,28.035 h -5.868 l -1.18,7.972 h -5.452 l 5.965,-36.007 h 7.304 l 5.97,36.007 h -5.555 z m -0.721,-5.249 -2.213,-15.071 -2.214,15.071 z m 21.326,13.734 c -2.539,0 -4.594,-0.785 -6.173,-2.364 -1.579,-1.579 -2.368,-3.634 -2.368,-6.173 v -19.959 c 0,-2.539 0.789,-4.594 2.368,-6.172 1.579,-1.579 3.634,-2.364 6.173,-2.364 2.539,0 4.594,0.785 6.173,2.364 1.574,1.578 2.368,3.633 2.368,6.172 v 4.22 h -5.355 v -4.22 c 0,-1.029 -0.289,-1.851 -0.87,-2.47 -0.582,-0.618 -1.339,-0.924 -2.263,-0.924 -0.928,0 -1.681,0.306 -2.267,0.924 -0.582,0.619 -0.875,1.44 -0.875,2.47 v 19.959 c 0,1.029 0.293,1.852 0.875,2.47 0.586,0.618 1.339,0.928 2.267,0.928 0.924,0 1.681,-0.31 2.263,-0.928 0.581,-0.618 0.87,-1.44 0.87,-2.47 v -5.144 h 5.355 v 5.144 c 0,2.539 -0.794,4.594 -2.368,6.173 -1.579,1.578 -3.634,2.364 -6.173,2.364 z m 15.153,-36.52 h 15.483 v 5.143 h -10.03 v 10.03 h 7.971 v 5.147 h -7.971 v 10.543 h 10.03 v 5.144 H 782.1 Z" id="path3950" />
      </g>
      <g id="g4108">
         <g id="g3960">
            <circle fill-rule="evenodd" clip-rule="evenodd" fill="#1a1a1a" cx="508.715" cy="391.78601" r="233.812" id="circle3954" />
            <circle fill-rule="evenodd" clip-rule="evenodd" fill="#ffffff" cx="508.715" cy="391.78699" r="217.897" id="circle3956" />
            <circle fill-rule="evenodd" clip-rule="evenodd" fill="#cdcccc" cx="508.715" cy="391.785" r="210.72099" id="circle3958" />
         </g>
         <path fill-rule="evenodd" clip-rule="evenodd" fill="#1a1a1a" d="m 326.539,404.536 c -16.917,15.601 -27.914,39.258 -29.401,64.099 -0.604,10.034 0.615,19.566 4.734,27.887 8.903,17.979 27.798,25.291 47.451,30.544 -1.428,5.814 -2.867,11.629 -4.309,17.443 1.99,3.78 4.667,7.748 6.653,11.532 10.398,2.641 20.792,5.277 31.189,7.914 0.118,1.994 0.26,3.996 0.423,6.006 35.472,25.021 78.731,39.722 125.436,39.722 52.963,0 101.506,-18.9 139.267,-50.317 3.06,-21.741 3.906,-43.359 3.775,-61.11 -0.02,-3.02 -0.04,-6.045 -0.064,-9.072 2.624,1.508 5.241,3.018 7.861,4.529 13.948,8.012 32.336,6.509 44.804,-3.658 24.268,-19.794 27.767,-59.69 26.502,-88.8 -0.082,-1.729 -0.151,-3.461 -0.229,-5.19 -0.008,-0.132 -0.016,-0.256 -0.021,-0.387 0.069,-0.116 0.135,-0.222 0.2,-0.34 5.908,-9.922 10.144,-21.191 7.381,-32.835 -0.464,-1.949 -0.993,-3.874 -1.542,-5.757 -0.15,-0.446 -0.297,-0.887 -0.448,-1.331 -0.049,-0.148 -0.102,-0.301 -0.146,-0.456 0.054,-0.145 0.127,-0.297 0.184,-0.443 0.175,-0.441 0.358,-0.887 0.541,-1.334 0.126,-0.32 0.265,-0.633 0.398,-0.948 0.42,-0.993 0.867,-1.976 1.27,-2.973 2.075,-5.141 2.52,-10.378 1.363,-15.804 -0.858,-4.006 -2.535,-7.835 -3.775,-11.741 -1.107,-3.449 -1.722,-6.799 -1.392,-10.427 0.435,-4.82 -0.757,-9.345 -3.613,-13.259 -1.514,-2.063 -3.418,-3.57 -5.722,-4.671 -4.077,-1.959 -8.874,-2.468 -13.135,-4.1 -2.229,-0.854 -4.565,-1.471 -6.909,-1.931 -0.821,-0.163 -1.647,-0.326 -2.474,-0.488 -0.272,-0.055 -0.545,-0.108 -0.83,-0.161 -0.057,-0.273 -0.122,-0.545 -0.191,-0.822 -0.183,-0.82 -0.374,-1.64 -0.565,-2.461 -1.392,-6.006 -4.24,-11.723 -9.326,-15.414 -4.423,-3.208 -10.075,-4.399 -15.381,-2.966 -1.396,0.382 -2.738,0.942 -3.996,1.654 -4.663,2.684 -7.662,7.32 -8.772,12.533 -1.209,5.692 -0.086,11.664 2.385,16.87 0.561,1.172 1.11,2.35 1.672,3.524 -0.325,0.734 -0.663,1.465 -0.988,2.197 -2.816,6.211 -3.369,13.838 0.219,19.867 0.766,1.28 1.53,2.562 2.295,3.837 -4.598,6.083 -5.167,14.539 -3.719,22.064 -3.76,-5.635 -7.52,-10.437 -11.8,-14.866 -4.468,-4.62 -9.66,-8.667 -15.467,-12.192 1.864,-1.902 3.459,-4.139 4.729,-6.747 9.542,-19.627 8.41,-46.09 -0.806,-65.66 -1.29,-2.736 -2.584,-5.473 -3.874,-8.217 5.188,0.858 9.424,1.137 13.428,1.068 -6.128,-8.661 -9.411,-16.616 -12.817,-26.589 -1.627,-4.775 -3.161,-9.613 -5.163,-14.252 -5.136,-11.869 -14.278,-23.773 -25.135,-33.001 -17.672,-15.017 -30.778,-19.369 -44.413,-17.951 5.803,-7.448 15.49,-12.154 30.647,-11.035 -14.839,-21.999 -44.832,-20.809 -60.107,-10.382 -11.275,-14.266 -29.684,-16.669 -46.041,-8.86 8.657,1.947 13.566,7.216 17.232,13.851 -11.313,-6.415 -31.932,-4.655 -47.373,3.361 10.056,1.57 17.13,5.605 23.167,11.668 -7.09,-1.996 -23.631,-1.125 -39.671,9.281 -5.489,3.554 -10.221,8.065 -14.581,13.717 -5.489,7.103 -10.48,14.569 -15.281,22.146 -3.953,6.246 -7.784,12.557 -12.097,18.567 -4.586,6.393 -9.774,12.242 -15.731,17.383 -10.152,8.747 -20.42,15.782 -32.491,20.498 7.526,6.234 14.569,8.218 23.603,10.728 -5.853,13.249 -7.019,31.714 0.126,45.715 3.918,7.681 8.346,12.522 15.774,16.413 -40.444,19.794 -52.861,42.653 -64.913,82.33 z" id="path3962" />
         <path fill-rule="evenodd" clip-rule="evenodd" fill="#ffead5" d="m 723.657,393.527 c 5.814,-8.667 10.181,-19.189 7.755,-29.417 -2.612,-10.995 -3.613,-7.066 0.578,-17.454 5.412,-13.428 -5.681,-20.534 -4.289,-35.988 0.33,-3.687 -0.646,-6.271 -2.299,-8.527 -2.222,-3.035 -5.949,-3.544 -10.771,-4.82 v 0.002 c 0,0 7.771,8.107 7.275,16.878 -0.496,8.765 2.982,20.844 4.134,24.813 1.156,3.965 -4.297,10.587 -3.471,15.053 0.826,4.464 6.727,17.505 4.464,27.623 -0.968,4.332 -2.204,8.521 -3.376,11.837 z" id="path3964" />
         <path fill-rule="evenodd" clip-rule="evenodd" fill="#e8c6a3" d="m 388.246,407.289 c 10.458,2.669 20.921,5.345 31.382,8.02 3.432,-10.134 3.243,-29.468 -1.701,-46.014 8.069,12.708 10.697,30.379 9.715,48.065 l 74.045,18.919 4.045,-0.81 c 7.178,-1.44 14.185,-3.703 20.817,-6.813 18.347,-8.602 32.279,-22.917 40.739,-41.311 1.644,-3.566 3.039,-7.214 4.231,-10.933 -4.627,5.707 -10.124,9.218 -17.289,13.505 -0.069,-2.759 -0.517,-5.648 -1.099,-8.4 -6.597,10.006 -17.188,19.389 -28.927,19.263 -8.984,-0.096 -21.732,-6.395 -27.916,-13.135 0.02,1.121 0.104,3.009 0.547,5.04 -13.474,-5.131 -25.299,-14.702 -35.42,-28.023 -0.596,4.128 -1.353,7.642 -1.534,11.837 -16.919,-18.191 -25.175,-33.767 -30.32,-57.78 -6.897,0.619 -19.912,4.431 -28.178,7.701 -19.261,8.539 -34.556,19.682 -45.113,33.443 -14.423,18.815 -23.019,46.999 -26.038,67.525 -1.642,-2.265 -3.359,-9.062 -3.123,-12.205 -19.688,15.773 -34.971,73.145 -6.535,92.069 14.746,9.814 31,13.664 48.5,16.834 18.668,3.385 34.955,4.65 54.724,11.377 -1.902,-2.653 -3.701,-6.063 -4.441,-9.168 3.683,4.558 16.24,15.234 32.593,20.268 9.251,2.845 22.846,4.899 30.884,-1.18 1.945,-1.628 3.701,-3.679 4.525,-5.688 0.33,-0.817 0.584,-1.619 0.804,-2.404 -3.072,0.936 -8.787,1.204 -12.423,-0.054 13.615,-2.665 28.331,-12.784 24.196,-28.446 -2.051,1.831 -5.983,4.073 -12.929,3.919 8.087,-2.381 17.865,-12.315 15.563,-24.605 -0.698,-3.744 -2.67,-5.51 -5.909,-7.495 -3.487,2.885 -16.14,6.478 -20.76,1.512 -0.374,-0.409 1.292,-2.847 1.811,-5.965 1.589,-9.479 0.417,-24.758 -11.54,-27.283 -2.578,-0.545 -6.873,-0.47 -7.377,2.563 -0.968,5.786 -3.809,15.584 -6.168,20.129 -1.53,2.954 -1.469,2.909 -2.79,3.139 -6.59,1.137 -13.534,6.15 -16.073,12.543 -1.355,-1.25 -0.641,-4.169 -0.657,-6 -7.819,-6.515 -22.933,-17.126 -44.076,-22.152 -19.31,-4.588 -30.532,-2.413 -44.869,0.753 8.559,-5.744 23.716,-7.676 29.745,-7.961 4.775,-14.869 9.558,-29.729 14.339,-44.599 z m 237.864,-19.3 c 8.061,14.622 13.896,27.25 19.051,48.983 2.523,10.622 4.721,23.393 6.608,39.533 0.207,2.236 -0.041,2.775 1.062,3.875 11.455,11.399 34.656,14.441 47.124,4.277 22.2,-18.118 25.109,-56.492 23.941,-83.104 -3.353,2.313 -12.854,9.4 -16.223,9.851 7.198,-6.111 28.499,-27.268 23.738,-47.294 -2.612,-10.995 -3.613,-7.066 0.578,-17.454 5.412,-13.428 -5.681,-20.534 -4.289,-35.988 0.33,-3.687 -0.646,-6.271 -2.299,-8.527 -2.93,-4.008 -8.483,-3.611 -15.719,-6.376 -4.573,-1.756 -13.595,-3.233 -19.002,-2.271 -5.811,1.038 -11.027,2.291 -14.819,6.81 -3.78,4.508 -6.145,12.28 -2.864,17.788 6.575,-5.092 30.749,-7.333 36.226,3.713 -12.821,-2.932 -34.086,-0.905 -36.653,14.233 -0.785,4.643 1.469,11.145 4.496,12.156 6.083,-7.672 24.658,-11.977 34.945,-1.083 -39.486,-6.545 -39.486,38.396 -13.42,37.813 17.261,-0.391 9.953,-13.58 0.891,-13.531 5.62,-5.029 17.852,0.12 16.598,8.815 -1.737,12.099 -18.058,14.744 -28.027,11.412 -15.556,-5.214 -16.65,-23.413 -14.25,-32.101 -20.247,20.585 -18.001,72.335 -6.949,92.894 -24.125,-26.435 -12.329,-83.726 -4.858,-93.398 -8.537,-23.664 -30.587,-38.357 -53.874,-39.001 10.733,20.124 17.825,46.849 17.988,67.975 z" id="path3966" />
         <path fill-rule="evenodd" clip-rule="evenodd" fill="#d6a675" d="m 674.088,376.519 c -1.701,-5.41 -1.811,-11.473 -0.305,-16.974 -20.22,20.605 -17.978,72.319 -6.93,92.869 -24.125,-26.435 -12.329,-83.726 -4.858,-93.398 -8.537,-23.664 -30.587,-38.357 -53.874,-39.001 10.734,20.123 17.826,46.849 17.989,67.975 8.061,14.622 13.896,27.25 19.051,48.983 2.523,10.622 4.721,23.393 6.608,39.533 0.207,2.236 -0.041,2.775 1.062,3.875 11.455,11.399 34.656,14.441 47.124,4.277 5.428,-4.431 9.696,-10.071 13.041,-16.458 h -0.037 c -51.387,18.636 -39.225,-53.875 -23.624,-76.198 -0.439,-0.12 -0.867,-0.248 -1.282,-0.38 -7.931,-2.66 -12.097,-8.68 -13.965,-15.103 z m 14.323,-62.583 0.085,-0.08 c -2.86,-4.567 -3.043,-11.043 0.236,-19.993 -5.025,0.993 -9.505,2.436 -12.87,6.441 -3.78,4.508 -6.145,12.28 -2.864,17.788 2.836,-2.194 8.943,-3.862 15.413,-4.156 z m 3.105,26.936 c -6.12,0.93 -11.625,3.76 -14.449,7.322 -3.027,-1.011 -5.281,-7.513 -4.496,-12.156 1.408,-8.289 8.419,-12.646 16.581,-14.41 -1.782,8.543 -1.078,15.015 2.405,19.169 z m 17.463,37.451 c 0.562,3.227 -2.038,6.409 -10.388,6.602 -20.658,0.464 -24.939,-27.675 -6.16,-36.106 -5.9,13.161 -1.704,38.009 16.548,29.504 z" id="path3968" />
         <path fill-rule="evenodd" clip-rule="evenodd" fill="#ffead5" d="m 656.876,348.318 c -10.543,-17.324 -29.211,-27.765 -48.755,-28.304 0.973,1.823 1.917,3.703 2.824,5.631 19.051,1.732 31.921,8.151 45.931,22.673 z" id="path3970" />
         <path fill-rule="evenodd" clip-rule="evenodd" fill="#d6a675" d="m 388.246,407.289 c 10.458,2.669 20.921,5.345 31.382,8.02 3.432,-10.134 3.243,-29.468 -1.701,-46.014 8.069,12.708 10.697,30.379 9.715,48.065 l 74.045,18.919 4.045,-0.81 c 7.178,-1.44 14.185,-3.703 20.817,-6.813 l 0.858,-0.405 c -23.698,7.623 -50.017,-18.091 -48.468,-45.673 v 0 c -6.315,-4.853 -12.156,-10.854 -17.523,-17.918 -0.596,4.128 -1.353,7.642 -1.534,11.837 -16.919,-18.191 -25.175,-33.767 -30.32,-57.78 -6.897,0.619 -19.912,4.431 -28.178,7.701 -19.261,8.539 -34.556,19.682 -45.113,33.443 -14.423,18.815 -23.019,46.999 -26.038,67.525 -1.642,-2.265 -3.359,-9.062 -3.123,-12.205 -19.688,15.773 -34.971,73.145 -6.535,92.069 14.746,9.814 31,13.664 48.5,16.834 18.668,3.385 34.955,4.65 54.724,11.377 -1.902,-2.653 -3.701,-6.063 -4.441,-9.168 3.683,4.558 16.24,15.234 32.593,20.268 9.251,2.845 22.846,4.899 30.884,-1.18 1.945,-1.628 3.701,-3.679 4.525,-5.688 0.33,-0.817 0.584,-1.619 0.804,-2.404 -3.072,0.936 -8.787,1.204 -12.423,-0.054 11.21,-2.192 23.157,-9.436 24.731,-20.662 -24.841,22.347 -63.686,17.439 -83.628,-7.121 -16.874,2.646 -68.878,-11.021 -77.795,-26.475 -3.453,-5.981 -2.653,-13.456 5.115,-23.13 8.559,-5.744 23.716,-7.676 29.745,-7.961 4.773,-14.867 9.556,-29.727 14.337,-44.597 z" id="path3972" />
         <path fill-rule="evenodd" clip-rule="evenodd" fill="#ffead5" d="m 430.741,323.845 c -0.405,-1.664 -0.802,-3.371 -1.178,-5.129 -6.897,0.619 -19.912,4.431 -28.178,7.701 -19.261,8.539 -34.556,19.682 -45.113,33.443 -9.021,11.775 -15.768,27.22 -20.29,42.163 v 0.008 c 10.905,-27.228 27.498,-45.118 43.341,-56.858 18.723,-13.877 39.599,-18.854 51.418,-21.328 z" id="path3974" />
         <path fill-rule="evenodd" clip-rule="evenodd" fill="#ffead5" d="m 328.083,422.065 c -0.671,-2.504 -1.099,-5.212 -0.973,-6.885 -19.578,15.684 -34.794,72.506 -6.993,91.752 -7.422,-10.726 -10.282,-23.122 -9.987,-35.63 0.43,-18.53 7.069,-34.482 17.953,-49.237 z" id="path3976" />
         <path fill-rule="evenodd" clip-rule="evenodd" fill="#f78e2d" d="m 507.21,442.838 c 1.424,3.33 2.844,6.661 4.264,9.989 -2.145,6.254 -6.938,16.352 -8.357,22.025 1.025,1.577 4.329,3.911 6.344,9.782 1.599,4.704 1.062,12.211 -1.587,16.654 -0.712,1.2 -0.924,1.253 -0.379,2.71 2.283,6.148 1.526,14.233 -1.367,19.629 -2.242,4.154 -5.69,8.321 -9.56,10.498 -1.951,1.106 -0.968,2.922 -3.218,8.415 -2.043,4.992 -7.034,9.61 -11.633,11.942 -1.774,0.903 -4.464,1.273 -5.878,2.034 -3.426,9.428 -6.852,18.852 -10.278,28.284 -24.634,-6.352 -49.266,-12.699 -73.908,-19.056 -0.134,2.804 -0.01,6.218 0.334,10.051 33.742,21.452 73.781,33.887 116.729,33.887 49.166,0 94.531,-16.284 130.99,-43.758 7.735,-46.48 6.881,-103.671 -5.078,-141.729 -0.146,-1.182 -4.903,-14.404 -5.985,-16.888 -2.295,-5.251 -5.938,-12.104 -7.703,-14.968 -1.745,-2.818 -1.811,-2.999 -1.75,-4.669 0.354,-11.778 -1.924,-25.15 -6.001,-38.121 -2.601,-8.284 -7.085,-18.589 -10.942,-26.027 -0.329,14.571 -2.893,23.543 -13.184,39.591 -0.72,-3.18 -1.281,-6.421 -3.638,-9.934 -0.699,1.709 -1.42,3.363 -2.168,4.956 -6.618,49.101 -38.539,77.177 -76.047,84.703 z" id="path3978" />
         <path fill-rule="evenodd" clip-rule="evenodd" fill="#fbaf67" d="m 639.705,565.926 c 4.887,-29.383 6.344,-63.037 3.735,-93.439 -2.182,43.113 -4.077,72.346 -9.685,97.761 2.011,-1.409 3.993,-2.85 5.95,-4.322 z" id="path3980" />
         <path fill-rule="evenodd" clip-rule="evenodd" fill="#dd7726" d="m 508.825,512.642 c -0.094,3.968 -1.05,7.91 -2.698,10.986 -2.242,4.154 -5.69,8.321 -9.56,10.498 -1.951,1.106 -0.968,2.922 -3.218,8.419 -2.043,4.988 -7.034,9.606 -11.633,11.938 -1.774,0.903 -4.464,1.273 -5.878,2.034 l -10.278,28.284 -73.908,-19.056 c -0.134,2.804 -0.01,6.218 0.334,10.051 24.636,15.662 52.626,26.514 82.656,31.233 0.413,-15.702 3.192,-32.523 7.434,-38.603 10.242,-3.41 16.882,-11.516 18.854,-23.824 13.636,-8.934 11.634,-23.464 7.895,-31.96 z" id="path3982" />
         <path fill-rule="evenodd" clip-rule="evenodd" fill="#e8c6a3" d="m 672.403,293.082 c 6.271,-4.736 11.178,-5.615 22.352,-6.504 -2.377,-13.232 -10.73,-16.375 -16.439,-14.83 -6.946,1.876 -10.816,11.006 -5.913,21.334 z" id="path3984" />
         <path fill-rule="evenodd" clip-rule="evenodd" fill="#ffffff" d="m 382.48,451.865 c 4.93,0.272 8.413,0.832 12.984,1.99 1.579,0.401 2.484,1.013 3.731,0.028 0.896,-0.708 1.76,-1.65 2.594,-2.382 2.254,-2.132 4.508,-4.271 6.756,-6.404 0.578,-0.633 0.181,-0.063 0.576,-0.816 -4.757,0.494 -8.661,-0.128 -13.029,0.13 -3.837,0.234 -7.696,0.641 -11.581,1.27 -0.678,2.058 -1.356,4.123 -2.031,6.184 z m -7.558,96.742 c 0.468,-0.224 0.979,-0.524 1.585,-0.891 1.619,-0.985 3.082,-1.949 4.787,-2.804 1.497,-0.749 3.965,-1.347 5.159,-2.132 l 8.171,-6.689 c -1.604,-0.871 -15.975,-2.813 -18.99,-3.187 -3.318,-0.415 -6.72,-0.582 -10.053,-1.091 -2.203,-0.329 -7.371,-1.563 -9.353,-1.505 -0.726,2.652 -3.204,10.29 -3.202,12.65 z m 87.099,8.367 c -8.026,-1.164 -10.655,-3.084 -14.032,-3.809 -1.733,-0.37 -3.066,-0.325 -4.983,-0.862 -3.052,-0.854 -6.032,-1.904 -8.726,-2.918 -1.882,-0.712 -6.979,-3.243 -8.35,-3.381 -1.523,0.842 -4.688,4.683 -5.615,6.388 -1.841,3.386 -1.434,4.777 -4.077,6.881 l 41.632,10.746 z m -50.122,1.179 -30.271,-7.816 c 1.074,-1.18 2.822,-2.022 4.132,-3.003 l 8.5,-6.697 c 0.909,-0.708 3.371,-2.869 4.25,-3.357 2.382,-1.326 20.089,5.685 23.208,6.571 -0.621,1.372 -1.784,1.526 -3.564,4.631 -0.989,1.722 -1.584,3.638 -2.445,5.408 -0.991,2.046 -2.053,2.901 -3.711,4.19 z m 72.113,-116.52 c 1.172,2.972 -0.741,5.566 -1.9,7.825 -0.895,1.737 0.867,3.231 2.177,7.845 1.506,5.286 0.72,9.981 1.703,13.391 0.995,3.41 4.293,5.257 5.674,1.43 1.77,-4.921 8.589,-23.7 8.732,-25.981 z m -47.567,33.451 c -3.347,-3.674 -19.667,-13.121 -24.65,-15.375 -2.838,-1.282 -6.795,-2.631 -9.403,-4.01 2.348,-2.527 4.775,-5.072 7.257,-7.731 9.796,-10.465 10.655,-3.723 21.458,-16.805 0.415,-0.499 1.902,-2.063 3.04,-3.247 l 42.678,11.739 c 0.11,0.161 0.208,0.333 0.303,0.553 0.903,2.016 1.408,4.021 1.298,6.513 -3.265,-6.574 -23.716,-11.554 -25.702,-1.449 -0.299,1.512 -0.337,3.599 -0.948,6.452 -1.327,6.207 -3.766,13.578 -4.781,15.477 -1.838,1.355 -5.425,2.28 -10.55,7.883 z m -31.303,-33.648 c 2.104,0.181 4.326,0.057 7.978,-1.384 0.98,-0.391 2.307,-1.886 3.548,-3.584 3.2,-4.35 4.472,-7.027 7.902,-11.184 l -30.587,-8.409 c -2.81,8.518 -5.619,17.037 -8.423,25.553 7.937,-0.718 11.324,-1.704 19.582,-0.992 z" id="path3986" />
         <path fill-rule="evenodd" clip-rule="evenodd" fill="#cdcccc" d="m 385.861,449.603 c 3.457,0.344 6.698,0.93 10.217,1.817 0.368,0.093 1.162,0.386 1.597,0.466 0.846,-0.676 1.599,-1.518 2.419,-2.246 0.956,-0.899 1.915,-1.807 2.862,-2.708 -2.231,-0.053 -4.456,-0.145 -6.714,-0.008 -3.292,0.195 -6.569,0.529 -9.822,1.007 -0.184,0.561 -0.37,1.112 -0.559,1.672 z m -27.777,83.368 c -0.407,1.371 -0.83,2.746 -1.216,4.126 -0.263,0.915 -0.755,2.567 -1.056,3.983 l 18.787,4.851 c 0.208,-0.127 0.403,-0.24 0.603,-0.366 1.644,-0.997 3.243,-2.039 4.968,-2.897 1.355,-0.68 3.65,-1.217 4.805,-1.929 l 4.075,-3.337 c -1.477,-0.256 -2.962,-0.488 -4.447,-0.712 -3.081,-0.464 -6.185,-0.911 -9.271,-1.29 -3.373,-0.423 -6.765,-0.59 -10.125,-1.099 -1.536,-0.231 -3.081,-0.577 -4.612,-0.87 -0.686,-0.135 -1.622,-0.323 -2.511,-0.46 z m 68.376,15.771 c -1.329,1.221 -3.406,3.878 -3.933,4.85 -0.905,1.677 -1.29,2.991 -1.89,4.225 l 35.557,9.167 2.555,-8.012 c -1.955,-0.391 -3.878,-0.879 -5.798,-1.518 -1.605,-0.537 -3.235,-1.233 -4.86,-1.681 -0.206,-0.053 -0.417,-0.105 -0.631,-0.15 -1.731,-0.371 -3.361,-0.411 -5.125,-0.903 -3.029,-0.843 -6.001,-1.88 -8.945,-2.987 -1.353,-0.513 -2.727,-1.168 -4.053,-1.762 -0.676,-0.301 -1.915,-0.887 -2.877,-1.229 z m -9.027,-3.695 c -0.545,0.688 -1.015,1.412 -1.458,2.182 -1.04,1.807 -1.625,3.719 -2.527,5.57 -0.6,1.229 -1.235,1.888 -2.12,2.612 l -23.919,-6.177 8.411,-6.616 c 1.06,-0.838 2.539,-2.271 3.676,-2.999 1.927,-0.049 8.476,2.137 10.195,2.714 2.293,0.766 4.565,1.579 6.848,2.396 0.29,0.103 0.591,0.212 0.894,0.318 z m 69.336,-100.051 c -0.371,1.886 -1.394,3.611 -2.376,5.52 0.082,0.396 0.506,1.302 0.643,1.603 0.659,1.487 1.229,2.923 1.67,4.5 0.751,2.637 0.997,5.229 1.144,7.959 0.08,1.672 0.092,3.804 0.556,5.41 0.11,0.362 0.429,1.103 0.801,1.516 0.041,-0.087 0.069,-0.171 0.087,-0.23 1.485,-4.126 2.975,-8.254 4.429,-12.394 0.971,-2.775 1.939,-5.571 2.851,-8.374 0.213,-0.661 0.555,-1.638 0.842,-2.578 z M 445.033,465.5 c 0.511,-1.106 0.96,-2.513 1.323,-3.585 0.769,-2.307 1.465,-4.661 2.083,-7.023 0.317,-1.221 0.613,-2.454 0.875,-3.692 0.466,-2.159 0.531,-4.297 0.944,-6.411 0.873,-4.441 4.275,-6.736 8.537,-7.485 l -23.883,-6.571 c -0.651,0.671 -1.31,1.355 -1.866,2.026 -3.875,4.702 -6.976,7.849 -12.541,10.315 -3.961,1.756 -6.004,3.39 -9.021,6.614 -1.624,1.735 -3.257,3.462 -4.887,5.194 2.071,0.863 4.219,1.625 6.231,2.541 4.271,1.929 8.815,4.639 12.83,7.058 2.535,1.53 5.058,3.119 7.5,4.791 0.991,0.682 2.126,1.475 3.184,2.315 1.616,-1.561 3.351,-2.966 5.284,-4.165 1.022,-0.646 2.375,-1.256 3.407,-1.922 z m -24.72,-38.78 c -1.938,2.722 -3.662,5.532 -5.67,8.264 -0.452,0.619 -1.817,2.399 -2.484,2.745 -2.295,0.91 -4.299,1.418 -6.799,1.2 -3.575,-0.305 -6.958,-0.335 -10.526,-0.02 -1.896,0.167 -3.78,0.396 -5.668,0.614 2.15,-6.531 4.301,-13.07 6.458,-19.592 z" id="path3988" />
         <g id="g4008">
            <path fill-rule="evenodd" clip-rule="evenodd" fill="#1a1a1a" d="m 602.278,505.24 c -3.089,2.315 -6.897,3.487 -10.771,3.487 -3.528,0 -6.841,-0.717 -9.835,-2.646 l -2.161,-1.399 v -17.259 l 6.507,3.972 c 1.745,1.058 3.405,1.853 5.489,1.853 0.102,0 0.228,-0.098 0.28,-0.163 0.468,-0.488 0.565,-1.646 0.565,-2.283 0,-0.97 -0.203,-1.729 -0.757,-2.523 -1.172,-1.672 -3.674,-3.467 -5.2,-4.939 -4.269,-4.146 -6.498,-8.86 -6.539,-14.866 -0.032,-5.727 2.666,-10.915 7.609,-13.902 5.095,-3.068 11.467,-3.119 16.658,-0.25 l 2.446,1.355 v 7.025 h 22.155 v 15.401 h -9.587 v 40.649 H 602.276 V 505.24 Z" id="path3990" />
            <polygon fill-rule="evenodd" clip-rule="evenodd" fill="#f78e2d" points="624.45,466.979 624.45,473.825 614.867,473.825 614.867,514.477 606.555,514.477 606.555,473.825 596.968,473.825 596.968,466.979 " id="polygon3992" />
            <path fill-rule="evenodd" clip-rule="evenodd" fill="#ffffff" d="m 584.15,467.16 c 2.791,-0.352 5.57,-0.761 8.346,-1.21 -0.476,0.912 -0.603,1.961 -0.505,2.982 -0.932,0.181 -1.855,0.356 -2.783,0.545 -1.66,0.332 -3.324,0.682 -4.972,1.074 -0.086,-0.684 -0.135,-1.392 -0.135,-2.128 -0.003,-0.423 0.017,-0.841 0.049,-1.263 z" id="path3994" />
            <path fill-rule="evenodd" clip-rule="evenodd" fill="#ffffff" d="m 599.043,478.423 c -0.891,0.899 -1.773,1.636 -2.966,2.368 -1.16,0.722 -2.421,1.455 -3.707,2.145 -0.98,-0.867 -2.026,-1.719 -3.023,-2.692 -0.077,-0.077 -0.154,-0.152 -0.231,-0.234 0.476,-0.08 0.956,-0.177 1.436,-0.299 2.312,-0.608 4.244,-1.77 5.88,-3.491 0.199,0.173 0.395,0.348 0.599,0.517 0.665,0.565 1.345,1.117 2.012,1.686 z" id="path3996" />
            <g id="g4006">
               <path fill-rule="evenodd" clip-rule="evenodd" fill="#ffffff" d="m 601.668,464.521 c -1.726,-0.678 -3.752,-1.166 -5.615,-0.883 -1.27,0.191 -2.434,0.755 -3.198,1.811 -0.749,1.04 -0.961,2.342 -0.822,3.599 0.184,1.642 0.932,3.216 1.893,4.539 0.879,1.202 2.006,2.219 3.137,3.178 1.229,1.042 2.486,2.026 3.63,3.158 2.945,2.901 4.284,6.012 4.256,10.179 -0.024,4.104 -1.213,8.107 -4.305,10.947 -2.482,2.279 -5.795,3.402 -9.135,3.402 -2.682,0 -5.225,-0.488 -7.508,-1.962 l -0.216,-0.138 v -7.311 c 2.445,1.491 4.789,2.49 7.724,2.49 1.294,0 2.515,-0.576 3.401,-1.52 1.302,-1.379 1.721,-3.357 1.721,-5.208 0,-5.286 -3.894,-7.271 -7.255,-10.531 -3.43,-3.343 -5.212,-6.956 -5.24,-11.82 -0.029,-4.229 1.892,-8.016 5.541,-10.215 3.785,-2.285 8.533,-2.299 12.383,-0.167 l 0.235,0.132 v 6.565 z" id="path3998" />
               <path fill-rule="evenodd" clip-rule="evenodd" fill="#cdcccc" d="m 601.167,463.136 v -4.262 c -3.43,-1.75 -7.584,-1.678 -10.913,0.326 -3.308,2 -5.017,5.416 -4.992,9.249 0.032,4.545 1.676,7.879 4.898,11.019 1.945,1.88 4.31,3.494 5.864,5.719 1.188,1.707 1.729,3.54 1.729,5.617 0,2.146 -0.517,4.38 -2.03,5.985 -1.095,1.164 -2.608,1.864 -4.215,1.864 -2.45,0 -4.541,-0.635 -6.601,-1.685 v 4.769 c 2.022,1.201 4.261,1.592 6.601,1.592 3.056,0 6.099,-1.025 8.365,-3.115 2.865,-2.623 3.931,-6.337 3.947,-10.12 0.028,-3.849 -1.185,-6.669 -3.914,-9.371 -1.128,-1.103 -2.373,-2.079 -3.569,-3.094 -1.212,-1.023 -2.388,-2.094 -3.324,-3.381 -1.074,-1.481 -1.892,-3.241 -2.1,-5.078 -0.171,-1.532 0.11,-3.107 1.029,-4.376 0.948,-1.312 2.364,-2.03 3.939,-2.272 1.75,-0.265 3.594,0.057 5.286,0.614 z" id="path4000" />
               <path fill-rule="evenodd" clip-rule="evenodd" fill="#ffffff" d="m 599.076,478.448 c -0.888,0.905 -1.774,1.64 -2.963,2.374 -1.163,0.723 -2.425,1.447 -3.711,2.145 -0.98,-0.873 -2.026,-1.723 -3.027,-2.694 -0.073,-0.079 -0.154,-0.152 -0.228,-0.229 0.484,-0.083 0.956,-0.175 1.44,-0.303 2.307,-0.612 4.235,-1.766 5.876,-3.491 0.195,0.173 0.398,0.344 0.598,0.517 0.676,0.566 1.343,1.113 2.015,1.681 z m -14.888,-11.257 c 2.783,-0.356 5.566,-0.767 8.341,-1.215 -0.468,0.912 -0.602,1.959 -0.508,2.983 -0.924,0.181 -1.852,0.36 -2.775,0.545 -1.664,0.332 -3.333,0.684 -4.98,1.076 -0.081,-0.682 -0.126,-1.392 -0.13,-2.128 -0.006,-0.425 0.01,-0.844 0.052,-1.261 z" id="path4002" />
               <path fill-rule="evenodd" clip-rule="evenodd" fill="#1a1a1a" d="m 584.135,468.326 c 2.506,-0.319 5.163,-0.69 7.975,-1.142 -0.045,0.209 -0.077,0.417 -0.098,0.629 -2.592,0.5 -5.42,1.058 -7.849,1.636 -0.021,-0.324 -0.024,-0.659 -0.028,-0.997 z m 6.021,12.669 c 2.002,-0.427 4.68,-1.382 7.162,-4.012 0.301,0.246 0.598,0.494 0.895,0.741 -0.659,0.684 -1.469,1.379 -2.693,2.144 -1.448,0.893 -2.832,1.66 -4.045,2.291 -0.44,-0.377 -0.879,-0.759 -1.319,-1.164 z" id="path4004" />
            </g>
         </g>
         <path fill-rule="evenodd" clip-rule="evenodd" fill="#fbaf67" d="m 398.046,567.398 c -2.13,-0.549 -4.262,-1.103 -6.395,-1.652 -0.134,2.804 -0.01,6.218 0.334,10.051 2.561,1.623 5.155,3.198 7.786,4.725 -0.657,-4.367 -1.229,-8.75 -1.725,-13.124 z" id="path4010" />
         <path fill-rule="evenodd" clip-rule="evenodd" fill="#9a6f39" d="m 533.316,137.779 c 10.368,-9.175 31.629,-15.606 46.973,-4.98 -9.566,1.473 -25.207,9.308 -27.885,25.151 11.434,-2.767 21.928,-1.652 31.506,2.102 17.944,7.031 35.727,25.122 43.393,42.881 3.487,8.064 7.442,22.469 11.458,29.653 -5.961,-0.073 -13.257,-1.111 -20.683,-1.89 26.188,15.072 32.572,64.256 13.501,88.101 -4.049,-1.667 -8.301,-2.985 -12.936,-3.927 -5.428,-1.103 -10.686,-1.687 -17.411,-1.746 -0.272,-4.555 -0.338,-6.632 -1.123,-10.303 1.766,0.608 6.511,3.436 9.627,8.844 4.501,-14.7 -0.72,-28.27 -4.573,-35.659 -1.025,-1.963 -1.615,-2.946 -2.238,-3.949 11.471,-6.533 13.383,-24.577 7.979,-36.884 -3.78,-8.62 -11.275,-16.453 -21.135,-17.458 -3.475,-0.35 -6.686,0.35 -9.452,1.731 1.465,-15.601 -7.238,-26.876 -19.56,-31.468 -15.446,-5.754 -36.271,0.38 -41.479,18.485 -2.1,-3.646 -3.861,-6.887 -8.537,-10.519 -11.126,-8.661 -28.692,-9.09 -39.835,-0.283 -6.618,5.233 -10.423,11.811 -10.6,18.61 -3.119,-1.813 -8.161,-3.796 -16.695,-2.171 -9.495,1.805 -17.25,9.572 -20.945,19.606 -6.122,16.645 -0.954,30.77 6.337,38.497 -7.161,16.889 -7.882,26.705 -5.532,39.478 1.432,-2.517 2.936,-4.405 3.927,-5.229 -0.017,1.792 0.403,4.932 0.883,7.877 h -0.018 c -7.27,0.657 -18.443,3.471 -27.234,6.806 h -0.002 c -9.424,-4.295 -22.833,-15.391 -23.177,-35.578 -0.256,-14.296 7.525,-25.628 7.613,-30.505 -5.428,0.726 -13.8,-0.669 -18.846,-3.796 39.463,-21.022 42.344,-42.814 66.547,-74.172 5.784,-7.485 12.775,-13.674 24.438,-17.635 16.941,-5.75 33.979,-2.328 38.326,1.249 -0.596,-10.952 -13.586,-20.534 -16.445,-21.891 11.877,-1.343 27.624,-0.041 38.781,9.918 0.64,-9.06 -6.042,-20.333 -12.906,-26.092 14.49,0.447 22.306,8.921 27.958,17.146 z" id="path4012" />
         <path fill-rule="evenodd" clip-rule="evenodd" fill="#7b5221" d="m 618.685,314.879 -0.041,-0.01 c -5.428,-1.103 -10.686,-1.687 -17.411,-1.746 -0.272,-4.555 -0.338,-6.632 -1.123,-10.303 1.766,0.608 6.511,3.436 9.627,8.844 3.972,-12.982 0.366,-25.076 -3.186,-32.821 5.606,5.438 9.269,12.185 11.022,20.28 0.981,4.532 1.315,10.281 1.112,15.756 z" id="path4014" />
         <path fill-rule="evenodd" clip-rule="evenodd" fill="#7b5221" d="m 547.997,185.908 c -12.455,0.317 -24.861,7.157 -28.719,20.557 -2.1,-3.646 -3.861,-6.887 -8.537,-10.519 -11.126,-8.661 -28.692,-9.09 -39.835,-0.283 -6.618,5.233 -10.423,11.811 -10.6,18.61 -3.119,-1.813 -8.161,-3.796 -16.695,-2.171 -9.495,1.805 -17.25,9.572 -20.945,19.606 -6.122,16.645 -0.954,30.77 6.337,38.497 -7.161,16.889 -7.882,26.705 -5.532,39.478 1.432,-2.517 2.936,-4.405 3.927,-5.229 -0.017,1.792 0.403,4.932 0.883,7.877 h -0.018 c -7.27,0.657 -18.443,3.471 -27.234,6.806 h -0.002 c -9.424,-4.295 -22.833,-15.391 -23.177,-35.578 -0.256,-14.296 7.525,-25.628 7.613,-30.505 -5.428,0.726 -13.8,-0.669 -18.846,-3.796 39.463,-21.022 42.344,-42.814 66.547,-74.172 5.784,-7.485 12.775,-13.674 24.438,-17.635 16.941,-5.75 33.979,-2.328 38.326,1.249 -0.596,-10.952 -13.586,-20.534 -16.445,-21.891 11.877,-1.343 27.624,-0.041 38.781,9.918 0.64,-9.058 -6.038,-20.32 -12.902,-26.086 12.382,7.591 22.106,22.663 20.549,40.326 -5.136,-5.182 -10.332,-6.016 -15.104,-6.165 4.35,10.441 7.186,23.545 5.062,34.979 6.282,-4.512 21.801,-9.208 32.128,-3.873 z" id="path4016" />
         <path fill-rule="evenodd" clip-rule="evenodd" fill="#c8995e" d="m 406.546,317.207 c -1.894,0.614 -3.751,1.261 -5.518,1.931 h -0.002 c -9.424,-4.295 -22.833,-15.391 -23.177,-35.578 -0.171,-9.523 3.23,-17.733 5.538,-23.598 -3.237,15.114 -0.445,28.587 5.672,39.296 3.927,6.875 9.697,12.82 17.487,17.949 z" id="path4018" />
         <path fill-rule="evenodd" clip-rule="evenodd" fill="#c8995e" d="m 569.958,128.223 c 3.601,0.853 7.097,2.332 10.331,4.576 -8.496,1.304 -21.773,7.627 -26.518,20.115 v 0.002 c 0,0 2.141,-16.365 16.187,-24.693 z" id="path4020" />
         <path fill-rule="evenodd" clip-rule="evenodd" fill="#c8995e" d="m 495.263,154.985 c -2.787,-9.333 -13.25,-16.978 -15.779,-18.176 1.998,-0.222 4.1,-0.375 6.268,-0.423 2.35,1.984 4.787,4.655 6.091,7.001 2.46,4.437 3.42,11.601 3.42,11.601 z" id="path4022" />
         <path fill-rule="evenodd" clip-rule="evenodd" fill="#c8995e" d="m 374.23,252.241 c -2.814,-0.671 -5.501,-1.672 -7.613,-2.982 34.918,-18.604 41.195,-37.803 58.95,-63.705 -11.676,26.241 -24.992,52.472 -51.337,66.687 z" id="path4024" />
         <path fill-rule="evenodd" clip-rule="evenodd" fill="#e8c6a3" d="m 464.552,223.009 c -3.22,-14.917 8.525,-27.957 22.063,-29.38 7.912,-0.826 15.591,1.556 21.148,6.219 4.704,3.949 8.057,10.443 8.667,16.53 -7.336,-4.388 -15.637,-7.774 -26.196,-6.433 -10.659,1.364 -19.332,5.386 -25.682,13.064 z" id="path4026" />
         <path fill-rule="evenodd" clip-rule="evenodd" fill="#d6a675" d="m 464.552,223.009 c -3.22,-14.917 8.525,-27.957 22.063,-29.38 0.335,-0.035 0.667,-0.065 1.003,-0.085 -7.235,5.629 -11.2,13.149 -12.14,20.717 -4.169,2.124 -7.828,4.998 -10.926,8.748 z" id="path4028" />
         <path fill-rule="evenodd" clip-rule="evenodd" fill="#ffead5" d="m 464.552,223.009 c -2.055,-9.514 1.98,-18.264 8.682,-23.727 -5.796,7.171 -7.243,13.285 -6.61,21.432 -0.715,0.724 -1.413,1.49 -2.072,2.295 z" id="path4030" />
         <path fill-rule="evenodd" clip-rule="evenodd" fill="#e8c6a3" d="m 522.151,216.81 c 0.269,-15.849 10.864,-27.375 28.063,-26.742 14.242,0.521 27.218,11.991 26.481,27.93 -4.11,-3.479 -11.048,-9.159 -25.647,-10.059 -14.892,-0.921 -25.06,5.935 -28.897,8.871 z" id="path4032" />
         <path fill-rule="evenodd" clip-rule="evenodd" fill="#d6a675" d="m 522.151,216.81 c 0.248,-14.911 9.651,-25.999 25.098,-26.728 -6.45,5.141 -10.263,12.228 -11.756,19.755 -6.481,2.059 -11.052,5.215 -13.342,6.973 z" id="path4034" />
         <path fill-rule="evenodd" clip-rule="evenodd" fill="#ffead5" d="m 522.151,216.81 c 0.15,-8.993 3.629,-16.585 9.745,-21.362 -4.606,6.231 -6.824,12.958 -7.097,19.488 -1.077,0.704 -1.964,1.349 -2.648,1.874 z" id="path4036" />
         <path fill-rule="evenodd" clip-rule="evenodd" fill="#e8c6a3" d="m 434.427,229.886 c 5.383,-6.291 18.625,-9.794 23.519,3.131 -15.822,-5.967 -27.362,8.435 -21.283,25.712 l -5.205,7.322 c -5.989,-4.596 -7.462,-20.185 -5.831,-27.81 1.345,-6.27 4.315,-12.17 9.056,-16.433 5.912,-5.304 16.433,-8.343 25.13,-2.112 0.617,6.938 4.688,16.16 7.915,19.32 -12.189,2.456 -23.7,11.468 -27.523,15.975 -2.452,-7.123 -0.303,-13.593 4.332,-17.06 3.554,-2.653 8.573,-3.544 14.111,-1.622 1.589,0.562 3.149,1.625 4.254,0.484 0.854,-1.284 -1.548,-7.07 -5.505,-11.017 -7.184,-7.151 -19.684,-4.276 -22.97,4.11 z" id="path4038" />
         <path fill-rule="evenodd" clip-rule="evenodd" fill="#d6a675" d="m 434.427,229.886 c 5.383,-6.291 18.625,-9.794 23.519,3.131 -15.822,-5.967 -27.362,8.435 -21.283,25.712 l -5.205,7.322 c -5.989,-4.596 -7.462,-20.185 -5.831,-27.81 1.345,-6.27 4.315,-12.17 9.056,-16.433 2.229,-2 5.121,-3.682 8.315,-4.663 7.206,0.346 10.997,6.142 10.997,6.142 v 0.008 c -7.202,-3.726 -16.76,-0.587 -19.568,6.591 z" id="path4040" />
         <path fill-rule="evenodd" clip-rule="evenodd" fill="#ffffff" d="m 516.646,221.17 c 0.289,6.065 -2.551,11.224 -5.306,14.593 -0.761,0.936 -1.485,1.266 -2.336,1.78 -1.481,0.893 -3.349,1.774 -5.095,2.922 -1.971,1.298 -3.81,2.856 -5.314,3.666 -4.508,2.417 -11.491,2.051 -17.716,-0.462 -8.276,-3.355 -13.218,-9.75 -14.882,-16.307 6.195,-7.082 14.905,-12.219 24.627,-13.395 8.806,-1.071 18.079,0.932 26.022,7.203 z" id="path4042" />
         <path fill-rule="evenodd" clip-rule="evenodd" fill="#cdcccc" d="m 497.389,244.691 c -4.486,1.778 -10.82,1.277 -16.51,-1.021 -8.276,-3.355 -13.218,-9.75 -14.882,-16.307 2.675,-3.056 5.814,-5.743 9.3,-7.916 0.654,11.548 8.337,22.206 22.092,25.244 z" id="path4044" />
         <path fill-rule="evenodd" clip-rule="evenodd" fill="#ffffff" d="m 485.678,245.146 c -1.613,-0.348 -3.23,-0.842 -4.799,-1.477 -8.276,-3.355 -13.218,-9.75 -14.882,-16.307 0.486,-0.553 0.98,-1.09 1.493,-1.613 2.431,8.006 6.59,15.054 18.188,19.397 z" id="path4046" />
         <path fill-rule="evenodd" clip-rule="evenodd" fill="#ffffff" d="m 522.143,221.424 c 5.326,-4.649 13.477,-9.66 26.286,-9.721 7.731,-0.042 14.848,2.24 21.37,6.393 1.225,0.775 5.282,4.159 5.986,5.284 -4.204,11.141 -11.133,15.755 -15.723,17.69 -4.065,1.711 -7.589,2.277 -11.955,2.303 -4.505,0.037 -2.486,-1.691 -10.629,-5.031 -2.034,-0.833 -6.282,-1.819 -7.593,-2.722 -3.323,-2.278 -7.063,-8.436 -7.742,-14.196 z" id="path4048" />
         <path fill-rule="evenodd" clip-rule="evenodd" fill="#cdcccc" d="m 522.143,221.424 c 3.149,-2.745 7.279,-5.613 12.769,-7.524 -0.879,10.041 2.141,20.357 8.346,27.523 -1.078,-0.79 -2.706,-1.823 -5.778,-3.082 -2.034,-0.833 -6.282,-1.819 -7.593,-2.722 -3.325,-2.277 -7.065,-8.435 -7.744,-14.195 z" id="path4050" />
         <path fill-rule="evenodd" clip-rule="evenodd" fill="#ffffff" d="m 522.143,221.424 c 0.839,-0.732 1.754,-1.477 2.751,-2.209 0.545,6.228 2.819,12.138 6.425,17.088 -0.603,-0.234 -1.11,-0.46 -1.433,-0.684 -3.324,-2.277 -7.064,-8.435 -7.743,-14.195 z" id="path4052" />
         <path fill-rule="evenodd" clip-rule="evenodd" fill="#e8c6a3" d="m 581.363,236.691 c 11.296,-4.203 19.21,7.074 15.434,16.813 -0.684,1.766 -2.759,5.086 -4.459,5.707 -1.738,0.637 -3.301,-1.587 -5.9,-3.703 -3.666,-2.991 -7.527,-5.811 -12.094,-8.081 -0.98,-8.004 -1.159,-16.339 5.457,-22.282 2.002,-1.794 4.517,-3.001 7.475,-3.133 7.268,-0.321 13.339,5.038 16.272,9.227 3.666,5.218 6.319,12.805 5.899,20.833 -0.374,7.139 -4.081,14.195 -9.944,15.692 -1.843,-1.581 -3.503,-3.627 -4.988,-5.204 0.479,-0.673 0.964,-0.887 1.713,-1.691 4.61,-4.936 6.006,-12.291 3.654,-18.724 -2.373,-6.49 -9.859,-11.316 -18.214,-7.859 1.055,-8.997 13.392,-8.292 18.026,-3.399 -2.527,-4.333 -8.321,-6.269 -13.354,-4.928 -4.236,1.127 -7.157,4.143 -8.105,8.808 -0.741,3.68 0.691,2.827 3.128,1.924 z" id="path4054" />
         <path fill-rule="evenodd" clip-rule="evenodd" fill="#d6a675" d="m 581.363,236.691 c 11.296,-4.203 19.21,7.074 15.434,16.813 -0.684,1.766 -2.759,5.086 -4.459,5.707 -1.738,0.637 -3.301,-1.587 -5.9,-3.703 -3.666,-2.991 -7.527,-5.811 -12.094,-8.081 -0.98,-8.004 -1.159,-16.339 5.457,-22.282 2.002,-1.794 4.517,-3.001 7.475,-3.133 3.239,-0.143 6.246,0.846 8.838,2.352 -2.237,0.368 -4.089,0.864 -5.147,1.251 -1.538,-0.167 -3.12,-0.061 -4.626,0.344 -4.236,1.127 -7.157,4.143 -8.105,8.808 -0.742,3.68 0.69,2.827 3.127,1.924 z" id="path4056" />
         <path fill-rule="evenodd" clip-rule="evenodd" fill="#7b5221" d="m 519.481,227.521 c 1.367,3.538 3.361,6.38 4.554,7.762 -2.689,-0.303 -5.941,-0.024 -8.395,0.73 1.502,-2.056 2.466,-3.497 3.841,-8.492 z" id="path4058" />
         <path fill-rule="evenodd" clip-rule="evenodd" fill="#7b5221" d="m 569.429,244.986 -5.354,-1.984 c 2.209,-1.27 3.597,-2.472 5.363,-3.65 z" id="path4060" />
         <path fill-rule="evenodd" clip-rule="evenodd" fill="#e8c6a3" d="m 525.521,275.532 c -7.968,1.188 -16.468,-0.089 -22.563,-4.289 -17.586,-12.111 -2.445,-30.125 17.42,-32.169 31.863,-3.28 38.406,31.512 5.143,36.458 z" id="path4062" />
         <path fill-rule="evenodd" clip-rule="evenodd" fill="#ffead5" d="m 533.707,242.282 c 11.649,6.269 13.171,20.535 1.51,28.504 7.022,-8.484 5.037,-20.915 -1.51,-28.504 z" id="path4064" />
         <path fill-rule="evenodd" clip-rule="evenodd" fill="#d6a675" d="m 525.521,275.532 c -7.968,1.188 -16.468,-0.089 -22.563,-4.289 -17.586,-12.111 -2.445,-30.125 17.42,-32.169 0.944,-0.094 1.867,-0.155 2.771,-0.193 -8.874,3.778 -13.903,11.892 -13.533,19.191 0.456,8.932 8.924,16.661 23.445,15.623 -2.243,0.793 -4.749,1.422 -7.54,1.837 z" id="path4066" />
         <path fill-rule="evenodd" clip-rule="evenodd" fill="#ffead5" d="m 511.323,274.932 c -3.048,-0.771 -5.9,-1.99 -8.366,-3.688 -10.748,-7.403 -9.271,-17.015 -1.959,-23.828 -6.726,11.948 -0.445,21.958 10.325,27.516 z" id="path4068" />
         <path fill-rule="evenodd" clip-rule="evenodd" fill="#1a1a1a" d="m 491.847,234.291 c 11.167,-0.429 12.124,-18.012 -0.373,-17.497 -4.907,0.2 -7.843,3.101 -8.502,6.586 -0.958,5.041 2.533,11.15 8.875,10.911 z" id="path4070" />
         <path fill-rule="evenodd" clip-rule="evenodd" fill="#9a6f39" d="m 491.82,232.74 c 4.887,-0.185 7.397,-4.356 7.139,-8.161 -0.602,3.101 -3.015,5.915 -7.011,6.069 -4.411,0.167 -7.147,-3.403 -7.408,-7.023 l -0.026,0.136 c -0.783,4.149 2.082,9.182 7.306,8.979 z" id="path4072" />
         <path fill-rule="evenodd" clip-rule="evenodd" fill="#ffffff" d="m 496.402,224.269 c 4.256,-0.161 4.624,-6.862 -0.141,-6.669 -1.868,0.078 -2.991,1.187 -3.241,2.513 -0.365,1.922 0.965,4.251 3.382,4.156 z" id="path4074" />
         <path fill-rule="evenodd" clip-rule="evenodd" fill="#1a1a1a" d="m 548.156,231.839 c 11.174,-0.431 12.13,-18.014 -0.366,-17.501 -4.907,0.202 -7.854,3.107 -8.509,6.582 -0.956,5.039 2.528,11.157 8.875,10.919 z" id="path4076" />
         <path fill-rule="evenodd" clip-rule="evenodd" fill="#9a6f39" d="m 548.128,230.291 c 4.891,-0.189 7.401,-4.36 7.145,-8.167 -0.606,3.099 -3.019,5.915 -7.007,6.075 -4.419,0.163 -7.149,-3.414 -7.413,-7.029 l -0.029,0.138 c -0.782,4.143 2.087,9.184 7.304,8.983 z" id="path4078" />
         <path fill-rule="evenodd" clip-rule="evenodd" fill="#ffffff" d="m 552.709,221.815 c 4.261,-0.163 4.623,-6.858 -0.138,-6.663 -1.868,0.075 -2.991,1.18 -3.239,2.504 -0.362,1.921 0.964,4.252 3.377,4.159 z" id="path4080" />
         <path fill-rule="evenodd" clip-rule="evenodd" fill="#1a1a1a" d="m 464.324,185.045 c 9.871,-9.253 29.519,-10.783 43.333,-6.482 -13.55,-15.017 -38.672,-7.065 -43.333,6.482 z" id="path4082" />
         <path fill-rule="evenodd" clip-rule="evenodd" fill="#1a1a1a" d="m 527.636,179.393 c 11.072,-7.782 30.737,-6.559 43.815,-0.368 -11.32,-16.762 -37.308,-12.402 -43.815,0.368 z" id="path4084" />
         <path fill-rule="evenodd" clip-rule="evenodd" fill="#9a6f39" d="m 547.854,268.488 c 7.549,-9.208 2.45,-19.865 1.237,-21.678 3.577,0.015 7.02,-0.486 10.258,-1.819 11.679,4.269 24.162,10.854 35.417,23.944 8.057,9.373 13.318,20.811 13.09,33.889 -2.905,-3.717 -7.983,-6.706 -13.993,-7.778 2.616,13.277 6.096,39.087 -2.889,53.935 -0.606,-1.074 -2.653,-7.681 -9.066,-10.883 0.354,7.692 -14.412,37.616 -21.984,41.537 -0.163,-6.804 -2.454,-11.613 -4.383,-14.188 -6.152,10.386 -17.659,28.601 -31.669,28.452 -18.664,-0.197 -30.566,-22.668 -34.147,-25.71 -1.483,3.992 -1.404,9.857 -0.403,13.098 -6.022,-2.661 -25.72,-23.055 -30.76,-32.003 -1.536,3.325 -2.769,7.552 -3.43,12.132 -14.305,-16.18 -23.533,-51.839 -22.194,-67.926 -2.912,1.267 -4.295,2.844 -5.92,4.846 0.372,-13.214 4.958,-24.138 11,-32.636 8.311,-11.668 19.23,-19.542 33.146,-23.348 5.904,4.58 12.958,7.741 23.31,6.484 -3.789,5.874 -4.33,14.195 0.398,20.809 3.021,4.226 7.561,7.025 12.659,8.651 12.63,4.027 31.694,0.827 40.323,-9.808 z" id="path4086" />
         <path fill-rule="evenodd" clip-rule="evenodd" fill="#c8995e" d="m 635.604,250.705 c 10.229,21.218 9.578,51.093 -4.017,68.093 -1.647,-0.68 -3.345,-1.306 -5.069,-1.864 14.143,-18.878 14.436,-42.385 9.086,-66.229 z" id="path4088" />
         <path fill-rule="evenodd" clip-rule="evenodd" fill="#7b5221" d="m 512.023,390.695 c -11.884,-6.356 -19.552,-20.17 -22.298,-22.506 -1.483,3.992 -1.404,9.857 -0.403,13.098 -6.022,-2.661 -25.72,-23.055 -30.76,-32.003 -1.536,3.325 -2.769,7.552 -3.43,12.132 -14.305,-16.18 -23.533,-51.839 -22.194,-67.926 -2.912,1.267 -4.295,2.844 -5.92,4.846 0.372,-13.214 4.958,-24.138 11,-32.636 8.311,-11.668 19.23,-19.542 33.146,-23.348 5.904,4.58 12.958,7.741 23.31,6.484 -3.789,5.874 -4.33,14.195 0.398,20.809 3.021,4.226 7.561,7.025 12.659,8.651 11.23,3.577 27.567,1.446 37.105,-6.562 -11.04,23.062 -49.333,28.693 -75.302,10.289 -2.407,29.055 5.518,47.15 13.373,62.47 3.158,-7.827 7.062,-11.259 10.233,-14.388 -3.691,20.391 8.408,43.232 19.083,60.59 z" id="path4090" />
         <g id="g4100">
            <path fill-rule="evenodd" clip-rule="evenodd" fill="#1a1a1a" d="m 458.129,285.153 c 0.438,4.24 3.021,4.458 3.756,0.077 0.497,-2.936 2.382,-6.354 4.274,-7.141 5.137,24.392 24.131,54.645 56.813,51.898 30.294,-2.547 40.552,-33.663 43.494,-44.705 1.611,1.278 1.713,3.972 2.819,5.088 1.709,1.752 4.257,-0.049 2.963,-3.312 -2.315,-5.88 -5.908,-8.779 -12.021,-9.251 -1.803,-0.136 -3.426,0.108 -3.649,1.408 -0.432,2.549 3.247,1.003 6.746,3.386 -11.646,32.426 -83.618,31.25 -94.051,-6.393 1.223,-0.7 2.667,-1.109 3.898,-1.505 4.812,-1.565 2.679,-4.305 -1.105,-3.709 -3.042,0.476 -6.48,1.753 -9.302,4.358 -2.784,2.577 -4.975,6.473 -4.635,9.801 z" id="path4092" />
            <path fill-rule="evenodd" clip-rule="evenodd" fill="#cc4847" d="m 496.954,317.274 c 9.5,6.984 29.206,13.271 44.387,-0.592 -8.765,-7.988 -27.959,-8.692 -44.387,0.592 z" id="path4094" />
            <path fill-rule="evenodd" clip-rule="evenodd" fill="#b33535" d="m 496.954,317.274 c 4.195,3.086 10.398,6.037 17.32,7.169 -4.806,-7.147 5.709,-12.544 15.926,-13.092 -9.592,-2.085 -22.058,-0.398 -33.246,5.923 z" id="path4096" />
            <path fill-rule="evenodd" clip-rule="evenodd" fill="#ec8080" d="m 533.78,321.857 c 1.696,-0.824 3.356,-1.833 4.988,-3.045 -6.368,-5.426 -14.245,-6.976 -22.335,-5.912 7.501,0.921 13.836,4.718 17.347,8.957 z" id="path4098" />
         </g>
         <path fill-rule="evenodd" clip-rule="evenodd" fill="#c8995e" d="m 571.752,250.481 c 7.821,4.161 15.683,9.931 23.015,18.455 8.057,9.373 13.318,20.811 13.09,33.889 -2.905,-3.717 -7.983,-6.706 -13.993,-7.778 2.616,13.277 6.096,39.087 -2.889,53.935 -0.313,-0.556 -1.025,-2.621 -2.543,-4.926 7.3,-17.364 3.356,-42.798 -4.623,-58.132 5.863,0.128 10.95,1.329 15.056,3.875 -4.217,-16.181 -13.058,-27.166 -27.113,-39.318 z m 8.545,95.081 c -6.485,12.274 -14.57,23.816 -20.898,29.102 0.289,1.516 0.484,3.176 0.525,4.972 5.961,-3.087 16.386,-22.284 20.373,-34.074 z" id="path4102" />
         <path fill-rule="evenodd" clip-rule="evenodd" fill="#ffead5" d="m 651.024,470.238 c 0.244,2.026 0.497,4.108 0.745,6.267 0.207,2.236 -0.041,2.775 1.062,3.875 10.604,10.547 31.601,14.185 44.194,6.36 -23.23,5.406 -36.328,-4.64 -46.001,-16.502 z" id="path4104" />
         <path fill-rule="evenodd" clip-rule="evenodd" fill="#d6a675" d="m 672.403,293.082 c 3.32,-2.508 6.259,-3.937 9.953,-4.854 l -6.181,-15.625 c -5.541,3.008 -8.146,11.266 -3.772,20.479 z" id="path4106" />
      </g>
   </g>

</svg>
