<svg xmlns="http://www.w3.org/2000/svg" width="256" height="256"><defs/><path fill="#0c3759" d="M34.309 217.946c-5.572 0-6.463-2.707-1.98-6.016l91.048-67.193c4.484-3.309 12.71-6.016 18.283-6.016h101.895c5.572 0 10.131 4.56 10.131 10.131v58.963c0 5.572-4.559 10.131-10.131 10.131z"/><path fill="#759fd5" d="M221.692 38.054c5.572 0 6.463 2.707 1.98 6.016l-91.048 67.191c-4.483 3.309-12.71 6.016-18.282 6.016H12.445c-5.572 0-10.131-4.56-10.131-10.131V48.185c0-5.572 4.559-10.131 10.131-10.131z"/><path fill="#d0d0d0" d="M85.285 138.721c5.572 0 6.462 2.707 1.98 6.016l-76.8 56.676c-4.482 3.309-8.15 1.457-8.15-4.115v-48.446c0-5.572 4.558-10.13 10.13-10.13zM245.534 54.586c4.483-3.309 8.152-1.457 8.152 4.115v48.445c0 5.572-4.559 10.131-10.131 10.131h-72.838c-5.572 0-6.463-2.707-1.98-6.015z"/></svg>