<svg xmlns="http://www.w3.org/2000/svg" width="906.667" height="111.574"><defs/><defs><clipPath id="a" clipPathUnits="userSpaceOnUse"><path d="M0 1000h1000V0H0z"/></clipPath></defs><g clip-path="url(#a)" transform="matrix(1.33333 0 0 -1.33333 -213.333 735.306)"><path fill="#0c3759" d="M174.883 467.799c-2.592 0-3.006 1.259-.921 2.798l42.353 31.257c2.086 1.539 5.913 2.798 8.505 2.798h47.398a4.726 4.726 0 004.712-4.713v-27.427a4.726 4.726 0 00-4.712-4.713z"/><path fill="#759fd5" d="M262.048 551.48c2.592 0 3.006-1.26.92-2.799l-42.351-31.256c-2.086-1.539-5.913-2.798-8.505-2.798h-47.4A4.727 4.727 0 00160 519.34v27.426a4.727 4.727 0 004.713 4.713z"/><path fill="#d0d0d0" d="M198.595 504.652c2.592 0 3.006-1.259.921-2.798l-35.725-26.365c-2.085-1.539-3.79-.677-3.79 1.915v22.535a4.726 4.726 0 004.711 4.713zM273.139 543.79c2.086 1.538 3.792.677 3.792-1.915V519.34a4.727 4.727 0 00-4.713-4.713h-33.883c-2.592 0-3.006 1.26-.92 2.798z"/><path fill="#0c3759" d="M336.63 524.966c-1.959 0-3.564-.424-4.818-1.275-1.255-.85-1.882-2.134-1.882-3.853 0-1.721.627-3.035 1.882-3.946 1.254-.91 3.923-1.892 8.01-2.944 4.084-1.053 7.163-2.53 9.235-4.432 2.071-1.901 3.107-4.704 3.107-8.407 0-3.702-1.31-6.707-3.933-9.013-2.623-2.307-6.063-3.46-10.319-3.46-6.234 0-11.764 2.285-16.59 6.859l4.218 5.403c4.028-3.724 8.21-5.586 12.543-5.586 2.166 0 3.885.496 5.16 1.488 1.272.99 1.91 2.306 1.91 3.946 0 1.638-.6 2.914-1.797 3.824-1.198.91-3.259 1.739-6.186 2.488-2.927.748-5.15 1.437-6.67 2.064a14.874 14.874 0 00-4.048 2.458c-2.356 1.9-3.534 4.815-3.534 8.74s1.34 6.952 4.02 9.076c2.68 2.124 5.994 3.186 9.947 3.186 2.546 0 5.074-.445 7.583-1.334 2.508-.891 4.674-2.146 6.5-3.764l-3.592-5.403c-1.179 1.132-2.776 2.064-4.79 2.792-2.014.73-4 1.093-5.957 1.093M376.108 523.995v-35.873h-6.727v35.873h-12.086v6.555h30.899v-6.555zM476.422 530.55h6.727v-42.428h-2.309l-27.564 29.056v-29.056h-6.727v42.428l2.384.03 27.49-28.237zM522.771 530.55v-6.738h-21.264v-11.229h19.097v-6.373h-19.097v-11.35h21.948v-6.738H494.78v42.428z"/><path fill="#759fd5" d="M542.49 503.175h19.042l-9.578 21.088zm25.313-15.053l-4.733 11.29h-22.12l-4.674-11.29h-4.22l19.014 42.428h1.996l19.012-42.428zM622.742 530.611h4.162l-14.41-42.489h-1.996l-12.44 32.54-12.209-32.54h-1.996l-14.643 42.489h4.275l11.346-34.946 12.228 33.39h1.996l12.4-33.39zM634.088 530.55h26.68v-3.763h-22.746v-15.175h20.352v-3.763h-20.352v-15.964h23.488v-3.763h-27.422zM688.475 526.15c-1.94.587-3.763.88-5.473.88-2.737 0-4.932-.576-6.585-1.73-1.653-1.153-2.48-2.722-2.48-4.704 0-1.74.457-3.157 1.369-4.249a9.7 9.7 0 013.363-2.58c1.33-.627 3.155-1.325 5.473-2.094 2.698-.85 4.875-1.69 6.528-2.519 1.653-.83 3.059-2.033 4.218-3.611 1.159-1.579 1.739-3.663 1.739-6.253 0-2.266-.598-4.269-1.796-6.008-1.197-1.74-2.878-3.087-5.045-4.037-2.166-.952-4.656-1.427-7.468-1.427-2.775 0-5.483.586-8.124 1.76-2.642 1.173-4.913 2.733-6.812 4.675l1.823 3.459a19.62 19.62 0 016.215-4.371c2.356-1.052 4.674-1.578 6.955-1.578 3.04 0 5.453.659 7.24 1.973 1.786 1.315 2.68 3.086 2.68 5.311 0 1.781-.456 3.237-1.368 4.371a9.14 9.14 0 01-3.364 2.61c-1.331.606-3.193 1.315-5.587 2.125-2.7.889-4.865 1.729-6.5 2.518-1.634.789-3.021 1.962-4.161 3.522-1.141 1.556-1.711 3.59-1.711 6.099 0 2.145.57 4.027 1.71 5.645 1.14 1.619 2.738 2.862 4.79 3.733 2.052.87 4.427 1.306 7.126 1.306 2.166 0 4.34-.345 6.528-1.032 2.185-.689 4.113-1.599 5.786-2.732l-1.71-3.58a20.056 20.056 0 01-5.36 2.518M812.578 530.55h26.681v-3.763h-22.747v-15.175h20.352v-3.763h-20.352v-15.964H840v-3.763h-27.422zM779.87 497.968h.463l15.328 25.125 5.407-34.76h3.705L798.548 531h-1.996l-17.278-27.432-16.928 27.432h-1.996l-6.226-42.665h3.706l5.407 34.759 15.25-25.125z"/><path fill="#0c3759" d="M425.756 520.693c-2.936 3.038-6.538 4.558-10.808 4.558s-7.873-1.52-10.808-4.558c-2.936-3.04-4.403-6.723-4.403-11.054 0-4.332 1.467-8.016 4.403-11.055 2.935-3.038 6.538-4.557 10.808-4.557s7.872 1.519 10.808 4.557c2.935 3.039 4.403 6.723 4.403 11.055 0 4.33-1.468 8.015-4.403 11.054m5.327-26.943c-4.352-4.25-9.73-6.373-16.135-6.373-6.405 0-11.783 2.123-16.135 6.373-4.352 4.25-6.528 9.545-6.528 15.889 0 6.343 2.176 11.639 6.528 15.889 4.352 4.249 9.73 6.374 16.135 6.374 6.405 0 11.783-2.125 16.135-6.374 4.352-4.25 6.528-9.546 6.528-15.89 0-6.343-2.176-11.638-6.528-15.888"/><path fill="#759fd5" d="M716.389 525.01a18.107 18.107 0 01-6.651-6.528c-1.642-2.752-2.464-5.77-2.464-9.053 0-3.285.822-6.323 2.464-9.114a18.198 18.198 0 016.65-6.622c2.792-1.622 5.83-2.431 9.116-2.431 3.242 0 6.25.809 9.02 2.43 2.772 1.624 4.98 3.83 6.622 6.623 1.642 2.79 2.463 5.829 2.463 9.114 0 3.284-.821 6.3-2.463 9.053a18.192 18.192 0 01-6.621 6.528c-2.77 1.6-5.78 2.4-9.021 2.4-3.286 0-6.324-.8-9.115-2.4m20.354 3.294c3.427-1.951 6.148-4.587 8.159-7.914 2.012-3.325 3.017-6.98 3.017-10.961 0-3.983-1.005-7.658-3.017-11.024-2.011-3.367-4.732-6.036-8.16-8.006-3.427-1.97-7.195-2.957-11.3-2.957-4.106 0-7.873.987-11.3 2.957-3.43 1.97-6.15 4.639-8.161 8.006-2.011 3.366-3.017 7.04-3.017 11.024 0 3.982 1.006 7.636 3.017 10.96 2.01 3.328 4.732 5.964 8.16 7.915 3.428 1.95 7.195 2.926 11.3 2.926 4.106 0 7.874-.976 11.302-2.926"/></g></svg>