<svg xmlns="http://www.w3.org/2000/svg" width="906.666" height="441.695"><defs/><defs><clipPath id="a" clipPathUnits="userSpaceOnUse"><path d="M0 1000h1000V0H0z"/></clipPath></defs><g clip-path="url(#a)" transform="matrix(1.33333 0 0 -1.33333 -213.333 885.825)"><path fill="#0c3759" d="M180.068 382.378c-2.568 0-4.672-.556-6.316-1.672-1.645-1.114-2.467-2.798-2.467-5.051 0-2.256.822-3.98 2.467-5.173 1.644-1.194 5.144-2.481 10.502-3.86 5.355-1.381 9.391-3.316 12.108-5.81 2.715-2.493 4.073-6.168 4.073-11.022s-1.719-8.793-5.157-11.816c-3.438-3.025-7.949-4.536-13.528-4.536-8.173 0-15.423 2.995-21.75 8.991l5.531 7.084c5.28-4.882 10.762-7.323 16.443-7.323 2.839 0 5.094.65 6.764 1.951 1.669 1.299 2.504 3.023 2.504 5.173 0 2.148-.785 3.82-2.355 5.013-1.57 1.194-4.273 2.28-8.11 3.262-3.836.981-6.752 1.883-8.744 2.706-1.993.821-3.762 1.897-5.307 3.223-3.089 2.492-4.634 6.312-4.634 11.459 0 5.145 1.757 9.113 5.27 11.898 3.513 2.784 7.859 4.177 13.042 4.177 3.337 0 6.652-.584 9.941-1.75 3.288-1.167 6.129-2.813 8.521-4.933l-4.709-7.084c-1.545 1.484-3.639 2.706-6.279 3.66-2.641.957-5.244 1.433-7.81 1.433M231.825 381.105v-47.031h-8.819v47.03h-15.845v8.595h40.51v-8.594zM363.34 389.699h8.819v-55.625h-3.027l-36.137 38.094v-38.094h-8.82v55.625l3.126.038 36.039-37.018zM424.105 389.699v-8.833h-27.878v-14.722h25.037v-8.355h-25.037v-14.881h28.775v-8.834h-37.595v55.625z"/><path fill="#759fd5" d="M449.957 353.81h24.964l-12.557 27.646zm33.186-19.736l-6.205 14.801h-29l-6.128-14.8h-5.531l24.927 55.624h2.616l24.926-55.625zM555.17 389.779h5.457l-18.893-55.705h-2.617l-16.31 42.66-16.006-42.66h-2.616l-19.198 55.705h5.605l14.874-45.815 16.032 43.775h2.617l16.256-43.775zM570.044 389.699h34.979v-4.934H575.2v-19.894h26.683v-4.934H575.2v-20.929h30.793v-4.934h-35.95zM641.347 383.93c-2.542.77-4.933 1.154-7.176 1.154-3.587 0-6.465-.755-8.632-2.268-2.168-1.512-3.251-3.569-3.251-6.167 0-2.282.598-4.139 1.794-5.572 1.195-1.432 2.665-2.56 4.409-3.38 1.744-.824 4.136-1.739 7.176-2.747 3.537-1.114 6.39-2.216 8.557-3.302 2.168-1.088 4.01-2.666 5.53-4.734 1.52-2.07 2.28-4.803 2.28-8.198 0-2.97-.783-5.597-2.354-7.877-1.57-2.282-3.774-4.047-6.614-5.293-2.84-1.247-6.104-1.87-9.791-1.87-3.638 0-7.188.768-10.651 2.307-3.463 1.538-6.44 3.583-8.931 6.13l2.39 4.534a25.733 25.733 0 018.148-5.73c3.089-1.379 6.129-2.069 9.119-2.069 3.986 0 7.149.863 9.492 2.587 2.34 1.723 3.513 4.045 3.513 6.962 0 2.335-.598 4.244-1.794 5.731a11.96 11.96 0 01-4.41 3.421c-1.745.795-4.185 1.724-7.325 2.786-3.54 1.166-6.378 2.268-8.52 3.302-2.143 1.034-3.962 2.572-5.456 4.617-1.495 2.04-2.243 4.706-2.243 7.996 0 2.812.748 5.28 2.243 7.401 1.494 2.122 3.588 3.752 6.278 4.894 2.69 1.14 5.804 1.712 9.342 1.712 2.84 0 5.692-.453 8.559-1.353 2.864-.903 5.393-2.097 7.586-3.58l-2.242-4.696a26.272 26.272 0 01-7.026 3.302M804.05 389.699h34.979v-4.934h-29.822v-19.894h26.683v-4.934h-26.683v-20.929H840v-4.934h-35.95zM761.169 346.413h.606l20.095 32.776 7.088-45.732h4.859l-8.162 56.684h-2.617l-22.652-35.964-22.193 35.964h-2.617l-8.162-56.684h4.859l7.088 45.732 19.994-32.776z"/><path fill="#0c3759" d="M296.916 376.776c-3.85 3.983-8.572 5.976-14.17 5.976-5.598 0-10.322-1.993-14.17-5.976-3.848-3.984-5.772-8.814-5.772-14.492 0-5.68 1.924-10.51 5.773-14.494 3.847-3.982 8.57-5.973 14.17-5.973 5.597 0 10.32 1.99 14.169 5.973 3.848 3.985 5.773 8.814 5.773 14.494 0 5.678-1.925 10.508-5.773 14.492m6.984-35.323c-5.706-5.571-12.757-8.355-21.153-8.355-8.397 0-15.45 2.784-21.154 8.355-5.706 5.572-8.558 12.514-8.558 20.83 0 8.316 2.852 15.26 8.558 20.832 5.705 5.57 12.757 8.356 21.154 8.356 8.396 0 15.447-2.786 21.153-8.356 5.705-5.571 8.559-12.516 8.559-20.831 0-8.317-2.854-15.26-8.56-20.831"/><path fill="#759fd5" d="M677.943 382.435c-3.662-2.1-6.567-4.953-8.72-8.559-2.153-3.607-3.23-7.563-3.23-11.868 0-4.307 1.077-8.29 3.23-11.949 2.153-3.662 5.058-6.554 8.72-8.68 3.66-2.127 7.642-3.189 11.95-3.189 4.25 0 8.195 1.062 11.827 3.188 3.633 2.127 6.527 5.02 8.68 8.681 2.152 3.66 3.229 7.642 3.229 11.95 0 4.304-1.077 8.26-3.228 11.867-2.154 3.606-5.048 6.46-8.681 8.56-3.632 2.097-7.576 3.146-11.827 3.146-4.308 0-8.29-1.049-11.95-3.147m26.685 4.32c4.493-2.559 8.06-6.015 10.697-10.377 2.637-4.359 3.955-9.15 3.955-14.37 0-5.222-1.318-10.039-3.955-14.453s-6.204-7.913-10.697-10.496c-4.495-2.583-9.434-3.876-14.817-3.876-5.382 0-10.321 1.293-14.814 3.876-4.495 2.583-8.062 6.082-10.7 10.496-2.636 4.414-3.954 9.231-3.954 14.453 0 5.22 1.318 10.011 3.955 14.37 2.637 4.362 6.204 7.818 10.699 10.376 4.493 2.556 9.432 3.836 14.814 3.836 5.383 0 10.322-1.28 14.817-3.836"/><path fill="#0c3759" d="M385.37 444.274c-6.817 0-7.907 3.312-2.422 7.36l111.396 82.21c5.486 4.048 15.551 7.36 22.37 7.36h124.665c6.818 0 12.396-5.578 12.396-12.395v-72.14c0-6.817-5.578-12.395-12.396-12.395z"/><path fill="#759fd5" d="M614.63 664.369c6.818 0 7.908-3.312 2.423-7.36l-111.395-82.208c-5.485-4.048-15.551-7.36-22.368-7.36H358.62c-6.817 0-12.395 5.578-12.395 12.395v72.138c0 6.817 5.578 12.395 12.396 12.395z"/><path fill="#d0d0d0" d="M447.739 541.204c6.817 0 7.907-3.312 2.422-7.36l-93.962-69.343c-5.485-4.048-9.973-1.782-9.973 5.035v59.273c0 6.817 5.577 12.395 12.395 12.395zM643.802 644.143c5.485 4.048 9.973 1.782 9.973-5.035v-59.272c0-6.817-5.577-12.395-12.395-12.395h-89.116c-6.817 0-7.907 3.312-2.422 7.36z"/></g></svg>